<svg xmlns="http://www.w3.org/2000/svg" width="1168" height="584" viewBox="0 0 1168 584">
  <filter id="dropShadow">
    <feGaussianBlur in="SourceAlpha" stdDeviation="18" />
    <feOffset dx="0" dy="15" result="offsetblur" />
    <feFlood flood-color="rgba(0,0,0,0.34)"/>
    <feComposite in2="offsetblur" operator="in"/>
    <feMerge>
        <feMergeNode />
        <feMergeNode in="SourceGraphic" />
    </feMerge>
  </filter>
  <path d="M71.27 251.266h96.39c33.448 0 49.868-13.045 49.868-44.294v-26.09c0-18.204-6.994-30.946-23.414-35.193 16.42-4.556 23.414-17.298 23.414-35.198v-22.45c0-31.25-16.42-44.294-49.868-44.294H71.27v207.514zm30.71-119.23v-60.07h61.424c18.244 0 23.413 6.37 23.413 21.54v16.384c0 15.17-5.17 22.147-23.413 22.147H101.98zm0 90.712v-63.104h61.424c18.244 0 23.413 6.37 23.413 21.54v20.024c0 15.17-5.17 21.54-23.413 21.54H101.98zm555.77 28.518h146.258v-28.518h-57.774V71.966h54.43V43.75H661.397v28.215h54.125v150.782H657.75v28.52zm-140.573 288v-28.518H399.805V331.75h-30.71v207.516h148.082zm584.913-163.22c0-30.946-16.42-44.295-49.87-44.295h-95.478v207.52h30.71v-86.16h64.768c33.448 0 49.868-13.35 49.868-44.294V376.05zm-30.712 26.394c0 15.17-5.17 23.057-23.414 23.057h-60.51v-65.53h60.51c18.244 0 23.414 6.37 23.414 21.54v20.933z" fill="#FFF" filter="url(#dropShadow)"/>
  <path d="M806.136 331.75h-30.71v157.457c0 15.17-4.866 21.54-23.11 21.54H710.05c-18.853 0-23.717-6.37-23.717-21.54V331.75h-30.71v163.222c0 31.25 16.42 44.294 49.867 44.294h50.78c33.448 0 49.868-13.045 49.868-44.294v-163.22zM1102.09 88.045c0-30.945-16.42-44.294-49.87-44.294h-95.478v207.52h30.71v-86.16h64.768c33.448 0 49.868-13.35 49.868-44.294v-32.77zm-30.712 26.395c0 15.17-5.17 23.057-23.414 23.057h-60.51v-65.53h60.51c18.244 0 23.414 6.37 23.414 21.54v20.933zM71.27 539.266h96.39c33.448 0 49.868-13.045 49.868-44.294v-26.09c0-18.204-6.994-30.946-23.414-35.193 16.42-4.556 23.414-17.298 23.414-35.198v-22.45c0-31.25-16.42-44.294-49.868-44.294H71.27v207.514zm30.71-119.23v-60.07h61.424c18.244 0 23.413 6.37 23.413 21.54v16.384c0 15.17-5.17 22.147-23.413 22.147H101.98zm0 90.712v-63.104h61.424c18.244 0 23.413 6.37 23.413 21.54v20.024c0 15.17-5.17 21.54-23.413 21.54H101.98zm415.197-259.482v-28.518H399.805V43.75h-30.71v207.516h148.082z" fill="#CCC" filter="url(#dropShadow)"/>
</svg>
