<svg id="Layer_1" xmlns="http://www.w3.org/2000/svg" viewBox="0 0 1168 584"><style>.st0{fill:#FFFFFF;} .st1{opacity:0.65;fill:#FFFFFF;}</style><path class="st0" d="M71.3 251.3h96.4c33.4 0 49.9-13 49.9-44.3v-26.1c0-18.2-7-30.9-23.4-35.2 16.4-4.6 23.4-17.3 23.4-35.2V88c0-31.2-16.4-44.3-49.9-44.3H71.3v207.6zM102 132V72h61.4c18.2 0 23.4 6.4 23.4 21.5v16.4c0 15.2-5.2 22.1-23.4 22.1H102zm0 90.7v-63.1h61.4c18.2 0 23.4 6.4 23.4 21.5v20c0 15.2-5.2 21.5-23.4 21.5 0 .1-61.4.1-61.4.1zm555.8 28.6H804v-28.5h-57.8V72h54.4V43.8H661.4V72h54.1v150.8h-57.8l.1 28.5zm-140.6 288v-28.5H399.8v-179h-30.7v207.5h148.1zM1102.1 376c0-30.9-16.4-44.3-49.9-44.3h-95.5v207.5h30.7V453h64.8c33.4 0 49.9-13.4 49.9-44.3V376zm-30.7 26.4c0 15.2-5.2 23.1-23.4 23.1h-60.5V360h60.5c18.2 0 23.4 6.4 23.4 21.5v20.9z"/><path class="st1" d="M806.1 331.8h-30.7v157.5c0 15.2-4.9 21.5-23.1 21.5H710c-18.9 0-23.7-6.4-23.7-21.5V331.8h-30.7V495c0 31.2 16.4 44.3 49.9 44.3h50.8c33.4 0 49.9-13 49.9-44.3l-.1-163.2zm296-243.8c0-30.9-16.4-44.3-49.9-44.3h-95.5v207.5h30.7V165h64.8c33.4 0 49.9-13.4 49.9-44.3V88zm-30.7 26.4c0 15.2-5.2 23.1-23.4 23.1h-60.5V72h60.5c18.2 0 23.4 6.4 23.4 21.5v20.9zM71.3 539.3h96.4c33.4 0 49.9-13 49.9-44.3v-26.1c0-18.2-7-30.9-23.4-35.2 16.4-4.6 23.4-17.3 23.4-35.2V376c0-31.2-16.4-44.3-49.9-44.3H71.3v207.6zM102 420v-60h61.4c18.2 0 23.4 6.4 23.4 21.5v16.4c0 15.2-5.2 22.1-23.4 22.1H102zm0 90.7v-63.1h61.4c18.2 0 23.4 6.4 23.4 21.5v20c0 15.2-5.2 21.5-23.4 21.5 0 .1-61.4.1-61.4.1zm415.2-259.4v-28.5H399.8v-179h-30.7v207.5h148.1z"/></svg>
