<?xml version="1.0" encoding="UTF-8" standalone="no"?>
<svg width="24px" height="24px" viewBox="0 0 24 24" version="1.1" xmlns="http://www.w3.org/2000/svg" xmlns:xlink="http://www.w3.org/1999/xlink">
    <!-- Generator: Sketch 41 (35326) - http://www.bohemiancoding.com/sketch -->
    <title>Facebook</title>
    <desc>Created with Sketch.</desc>
    <defs></defs>
    <g id="Page-1" stroke="none" stroke-width="1" fill="none" fill-rule="evenodd">
        <g id="Desktop-HD-Copy" transform="translate(-874.000000, -1126.000000)" fill="#313C5D">
            <path d="M886.819178,1150 L875.324616,1150 C874.592836,1150 874,1149.4068 874,1148.6753 L874,1127.32461 C874,1126.59292 874.592929,1126 875.324616,1126 L896.675477,1126 C897.406977,1126 898,1126.59292 898,1127.32461 L898,1148.6753 C898,1149.40689 897.406884,1150 896.675477,1150 L890.559653,1150 L890.559653,1140.70588 L893.679261,1140.70588 L894.146378,1137.08379 L890.559653,1137.08379 L890.559653,1134.77132 C890.559653,1133.72264 890.850856,1133.008 892.354645,1133.008 L894.272656,1133.00717 L894.272656,1129.76755 C893.940943,1129.7234 892.802392,1129.62479 891.477776,1129.62479 C888.712417,1129.62479 886.819178,1131.31276 886.819178,1134.4126 L886.819178,1137.08379 L883.691561,1137.08379 L883.691561,1140.70588 L886.819178,1140.70588 L886.819178,1150 L886.819178,1150 Z" id="Facebook"></path>
        </g>
    </g>
</svg>