<?xml version="1.0" encoding="UTF-8" standalone="no"?>
<svg width="24px" height="24px" viewBox="0 0 24 24" version="1.1" xmlns="http://www.w3.org/2000/svg" xmlns:xlink="http://www.w3.org/1999/xlink">
    <!-- Generator: Sketch 41 (35326) - http://www.bohemiancoding.com/sketch -->
    <title>Instagram</title>
    <desc>Created with Sketch.</desc>
    <defs></defs>
    <g id="Page-1" stroke="none" stroke-width="1" fill="none" fill-rule="evenodd">
        <g id="Desktop-HD-Copy" transform="translate(-759.000000, -1126.000000)" fill="#313C5D">
            <path d="M771.000024,1126 C767.740996,1126 767.332343,1126.01381 766.052415,1126.07221 C764.775155,1126.13047 763.902832,1126.33334 763.139544,1126.63001 C762.350438,1126.93663 761.681227,1127.34695 761.014064,1128.01406 C760.346949,1128.68123 759.936629,1129.35044 759.630008,1130.13954 C759.333343,1130.90283 759.13047,1131.77516 759.072213,1133.05242 C759.013814,1134.33234 759,1134.741 759,1138.00002 C759,1141.259 759.013814,1141.66766 759.072213,1142.94758 C759.13047,1144.22484 759.333343,1145.09717 759.630008,1145.86046 C759.936629,1146.64956 760.346949,1147.31877 761.014064,1147.98594 C761.681227,1148.65305 762.350438,1149.06337 763.139544,1149.37004 C763.902832,1149.66666 764.775155,1149.86953 766.052415,1149.92779 C767.332343,1149.98619 767.740996,1150 771.000024,1150 C774.259004,1150 774.667657,1149.98619 775.947585,1149.92779 C777.224845,1149.86953 778.097168,1149.66666 778.860456,1149.37004 C779.649562,1149.06337 780.318773,1148.65305 780.985936,1147.98594 C781.653051,1147.31877 782.063371,1146.64956 782.370039,1145.86046 C782.666657,1145.09717 782.86953,1144.22484 782.927787,1142.94758 C782.986186,1141.66766 783,1141.259 783,1138.00002 C783,1134.741 782.986186,1134.33234 782.927787,1133.05242 C782.86953,1131.77516 782.666657,1130.90283 782.370039,1130.13954 C782.063371,1129.35044 781.653051,1128.68123 780.985936,1128.01406 C780.318773,1127.34695 779.649562,1126.93663 778.860456,1126.63001 C778.097168,1126.33334 777.224845,1126.13047 775.947585,1126.07221 C774.667657,1126.01381 774.259004,1126 771.000024,1126 Z M771.000024,1128.16216 C774.20413,1128.16216 774.583678,1128.1744 775.84903,1128.23213 C777.019018,1128.28548 777.654409,1128.48097 778.077257,1128.64531 C778.637386,1128.863 779.037131,1129.12303 779.457025,1129.54297 C779.876967,1129.96287 780.137002,1130.36261 780.354689,1130.92274 C780.519027,1131.34559 780.714517,1131.98098 780.767867,1133.15097 C780.8256,1134.41632 780.837842,1134.79587 780.837842,1138.00002 C780.837842,1141.20413 780.8256,1141.58368 780.767867,1142.84903 C780.714517,1144.01902 780.519027,1144.65441 780.354689,1145.07726 C780.137002,1145.63739 779.876967,1146.03713 779.457025,1146.45703 C779.037131,1146.87697 778.637386,1147.137 778.077257,1147.35469 C777.654409,1147.51903 777.019018,1147.71452 775.84903,1147.76787 C774.583869,1147.8256 774.204368,1147.83784 771.000024,1147.83784 C767.795632,1147.83784 767.416179,1147.8256 766.15097,1147.76787 C764.980982,1147.71452 764.345591,1147.51903 763.922743,1147.35469 C763.362614,1147.137 762.962869,1146.87697 762.542975,1146.45703 C762.12308,1146.03713 761.862998,1145.63739 761.645311,1145.07726 C761.480973,1144.65441 761.285483,1144.01902 761.232133,1142.84903 C761.1744,1141.58368 761.162158,1141.20413 761.162158,1138.00002 C761.162158,1134.79587 761.1744,1134.41632 761.232133,1133.15097 C761.285483,1131.98098 761.480973,1131.34559 761.645311,1130.92274 C761.862998,1130.36261 762.123033,1129.96287 762.542975,1129.54297 C762.962869,1129.12303 763.362614,1128.863 763.922743,1128.64531 C764.345591,1128.48097 764.980982,1128.28548 766.15097,1128.23213 C767.416322,1128.1744 767.79587,1128.16216 771.000024,1128.16216 Z M771.000024,1131.83784 C767.596712,1131.83784 764.837842,1134.59671 764.837842,1138.00002 C764.837842,1141.40329 767.596712,1144.16216 771.000024,1144.16216 C774.403288,1144.16216 777.162158,1141.40329 777.162158,1138.00002 C777.162158,1134.59671 774.403288,1131.83784 771.000024,1131.83784 Z M771.000024,1142 C768.790851,1142 767,1140.20915 767,1138.00002 C767,1135.79085 768.790851,1134 771.000024,1134 C773.209149,1134 775,1135.79085 775,1138.00002 C775,1140.20915 773.209149,1142 771.000024,1142 Z M778.845642,1131.59438 C778.845642,1132.38968 778.200915,1133.03436 777.405616,1133.03436 C776.610365,1133.03436 775.965638,1132.38968 775.965638,1131.59438 C775.965638,1130.79909 776.610365,1130.15436 777.405616,1130.15436 C778.200915,1130.15436 778.845642,1130.79909 778.845642,1131.59438 Z" id="Instagram"></path>
        </g>
    </g>
</svg>