<svg width="24" height="24" viewBox="0 0 24 24" xmlns="http://www.w3.org/2000/svg">
  <title>
    Instagram
  </title>
  <path d="M12 0C8.74 0 8.33 0 7.05.07 5.78.13 4.9.33 4.15.63 3.35.93 2.67 1.35 2 2 1.36 2.7.95 3.36.64 4.15c-.3.76-.5 1.64-.56 2.9C0 8.35 0 8.75 0 12s0 3.67.07 4.95c.06 1.27.26 2.15.56 2.9.3.8.72 1.47 1.38 2.14.7.62 1.38 1.03 2.17 1.34.76.3 1.64.5 2.9.56 1.3.07 1.7.08 4.96.08s3.68 0 4.96-.08c1.26-.06 2.14-.26 2.9-.56.8-.3 1.46-.72 2.13-1.38.65-.68 1.06-1.35 1.37-2.14.3-.76.5-1.64.55-2.9.06-1.3.07-1.7.07-4.96s0-3.67-.07-4.95c-.06-1.25-.26-2.13-.56-2.9-.3-.8-.74-1.45-1.4-2.12C21.3 1.3 20.65.9 19.86.6c-.76-.3-1.64-.5-2.9-.57C15.67 0 15.27 0 12 0zm0 2.16c3.2 0 3.58 0 4.85.07 1.17.06 1.8.25 2.23.42.56.2.96.47 1.38.9.42.4.68.8.9 1.37.16.43.35 1.06.4 2.23.07 1.27.08 1.65.08 4.85 0 3.2 0 3.58-.07 4.85-.06 1.17-.25 1.8-.42 2.23-.2.56-.47.96-.9 1.38-.4.42-.8.68-1.37.9-.43.16-1.06.35-2.23.4-1.27.07-1.65.08-4.85.08-3.2 0-3.58 0-4.85-.07-1.17-.06-1.8-.25-2.23-.42-.56-.2-.96-.47-1.38-.9-.42-.4-.68-.8-.9-1.37-.16-.43-.35-1.06-.4-2.23-.07-1.27-.08-1.65-.08-4.85 0-3.2 0-3.58.07-4.85.06-1.17.25-1.8.42-2.23.2-.56.47-.96.9-1.38.4-.42.8-.68 1.37-.9.43-.16 1.06-.35 2.23-.4 1.27-.07 1.65-.08 4.85-.08zm0 3.68C8.6 5.84 5.84 8.6 5.84 12c0 3.4 2.76 6.16 6.16 6.16 3.4 0 6.16-2.76 6.16-6.16 0-3.4-2.76-6.16-6.16-6.16zM12 16c-2.2 0-4-1.8-4-4s1.8-4 4-4 4 1.8 4 4-1.8 4-4 4zm7.85-10.4c0 .8-.65 1.43-1.44 1.43-.8 0-1.4-.64-1.4-1.44 0-.8.64-1.48 1.44-1.48.8 0 1.45.65 1.45 1.44z" fill="#313C5D" fill-rule="evenodd"/>
</svg>
