<?xml version="1.0" encoding="UTF-8" standalone="no"?>
<svg width="256px" height="87px" viewBox="0 0 256 87" version="1.1" xmlns="http://www.w3.org/2000/svg" xmlns:xlink="http://www.w3.org/1999/xlink">
    <!-- Generator: Sketch 41.1 (35376) - http://www.bohemiancoding.com/sketch -->
    <title>le-logotype-white</title>
    <desc>Created with Sketch.</desc>
    <defs></defs>
    <g id="Page-1" stroke="none" stroke-width="1" fill="none" fill-rule="evenodd">
        <g id="C1" transform="translate(-60.000000, -1118.000000)" fill="#FFFFFF">
            <path d="M255.11667,1192.19405 L253.676672,1195.0968 L251.255821,1197.50893 L246.703198,1199.28595 L238.246581,1199.49945 L228.012708,1199.33339 L227.962371,1195.97992 L227.33172,1192.80616 L227.902326,1191.95432 L227.675809,1176.80115 L240.605949,1176.59915 L244.102213,1177.20982 L246.097357,1177.72848 L247.16522,1177.36509 L247.175288,1178.00883 L249.907509,1178.71906 L254.657165,1182.67997 L255.729343,1187.94848 L255.11667,1192.19405 Z M254.840895,1175.99171 L253.155684,1174.56838 L244.439471,1171.9564 L239.25404,1171.68468 L235.651349,1172.24215 L234.149149,1171.69402 L222.528131,1171.79646 L222.594288,1176.82343 L227.1559,1176.8051 L222.602199,1177.40571 L222.945928,1203.50457 L223.769658,1203.51463 L223.843725,1204.33988 L230.941603,1204.35354 L233.582857,1203.83524 L234.474541,1204.36037 L235.182496,1204.36145 L246.672637,1204.02969 L253.860402,1202.02264 L255.330602,1200.72151 L255.760624,1199.65472 L256.545162,1199.64646 L257.934104,1198.41757 L259.437023,1193.81616 L260.091045,1190.78006 L259.57581,1190.67115 L259.920618,1189.71076 L260.330865,1189.66871 L260.711628,1187.90103 L259.689427,1181.28071 L254.840895,1175.99171 Z M241.560554,1138.99065 L239.055209,1138.42168 L237.193819,1139.84466 L236.84901,1141.56992 L237.170807,1142.92209 L238.825457,1143.82929 L241.238757,1143.75812 L242.640642,1142.44189 L242.456553,1140.25369 L241.560554,1138.99065 Z M242.752822,1188.10986 L243.185001,1187.83598 L242.812148,1186.19339 L240.207567,1185.2923 L238.430311,1186.0985 L237.787076,1187.52148 L237.878761,1189.6324 L239.53377,1190.62874 L241.770172,1190.84224 L243.241091,1189.53787 L243.214844,1188.1724 L242.752822,1188.10986 Z M268.449505,1118.46259 L267.047619,1118 L265.438992,1118.39142 L263.899039,1120.17023 L264.496612,1122.44722 L266.059576,1123.19447 L268.610224,1122.73188 L269.644649,1121.05946 L269.27683,1119.3874 L268.449505,1118.46259 Z M252.65555,1147.77366 L249.643958,1151.0078 L244.21655,1152.53034 L227.134687,1152.36429 L226.874732,1139.56035 L226.483901,1135.7522 L226.79635,1135.7026 L226.675182,1129.73715 L235.356877,1129.68755 L236.161191,1129.33567 L236.965864,1129.67857 L240.279477,1129.65988 L247.074254,1131.49225 L249.227959,1132.97309 L242.79453,1138.35986 L243.251877,1139.34721 L243.707427,1139.47732 L250.903462,1134.12542 L252.627145,1135.31082 L253.669121,1141.99907 L252.65555,1147.77366 Z M263.225243,1122.70924 L253.248448,1129.78963 L250.046295,1127.34156 L245.648638,1126.2205 L241.968643,1125.58395 L242.04343,1125.3018 L240.646937,1124.94597 L229.865469,1125.0139 L228.502775,1125.22165 L228.241741,1125.02396 L221.83384,1125.06422 L221.933795,1130.9071 L222.316716,1131.17271 L222.2333,1131.93327 L221.952492,1132.00731 L222.291907,1151.82371 L225.532891,1152.36213 L222.300536,1152.33949 L222.38539,1157.29781 L245.206032,1157.32117 L247.762073,1156.52935 L248.190657,1156.08977 L248.751196,1156.22312 L251.727551,1155.30082 L253.824806,1153.2014 L254.042334,1152.42719 L255.380939,1151.64363 L256.853297,1150.16962 L258.591002,1142.21473 L258.469115,1141.44052 L257.395498,1136.84558 L257.728082,1136.72769 L257.100307,1132.73443 L254.918917,1131.06668 L264.243848,1123.70234 L264.011938,1123.0471 L263.225243,1122.70924 Z M315.035327,1151.03764 L316,1148.54931 L315.356405,1144.56468 L313.364858,1141.83697 L312.966836,1141.58358 L312.590027,1141.76005 L311.271557,1140.8029 L311.375467,1140.57034 L310.08648,1139.74977 L306.470845,1138.84832 L289.250914,1136.5717 L286.064222,1135.6228 L284.195281,1133.91516 L283.919506,1132.04145 L285.114291,1130.23892 L290.917428,1129.44242 L292.156798,1129.41331 L292.353112,1129.0165 L295.516793,1129.33423 L299.358226,1129.24438 L308.707606,1129.76447 L308.683875,1131.42575 L313.432093,1131.57563 L313.523419,1128.22396 L313.194431,1128.20671 L313.277487,1127.57699 L313.543914,1127.47239 L313.592093,1125.70975 L304.019792,1125.21051 L295.922725,1124.99521 L287.779995,1125.40028 L287.613883,1125.42041 L286.496401,1125.89019 L286.087233,1125.60767 L284.685707,1125.77948 L280.151062,1127.89077 L278.649581,1131.61445 L279.078164,1136.04981 L279.440591,1136.51814 L279.874208,1136.32549 L280.804004,1138.02343 L280.727061,1138.18122 L281.866834,1139.65488 L287.779995,1141.17311 L293.637425,1141.91569 L297.315981,1141.94552 L297.624116,1142.4214 L298.626901,1142.54864 L306.807743,1143.92418 L309.871829,1146.08255 L310.576547,1148.38325 L308.952459,1150.82629 L305.704644,1152.60511 L296.788521,1153.19816 L294.283177,1153.17193 L292.284797,1153.39621 L292.150685,1153.14928 L285.513032,1153.07955 L285.420987,1151.8309 L279.966972,1151.90206 L280.081309,1157.46459 L283.467551,1157.5451 L283.443102,1157.95377 L289.679857,1158.10796 L299.576473,1157.96563 L302.065278,1157.68671 L301.969638,1157.32764 L302.839389,1157.20041 L303.265816,1157.55193 L308.462393,1156.96965 L312.935914,1154.7872 L314.888631,1151.40965 L314.257261,1151.27378 L314.382744,1150.90573 L315.035327,1151.03764 Z M127.33186,1137.0882 L128.153792,1135.45531 L127.820849,1135.32268 L129.486284,1132.80776 L130.170508,1131.44804 L133.205111,1137.15936 L127.33186,1137.0882 Z M146.129137,1148.89364 L144.949454,1146.9937 L145.289948,1146.77625 L132.5101,1125.37153 L127.51595,1125.48978 L118.151828,1142.79162 L117.674346,1144.72067 L116.89628,1145.11173 L112.19696,1153.79446 L112.454758,1153.79446 L112.650713,1154.37314 L111.890624,1154.78145 L111.75004,1154.62078 L109.909143,1158.02242 L118.836771,1158.13241 L118.795423,1157.42936 L119.570973,1157.3582 L119.675602,1153.06518 L118.591558,1153.02492 L125.20656,1141.72052 L135.440793,1141.72052 L142.284469,1152.80746 L141.352515,1152.90235 L141.338852,1155.08193 L141.693368,1155.73034 L141.332021,1156.13506 L141.323391,1157.52713 L151.700006,1157.51275 L146.526081,1148.84728 L146.129137,1148.89364 Z M90.6092154,1151.44379 L90.5570807,1152.8966 L77.4184025,1152.94081 L77.0333244,1153.35128 L74.9486532,1152.94944 L65.4737901,1152.98107 L65.4594081,1141.58178 L64.9754537,1141.50055 L65.4547339,1137.7686 L65.4403519,1126.57346 L66.7440804,1126.51379 L66.7674512,1122.20568 L65.1465995,1122.18699 L64.8776561,1122.37856 L64.5810273,1122.18052 L60,1122.12696 L60.0028764,1125.52105 L60.3746512,1125.71442 L60.4501567,1129.13978 L60.0057528,1129.13978 L60.0226517,1148.77611 C60.2441345,1150.32956 60.4325387,1151.74823 60.4325387,1151.74823 L60.0255281,1152.02678 L60.0309213,1158.00876 L66.7825523,1158.04399 C66.8167095,1157.87074 66.8947319,1157.67341 66.8947319,1157.67341 L72.7417349,1157.83588 L73.6805201,1158.07957 L96.0959493,1158.19602 L96.1056572,1157.75213 L96.6183755,1157.69893 L96.4763533,1151.45062 L90.6092154,1151.44379 Z M143.353771,1174.73695 L148.317,1174.71287 L148.292191,1172.33776 L148.065674,1172.37622 L147.895966,1171.48807 L148.281764,1171.37161 L148.256236,1168.91995 L137.575082,1168.88544 L137.072791,1169.30562 L132.133651,1168.86783 L110.550581,1168.79846 L110.425457,1172.85462 L110.881367,1172.88697 L110.923794,1173.72012 L110.83858,1173.75535 L112.002803,1173.75535 L112.198399,1191.90112 L112.613319,1192.22676 L112.209904,1192.96755 L112.278578,1199.33986 L111.031299,1199.29278 L111.041007,1203.82266 L120.001354,1203.82446 L120.075062,1203.37445 L126.01411,1203.82554 L148.247966,1203.82949 L148.253,1202.30911 L147.86109,1200.19674 L148.261269,1200.035 L148.26882,1197.86584 L143.284377,1197.76808 L143.283299,1199.06202 L136.078994,1199.07353 L136.063174,1199.3262 L135.161782,1199.49586 L135.117557,1199.07496 L117.211965,1199.103 L117.211965,1187.81369 L132.161337,1187.86581 L132.25446,1187.47942 L137.706318,1187.47942 L137.762048,1183.41967 L117.150482,1183.30106 L117.089358,1173.54185 L143.139119,1173.56844 L143.353771,1174.73695 Z M196.062371,1171.47729 L196.127809,1177.32951 L197.650144,1177.32951 L197.925919,1196.63624 L182.561626,1180.39436 L180.003427,1178.44877 L180.164865,1177.86074 L174.318221,1171.68036 L168.017466,1171.72493 L168.128208,1183.35102 L169.155802,1184.31897 L168.144747,1185.08886 L168.323084,1203.76407 L171.455843,1203.76947 L172.488471,1203.06858 L173.016291,1203.77234 L174.702221,1203.77522 L174.610176,1198.50994 L173.145369,1198.58255 L173.16838,1179.55905 L191.920354,1198.36437 L193.516756,1199.2439 L193.301745,1199.74961 L197.221201,1203.68033 L202.413822,1203.60772 L202.433957,1200.63129 L202.888788,1200.62231 L202.948114,1172.83161 L202.021194,1171.43056 L196.062371,1171.47729 Z M174.31966,1152.51489 L172.947257,1152.39304 L172.809549,1141.70938 L171.851708,1139.59234 L172.775752,1139.09489 L172.691617,1132.56442 L185.845396,1146.08435 L186.327193,1146.01893 L188.37591,1148.52954 L188.35182,1148.66037 L196.80628,1157.35029 L201.875576,1157.24965 L201.857239,1156.49125 L202.774092,1156.6016 L202.501912,1133.01335 L202.475665,1133.0191 L202.04816,1128.9385 L202.455171,1128.9421 L202.413463,1125.35428 L196.503898,1125.26873 L196.539494,1125.80428 L195.887629,1125.7022 L196.027494,1130.40641 L197.35783,1130.42977 L197.413919,1137.57594 L197.848975,1139.17001 L197.428661,1139.42556 L197.512796,1150.16638 L173.489099,1125.49661 L167.851354,1125.28311 L167.738096,1144.86085 L168.340342,1146.02756 L167.728748,1146.47109 L167.667265,1157.0419 L174.442266,1157.23132 L174.31966,1152.51489 Z" id="le-logotype-white"></path>
        </g>
    </g>
</svg>