<svg width="256" height="87" viewBox="0 0 256 87" xmlns="http://www.w3.org/2000/svg">
  <title>
    le-logotype-white
  </title>
  <path d="M195.12 74.2l-1.44 2.9-2.42 2.4-4.56 1.8-8.45.2-10.24-.17v-3.35l-.6-3.17.6-.8-.2-15.1 12.9-.2 3.5.6 2 .6 1.1-.3v.6l2.8.8 4.8 4 1 5.2-.6 4.3zm-.28-16.2l-1.68-1.43-8.72-2.6-5.2-.3-3.6.57-1.5-.55-11.6.1.05 5h4.5l-4.6.6.3 26.1h.8v.8h7.1l2.6-.5.9.5h.7l11.5-.4 7.2-2 1.4-1.3.4-1.1h.8l1.4-1.3 1.5-4.6.6-3.1-.5-.1.3-1 .4-.1.4-1.8-1.05-6.6-4.9-5.3zm-13.28-37l-2.5-.58-1.87 1.42-.4 1.73.3 1.35 1.6.9 2.4-.06 1.4-1.32-.2-2.2-.9-1.25zm1.2 49.1l.43-.26-.4-1.65-2.6-.9-1.8.8-.7 1.4.1 2.1 1.6 1 2.2.2 1.4-1.3-.1-1.4-.5-.1zM208.46.47l-1.4-.46-1.63.4-1.54 1.8.6 2.3 1.5.8 2.5-.4 1-1.6-.4-1.6-.9-.9zm-15.8 29.3l-3.03 3.25-5.42 1.53-17.1-.17-.2-12.8-.4-3.8.4-.06-.1-5.96 8.7-.05.8-.3.8.4h3.3l6.8 1.9 2.2 1.5-6.4 5.4.5 1 .5.2 7.2-5.4 1.7 1.2 1.1 6.7-1 5.8zM203.2 4.72l-9.98 7.1-3.2-2.46-4.4-1.12-3.68-.64.07-.28-1.4-.35-10.7.06-1.3.22-.2-.2-6.4.04.1 5.8.4.2-.1.7-.2.1.4 19.8 3.2.5h-3.2l.1 4.9h22.8l2.6-.8.5-.5.6.1 3-.9 2.1-2.1.2-.8 1.38-.8 1.5-1.5L199 24l-.15-.75-1.1-4.6.33-.1-.63-4L195 13l9.33-7.33-.24-.65-.8-.32zM255 33.06l.97-2.5-.65-3.98-2-2.72-.4-.26-.37.18-1.33-.96.1-.23-1.28-.9-3.63-.9-17.2-2.3-3.2-1-1.8-1.7-.3-1.9 1.2-1.8 5.8-.8 1.3-.1.2-.4 3.2.3 3.9-.1 9.4.5v1.6l4.8.1.1-3.4h-.3l.1-.7.3-.1.1-1.8-9.6-.5-8.1-.2-8.1.4-.2.02-1.1.5-.4-.3-1.4.2-4.5 2.1-1.5 3.74.5 4.46.36.5.44-.2.9 1.7-.06.14 1.14 1.5 5.9 1.5 5.8.7h3.7l.3.5 1 .2 8.2 1.4 3.08 2.2.7 2.3-1.6 2.4-3.34 1.9-8.9.6h-2.52l-2 .2-.1-.2-6.6-.1-.1-1.2-5.5.07.1 5.6 3.4.1v.4l6.25.15 9.9-.14 2.5-.26-.1-.4.86-.2.4.3 5.2-.57 4.47-2.2 1.96-3.4-.6-.1.2-.34.68.13zM67.34 19.1l.82-1.64-.33-.14 1.67-2.5.67-1.37 3.04 5.7-5.8-.06zm18.8 11.8l-1.2-1.9.35-.22-12.8-21.4-5 .1-9.4 17.3-.5 1.94-.8.4-4.7 8.67h.2l.2.5-.8.4-.2-.2-1.8 3.4 8.9.1-.1-.7.7-.1.1-4.3-1.1-.1 6.6-11.3h10.3L82 34.6l-.92.1V37l.35.66-.37.4v1.4h10.4l-5.1-8.66-.4.1zM30.6 33.43l-.04 1.46H17.42l-.4.4-2.07-.4H5.47V23.5l-.5-.07.48-3.74V8.5l1.3-.05.02-4.3H5.15l-.27.2-.3-.2H0v3.4l.37.17.08 3.46H0l.02 19.6c.22 1.56.4 2.98.4 2.98l-.4.28V40l6.76.04.1-.37 5.86.17.94.24 22.42.12v-.45l.52-.05-.14-6.25H30.6zm52.75 23.3l4.97-.03-.03-2.36-.3.04-.2-.9.3-.1v-2.46l-10.7-.02-.5.4-5-.5-21.6-.06-.1 4.04.4.04v.82l-.1.04H52l.2 18.16.4.33-.4.72.08 6.3-1.25-.1v4.5H60l.08-.5 5.93.5h22.3v-1.5l-.4-2.1.4-.2.1-2.2-5-.1V81h-7.2v.27l-.9.18v-.43l-17.9.03V69.8l15 .07.1-.4H78l.04-4.05-20.6-.12-.1-9.76 26.05.03.2 1.17zm52.7-3.26l.08 5.85h1.52l.28 19.3-15.37-16.24-2.56-1.95.16-.6-5.84-6.17-6.3.04.1 11.63 1.04.97-1.02.77.18 18.66h3.14l1.03-.7.5.7 1.7.02-.1-5.27-1.5.08V61.54l18.7 18.8 1.6.88-.2.5 3.9 3.94 5.2-.07v-3h.4V54.8l-1-1.4h-6zM114.33 34.5l-1.37-.1-.14-10.7-.95-2.1.93-.5-.1-6.54 13.17 13.52.48-.06 2.05 2.5-.03.14 8.46 8.7 5.08-.1v-.77l.9.1-.2-23.6-.4-4.1h.4V7.3l-5.9-.1.1.5-.6-.1.1 4.7h1.4l.1 7.12.5 1.6-.4.25L138 32 114 7.3l-5.64-.2-.1 19.57.6 1.2-.6.4-.03 10.58 6.74.2-.13-4.73z" fill="#FFF" fill-rule="evenodd"/>
</svg>
