<?xml version="1.0" encoding="UTF-8" standalone="no"?>
<svg width="24px" height="20px" viewBox="0 0 24 20" version="1.1" xmlns="http://www.w3.org/2000/svg" xmlns:xlink="http://www.w3.org/1999/xlink">
    <!-- Generator: Sketch 41 (35326) - http://www.bohemiancoding.com/sketch -->
    <title>Medium</title>
    <desc>Created with Sketch.</desc>
    <defs></defs>
    <g id="Page-1" stroke="none" stroke-width="1" fill="none" fill-rule="evenodd">
        <g id="Desktop-HD-Copy" transform="translate(-838.000000, -1130.000000)" fill="#313C5D">
            <g id="Medium" transform="translate(838.000000, 1130.000000)">
                <path d="M23.7371321,3.66898876 C23.7326038,3.66539326 23.7289811,3.66067416 23.7233208,3.65797753 L23.7151698,3.65393258 L16.5672453,0.106741573 C16.5190189,0.0826966292 16.4683019,0.0665168539 16.4169057,0.0534831461 C16.3523774,0.0370786517 16.2864906,0.0269662921 16.2203774,0.0269662921 C15.9466415,0.0269662921 15.6742642,0.163370787 15.5266415,0.401123596 L11.4115472,7.03842697 L16.5758491,15.3674157 L23.7590943,3.78224719 C23.7828679,3.74359551 23.7715472,3.69595506 23.7371321,3.66898876" id="Fill-53"></path>
                <polyline id="Fill-54" points="9.14490566 5.52651685 9.14490566 13.0817978 15.9110943 16.4395506 9.14490566 5.52651685"></polyline>
                <path d="M16.9276981,16.9440449 L22.497283,19.7078652 C23.2220377,20.0676404 23.8095849,19.8157303 23.8095849,19.145618 L23.8095849,5.8447191 L16.9276981,16.9440449" id="Fill-55"></path>
                <path d="M7.97026415,3.67977528 L0.989207547,0.215280899 C0.86309434,0.152808989 0.74309434,0.123146067 0.634415094,0.123146067 C0.328754717,0.123146067 0.114339623,0.357977528 0.114339623,0.751910112 L0.114339623,15.7114607 C0.114339623,16.1119101 0.409584906,16.5860674 0.770490566,16.7651685 L6.91924528,19.8164045 C7.07683019,19.8946067 7.2269434,19.9316854 7.36256604,19.9316854 C7.74475472,19.9316854 8.01283019,19.6382022 8.01283019,19.145618 L8.01283019,3.74786517 C8.01283019,3.71910112 7.99630189,3.69258427 7.97026415,3.67977528" id="Fill-56"></path>
            </g>
        </g>
    </g>
</svg>