<?xml version="1.0" encoding="UTF-8" standalone="no"?>
<svg width="38px" height="20px" viewBox="0 0 38 20" version="1.1" xmlns="http://www.w3.org/2000/svg" xmlns:xlink="http://www.w3.org/1999/xlink">
    <!-- Generator: Sketch 41.1 (35376) - http://www.bohemiancoding.com/sketch -->
    <title>Shape</title>
    <desc>Created with Sketch.</desc>
    <defs></defs>
    <g id="Page-1" stroke="none" stroke-width="1" fill="none" fill-rule="evenodd">
        <g id="C1" transform="translate(-314.000000, -13.000000)" fill="#FFFFFF">
            <path d="M323.751279,13.0192308 L315.123077,13.0358974 C314.520513,13.0358974 314.033333,13.5576921 314.030769,14.1999996 C314.030769,14.841025 314.517949,15.3615376 315.120512,15.3602556 L321.784613,15.3474351 C321.917946,15.7064093 322.066664,16.0910246 322.225638,16.5141013 L315.116666,16.5269218 C314.514102,16.5269218 314.014103,17.0525627 314.014103,17.6935881 C314.014103,18.3346135 314.501282,18.8602544 315.103846,18.8602544 L323.103843,18.8474339 L323.546151,20.0012796 L315.089743,20.0141001 C314.487179,20.0141001 314,20.539741 314,21.1807664 C314,21.8217918 314.487179,22.3423044 315.084615,22.3410224 L326.610252,22.3205096 C328.325636,22.3153814 329.760251,21.1025613 330.24743,19.4448695 L350.31409,19.4102542 C351.0705,19.4102542 351.52691,18.5153827 351.121782,17.8371778 L350.203834,16.3115373 C350.024346,16.0230759 349.723064,15.8474349 349.396142,15.8474349 L330.255123,15.8858964 C329.79102,14.2128201 328.361533,13 326.649996,13 L323.752561,13.0064103 L323.752561,13.0192308 M350.323064,32.9358905 C351.005115,32.9358905 351.4705,32.1948651 351.207679,31.5256346 L349.20127,28.3140972 C348.14486,26.5807645 345.573066,25.8179443 344.034605,25.8205084 L332.321788,25.8487135 C330.59102,25.8512776 329.0782,27.0884566 328.629482,28.8666611 L328.488456,29.417943 L314.96282,29.4410199 C314.20641,29.4410199 313.744872,30.3333273 314.155128,31.0102501 L315.078205,32.5358906 C315.244871,32.8256341 315.552564,33.0012751 315.873076,32.999993 L350.308962,32.9358905" id="Shape"></path>
        </g>
    </g>
</svg>