<svg width="38" height="38" viewBox="0 0 38 20" xmlns="http://www.w3.org/2000/svg">
  <title>
    Menu
  </title>
  <path d="M9.75.02L1.12.04C.52.04.02.56.02 1.2c0 .64.5 1.16 1.1 1.16h6.66c.14.35.3.73.45 1.15l-7.1.1C.5 3.6 0 4.1 0 4.7c0 .63.5 1.16 1.1 1.16h8L9.55 7H1.1C.5 7 0 7.55 0 8.2c0 .64.5 1.16 1.08 1.16l11.53-.02c1.8 0 3.2-1.22 3.7-2.88l20-.06c.8 0 1.3-.88.9-1.56l-1-1.54c-.14-.28-.44-.45-.8-.45l-19.1.05C15.84 1.2 14.4 0 12.7 0H9.8m26.5 19.9c.7 0 1.15-.75.9-1.4l-2-3.24c-1.06-1.7-3.63-2.48-5.17-2.48l-11.7.03c-1.74 0-3.25 1.3-3.7 3.1l-.14.57H.9c-.76 0-1.2.9-.8 1.6L1 19.6c.16.3.47.45.8.45L36.23 20" fill="#FFF" fill-rule="evenodd"/>
</svg>
