<svg width="256" height="63" viewBox="0 0 256 63" xmlns="http://www.w3.org/2000/svg">
  <title>
    mv-logotype-dark
  </title>
  <path d="M126.2 8.38V.24h-2.7v16.28c0 4.5-3.64 8.14-8.12 8.14-4.48 0-8.12-3.64-8.12-8.14V.24h-2.7v8.14l-1.35 1.36 1.4 1.36v5.42c0 6 4.87 10.86 10.8 10.86 6 0 10.8-4.86 10.8-10.86V11.1l1.4-1.36-1.35-1.36zm-124.4 19V11.1L.44 9.74 1.8 8.38V.24L15.32 13.8 28.84.25V8.4l1.35 1.35-1.4 1.36v16.3h-2.7V6.7L15.3 17.55 4.5 6.7v20.68m132.5 0V11.1l-1.34-1.36L137 8.38V.24l13.53 13.57L164.05.3v8.1l1.35 1.35-1.35 1.36v16.3h-2.7V6.7l-10.82 10.86L139.7 6.7v20.68M174.87.24v8.14l-1.35 1.36 1.35 1.36v16.28h18.93v-2.72h-16.23V11.1h16.23V8.38h-16.23V2.96h16.23V.24m-29.75 35.28v8.14l-1.35 1.36 1.35 1.35v16.3h18.93v-2.73h-16.22V46.38h16.22v-2.72h-16.22v-5.43h16.22v-2.7h-18.93m26.37 0l11.5 11.52v15.6h2.7v-15.6l11.5-11.53h-3.4l-9.46 9.5-9.46-9.5M50.47.24C43 .24 36.95 6.32 36.95 13.8c0 7.5 6.05 13.58 13.52 13.58S64 21.3 64 13.8C64 6.33 57.93.25 50.46.25zm0 24.42c-5.97 0-10.8-4.86-10.8-10.85C39.67 7.9 44.5 3 50.47 3 56.45 3 61.3 7.86 61.3 13.85c0 6-4.88 10.86-10.86 10.86zM72.1.24v8.14l-1.35 1.36 1.36 1.36v16.28h2.7V7.03l19 20.35V11.1l1.37-1.36-1.35-1.36V.24h-2.7V20.6M204.62.24v8.14l-1.35 1.36 1.36 1.36v16.28h2.7V7.03l18.93 20.35V11.1l1.35-1.36-1.34-1.36V.24h-2.7V20.6M234.36.24v2.72h9.47v24.42h2.7V2.96H256V.24M43.7 35.52l13.53 27.14 13.52-27.14h-2.7L57.23 55.87l-10.8-20.35m39.2 0L72.1 62.66h2.7l6.77-13.57h8.1l6.78 13.5h2.7L85.63 35.5zm-2.7 10.85l2.7-5.42 2.7 5.42h-5.4zm24.33-10.85v8.14l-1.35 1.36 1.4 1.35v16.3h18.96v-2.73H110V35.52m24.33 0v8.14L133 45.02l1.35 1.35v16.3h18.94v-2.73H137V35.52" fill="#313B5D" fill-rule="evenodd"/>
</svg>
