<?xml version="1.0" encoding="UTF-8" standalone="no"?>
<svg width="256px" height="63px" viewBox="0 0 256 63" version="1.1" xmlns="http://www.w3.org/2000/svg" xmlns:xlink="http://www.w3.org/1999/xlink">
    <!-- Generator: Sketch 41.1 (35376) - http://www.bohemiancoding.com/sketch -->
    <title>mv-logotype-dark</title>
    <desc>Created with Sketch.</desc>
    <defs></defs>
    <g id="Page-1" stroke="none" stroke-width="1" fill="none" fill-rule="evenodd">
        <g id="C1" transform="translate(-60.000000, -730.000000)" fill="#313B5D">
            <g id="mv-logotype-dark" transform="translate(60.000000, 730.000000)">
                <g id="Layer_1">
                    <path d="M126.19239,8.38220979 L126.19239,0.241678322 L123.487889,0.241678322 L123.487889,16.5240839 C123.487889,21.0197483 119.855275,24.6646154 115.375275,24.6646154 C110.895275,24.6646154 107.262662,21.0193007 107.262662,16.5240839 L107.262662,0.241678322 L104.558606,0.241678322 L104.558606,8.38220979 L103.206355,9.73918881 L104.558606,11.0961678 L104.558606,16.5236364 C104.558606,22.5181538 109.402091,27.3781259 115.375721,27.3781259 C121.349352,27.3781259 126.192836,22.5177063 126.192836,16.5236364 L126.192836,11.0961678 L127.545087,9.73918881 L126.19239,8.38220979 Z" id="Shape"></path>
                    <polygon id="Shape" points="1.79556794 27.3785734 1.79556794 11.0961678 0.443317073 9.73918881 1.79556794 8.38220979 1.79556794 0.241678322 15.3171847 13.8101259 28.8388014 0.241678322 28.8388014 8.38220979 30.1906063 9.73918881 28.8388014 11.0961678 28.8388014 27.3785734 26.1342997 27.3785734 26.1342997 6.68643357 15.3171847 17.5413706 4.49962369 6.68643357 4.49962369 27.3785734"></polygon>
                    <polygon id="Shape" points="137.009059 27.3785734 137.009059 11.0961678 135.657254 9.73918881 137.009059 8.38220979 137.009059 0.241678322 150.530676 13.8101259 164.052293 0.241678322 164.052293 8.38220979 165.404098 9.73918881 164.052293 11.0961678 164.052293 27.3785734 161.347791 27.3785734 161.347791 6.68643357 150.531122 17.5413706 139.714007 6.68643357 139.714007 27.3785734"></polygon>
                    <polygon id="Shape" points="174.868962 0.241678322 174.868962 8.38220979 173.516711 9.73918881 174.868962 11.0961678 174.868962 27.3785734 193.799136 27.3785734 193.799136 24.6646154 177.573017 24.6646154 177.573017 11.0961678 193.799136 11.0961678 193.799136 8.38220979 177.573017 8.38220979 177.573017 2.95518881 193.799136 2.95518881 193.799136 0.241678322"></polygon>
                    <polygon id="Shape" points="164.052293 35.52 164.052293 43.660979 162.699596 45.0184056 164.052293 46.3749371 164.052293 62.6573427 182.982021 62.6573427 182.982021 59.9438322 166.756348 59.9438322 166.756348 46.3753846 182.982021 46.3753846 182.982021 43.6614266 166.756348 43.6614266 166.756348 38.233958 182.982021 38.233958 182.982021 35.5204476 164.052293 35.5204476 164.052293 35.52"></polygon>
                    <polygon id="Shape" points="190.418509 35.52 201.912195 47.0534266 201.912195 62.6573427 204.616251 62.6573427 204.616251 47.052979 216.109045 35.5195524 212.728864 35.5195524 203.264 45.017958 193.799136 35.5195524"></polygon>
                    <path d="M50.4721394,0.241678322 C43.0044321,0.241678322 36.9514146,6.31630769 36.9514146,13.8101259 C36.9514146,21.3034965 43.004878,27.3785734 50.4721394,27.3785734 C57.9402927,27.3785734 63.9937561,21.3034965 63.9937561,13.8101259 C63.9937561,6.31630769 57.9402927,0.241678322 50.4721394,0.241678322 Z M50.4721394,24.6646154 C44.4980627,24.6646154 39.6554704,19.8046434 39.6554704,13.8101259 C39.6554704,7.81516084 44.4980627,2.95518881 50.4721394,2.95518881 C56.446216,2.95518881 61.2897003,7.81560839 61.2897003,13.8101259 C61.2897003,19.8046434 56.446216,24.6646154 50.4721394,24.6646154 Z" id="Shape"></path>
                    <polygon id="Shape" points="72.1063693 0.241678322 72.1063693 8.38220979 70.7541185 9.73918881 72.1063693 11.0961678 72.1063693 27.3785734 74.8108711 27.3785734 74.8108711 7.02567832 93.7405993 27.3785734 93.7405993 11.0961678 95.0924042 9.73918881 93.7405993 8.38220979 93.7405993 0.241678322 91.0365436 0.241678322 91.0365436 20.5945734"></polygon>
                    <polygon id="Shape" points="204.616251 0.241678322 204.616251 8.38220979 203.264 9.73918881 204.616251 11.0961678 204.616251 27.3785734 207.319861 27.3785734 207.319861 7.02567832 226.250035 27.3785734 226.250035 11.0961678 227.60184 9.73918881 226.250035 8.38220979 226.250035 0.241678322 223.545533 0.241678322 223.545533 20.5945734"></polygon>
                    <polygon id="Shape" points="234.363094 0.241678322 234.363094 2.95518881 243.827958 2.95518881 243.827958 27.3785734 246.53246 27.3785734 246.53246 2.95518881 255.997324 2.95518881 255.997324 0.241678322"></polygon>
                    <polygon id="Shape" points="43.711777 35.52 57.2329477 62.6573427 70.7541185 35.52 68.0500627 35.52 57.2329477 55.8733427 46.4158328 35.52"></polygon>
                    <path d="M85.6279861,35.52 L72.1063693,62.6573427 L74.8108711,62.6573427 L81.5716794,49.0888951 L89.6842927,49.0888951 L96.445101,62.6573427 L99.1491568,62.6573427 L85.6279861,35.52 Z M82.9239303,46.3749371 L85.6279861,40.9474685 L88.3320418,46.3749371 L82.9239303,46.3749371 Z" id="Shape"></path>
                    <polygon id="Shape" points="107.262216 35.52 107.262216 43.660979 105.910411 45.0184056 107.262216 46.3749371 107.262216 62.6573427 126.19239 62.6573427 126.19239 59.9438322 109.966718 59.9438322 109.966718 35.52"></polygon>
                    <polygon id="Shape" points="134.305003 35.52 134.305003 43.660979 132.952307 45.0184056 134.305003 46.3749371 134.305003 62.6573427 153.234732 62.6573427 153.234732 59.9438322 137.009059 59.9438322 137.009059 35.52"></polygon>
                </g>
            </g>
        </g>
    </g>
</svg>