<svg width="114" height="51" viewBox="0 0 114 51" xmlns="http://www.w3.org/2000/svg">
  <g fill="none" fillRule="evenodd">
    <rect fill="#313D3E" width="114" height="51" rx="4"/>
    <path d="M31.616 20.024c.17.086.314.2.427.33.015.014.015.014.03.014h.013l3.276-1.416c.015-.014.03-.03.03-.043 0-.02 0-.03-.015-.05l-3.063-3.08c-.014-.02-.028-.02-.028-.02h-.015c-.01 0-.02.01-.02.04l-.67 4.16c.02.01.03.04.05.04zm-6.794-2.788c.157.243.256.53.285.815 0 .02.014.03.028.05l4.872 2.1h.014c.02 0 .03 0 .03-.01.15-.11.32-.2.5-.26.02 0 .03-.01.03-.04l.8-5.01c0-.01 0-.03-.01-.04l-3.05-3.07c-.01-.01-.01-.01-.03-.01-.01 0-.02.02-.02.03l-3.43 5.4c-.01.03-.01.06 0 .07zM41.46 24.97l-5.23-5.26c-.013-.014-.027-.014-.027-.014h-.015l-3.546 1.53c-.015.014-.03.028-.03.042 0 .015.015.043.03.043l8.745 3.76h.015c.014 0 .028 0 .028-.01l.03-.03c.027 0 .027-.04 0-.06zm-.87.86l-8.39-3.604h-.014c-.014 0-.03 0-.043.015-.228.32-.57.52-.968.58-.015 0-.043.02-.043.05l-.897 5.59c0 .02 0 .03.014.05.31.25.49.6.54 1 0 .03.01.05.04.05l5.07 1.08h.01c.01 0 .03 0 .03-.012l4.64-4.674c.01-.014.01-.03.01-.043 0-.013 0-.027-.02-.042zm-11.11-4.776l-4.587-1.973h-.014c-.02 0-.03.02-.05.03-.32.49-.84.77-1.41.77-.09 0-.17-.01-.27-.02h-.02c-.02 0-.03.02-.05.03l-3.77 5.93c-.02.02-.02.05 0 .06.01.02.03.02.04.02h.01l10.07-4.36c.01-.01.03-.03.03-.04v-.13c0-.08.01-.17.03-.24 0-.02-.02-.04-.03-.05zm5.526 10.38l-4.458-.93h-.014c-.015 0-.03.015-.043.015-.17.21-.38.38-.64.48-.01 0-.03.03-.03.04l-1.06 6.66c0 .03.02.04.03.05h.03c.02 0 .03 0 .03-.02l6.18-6.22c.02-.02.02-.03.02-.05 0-.04-.01-.06-.03-.06zm-6.224-.458c-.428-.17-.74-.557-.855-1 0-.015-.014-.03-.043-.043l-8.26-1.73h-.015c-.02 0-.03.014-.05.028-.05.08-.07.13-.12.19-.02.02-.02.05 0 .06l7.52 11.04c.01.02.01.02.03.02.01 0 .03 0 .03-.01l.45-.45c0-.01.01-.01.01-.03l1.28-8c.03 0 .03-.03 0-.04zm-8.988-3.788c0 .028.014.042.043.042l8.19 1.716h.014c.02 0 .03-.014.05-.028.24-.43.67-.715 1.16-.744.03 0 .05-.014.05-.043l.89-5.5c0-.01 0-.04-.03-.04-.05-.04-.11-.08-.18-.16-.01-.01-.03-.01-.03-.01h-.01L19.8 26.81c-.03.02-.03.03-.03.06.017.12.046.22.046.33zm-3.433 1.386c-.04-.057-.08-.114-.12-.185-.01-.02-.03-.03-.04-.03h-.01l-3.53 1.53c-.01 0-.03.01-.03.02s0 .03.02.04l1.73 1.73c.02.01.03.01.03.01.02 0 .03-.02.05-.03l1.95-3.08s0-.02-.01-.03zm2.34.558c-.01-.014-.03-.03-.04-.03h-.01c-.25.116-.51.173-.78.173-.21 0-.41-.03-.62-.1h-.01c-.01 0-.03.014-.04.03l-2.05 3.23-.01.014c-.01.01-.01.04 0 .05l9.43 9.48c.01.01.03.01.03.01.02 0 .03 0 .03-.02l1.65-1.67c.01-.02.01-.05 0-.06L18.7 29.13zM17.37 25.4c.015.015.03.03.043.03h.014c.14-.03.3-.058.44-.058.156 0 .33.028.483.07h.014c.014 0 .028-.013.042-.027l3.817-6.005c.014-.015.014-.043 0-.058-.3-.314-.47-.73-.47-1.172 0-.13.014-.257.042-.386 0-.03-.015-.043-.03-.057-.484-.215-4.77-2.045-4.77-2.06h-.015c-.014 0-.03 0-.03.015l-3.63 3.66c-.015.015-.015.043 0 .058l4.044 5.99zm.413-10.466s4.33 1.86 4.516 1.945h.01c.01 0 .01 0 .03-.02.3-.25.68-.39 1.07-.39.18 0 .37.02.55.08h.01c.01 0 .03-.02.04-.03l3.52-5.53c.01-.02.01-.05 0-.06L24.61 8h-.02s-.024 0-.024.013l-6.78 6.835c-.015.01-.015.02-.015.04-.01.03 0 .03.02.04zm-1.68 11.51c.014 0 .028-.014.042-.03.086-.17.214-.327.342-.47.012-.015.012-.043 0-.058-.045-.057-3.906-5.72-3.906-5.733-.01-.014-.01-.014-.04-.03-.01 0-.03 0-.03.016l-4.5 4.51c-.01.01-.01.03-.01.04 0 .01.02.02.05.02l8.06 1.71c-.01 0-.01 0 0 0zm-.37.987c0-.02-.015-.04-.043-.04l-6.994-1.47h-.014c-.015 0-.03.02-.043.03-.01.02 0 .05.01.06l3.12 3.15c.01.02.03.02.03.02h.01l3.87-1.67c.03-.03.04-.04.04-.05zM75.5 22.77h2.275v14.547H75.5v-14.55zm-23.28 4.1c-1.223 0-2.204.46-2.958 1.368l-.07-1.187H47.06V37.3h2.275v-7.29c.455-.837 1.138-1.256 2.048-1.256.626 0 1.08.154 1.365.475.285.3.413.79.413 1.43v6.63h2.28v-6.77c-.03-2.43-1.09-3.66-3.21-3.66zm9.827 0c-.87 0-1.65.223-2.364.67-.71.446-1.25 1.075-1.65 1.884-.383.81-.582 1.717-.582 2.737v.28c0 1.52.46 2.75 1.35 3.67.9.93 2.07 1.39 3.52 1.39.84 0 1.61-.17 2.29-.5.68-.33 1.22-.81 1.62-1.42L65 34.39c-.653.85-1.507 1.282-2.545 1.282-.74 0-1.365-.253-1.848-.74-.498-.49-.768-1.16-.84-2.01h6.63V32c0-1.634-.383-2.89-1.123-3.784-.782-.893-1.85-1.34-3.228-1.34zm2.073 4.355h-4.337c.1-.796.355-1.41.74-1.843.383-.444.895-.654 1.52-.654.627 0 1.124.196 1.48.587.355.39.554.977.61 1.745v.167h-.013zm7.395 4.105c-.157-.17-.23-.46-.23-.854v-5.724h1.793V27.05h-1.79v-2.484h-2.274v2.485H67.35v1.71h1.664v5.81c0 1.96.882 2.93 2.63 2.93.485 0 .982-.07 1.508-.22v-1.79c-.27.07-.54.1-.796.1-.413.02-.684-.07-.84-.25zm9.783-8.267h2.276V37.31H81.3V27.066zm15.19 6.952l-2.147-6.952h-2.46l3.57 10.19-.32.88c-.17.503-.4.852-.69 1.062-.28.21-.72.32-1.29.32l-.42-.027v1.786c.4.112.77.167 1.1.167 1.48 0 2.54-.86 3.16-2.58L101 27.07h-2.432l-2.076 6.952zM88.045 23.49c-.626.615-.94 1.495-.94 2.64v.935h-1.55v1.703h1.55v8.544h2.276v-8.544h2.07v-1.703h-2.07v-.908c0-1.13.55-1.69 1.64-1.69.33 0 .63.03.87.07l.06-1.8c-.45-.112-.86-.167-1.28-.167-1.1-.014-1.99.307-2.61.92zm-4.466-.934v2.01H81.3v-2.01h2.275z" fill="#FFF"/>
    <path d="M47 18.71v-5.63h1.933c.688 0 1.254.22 1.7.66.446.44.67 1.003.67 1.69v.933c0 .69-.224 1.254-.67 1.69-.446.437-1.012.656-1.7.656H47zm1.13-4.76v3.893h.745c.404 0 .72-.137.95-.41.23-.273.344-.63.344-1.07v-.94c0-.435-.12-.79-.35-1.062-.23-.27-.55-.41-.95-.41h-.75zm8.506 2.285h-2.33v1.608h2.724v.866h-3.853v-5.63h3.845v.87h-2.717v1.41h2.33v.87zm3.204.433v2.04h-1.13V13.08h2.243c.647 0 1.156.167 1.527.497.37.33.557.764.557 1.302 0 .54-.186.97-.557 1.3-.37.32-.88.49-1.527.49H59.84zm0-.87h1.113c.315 0 .553-.085.715-.257.163-.17.244-.38.244-.65s-.08-.49-.242-.67c-.16-.17-.4-.26-.717-.26H59.84v1.84zm6.146 2.045h2.504v.866h-3.633v-5.63h1.13v4.76zm8.44-1.442c0 .7-.217 1.27-.654 1.72-.437.45-1.004.68-1.703.68-.7 0-1.26-.22-1.69-.67-.44-.45-.65-1.02-.65-1.71V15.4c0-.69.21-1.26.64-1.713.43-.452.99-.678 1.69-.678s1.26.22 1.7.67c.43.45.65 1.02.65 1.71v1.01zM73.3 15.38c0-.437-.11-.797-.33-1.077-.22-.28-.52-.422-.904-.422s-.682.14-.893.42c-.212.28-.317.64-.317 1.08v1.02c0 .45.107.81.32 1.09.214.29.512.43.893.43.38 0 .68-.14.9-.42.21-.28.32-.64.32-1.09v-1.02zm4.764.295h.023l1.23-2.594h1.236l-1.932 3.65v1.98H77.5v-2.04l-1.9-3.59h1.236l1.23 2.6zm6.988 1.565c0-.216-.076-.39-.23-.522-.153-.13-.42-.255-.805-.37-.67-.194-1.177-.423-1.52-.69-.342-.264-.513-.628-.513-1.09 0-.46.196-.837.59-1.13.392-.292.894-.438 1.504-.438.62 0 1.123.164 1.512.493.39.328.577.734.564 1.215l-.008.024h-1.094c0-.26-.087-.47-.26-.632-.174-.16-.42-.242-.733-.242-.31 0-.54.067-.7.2-.17.135-.25.306-.25.515 0 .19.09.347.26.47.17.122.48.252.91.388.62.18 1.09.41 1.41.69.32.29.48.66.48 1.12 0 .48-.19.86-.57 1.14-.38.28-.88.42-1.51.42-.62 0-1.15-.15-1.61-.47-.46-.31-.68-.76-.66-1.32v-.02h1.1c0 .34.1.58.3.74.2.16.49.24.85.24.31 0 .54-.06.702-.19.16-.12.24-.29.24-.5zm5.933 1.47v-5.63h1.902c.662 0 1.18.13 1.55.388.37.257.557.643.557 1.155 0 .26-.07.493-.207.698-.138.21-.338.36-.6.47.336.07.59.23.758.47.17.24.253.51.253.83 0 .54-.177.95-.533 1.23-.356.28-.86.42-1.51.42h-2.17zm1.13-2.49v1.623h1.04c.298 0 .526-.065.683-.195.157-.13.236-.323.236-.578 0-.276-.067-.486-.2-.632-.135-.146-.347-.218-.635-.218h-1.13zm0-.78h.81c.302 0 .534-.063.696-.187.17-.123.25-.304.25-.54 0-.26-.08-.453-.24-.577-.16-.123-.4-.185-.73-.185h-.77v1.49zm6.396.235h.03l1.23-2.594H101l-1.933 3.65v1.98h-1.124v-2.04l-1.898-3.59h1.237l1.23 2.6z" fill="#BCBCBC"/>
  </g>
</svg>
