<?xml version="1.0" encoding="UTF-8" standalone="no"?>
<svg width="24px" height="20px" viewBox="0 0 24 20" version="1.1" xmlns="http://www.w3.org/2000/svg" xmlns:xlink="http://www.w3.org/1999/xlink">
    <!-- Generator: Sketch 41 (35326) - http://www.bohemiancoding.com/sketch -->
    <title>Twitter</title>
    <desc>Created with Sketch.</desc>
    <defs></defs>
    <g id="Page-1" stroke="none" stroke-width="1" fill="none" fill-rule="evenodd">
        <g id="Desktop-HD-Copy" transform="translate(-719.000000, -1130.000000)" fill="#313C5D">
            <path d="M743,1132.36764 C742.118155,1132.76923 741.168692,1133.04081 740.172742,1133.16215 C741.189822,1132.5381 741.970241,1131.54857 742.337912,1130.36981 C741.385631,1130.94763 740.333333,1131.368 739.209192,1131.59336 C738.313259,1130.6125 737.032752,1130 735.615601,1130 C732.898222,1130 730.693608,1132.26074 730.693608,1135.04875 C730.693608,1135.44456 730.735869,1135.82882 730.820391,1136.19863 C726.728121,1135.98772 723.100722,1133.97978 720.670717,1130.92163 C720.246698,1131.66992 720.004402,1132.5381 720.004402,1133.46262 C720.004402,1135.21343 720.873569,1136.75912 722.194929,1137.66486 C721.389153,1137.6403 720.628456,1137.41062 719.96355,1137.03503 L719.96355,1137.09715 C719.96355,1139.54424 721.661032,1141.58541 723.91495,1142.04767 C723.502201,1142.16612 723.066913,1142.22535 722.617538,1142.22535 C722.300581,1142.22535 721.990667,1142.19502 721.690615,1142.13579 C722.317485,1144.14085 724.134707,1145.6013 726.290016,1145.6403 C724.605212,1146.99531 722.480895,1147.80282 720.174855,1147.80282 C719.777602,1147.80282 719.384575,1147.7797 719,1147.73348 C721.179257,1149.1636 723.768445,1150 726.547808,1150 C735.60574,1150 740.557316,1142.30769 740.557316,1135.63525 C740.557316,1135.41567 740.55309,1135.1961 740.544638,1134.98086 C741.506779,1134.26869 742.342138,1133.38028 743,1132.36764" id="Twitter"></path>
        </g>
    </g>
</svg>