<svg width="24" height="24" viewBox="0 0 24 20" xmlns="http://www.w3.org/2000/svg">
  <title>
    Twitter
  </title>
  <path d="M24 2.37c-.88.4-1.83.67-2.83.8 1.02-.63 1.8-1.62 2.17-2.8-.95.58-2 1-3.13 1.22-.9-1-2.14-1.6-3.55-1.6-2.72 0-4.93 2.23-4.93 5.02 0 .4.05.78.13 1.15C7.73 6 4.1 3.97 1.67.9 1.25 1.67 1 2.54 1 3.46c0 1.75.87 3.3 2.2 4.2-.8-.02-1.57-.25-2.24-.62v.06c0 2.44 1.7 4.5 3.95 4.95-.4.12-.8.18-1.25.18-.32 0-.63-.03-.93-.1.63 2 2.44 3.47 4.6 3.5C5.6 17 3.48 17.8 1.17 17.8c-.4 0-.8-.02-1.17-.07C2.16 19.16 4.75 20 7.53 20c9.06 0 14-7.7 14-14.36v-.66c.96-.7 1.8-1.6 2.45-2.6" fill="#181D2E" fill-rule="evenodd"/>
</svg>
