<svg width="634" height="285" viewBox="0 0 634 285" xmlns="http://www.w3.org/2000/svg">
  <title>
    Ustwo Games Logo
  </title>
  <g fill="#1D1D1B">
    <path d="M230.154 56.586c-4.266-2.824-10.578-6.196-12.205-6.816-6.87-2.62-11.86-1.797-16.6 1.49-2.73 1.695-5.44 4.598-8.68 8.363l-.01.01-73.8 81.342 7.59-28.522 13.52-38.116c0-.006.01-.01.01-.01l-.11-.018.06-.19v-.01c3.97-12.44 1.01-14.85-10.45-22.65l-1.2-.82c-7.61-5.16-11.32-2.34-13.95 5.39L108.2 69l-64.48 56.035L62.43 71.94c1.874-5.856 1.522-8.917-4.008-12.768h-.003l-12.9-8.768c-4.78-3.24-8.8-2.677-14.15.303l-15.79 9.036c-4.88 2.728-6.06 5.51-2.05 8.24l.01.007 15.4 10.47-25.56 74.568c-1.89 5.9-1.92 10.094 2.27 12.948l14.56 9.906v.005c5.92 4.028 7.81 2.254 11.11-.83v-.005l61.24-56.842-9.5 24.66-.01.022c-5.79 18.035-4.81 19.93 7.52 28.346 1.58 1.084 8.5 6.052 10.15 6.51 5.98 1.657 9.74-1.535 14.9-7.834l.01-.01 86.572-98.03-.56 76.552-13.02-5.626c-4.81-2.123-10.483-4.425-10.68 3.313v13.07c0 5.8 3.14 12.65 9.58 15.314l8.72 3.632c6.8 2.93 9.97 3.75 16.85-.01.43-.24 14.6-8.25 14.88-8.41 6.584-3.72 8.13-6.96 8.533-12.38l.18-6.68v-.01l.76-76.65c.02-10.18-2.6-14.31-7.31-17.42"/>
    <path d="M625.858 55.668c-3.61-4.235-6.392-5.71-12.466-5.71-6.86 0-11.548 3.243-11.548 3.243l-11.883 7.11c-4.87 2.73-6.05 5.51-2.04 8.25l.01.01 15.4 10.47c1.45 1.17.76 17.55-4.47 31.65-5.43 14.64-9.21 21.39-17.76 31.42-7.58 8.9-19.74 17.44-28.29 12.83-9.15-4.93-8.8-19.39 1.98-44.41 4.61-10.69 12.29-22.97 16.89-30.87 4.61-7.89 2.21-14.78-5.3-20.51l-10.59-7.95c-7.33-4.79-17.21-4.3-25.51 3.95l-69.01 72.51 11.63-37.72 3.13-7.93s.01 0 .01-.01c3.98-12.44-.3-14.85-11.76-22.65l-1.2-.82c-7.61-5.16-11.31-2.34-13.94 5.39l-.15.31-64.79 60.55 16.84-51.36c.01 0 .01-.01.01-.01 3.24-10.09-5.13-15.57-14.72-22.09s-14.36-2.35-22.29 6.87v.01l-73.79 82.66 28.68-89.33c2.9-9.06 1.03-12.28-4.16-16.04l-11.15-6.02H487.3c4.18-.02 4.683-2.5 2.51-6.8L482.87 8.6c-2.39-4.71-4.994-7.116-9.96-7.1H122.86c-4.186.02-4.688 2.57-2.515 6.87l6.92 14.065c2.39 4.707 4.99 7.046 9.96 7.03H290.7L254.423 142.74l-.007.025c-5.79 18.03-4.808 19.93 7.515 28.34 12.33 8.42 15.49 10.35 25.06-1.33l.01-.01 83.56-96.61-26.61 79.17c-2.59 8.56-1.88 11.68 2.11 14.39 4.43 3.02 7.25 4.94 12.54 8.53 5.26 3.58 7.59 4.33 14.34-2.03l66.06-62.85-17 41.916c-3.415 10.71-1.97 12.08 7.688 18.65.016.01.03.02.047.04l6.03 4.1c5.788 3.71 9.63 4.65 15.276-1.79l85.54-92.08c-4.997 9.62-10.915 19.15-14.345 29.455-7.958 23.915-10.597 61.286 21.548 67.884 4.355.894 9.343 1.57 12.994 1.47 45.886-1.61 70.728-47.864 75.973-84.58 3.33-23.33-1.6-33.555-6.9-39.768M90.76 256.72c0-3.964.434-7.557 1.304-10.78.874-3.22 2.204-5.973 3.995-8.252 1.78-2.28 4.05-4.04 6.78-5.283 2.73-1.24 5.96-1.86 9.68-1.86 2.65 0 5.08.363 7.3 1.09 2.22.73 4.14 1.79 5.78 3.188 1.63 1.4 2.95 3.09 3.95 5.07 1 1.98 1.57 4.19 1.72 6.63h-9.53c-.55-5.27-3.86-7.91-9.92-7.91-3.22 0-5.84.93-7.84 2.8-2.01 1.87-3.01 4.36-3.01 7.49v15.26c0 1.51.28 2.9.84 4.17.56 1.28 1.33 2.38 2.31 3.3.97.92 2.13 1.64 3.45 2.15 1.32.518 2.77.77 4.35.77 3.22 0 5.79-.802 7.71-2.42 1.92-1.61 2.88-4.14 2.88-7.602v-2.15H112.3v-8.06h19.8v27.22h-8.88l-.216-4.545c-2.557 3.77-6.54 5.66-11.96 5.66-3.368 0-6.32-.652-8.864-1.953-2.543-1.3-4.66-3.097-6.356-5.39-1.696-2.29-2.966-5.02-3.814-8.18-.847-3.16-1.27-6.615-1.27-10.36m109.363 6.08h12.12l-5.775-19.66h-.325l-6.024 19.66zm-15.946 18.69l16.984-49.88h10.15l16.91 49.88h-10.24l-3.3-10.64h-17.03l-3.22 10.64h-10.24zm101.61 0v-49.88h15.53l9.705 39.18h.294l9.524-39.175h15.613v49.88h-9.165V242l-.86-.14-10.236 39.67h-10.75L295.2 241.98h-.26v39.52m103.687 0v-49.88h34.305v8.092H408.16v12.247h21.413v8.05H408.16v13.43h24.78v8.05m57.133-14.9h9.526c.38 2.94 1.5 5.03 3.36 6.28 1.86 1.25 4.26 1.88 7.2 1.88 2.79 0 5.14-.58 7.05-1.74 1.91-1.16 2.86-2.83 2.86-5.03 0-1.77-.55-3.17-1.65-4.23-1.1-1.05-2.78-1.86-5.05-2.44l-9.74-2.58c-4.11-1.08-7.15-2.84-9.13-5.288-1.98-2.448-2.97-5.498-2.97-9.15 0-2.006.43-3.855 1.29-5.55.86-1.696 2.07-3.15 3.63-4.37 1.56-1.217 3.47-2.166 5.71-2.846 2.24-.68 4.76-1.02 7.56-1.02 2.53 0 4.88.297 7.07.88 2.18.586 4.08 1.49 5.69 2.705 1.61 1.22 2.93 2.78 3.95 4.69 1.02 1.91 1.66 4.157 1.9 6.736h-9.53c-.15-1.36-.5-2.505-1.06-3.44-.56-.93-1.26-1.674-2.09-2.24-.84-.56-1.78-.943-2.83-1.16-1.05-.214-2.14-.32-3.26-.32-2.65 0-4.73.523-6.25 1.573-1.52 1.05-2.28 2.476-2.28 4.29 0 1.9.59 3.35 1.78 4.34 1.18.99 2.97 1.8 5.36 2.443l8.49 2.21c4.24 1.127 7.46 2.826 9.64 5.098 2.18 2.276 3.27 5.47 3.27 9.586 0 2.29-.46 4.34-1.39 6.154-.93 1.82-2.25 3.358-3.956 4.62-1.706 1.268-3.75 2.23-6.123 2.9-2.37.67-4.98 1.006-7.82 1.006-2.795 0-5.37-.29-7.735-.876-2.37-.59-4.44-1.52-6.24-2.797-1.79-1.28-3.23-2.93-4.33-4.96s-1.74-4.488-1.933-7.378"/>
  </g>
</svg>
