<svg width="56" height="28" viewBox="0 0 56 28" xmlns="http://www.w3.org/2000/svg">
  <title>
    ustwo-games
  </title>
  <g fill="#FFF" fill-rule="evenodd">
    <path d="M20.208 4.84c-.378-.25-.937-.55-1.082-.604-.608-.232-1.05-.16-1.47.132-.243.15-.483.408-.77.742l-6.542 7.21.673-2.528 1.2-3.378-.01-.003.005-.01c.353-1.1.09-1.31-.925-2.01l-.107-.07c-.674-.45-1.002-.2-1.235.48L9.4 5.95l-5.717 4.96L5.34 6.202c.168-.52.136-.79-.354-1.132l-1.143-.776c-.423-.287-.78-.237-1.254.027l-1.4.8c-.44.25-.54.49-.18.73v.01l1.36.93-2.27 6.6c-.17.52-.17.89.2 1.14l1.29.88c.52.36.69.2.98-.07l5.44-5.04-.84 2.19c-.52 1.6-.43 1.77.66 2.52.14.1.75.54.9.58.53.15.86-.13 1.32-.69l7.68-8.7-.05 6.79-1.16-.5c-.43-.18-.93-.39-.95.3v1.16c0 .52.27 1.12.85 1.36l.77.32c.6.26.88.34 1.49 0 .04-.02 1.29-.73 1.32-.74.58-.33.72-.61.75-1.09l.01-.59.07-6.79c0-.9-.23-1.27-.65-1.54z"/>
    <path d="M55.252 4.802c-.32-.375-.567-.506-1.105-.506-.608 0-1.024.287-1.024.287l-1.053.63c-.432.242-.536.49-.18.73l1.365.93c.128.103.067 1.554-.397 2.805-.48 1.297-.816 1.895-1.574 2.784-.673.79-1.75 1.546-2.508 1.137-.812-.44-.78-1.72.175-3.94.41-.95 1.09-2.04 1.5-2.74.41-.7.2-1.31-.47-1.82l-.94-.71c-.65-.43-1.52-.38-2.26.35l-6.12 6.43 1.04-3.34.28-.71c.36-1.11-.02-1.32-1.04-2.01l-.1-.08c-.67-.46-1-.21-1.23.48l-.01.02-5.74 5.37 1.5-4.55c.29-.9-.45-1.38-1.3-1.96-.85-.58-1.27-.21-1.97.61l-6.55 7.33 2.54-7.91c.26-.81.09-1.09-.37-1.42l-.98-.53H43c.37-.01.415-.23.22-.61L42.58.63c-.212-.418-.442-.63-.883-.63h-31.03c-.37.002-.415.228-.223.61l.615 1.246c.21.417.44.624.88.623h13.6l-3.21 10.04c-.52 1.6-.43 1.76.66 2.51 1.09.74 1.37.92 2.22-.12l7.41-8.57-2.36 7.01c-.23.76-.17 1.03.18 1.27l1.11.75c.46.31.67.38 1.27-.18l5.85-5.57-1.5 3.71c-.31.95-.18 1.07.68 1.65l.53.36c.51.33.85.41 1.35-.16l7.58-8.16c-.44.85-.97 1.69-1.27 2.61-.7 2.12-.94 5.43 1.91 6.01.39.08.83.14 1.15.13 4.06-.14 6.26-4.24 6.73-7.5.29-2.07-.14-2.98-.61-3.53M5.53 24.27h1.23v2.488c-.686.756-1.67 1.134-2.944 1.134-1.08 0-1.98-.354-2.71-1.062-.72-.707-1.08-1.602-1.08-2.685 0-1.082.37-1.984 1.11-2.705.73-.722 1.63-1.083 2.68-1.083 1.04 0 1.91.306 2.61.916l-.66.937c-.287-.243-.57-.41-.86-.505-.29-.094-.624-.14-1.005-.14-.73 0-1.35.237-1.85.712-.5.476-.75 1.1-.75 1.874s.25 1.4.73 1.87c.49.47 1.07.71 1.76.71s1.27-.15 1.74-.45v-2zm8.266 1.884l-.73 1.655h-1.31l3.2-7.28h1.31l3.2 7.27h-1.31l-.73-1.66H13.8zm3.14-1.134l-1.32-2.997-1.32 2.997h2.64zm9.24 2.79h-1.23v-7.276h1.91l2.19 4.57 2.194-4.57h1.903v7.275h-1.22v-5.69l-2.54 5.04H28.7l-2.53-5.05v5.68zm18.58-7.276v1.156h-3.89v1.925h3.48v1.092h-3.48v1.947h4.003v1.155h-5.23v-7.28h5.11zm7.48 1.176c-.23.146-.35.366-.35.66 0 .296.11.52.34.678.23.156.71.324 1.46.504.742.18 1.31.434 1.682.76.38.326.567.807.567 1.44 0 .636-.24 1.15-.718 1.547-.48.39-1.11.59-1.89.59-1.14 0-2.15-.39-3.03-1.18l.77-.93c.733.63 1.5.95 2.29.95.392 0 .71-.09.94-.26.23-.17.345-.4.345-.68s-.11-.5-.327-.66c-.22-.16-.596-.3-1.13-.43-.535-.13-.94-.25-1.218-.35-.28-.11-.523-.25-.74-.43-.43-.33-.643-.83-.643-1.5s.242-1.2.73-1.56c.49-.37 1.096-.55 1.817-.55.46 0 .93.07 1.38.23.46.15.86.36 1.19.64l-.65.92c-.21-.2-.5-.36-.87-.48s-.73-.19-1.08-.19c-.36 0-.65.074-.88.22z"/>
  </g>
</svg>
