<?xml version="1.0" encoding="UTF-8" standalone="no"?>
<svg width="56px" height="28px" viewBox="0 0 56 28" version="1.1" xmlns="http://www.w3.org/2000/svg" xmlns:xlink="http://www.w3.org/1999/xlink">
    <!-- Generator: Sketch 41.1 (35376) - http://www.bohemiancoding.com/sketch -->
    <title>ustwo-games</title>
    <desc>Created with Sketch.</desc>
    <defs></defs>
    <g id="Page-1" stroke="none" stroke-width="1" fill="none" fill-rule="evenodd">
        <g id="C1" transform="translate(-20.000000, -14.000000)" fill="#FFFFFF">
            <g id="ustwo-games" transform="translate(20.000000, 14.000000)">
                <path d="M20.2081022,4.84054648 C19.8300065,4.59026858 19.2705168,4.2913893 19.1262435,4.23640981 C18.5180248,4.00437336 18.0758927,4.07708406 17.6550635,4.36843714 C17.4130772,4.5188335 17.1727491,4.77599978 16.8858608,5.10970365 L16.8854781,5.11059659 L10.3441933,12.3204371 L11.0168312,9.79240069 L12.2156649,6.41390411 C12.2156649,6.41339386 12.2166854,6.41301117 12.2166854,6.41301117 L12.2067355,6.41135286 L12.2123482,6.39527996 L12.2128585,6.39425946 C12.5651865,5.29148042 12.3027901,5.07806812 11.2870088,4.38655104 L11.180494,4.31396789 C10.5059428,3.85665582 10.1777241,4.10655104 9.94466714,4.79168999 L9.39857147,5.94141208 L3.6833824,10.9080636 L5.34144163,6.20163987 C5.50752819,5.68258748 5.4764029,5.41126174 4.98617967,5.06990411 L4.98592454,5.06990411 L3.84309083,4.29279249 C3.42009311,4.00577655 3.06355552,4.05552598 2.58902249,4.31958065 L1.18953274,5.12067404 C0.757095387,5.36253281 0.653259396,5.60898384 1.00852136,5.85109773 L1.00928673,5.85160798 L2.37395188,6.77937108 L0.108184225,13.3887743 C-0.0587952735,13.911526 -0.0617292142,14.2833711 0.3097332,14.5364554 L1.60066714,15.4143415 C1.60117739,15.4147242 1.60143252,15.4147242 1.60143252,15.4147242 C2.12622523,15.771772 2.2939701,15.6146148 2.58621612,15.3412481 L2.58647124,15.3407378 L8.01387899,10.3023961 L7.17209311,12.4886923 L7.1714553,12.4909884 C6.65814322,14.089731 6.74526851,14.257731 7.83745985,15.0035898 C7.97790632,15.0996444 8.59084482,15.5401182 8.73690404,15.5805556 C9.26743707,15.7275078 9.60050313,15.4444463 10.0580703,14.8862321 L10.0589633,14.8852116 L17.7328767,6.19640981 L17.68351,12.9817219 L16.5293232,12.4832071 C16.1028813,12.2949246 15.5999018,12.0908244 15.5828084,12.7767287 L15.5828084,13.9351251 C15.5828084,14.4492025 15.8607674,15.0562731 16.4317378,15.2925191 L17.2046398,15.6143597 C17.8073733,15.8743324 18.0886489,15.9466604 18.6981432,15.6134668 C18.7362845,15.5929292 19.9916284,14.8829155 20.0165031,14.8683734 C20.6001022,14.5384964 20.7371045,14.2514804 20.7729496,13.7710795 L20.7887674,13.179444 L20.7887674,13.1789337 L20.8557378,6.38481983 C20.8572685,5.48295195 20.6257423,5.11697473 20.2081022,4.84054648 Z" id="Fill-1"></path>
                <path d="M55.2518972,4.80197498 C54.9319701,4.42668569 54.6853915,4.29580642 54.1469496,4.29580642 C53.5388585,4.29580642 53.123387,4.58333261 53.123387,4.58333261 L52.0701022,5.21349206 C51.6376649,5.45522327 51.5338289,5.70180186 51.8890908,5.94391575 L51.889346,5.944426 L53.2545214,6.8721891 C53.3829769,6.97564241 53.3217469,8.42705015 52.8580567,9.6776743 C52.377018,10.9751139 52.0416558,11.5728725 51.283551,12.4622392 C50.6114234,13.2507039 49.5340293,14.0076606 48.7759246,13.5993326 C47.9644986,13.1624306 47.9956239,11.8805536 48.9509405,9.66300459 C49.359141,8.71534172 50.0394325,7.6268497 50.447633,6.92704104 C50.855961,6.22723238 50.6435692,5.61620733 49.9778198,5.10901826 L49.0397241,4.40474491 C48.3901751,3.98059913 47.5142025,4.0237153 46.7780385,4.7547768 L40.6612822,11.1817654 L41.693264,7.83936906 L41.97033,7.1364989 C41.97033,7.1364989 41.9708403,7.13611621 41.9708403,7.1354784 C42.3231683,6.03269935 41.9441797,5.81928705 40.9283984,5.12776997 L40.821756,5.05518683 C40.1473323,4.59787475 39.8189861,4.84776997 39.5859291,5.53303648 L39.5729177,5.56059001 L33.8296649,10.9272779 L35.3229132,6.37418455 C35.3232959,6.37380186 35.3232959,6.37303648 35.3232959,6.37303648 C35.6099291,5.47856724 34.868535,4.99319138 34.0185851,4.41494992 C33.1686353,3.83683603 32.7452549,4.20664013 32.0430225,5.02355129 C32.0430225,5.02355129 32.0425123,5.02393398 32.0425123,5.02444423 L25.5014826,12.350877 L28.0441888,4.43370163 C28.3011,3.63043967 28.1356512,3.34495448 27.6757879,3.01176086 L26.6879428,2.47905926 L42.9686353,2.47905926 C43.3393323,2.47714582 43.3838517,2.25710026 43.1912321,1.87594309 L42.5771455,0.629528511 C42.365264,0.212143545 42.1345031,-0.00139631847 41.6940293,6.87059953e-06 L10.6677332,6.87059953e-06 L10.6673505,6.87059953e-06 C10.2965259,0.00192031024 10.251879,0.228088875 10.4444986,0.609246051 L11.0587127,1.85566063 C11.2704667,2.27304559 11.5012275,2.48033489 11.9417013,2.4789317 L25.5447264,2.47905926 L22.3292549,12.5191322 C22.3292549,12.5191322 22.3287446,12.5204078 22.328617,12.5213007 C21.815305,14.1200433 21.9024303,14.2880433 22.9946216,15.0340296 C24.0873232,15.7803987 24.3669405,15.9518429 25.2153596,14.9165445 L25.2157423,14.9156515 L32.6221569,6.35313671 L30.2636512,13.3703577 C30.0335282,14.1293554 30.0964166,14.4056561 30.4505305,14.6461117 C30.8432959,14.9139932 31.0930635,15.0836515 31.5618562,15.402303 C32.027715,15.7191686 32.2346216,15.7858839 32.8325077,15.2224397 L38.6872503,9.65190664 L37.1826489,13.3652552 C36.8796877,14.3139385 37.0078881,14.4361435 37.8638334,15.0180843 C37.8652366,15.0191048 37.8665123,15.0199978 37.8679154,15.0214009 L38.4025305,15.3843167 C38.9154599,15.7136834 39.2560521,15.7967267 39.7564804,15.2263941 C39.7569906,15.2258839 47.3385487,7.06557407 47.3385487,7.06557407 C46.8956512,7.9184579 46.3709861,8.76292259 46.0670043,9.67627111 C45.3615829,11.7961071 45.1277605,15.1085262 47.9769997,15.6934009 C48.3628767,15.7726173 48.8051364,15.8326994 49.1286353,15.82377 C53.1958426,15.6806447 55.3977013,11.5812916 55.8626672,8.32665835 C56.1581022,6.25886792 55.7214553,5.35279047 55.2518972,4.80197498" id="Fill-3"></path>
                <path d="M5.53604994,24.2703735 L6.76404212,24.2703735 L6.76404212,26.757578 C6.0771956,27.5138029 5.09550545,27.8919097 3.81894222,27.8919097 C2.74357646,27.8919097 1.84340475,27.538085 1.11840008,26.830425 C0.393395423,26.1227649 0.0308985294,25.2277965 0.0308985294,24.1454929 C0.0308985294,23.0631893 0.400333162,22.1612832 1.13921351,21.4397474 C1.87809386,20.7182117 2.77132783,20.3574492 3.81894222,20.3574492 C4.86655661,20.3574492 5.73724293,20.6627098 6.43102729,21.27324 L5.77540435,22.2098442 C5.49095276,21.9670197 5.204771,21.7987795 4.91685049,21.7051186 C4.62892998,21.6114577 4.29418404,21.564628 3.91260264,21.564628 C3.17719122,21.564628 2.55973239,21.8022456 2.06020765,22.2774878 C1.56068291,22.7527301 1.31092428,23.3771267 1.31092428,24.1506963 C1.31092428,24.9242658 1.55374517,25.5451935 2.03939422,26.013498 C2.52504328,26.4818024 3.11301671,26.7159511 3.80333215,26.7159511 C4.49364759,26.7159511 5.07121441,26.5667897 5.53604994,26.2684624 L5.53604994,24.2703735 Z M13.7991928,26.1539886 L13.0707229,27.808656 L11.759477,27.808656 L14.9647447,20.5343633 L16.2759906,20.5343633 L19.4812584,27.808656 L18.1700125,27.808656 L17.4415425,26.1539886 L13.7991928,26.1539886 Z M16.9420203,25.0196568 L15.6203677,22.0225234 L14.2987151,25.0196568 L16.9420203,25.0196568 Z M26.1833942,27.808656 L24.9554021,27.808656 L24.9554021,20.5343633 L26.8702373,20.5343633 L29.0660539,25.1029105 L31.2618704,20.5343633 L33.166299,20.5343633 L33.166299,27.808656 L31.9383068,27.808656 L31.9383068,22.1265905 L29.3990687,27.1738465 L28.7122256,27.1738465 L26.1833942,22.1265905 L26.1833942,27.808656 Z M44.7595901,20.5343633 L44.7595901,21.6895085 L40.877886,21.6895085 L40.877886,23.6147505 L44.364135,23.6147505 L44.364135,24.7074554 L40.877886,24.7074554 L40.877886,26.6535108 L44.8844707,26.6535108 L44.8844707,27.808656 L39.6498938,27.808656 L39.6498938,20.5343633 L44.7595901,20.5343633 Z M52.2422295,21.710322 C52.0132807,21.8560167 51.898808,22.0762899 51.898808,22.3711483 C51.898808,22.6660066 52.0132807,22.8914832 52.2422295,23.0475846 C52.4711784,23.2036861 52.9585546,23.3719263 53.7043728,23.5523102 C54.450191,23.7326942 55.0121479,23.9859217 55.3902603,24.3120003 C55.7683728,24.638079 55.9574262,25.1185174 55.9574262,25.7533301 C55.9574262,26.3881428 55.7180742,26.90327 55.239363,27.2987271 C54.7606518,27.6941842 54.1327864,27.8919097 53.3557479,27.8919097 C52.2179415,27.8919097 51.2085004,27.4999275 50.3273943,26.7159511 L51.097491,25.7897536 C51.8329025,26.4280352 52.5960538,26.7471713 53.386968,26.7471713 C53.7824251,26.7471713 54.0963578,26.662184 54.3287756,26.4922068 C54.5611933,26.3222296 54.6774005,26.0967531 54.6774005,25.8157704 C54.6774005,25.5347877 54.5681311,25.3162489 54.349589,25.1601475 C54.1310469,25.004046 53.7546745,24.8618223 53.2204606,24.7334722 C52.6862466,24.6051221 52.2803889,24.4871805 52.0028751,24.379644 C51.7253614,24.2721074 51.4790716,24.1316182 51.2639985,23.9581721 C50.8338522,23.6320934 50.6187822,23.1325762 50.6187822,22.4596053 C50.6187822,21.7866345 50.8633375,21.2680385 51.3524555,20.9038017 C51.8415735,20.5395649 52.4468913,20.3574492 53.168427,20.3574492 C53.6332625,20.3574492 54.0946222,20.4337643 54.5525199,20.5863969 C55.0104176,20.7390295 55.4058687,20.9540994 55.7388852,21.2316131 L55.0832623,22.1578106 C54.8681891,21.963551 54.5768041,21.803983 54.2090984,21.6791018 C53.8413927,21.5542206 53.4788958,21.491781 53.1215968,21.491781 C52.7642979,21.491781 52.4711784,21.5646272 52.2422295,21.710322 Z" id="GAMES"></path>
            </g>
        </g>
    </g>
</svg>