<svg width="56" height="28" viewBox="0 0 56 28" xmlns="http://www.w3.org/2000/svg">
  <title>
    ustwo-games
  </title>
  <g fill="#FFF" fill-rule="evenodd">
    <path d="M20.2 4.84c-.37-.25-.93-.55-1.07-.6-.6-.24-1.05-.16-1.47.13-.25.15-.5.4-.77.74l-6.6 7.3.7-2.5 1.2-3.4c.3-1.1.1-1.3-1-2l-.1-.1c-.7-.4-1-.2-1.3.5L9.3 6l-5.7 4.96 1.68-4.7c.2-.52.16-.8-.33-1.13l-1.2-.8c-.42-.3-.78-.23-1.25.03l-1.4.8c-.4.24-.5.5-.2.73l1.4.9-2.2 6.6c-.16.5-.16.9.2 1.1l1.3.8c.53.4.7.2 1 0l5.4-5-.83 2.2c-.5 1.6-.42 1.7.67 2.5.14.1.75.5.9.5.53.1.86-.2 1.32-.7l7.67-8.7-.05 6.7-1.15-.5c-.43-.2-.93-.4-.95.3v1.1c0 .5.28 1.1.85 1.3l.77.3c.6.2.9.3 1.5 0 .04 0 1.3-.8 1.32-.8.58-.4.72-.6.75-1.1l.02-.6V6.3c0-.9-.3-1.24-.7-1.52z"/>
    <path d="M55.25 4.8c-.32-.37-.56-.5-1.1-.5-.6 0-1.03.28-1.03.28l-1.05.63c-.43.3-.54.5-.18.8l1.3 1c.1.1 0 1.6-.4 2.8-.5 1.3-.8 1.9-1.6 2.8-.7.8-1.8 1.6-2.5 1.2-.8-.4-.8-1.7.1-3.9.4-.9 1.1-2 1.5-2.7.4-.7.2-1.3-.5-1.8l-1-.7c-.7-.4-1.6-.4-2.3.4l-6.1 6.5 1-3.3.2-.7c.3-1.1-.1-1.3-1.1-2l-.1-.1c-.7-.4-1-.2-1.3.5H39l-5.7 5.4L35 6.7c.25-.9-.5-1.4-1.3-1.98-.9-.57-1.3-.2-2 .6l-6.53 7.3 2.6-8c.27-.8.1-1.1-.35-1.44l-1-.5H43c.36 0 .4-.2.2-.6L42.6.6c-.2-.4-.45-.6-.9-.6h-31c-.38 0-.43.22-.24.6l.62 1.25c.2.4.44.62.88.62h13.6l-3.2 10.04c-.52 1.6-.44 1.8.65 2.5 1.1.8 1.4 1 2.3-.1l7.4-8.5-2.3 7c-.2.8-.1 1.1.2 1.3l1.1.8c.5.3.7.4 1.3-.2l5.9-5.6-1.5 3.7c-.3 1-.2 1.1.7 1.7l.5.4c.6.4.9.5 1.4-.1l7.6-8.2c-.4.8-.9 1.7-1.2 2.6-.7 2.1-.9 5.4 1.9 6 .4 0 .9.1 1.2.1 4.1-.1 6.3-4.2 6.8-7.5.3-2.1-.1-3-.6-3.5m-50 19.3h1.2v2.5c-.6.8-1.6 1.2-2.9 1.2-1 0-1.9-.3-2.7-1.1-.7-.7-1.1-1.6-1.1-2.7s.4-2 1.2-2.7c.8-.7 1.7-1.1 2.7-1.1 1.1 0 2 .3 2.6.9l-.6 1c-.3-.2-.6-.4-.8-.5-.3-.1-.6-.1-1-.1-.7 0-1.3.3-1.8.8s-.7 1.1-.7 1.9.3 1.4.8 1.9 1 .7 1.7.7 1.2-.2 1.7-.5v-2zm8.3 1.9l-.7 1.7H12l3.2-7.3h1.3l3.2 7.3h-1.3l-.74-1.6H14zm3-1.1l-1.3-3-1.3 3H17zm9.3 2.8H25v-7.3h1.9l2.2 4.6 2.2-4.6h1.9v7.3h-1.23v-5.6l-2.54 5.1h-.7l-2.6-5V28zm18.6-7.3v1.2H41v1.9h3.47v1.1h-3.5v2h4v1.2h-5.2v-7.3h5.1zm7.5 1.2c-.2.2-.3.4-.3.7 0 .3.1.5.3.7.2.2.7.3 1.4.5s1.3.5 1.7.8c.3.4.5.9.5 1.5s-.24 1.1-.7 1.5c-.5.4-1.1.6-1.9.6-1.13 0-2.14-.4-3-1.1l.74-.9c.7.6 1.5 1 2.3 1 .37 0 .7-.1.9-.3.2-.2.35-.4.35-.7 0-.3-.1-.5-.3-.7-.2-.2-.6-.3-1.1-.5-.53-.1-.94-.3-1.2-.4-.3-.1-.54-.2-.76-.4-.4-.3-.6-.8-.6-1.5s.25-1.2.74-1.5c.5-.4 1.1-.56 1.8-.56.46 0 .9.03 1.4.2.44.1.84.33 1.2.6l-.7.94c-.2-.2-.5-.34-.86-.5-.3-.1-.7-.2-1.06-.2-.4 0-.7.1-.9.2z"/>
  </g>
</svg>
