<svg width="65" height="36" viewBox="0 0 65 36" xmlns="http://www.w3.org/2000/svg">
  <title>
    ustwo-games
  </title>
  <g fill-rule="evenodd">
    <path d="M23.422 5.962c-.44-.3-1.087-.66-1.254-.725-.705-.28-1.218-.19-1.706.158-.28.18-.56.49-.89.89l-7.583 8.652.78-3.033 1.38-4.054v-.002h-.01v-.022c.41-1.323.1-1.58-1.07-2.41l-.13-.086c-.78-.55-1.16-.25-1.43.573l-.64 1.38-6.62 5.96 1.92-5.648c.19-.623.15-.948-.41-1.358l-1.32-.933c-.49-.344-.9-.284-1.45.033l-1.62.96c-.51.29-.63.587-.21.877L2.75 8.29.125 16.22c-.193.63-.196 1.075.234 1.378l1.49 1.054c.61.43.8.24 1.14-.088l6.29-6.046-.98 2.622v.01c-.6 1.92-.5 2.12.77 3.018.16.115.87.644 1.04.69.61.178 1-.162 1.53-.832l8.9-10.433-.06 8.14-1.34-.597c-.5-.226-1.08-.47-1.1.352v1.39c0 .617.32 1.345.98 1.63l.89.385c.7.31 1.02.4 1.73 0l1.53-.9c.67-.4.83-.74.87-1.32l.02-.71.075-8.153c.002-1.08-.266-1.52-.75-1.854"/>
    <path d="M64.072 5.864c-.37-.45-.656-.607-1.28-.607-.705 0-1.186.345-1.186.345l-1.22.756c-.503.29-.623.586-.21.877l1.582 1.113c.15.125.078 1.866-.46 3.367-.557 1.557-.946 2.274-1.825 3.34-.78.947-2.027 1.856-2.906 1.366-.94-.52-.904-2.06.203-4.72.473-1.13 1.26-2.44 1.735-3.28.473-.84.227-1.57-.545-2.18l-1.087-.84c-.753-.51-1.77-.46-2.622.42l-7.08 7.71 1.2-4.01.32-.84c.41-1.32-.03-1.58-1.2-2.41l-.12-.08c-.78-.55-1.16-.25-1.43.57l-.01.04-6.655 6.44L41 7.78c.33-1.074-.53-1.656-1.51-2.35-.99-.694-1.48-.25-2.29.73l-7.587 8.79 2.95-9.5c.297-.964.105-1.307-.427-1.707L30.99 3.1h18.87c.43 0 .48-.266.255-.724L49.4.876c-.26-.52-.528-.774-1.038-.77H12.4c-.43 0-.48.27-.258.73l.712 1.493c.246.5.513.75 1.024.74h15.766l-3.727 12.05c-.596 1.92-.495 2.12.77 3.01 1.268.89 1.592 1.1 2.575-.14l8.585-10.27-2.734 8.42c-.26.91-.19 1.24.22 1.53l1.29.91c.54.38.78.46 1.47-.22l6.79-6.68-1.74 4.46c-.35 1.132-.2 1.28.79 1.98h.01l.62.44c.6.394.99.494 1.57-.19l8.78-9.79c-.51 1.024-1.12 2.04-1.47 3.134-.82 2.543-1.09 6.52 2.21 7.22.45.095.96.17 1.34.156 4.72-.17 7.27-5.09 7.81-8.993.348-2.484-.16-3.57-.71-4.23M58.93 28.12c-.23.17-.35.424-.35.77 0 .34.11.602.34.786.23.19.707.38 1.454.59.74.21 1.306.51 1.677.89.38.38.57.94.57 1.677 0 .74-.24 1.34-.716 1.81-.475.452-1.103.685-1.88.685-1.136 0-2.142-.454-3.02-1.374l.768-1.08c.73.733 1.5 1.11 2.28 1.11.39 0 .71-.11.94-.307.23-.2.347-.465.347-.79s-.11-.58-.325-.768c-.22-.19-.597-.35-1.13-.5-.532-.16-.936-.3-1.213-.41-.28-.13-.52-.29-.74-.5-.43-.39-.64-.97-.64-1.75s.24-1.4.73-1.82c.487-.43 1.09-.64 1.81-.64.457 0 .925.08 1.374.26.46.176.857.42 1.185.747l-.65 1.07c-.21-.233-.5-.42-.87-.56-.37-.14-.726-.22-1.075-.22-.36 0-.65.086-.88.256l.015.07zm-9.278-1.63v1.4h-4.18v2.335h3.73v1.324h-3.74v2.36h4.3v1.4h-5.62v-8.83h5.487m-21.02 8.83h-1.33v-8.83h2.052l2.36 5.54 2.37-5.547h2.05v8.83H34.8v-6.9l-2.736 6.12h-.735L28.6 28.4v6.89m-12.84-1.98L15 35.313h-1.36l3.33-8.83h1.365l3.33 8.816h-1.363l-.76-2.02H15.77l-.005.02zm3.27-1.375L17.653 28.3l-1.374 3.634h2.74zM5.9 31.07h1.32v2.915c-.737.887-1.792 1.33-3.158 1.33-1.16 0-2.124-.415-2.907-1.244C.385 33.24 0 32.19 0 30.92s.397-2.325 1.19-3.17c.783-.846 1.75-1.27 2.875-1.27 1.115 0 2.048.36 2.8 1.075l-.71 1.097c-.307-.284-.61-.48-.92-.59-.312-.11-.67-.165-1.08-.165-.782 0-1.447.277-1.983.834-.536.56-.805 1.29-.805 2.2s.27 1.64.783 2.19c.526.55 1.148.84 1.888.84s1.362-.17 1.866-.53v-2.36z"/>
  </g>
</svg>
