<svg width="256" height="88" viewBox="0 0 256 88" xmlns="http://www.w3.org/2000/svg" xmlns:xlink="http://www.w3.org/1999/xlink">
  <title>
    wt-logotype-color
  </title>
  <defs>
    <path d="M26.32 26.14h.2-.2zm24.9 3.74h-.64.63zm3.72 21.73c.1-.2.17-.4.25-.6-.1.2-.2.4-.3.7zm-.48 1.2l.27-.6-.27.6zm-.5 1.1l.27-.6c-.1.2-.2.4-.28.6zM53.4 55l.3-.6-.3.6zm2.4-5.6l.2-.64-.2.65zm-.4 1.17l.22-.64-.23.64zm.85-2.6l-.07.25.08-.27zm1.38-8.3l.02-.9c0 .3 0 .6-.02.9zm50.42 15.9l-.04-.1.1.08zm.15.17c-.03 0-.05-.02-.07-.04l.07.02zm.22.08h-.1.1zm-10.4-15.7l.07.07-.1-.1zM79.2 42.4s0-.03.02-.04l.06.12-.06-.05h-.02zm-2.1 2.97c-.04-.1-.08-.2-.13-.28l.13.2zm.18.55l-.1-.36c.04.1.07.23.1.36zm.08.77c0-.2-.02-.4-.04-.6.02.2.04.4.04.6zm-8.1 5.5c0-.1 0-.1-.02-.1l.03.1zm-.3-.4l-.13-.1h.14zm.2.1c-.02-.1-.05-.1-.07-.1v.1zm4.67 7.5c0-.1-.02-.1-.03-.1h.04zm.17.2c-.02-.1-.05-.1-.08-.1H74zm.24 0h-.1.1zM98.64 41l.02.03V41zm-.2-.6s0 .02.03.05l-.04-.1zm74.73-23.08l.9.1-.9-.1zm1.1.1h-.03.04zm29.9 8.2h.35-.36zm-.47.03l.27-.05-.27.05zm-.43.15l.26-.1-.27.1zm-.45.32c.1-.1.2-.18.32-.25-.12.05-.22.13-.32.23zm-30.8-8.98l-1.08-.14 1.08.12zm1 .1l-.96-.1.97.1zm-2.26-.26l-1.1-.1c.38.06.75.1 1.1.14zm3.7 8.07h.06-.06zm-.4 0h.12-.1zm-.34 0h.05-.05zm-.46-.07c.03.02.06.02.1.03h-.1zm-.42-.06h.1c-.04 0-.07 0-.1-.02zm-.53-.1h.1l-.1-.02zm-.5-.12l.2.03-.1-.02zm3.3.43h-.2.2zm.2 0h.2-.1zm.5 0h-.1.2zM169.6 17zM52.97 55.7l.2-.4-.2.4zM49.8 29.9l.4-.04-.44.1zm-.76.18c.13-.04.25-.08.4-.1-.15.02-.27.06-.4.1zm-.63.27c.1-.07.3-.13.4-.17l-.3.16zm1.9 11.13l.1-.3v.3zm0 .95l.1-.4v.36zm-.1.9l.1-.4v.4zm-.1.9l.1-.4v.4zm-.1.9l.1-.4v.4zm-.2.85l.1-.4v.4zm-.2.86l.1-.4-.1.4zm-.2.84l.1-.4-.1.4zm-.3.83l.2-.4-.1.4zm-.2.8c.1-.1.1-.2.1-.4l-.1.4zm-.3.8c.1-.1.1-.2.2-.4l-.1.4zm-.3.8l.2-.3-.1.4zm-.3.8l.2-.3-.1.4zm-.3.7l.2-.3-.1.4zm-.3.7l.2-.3-.1.4zm-.4.7l.2-.3-.2.3zm-.4.7l.2-.3-.2.3zm-.4.6l.2-.3-.1.3zm-.4.6l.2-.2-.2.3zm-.4.6l.2-.2-.2.3zM35.8 41l.2-.3c-.1.1-.1.2-.2.3zm-.3.6l.13-.3-.1.32zm-.3.65l.12-.35-.2.34zm-.3.64l.2-.4-.2.3zm-.28.7l.1-.4-.2.3zm-.3.7l.1-.4-.16.4zm-.3.7l.13-.4-.13.4zm-.2.7l.1-.4-.1.4zm-.2.7l.1-.4-.1.4zm-.2.8l.1-.4-.1.4zm-.17.8c.02-.2.04-.3.1-.5-.06.1-.08.3-.1.4zm3.26-8.4l-.1.2.2-.3zm.4-.5l-.2.2.2-.3zm.3-.5l-.2.2.2-.3zm.4-.4l-.2.2.2-.2zm-1.4 1.9l-.2.3.2-.3zm1.8-2.2l-.2.2.2-.2zm7 18.6l-.2.2.2-.3zm-.4.5l.1-.1h-.1zm-11.4-8.4c0-.1 0-.2.1-.3v.2zm214-1.6c1.3-1.9 1.9-4.2 1.6-6.6-.3-3.1-1.9-5.6-4.2-7.3 2.5-2.3 4-5.8 3.6-9.4-.6-6.2-6.1-10.6-12.2-10-2.3.2-4.4 1.1-6 2.5-2.8-2.8-6.7-4.3-10.9-3.9-4.6.4-8.5 3.2-10.5 7-.7-1.6-2.34-2.6-4.14-2.4-1.64.1-2.95 1.2-3.5 2.7-2.1-4.5-6.84-7.3-12-6.8-.7.1-1.35.2-2 .4v-.8c-.4-3.9-3.82-6.7-7.7-6.3-2.4.2-4.4 1.6-5.5 3.6-.8-1.4-2.4-2.2-4-2.1-1.1.1-2 .6-2.7 1.3-2.8-4.1-7.7-6.5-12.9-6-5.8.5-10.4 4.6-12 9.8h-.4c-7.5.8-13 7.3-12.5 14.8-1.1-.2-2.3-.3-3.5-.1-1.9.1-3.6.7-5.1 1.6 0-.2 0-.4-.05-.6-.8-7.4-7.37-12.8-14.7-12-7.1.7-12.3 6.7-12.1 13.7-1.9-1.5-4.4-2.3-6.9-2-2.3.2-4.3 1.2-5.8 2.6-1.5-5.9-7.04-9.9-13.2-9.3-4.74.5-8.5 3.5-10.24 7.5-1.7-1.8-3.95-2.9-6.6-3h-.5c-1.4 0-2.65.2-3.73.8-1.4-2.2-3.93-3.5-6.7-3.3-.1 0-.2.03-.23.05-.78-3.1-3.68-5.2-6.9-4.9-2.38.26-4.3 1.7-5.2 3.7h-.2l-.08-.03c-.7-.1-1.5-.1-2.3-.1-.9 0-1.8.1-2.7.2-2.45-1.9-5.6-2.9-8.9-2.6-6.66.8-11.66 6.9-11 13.8.5 4.6 3.4 8.4 7.4 10.1-.2 0-.4 0-.6.05-3.9.4-6.7 3.9-6.3 7.7.4 3.7 3.44 6.4 7 6.3-.2.6-.3 1.1-.27 1.7.2 1.9 1.9 3.3 3.7 3.1.7 0 1.3-.3 1.8-.7 1.5 2 3.54 3.5 6.14 4.3 2.2 4.5 7.1 7.4 12.3 6.9 3.5-.3 6.5-2.1 8.5-4.6 1.64 3.3 5.2 5.4 9.1 5 1.6-.16 3.1-.76 4.36-1.65 1.9 3.94 6.1 6.5 10.68 6.02 5.27-.5 9.23-4.83 9.5-9.95 1.77 2.2 4.6 3.56 7.6 3.2 1.85-.1 3.5-.9 4.8-2 1.75 5.43 7.1 9.1 13.04 8.5 6.15-.66 10.77-5.6 11.15-11.6 2.1 1.65 4.9 2.5 7.8 2.23 4.1-.4 7.5-3.1 9-6.7 1.1.3 2.3.4 3.6.2 1.5-.2 3-.68 4.3-1.4 3.1 4.2 8.2 6.6 13.7 6.1 6.1-.6 11-4.8 12.9-10.3 2.5 1.66 5.5 2.5 8.8 2.16 2.3-.2 4.4-1 6.2-2.2v1c.4 3.9 3.8 6.7 7.7 6.3 3.4-.3 6-3.1 6.3-6.5 2.7 1.4 5.8 2.1 9 1.8 2.8-.3 5.4-1.3 7.6-2.8 2.5 4.1 7.2 6.6 12.3 6.1 2.84-.3 5.37-1.5 7.34-3.3 1.3 1.9 3.5 3 5.9 2.7 2.35-.26 4.3-1.76 5.2-3.78.6.1 1.3.17 2 .1 3.8-.4 6.6-3.8 6.2-7.7-.1-1.2-.54-2.3-1.2-3.3z" id="b"/>
    <filter x="-50%" y="-50%" width="200%" height="200%" filterUnits="objectBoundingBox" id="a">
      <feOffset in="SourceAlpha" result="shadowOffsetOuter1"/>
      <feGaussianBlur stdDeviation="1" in="shadowOffsetOuter1" result="shadowBlurOuter1"/>
      <feColorMatrix values="0 0 0 0 0 0 0 0 0 0 0 0 0 0 0 0 0 0 0.33 0" in="shadowBlurOuter1"/>
    </filter>
    <filter x="-50%" y="-50%" width="200%" height="200%" filterUnits="objectBoundingBox" id="c">
      <feOffset in="SourceAlpha" result="shadowOffsetOuter1"/>
      <feGaussianBlur stdDeviation="1" in="shadowOffsetOuter1" result="shadowBlurOuter1"/>
      <feColorMatrix values="0 0 0 0 0 0 0 0 0 0 0 0 0 0 0 0 0 0 0.33 0" in="shadowBlurOuter1" result="shadowMatrixOuter1"/>
      <feMerge>
        <feMergeNode in="shadowMatrixOuter1"/>
        <feMergeNode in="SourceGraphic"/>
      </feMerge>
    </filter>
    <path id="d" d="M0 .12v2.35h2.35V.12H0z"/>
    <path d="M174.4 4.7c1.25-.14 2.17-1.27 2.05-2.53-.13-1.27-1.26-2.2-2.52-2.06-1.26.2-2.2 1.3-2.06 2.6.13 1.3 1.26 2.2 2.52 2.1" id="g"/>
    <filter x="-50%" y="-50%" width="200%" height="200%" filterUnits="objectBoundingBox" id="f">
      <feOffset in="SourceAlpha" result="shadowOffsetOuter1"/>
      <feGaussianBlur stdDeviation="1" in="shadowOffsetOuter1" result="shadowBlurOuter1"/>
      <feColorMatrix values="0 0 0 0 0 0 0 0 0 0 0 0 0 0 0 0 0 0 0.33 0" in="shadowBlurOuter1"/>
    </filter>
    <path d="M242.73 59.4c-.92.1-1.6.93-1.5 1.84.1.92.92 1.6 1.83 1.5.92-.1 1.6-.92 1.5-1.83-.1-.9-.92-1.5-1.83-1.5" id="i"/>
    <filter x="-50%" y="-50%" width="200%" height="200%" filterUnits="objectBoundingBox" id="h">
      <feOffset in="SourceAlpha" result="shadowOffsetOuter1"/>
      <feGaussianBlur stdDeviation="1" in="shadowOffsetOuter1" result="shadowBlurOuter1"/>
      <feColorMatrix values="0 0 0 0 0 0 0 0 0 0 0 0 0 0 0 0 0 0 0.33 0" in="shadowBlurOuter1"/>
    </filter>
    <path d="M78.05 73.74c-.92.1-1.6.9-1.5 1.83.1.92.9 1.58 1.83 1.5.92-.1 1.6-.92 1.5-1.84-.1-.92-.92-1.58-1.83-1.5" id="k"/>
    <filter x="-50%" y="-50%" width="200%" height="200%" filterUnits="objectBoundingBox" id="j">
      <feOffset in="SourceAlpha" result="shadowOffsetOuter1"/>
      <feGaussianBlur stdDeviation="1" in="shadowOffsetOuter1" result="shadowBlurOuter1"/>
      <feColorMatrix values="0 0 0 0 0 0 0 0 0 0 0 0 0 0 0 0 0 0 0.33 0" in="shadowBlurOuter1"/>
    </filter>
    <path d="M27.58 17.7c.9-.08 1.58-.9 1.5-1.8-.1-.93-.92-1.6-1.84-1.5-.9.1-1.58.9-1.5 1.82.1.92.92 1.6 1.84 1.5" id="m"/>
    <filter x="-50%" y="-50%" width="200%" height="200%" filterUnits="objectBoundingBox" id="l">
      <feOffset in="SourceAlpha" result="shadowOffsetOuter1"/>
      <feGaussianBlur stdDeviation="1" in="shadowOffsetOuter1" result="shadowBlurOuter1"/>
      <feColorMatrix values="0 0 0 0 0 0 0 0 0 0 0 0 0 0 0 0 0 0 0.33 0" in="shadowBlurOuter1"/>
    </filter>
    <path d="M9.82 26c-2.48-1.88-3.34-3.18-3.34-4.75 0-3.37 5.05-5.66 6.4-5.4.6.12.9.37.9 1.57 0 1.72-1.9 4.63-3.96 8.58m29.44-11.7c-2.33-.1-3.95.78-4.34 2.8 2.58 3.04 3.53 4.74 3.53 7.42 0 9.48-5.76 18.98-9.72 18.53-1.2-.12-1.9-1.4-2.33-3.27 3.3-4.47 6.67-10.2 6.67-15.5 0-2.1-1.4-3.4-3.43-3.6-4.4-.42-8.48 8.44-8.48 17.28-1.86 2.3-3.4 3.65-5.05 3.34-1.5-.3-2.3-1.57-2.3-2.9 0-1.58.4-3.17 1.6-5.67 3.5-7.4 6.3-11.72 6.3-15.44 0-4.2-2.2-5.9-5.6-6.6-5.8-.9-16 3.2-16 9.9 0 4.1 3.6 7.8 7.9 9-1.8 3.4-2.5 6.7-2.5 8.5 0 4.4 2.1 8 6.9 9 3.3.7 6.5-.2 9.6-3.3 1.3 3 3.3 4.7 5.7 4.9 9.3 1.1 17.9-13.4 17.9-26.3 0-4.3-2.2-8.1-6.3-8.3" id="n"/>
    <filter x="-50%" y="-50%" width="200%" height="200%" filterUnits="objectBoundingBox" id="o">
      <feGaussianBlur stdDeviation=".5" in="SourceAlpha" result="shadowBlurInner1"/>
      <feOffset in="shadowBlurInner1" result="shadowOffsetInner1"/>
      <feComposite in="shadowOffsetInner1" in2="SourceAlpha" operator="arithmetic" k2="-1" k3="1" result="shadowInnerInner1"/>
      <feColorMatrix values="0 0 0 0 0 0 0 0 0 0 0 0 0 0 0 0 0 0 0.5 0" in="shadowInnerInner1"/>
    </filter>
    <path d="M207.2 12.67c2.3-2.4 3.2-4.06 3.2-5.2 0-1.5-2.15-4.03-4.05-4.36-1.53-.2-2.34 1-2.34 4.9 0 2.8 1.4 4.4 3.2 4.7" id="p"/>
    <filter x="-50%" y="-50%" width="200%" height="200%" filterUnits="objectBoundingBox" id="q">
      <feGaussianBlur stdDeviation=".5" in="SourceAlpha" result="shadowBlurInner1"/>
      <feOffset in="shadowBlurInner1" result="shadowOffsetInner1"/>
      <feComposite in="shadowOffsetInner1" in2="SourceAlpha" operator="arithmetic" k2="-1" k3="1" result="shadowInnerInner1"/>
      <feColorMatrix values="0 0 0 0 0 0 0 0 0 0 0 0 0 0 0 0 0 0 0.5 0" in="shadowInnerInner1"/>
    </filter>
    <path d="M185.2 26.63c-.58.7-1.25 1.15-1.92 1.13-.66-.03-1.23-.23-1.23-2 0-3.68 2.28-7.6 4.67-9-.5 3.3-1.02 6.58-1.53 9.87m37.1 1.82c-2.5 3.12-5.3 5.1-6.8 4.75-.5-.1-.7-.35-.7-.88 0-1.2 2.2-8.96 3.5-13.24 3.5-5.77 4.5-7.77 4.5-9.9 0-2.42-1.3-3.78-3.3-4.35-3.8-1.06-7.2 2.08-8 8.34-.5 3.16-1.3 7.47-1.9 10.46l-.7 2.7c-2.7 3.07-4.5 4.05-5.2 3.95-.5-.07-.7-.3-.7-.82 0-1.1.6-2.53 2-5.6.8-1.87 1.6-3.73 1.6-4.97 0-1.9-.2-3.1-2.4-3.5-3-.5-7.2 4-7.2 6.8 0 .6 0 1.2.1 1.8-2.8 3.5-5.1 4.9-6 4.8-.4-.1-.6-.2-.6-1.2 0-1.3.6-4.2 2.3-10.1.4-1.3.5-2.5.5-3.1 0-1.7-1.8-4.1-5-4.3-.7-.1-1.3.1-1.7.5l-.2 2.7c-.3-.3-.6-.4-1.3-.4-3.5-.2-7.6 3-9.5 7.7-1.2 1.1-2.3 2.1-3.1 2.3-.5.1-.7-.1-.9-.6-.4-.9-.4-3-.2-5 .14-1.4.2-2.5-.1-3.2-.3-.9-2-2-3.96-.6-.9.6-2.9 3.2-3.1 1.5 0-.1 0-.1-.05 0-.26-2.6-1.3-3.1-3.4-3.3-2.4-.2-4 .2-6.8 2.8-1.96 1.8-2.3 4.1-.65 4.3.2-.1 2.4-1.6 4.3-1.4.4 0 .8 4.5-1.3 11-.8 2.5-2.4 4-2.4 4.1-.34 1.5.4 3.7 3.3 3.7 1.9 0 4.66-1.1 5.9-10.8.1-.7.16-1.2.2-1.8.1-.9.2-1.2.3-1.9.7-4.3 2.6-2.6 2.28-1.1-.4 1.5-1.14 4.6-.2 6.9.5 1.1 1.7 1.6 2.9 1.3 2.86-.6 4.6-2.4 5.6-3.7-.1 1.2 0 2.5.2 3.9.6 2.5 2.3 4.5 4.6 4.5 1.7 0 3.9-1.1 5.4-5.4-.1.74-.1 1.36-.1 1.9 0 3.1 1.3 4 3.4 4.1 1.9.1 5.25-2 7.8-4.4-.07.5-.1 1.04-.1 1.6 0 2.6.95 3.94 3.76 4.3 2.3.3 5.5-1.4 8-3.5-.04.4-.06.76-.06 1.1 0 2.5 1 3.85 3.74 4.44 4.8.95 12.52-4.24 12.52-7.8 0-.98-.9-1.9-1.8-2.2" id="r"/>
    <filter x="-50%" y="-50%" width="200%" height="200%" filterUnits="objectBoundingBox" id="s">
      <feGaussianBlur stdDeviation=".5" in="SourceAlpha" result="shadowBlurInner1"/>
      <feOffset in="shadowBlurInner1" result="shadowOffsetInner1"/>
      <feComposite in="shadowOffsetInner1" in2="SourceAlpha" operator="arithmetic" k2="-1" k3="1" result="shadowInnerInner1"/>
      <feColorMatrix values="0 0 0 0 0 0 0 0 0 0 0 0 0 0 0 0 0 0 0.5 0" in="shadowInnerInner1"/>
    </filter>
    <path d="M160.72 9.74c3.72-.3 6.8-2.45 6.8-5.83 0-.5-.3-1.3-.65-1.6-5.65.2-9.02-.3-21.35-1.8-4.3-.5-7.18-.5-10.2-.1-5.1.7-10.06 6.8-10.06 12.8 0 3.3 1 5 3.86 5.2 2.84.2 5.05-1.1 6.63-2.3 2.96-2.2 4.02-4.8 3.47-5-.55-.2-3.08 2.1-6.14 1.9-1.1-.4-1.73-1.4-1.73-2.9 0-2 1.24-3.4 3.12-3.6 1.9-.2 4.1-.2 11 1.3-1.3 1.7-2.22 4.3-2.74 6.6-.5 2.3-.77 4.3-2.23 12.2-.9 4.9-2.03 7.3-3.6 7.5-1.2.2-3.28-1.3-4.67-3-2.53.4-3.96 2.2-3.96 4.5 0 3.6 3.07 5.9 7.18 5.3 5.4-.7 9.86-4.4 11.9-11.5 1.4-4.8 2.17-18.2 4.5-20.1l.47.1c2.93.7 6.18 1 8.4.8" id="t"/>
    <filter x="-50%" y="-50%" width="200%" height="200%" filterUnits="objectBoundingBox" id="u">
      <feGaussianBlur stdDeviation=".5" in="SourceAlpha" result="shadowBlurInner1"/>
      <feOffset in="shadowBlurInner1" result="shadowOffsetInner1"/>
      <feComposite in="shadowOffsetInner1" in2="SourceAlpha" operator="arithmetic" k2="-1" k3="1" result="shadowInnerInner1"/>
      <feColorMatrix values="0 0 0 0 0 0 0 0 0 0 0 0 0 0 0 0 0 0 0.5 0" in="shadowInnerInner1"/>
    </filter>
    <path d="M77 39.6c-.58.78-1.24 1.33-1.9 1.4-.68.07-1.25-.06-1.25-1.83 0-3.68 2.3-7.87 4.67-9.68L77 39.6m32.44-13.9c.57-.08.95.43.95 1.43 0 1.44-.6 3-3.3 3.9.3-3.4 1.6-5.22 2.3-5.33m9.8 3.37c-2.8 4.58-6.9 8.02-10.2 8.53-1.9.3-2.3-.83-2.3-2.98 6.5-2.5 8.8-6 8.8-10 0-3.35-1.8-4.64-5.1-4.12-4.2.67-9.4 7.53-10.4 14.18-2 2.8-3.9 4.7-5 4.86-.5.06-.7-.1-.7-.62 0-1.2 2.2-9.84 3.5-14.67 3.6-7.28 4.5-9.77 4.5-11.87 0-2.44-1.3-3.2-3.4-2.88-3.8.57-7.2 4.92-8 11.5-.4 3.3-1.3 7.92-1.9 11.1l-.7 3.28C86 39.02 84 40.7 83.1 40.8c-.4.05-.6-.07-.6-1.02 0-1.25.66-4.33 2.3-10.57.4-1.3.5-2.6.5-3.2 0-1.6-1.7-3.6-5-3.2-.62.1-1.24.4-1.62.8l-.1 2.8c-.23-.2-.6-.3-1.23-.2-4 .5-8.8 6.2-10.2 12.3-2.5 3.3-4.65 5.1-5.37 5.1-.5.1-.7-.1-.7-.6 0-1.2 1.6-5.1 2.4-7.3.7-1.9 1.1-3.4 1.1-4.8 0-1.6-.9-2.7-2.7-2.6-1.87.1-4.8 1.8-8.2 5.1l1.2-4.5c3.7-6.3 4.7-9.1 4.7-11.2 0-2.4-1.04-3.3-3.1-3.2-6.1.2-8.04 7.7-9.9 25.2-1.2 2.1-1.6 3.8-1.6 5.3.07 2.5 2.1 5.1 4.88 5 .95 0 1.76-.2 2.2-.7.03-4.4.36-8 .84-11.4 1.3-1.1 2.42-1.7 3.23-1.7.54 0 .7.4.7.7 0 1.1-2.5 6.6-2.5 9.8 0 2.6.95 3.8 3.8 3.7 2.44-.1 6.1-3 8.8-6.1.56 3 2.3 4.4 4.6 4.2 1.62-.2 3.8-1.6 5.4-6.1-.1.7-.2 1.4-.2 1.9 0 3.1 1.34 3.8 3.43 3.5 1.88-.2 4.97-2.8 7.47-5.6-.07.5-.1 1-.1 1.4 0 2.5 1 3.6 3.8 3.2 2.73-.4 6.43-3.4 9.1-6.6.7 3.1 2.8 4.6 6.5 4 6.2-1 14.1-9.8 14.1-13.32 0-.75-.67-1.4-1.8-1.3" id="v"/>
    <filter x="-50%" y="-50%" width="200%" height="200%" filterUnits="objectBoundingBox" id="w">
      <feGaussianBlur stdDeviation=".5" in="SourceAlpha" result="shadowBlurInner1"/>
      <feOffset in="shadowBlurInner1" result="shadowOffsetInner1"/>
      <feComposite in="shadowOffsetInner1" in2="SourceAlpha" operator="arithmetic" k2="-1" k3="1" result="shadowInnerInner1"/>
      <feColorMatrix values="0 0 0 0 0 0 0 0 0 0 0 0 0 0 0 0 0 0 0.5 0" in="shadowInnerInner1"/>
    </filter>
  </defs>
  <g fill="none" fill-rule="evenodd">
    <g transform="translate(4 5)">
      <use fill="#000" filter="url(#a)" xlink:href="#b"/>
      <use fill="#FEFEFE" xlink:href="#b"/>
    </g>
    <g filter="url(#c)" transform="translate(4 59.05)">
      <mask id="e" fill="#fff">
        <use xlink:href="#d"/>
      </mask>
      <path d="M1.06.12C.4.2-.06.76 0 1.42c.07.64.65 1.1 1.3 1.04.64-.06 1.1-.64 1.04-1.3C2.28.54 1.7.06 1.06.13" fill="#FEFEFE" mask="url(#e)"/>
    </g>
    <g transform="translate(4 5)">
      <use fill="#000" filter="url(#f)" xlink:href="#g"/>
      <use fill="#FEFEFE" xlink:href="#g"/>
    </g>
    <g transform="translate(4 5)">
      <use fill="#000" filter="url(#h)" xlink:href="#i"/>
      <use fill="#FEFEFE" xlink:href="#i"/>
    </g>
    <g transform="translate(4 5)">
      <use fill="#000" filter="url(#j)" xlink:href="#k"/>
      <use fill="#FEFEFE" xlink:href="#k"/>
    </g>
    <g transform="translate(4 5)">
      <use fill="#000" filter="url(#l)" xlink:href="#m"/>
      <use fill="#FEFEFE" xlink:href="#m"/>
    </g>
    <g transform="translate(16.963 21.247)">
      <use fill="#ED2024" xlink:href="#n"/>
      <use fill="#000" filter="url(#o)" xlink:href="#n"/>
    </g>
    <g transform="translate(16.963 21.247)">
      <use fill="#ED2024" xlink:href="#p"/>
      <use fill="#000" filter="url(#q)" xlink:href="#p"/>
    </g>
    <g transform="translate(16.963 21.247)">
      <use fill="#ED2024" xlink:href="#r"/>
      <use fill="#000" filter="url(#s)" xlink:href="#r"/>
    </g>
    <g transform="translate(16.963 21.247)">
      <use fill="#ED2024" xlink:href="#t"/>
      <use fill="#000" filter="url(#u)" xlink:href="#t"/>
    </g>
    <g transform="translate(16.963 21.247)">
      <use fill="#ED2024" xlink:href="#v"/>
      <use fill="#000" filter="url(#w)" xlink:href="#v"/>
    </g>
  </g>
</svg>
