<?xml version="1.0" encoding="UTF-8" standalone="no"?>
<svg width="256px" height="88px" viewBox="0 0 256 88" version="1.1" xmlns="http://www.w3.org/2000/svg" xmlns:xlink="http://www.w3.org/1999/xlink">
    <!-- Generator: Sketch 41.1 (35376) - http://www.bohemiancoding.com/sketch -->
    <title>wt-logotype-color</title>
    <desc>Created with Sketch.</desc>
    <defs>
        <path d="M26.3228485,26.1359637 C26.3902048,26.1406637 26.4567779,26.1453637 26.523351,26.1516304 C26.4567779,26.1453637 26.3902048,26.1406637 26.3228485,26.1359637 L26.3228485,26.1359637 Z M51.2063081,29.87952 C50.9870085,29.87012 50.7810235,29.8787367 50.5750385,29.88657 C50.6682408,29.8826534 50.7559607,29.8709034 50.8522959,29.8709034 C50.9682114,29.8709034 51.0864766,29.8740367 51.2063081,29.87952 L51.2063081,29.87952 Z M54.9438005,51.6076569 C55.0283875,51.4008565 55.1106249,51.1924895 55.1912958,50.9825558 C55.1106249,51.1924895 55.0283875,51.4008565 54.9438005,51.6076569 L54.9438005,51.6076569 Z M54.4621245,52.7286088 C54.5529772,52.5265084 54.6414803,52.3228414 54.7284169,52.1183911 C54.6414803,52.3228414 54.5529772,52.5265084 54.4621245,52.7286088 L54.4621245,52.7286088 Z M53.9475536,53.8213606 C54.0438888,53.6255269 54.1378743,53.4281266 54.2310767,53.2291596 C54.1378743,53.4281266 54.0438888,53.6255269 53.9475536,53.8213606 L53.9475536,53.8213606 Z M53.4000877,54.8851291 C53.5026886,54.6947788 53.6029399,54.5020784 53.7024079,54.3085948 C53.6029399,54.5020784 53.5026886,54.6947788 53.4000877,54.8851291 L53.4000877,54.8851291 Z M55.8014187,49.2968196 C55.8734743,49.0814026 55.9416138,48.8644189 56.0097534,48.6466518 C55.9416138,48.8644189 55.8734743,49.0814026 55.8014187,49.2968196 L55.8014187,49.2968196 Z M55.3902319,50.4632049 C55.4693364,50.2517046 55.5445249,50.0378542 55.6197133,49.8232205 C55.5445249,50.0378542 55.4693364,50.2517046 55.3902319,50.4632049 L55.3902319,50.4632049 Z M56.2525494,47.8531338 C56.2274866,47.940084 56.2008573,48.0254675 56.1757945,48.1116343 C56.203207,48.0176341 56.229053,47.9220673 56.2556822,47.8280671 C56.254899,47.8359005 56.2541158,47.8453005 56.2525494,47.8531338 L56.2525494,47.8531338 Z M57.6286546,39.5709365 C57.641186,39.2623026 57.6451021,38.9544521 57.6482349,38.6473849 L57.6482349,38.6481682 C57.6451021,38.9552354 57.641186,39.2623026 57.6286546,39.5709365 L57.6286546,39.5709365 Z M108.045641,55.4546134 C108.034676,55.43033 108.019795,55.41153 108.011179,55.3841133 C108.019795,55.41153 108.034676,55.43033 108.045641,55.4546134 L108.045641,55.4546134 Z M108.196801,55.633997 C108.174088,55.6191137 108.149808,55.605797 108.130228,55.5869969 C108.149808,55.6065803 108.174088,55.6191137 108.196801,55.633997 L108.196801,55.633997 Z M108.417667,55.7052805 C108.384772,55.7021471 108.353443,55.6974471 108.323681,55.6896138 C108.353443,55.6974471 108.384772,55.7021471 108.417667,55.7052805 L108.417667,55.7052805 Z M98.0291299,40.0573873 C98.0494934,40.0840207 98.0690737,40.1098707 98.0886541,40.1365041 C98.0698569,40.110654 98.0494934,40.0840207 98.0291299,40.0573873 L98.0291299,40.0573873 Z M79.179543,42.3846746 C79.1873752,42.3705745 79.1936409,42.3549078 79.2006898,42.3408078 C79.2194869,42.3815412 79.2398504,42.420708 79.2594307,42.4614414 C79.2406336,42.4434247 79.2218365,42.4285413 79.2038226,42.4081746 C79.1959905,42.4003413 79.1873752,42.3932912 79.179543,42.3846746 L79.179543,42.3846746 Z M77.0836651,45.3535129 C77.0421548,45.2563794 77.0014277,45.1576793 76.9497357,45.0699458 C77.0022109,45.1584626 77.0421548,45.2563794 77.0836651,45.3535129 L77.0836651,45.3535129 Z M77.2551887,45.8987138 C77.2293427,45.774947 77.2042799,45.6511801 77.1651192,45.5375966 C77.2042799,45.6511801 77.2293427,45.774947 77.2551887,45.8987138 L77.2551887,45.8987138 Z M77.3405589,46.6710818 C77.3405589,46.4619315 77.3248947,46.2629645 77.2959158,46.0733975 C77.3248947,46.2629645 77.3405589,46.4619315 77.3405589,46.6710818 L77.3405589,46.6710818 Z M69.2491856,52.2335412 C69.2429199,52.2045579 69.2256892,52.1818412 69.2162907,52.1544244 C69.2256892,52.1818412 69.2429199,52.2045579 69.2491856,52.2335412 L69.2491856,52.2335412 Z M68.9398165,51.8215072 C68.9037887,51.8050572 68.8505302,51.8042739 68.8066703,51.7940905 C68.8505302,51.8042739 68.9037887,51.8050572 68.9398165,51.8215072 L68.9398165,51.8215072 Z M69.1434519,51.9899242 C69.1238715,51.9632908 69.0909766,51.9468408 69.066697,51.9241241 C69.0909766,51.9468408 69.1238715,51.9632908 69.1434519,51.9899242 L69.1434519,51.9899242 Z M73.8082684,59.5295203 C73.7965202,59.5036702 73.7777231,59.4856535 73.7683245,59.4558868 C73.7777231,59.4856535 73.7965202,59.5036702 73.8082684,59.5295203 L73.8082684,59.5295203 Z M73.9719599,59.7206539 C73.9461139,59.7042039 73.9155686,59.6932372 73.8944218,59.6713039 C73.9155686,59.6932372 73.9461139,59.7042039 73.9719599,59.7206539 L73.9719599,59.7206539 Z M74.2092734,59.8036874 C74.1724624,59.7989874 74.1317354,59.7974207 74.0988404,59.7872374 C74.1317354,59.7974207 74.1724624,59.7989874 74.2092734,59.8036874 L74.2092734,59.8036874 Z M98.6102739,41.2355226 C98.6149732,41.2543226 98.6173228,41.273906 98.6220221,41.2934894 C98.6173228,41.273906 98.6149732,41.2543226 98.6102739,41.2355226 L98.6102739,41.2355226 Z M98.3886246,40.6300049 C98.4019392,40.6566383 98.4129042,40.6832717 98.4254356,40.7099051 C98.4129042,40.6832717 98.4019392,40.6566383 98.3886246,40.6300049 L98.3886246,40.6300049 Z M173.134556,17.5756825 C173.444708,17.6077992 173.745462,17.637566 174.039167,17.665766 C173.745462,17.637566 173.444708,17.6077992 173.134556,17.5756825 L173.134556,17.5756825 Z M174.244368,17.6853494 C174.230271,17.684566 174.216173,17.6829994 174.202075,17.6814327 C174.216173,17.6829994 174.230271,17.6837827 174.244368,17.6853494 L174.244368,17.6853494 L174.244368,17.6853494 Z M204.116112,25.89783 C204.170153,25.8946966 204.221845,25.8860799 204.277453,25.8860799 C204.347943,25.8860799 204.419998,25.8884299 204.492837,25.8931299 C204.363607,25.8852966 204.239859,25.8915633 204.116112,25.89783 L204.116112,25.89783 Z M203.656366,25.9628467 C203.744869,25.94248 203.832588,25.9228967 203.925791,25.91193 C203.833372,25.9228967 203.744085,25.94248 203.656366,25.9628467 L203.656366,25.9628467 Z M203.231081,26.1140303 C203.313318,26.0725136 203.397122,26.0333468 203.487975,26.0035801 C203.397122,26.0325635 203.313318,26.0725136 203.231081,26.1140303 L203.231081,26.1140303 Z M202.783083,26.4281475 C202.875502,26.328664 202.984369,26.2456305 203.101851,26.1751304 C202.984369,26.2456305 202.875502,26.328664 202.783083,26.4281475 L202.783083,26.4281475 Z M171.976184,17.4519156 C171.63157,17.4135322 171.272075,17.3727988 170.903182,17.3304988 C171.272075,17.3727988 171.63157,17.4135322 171.976184,17.4519156 L171.976184,17.4519156 Z M172.992794,17.5607992 C172.677942,17.5278991 172.355259,17.4934324 172.020044,17.4566156 C172.355259,17.4934324 172.677942,17.5278991 172.992794,17.5607992 L172.992794,17.5607992 Z M170.723043,17.3101321 C170.365114,17.2686153 169.995438,17.2255319 169.61323,17.1800985 C169.995438,17.2255319 170.365114,17.2686153 170.723043,17.3101321 L170.723043,17.3101321 Z M174.421375,25.338529 C174.441738,25.3393123 174.462885,25.340879 174.484032,25.3416623 C174.462885,25.340879 174.441738,25.3393123 174.421375,25.338529 L174.421375,25.338529 Z M174.033684,25.3142456 C174.068145,25.3165956 174.102607,25.319729 174.137068,25.322079 C174.102607,25.319729 174.068145,25.3165956 174.033684,25.3142456 L174.033684,25.3142456 Z M173.684371,25.2789956 C173.699252,25.2813456 173.714133,25.2821289 173.729797,25.2844789 C173.714916,25.2821289 173.699252,25.2813456 173.684371,25.2789956 L173.684371,25.2789956 Z M173.219926,25.2147621 C173.252038,25.2194621 173.284149,25.2249455 173.315478,25.2296455 C173.284149,25.2249455 173.251254,25.2194621 173.219926,25.2147621 L173.219926,25.2147621 Z M172.80169,25.144262 C172.831452,25.148962 172.859648,25.1544454 172.888627,25.1591454 C172.859648,25.1544454 172.831452,25.148962 172.80169,25.144262 L172.80169,25.144262 Z M172.273021,25.0424285 C172.298867,25.0471285 172.327063,25.0533952 172.352126,25.0580952 C172.327063,25.0533952 172.298867,25.0471285 172.273021,25.0424285 L172.273021,25.0424285 Z M171.705192,24.924145 C171.748269,24.933545 171.790562,24.9421617 171.832072,24.9515617 C171.790562,24.9421617 171.748269,24.933545 171.705192,24.924145 L171.705192,24.924145 Z M174.966491,25.3463624 C174.932813,25.3471457 174.896785,25.347929 174.863107,25.347929 C174.849009,25.347929 174.835694,25.3471457 174.821596,25.3471457 C174.869372,25.3471457 174.917932,25.3471457 174.966491,25.3463624 L174.966491,25.3463624 Z M175.123917,25.3447957 C175.181091,25.343229 175.239832,25.3424457 175.298573,25.3400957 C175.239832,25.3416623 175.181091,25.343229 175.123917,25.3447957 L175.123917,25.3447957 Z M175.598544,25.329129 C175.549201,25.331479 175.502208,25.3322623 175.454432,25.3346123 C175.501425,25.3322623 175.549984,25.3306957 175.598544,25.3283457 C175.598544,25.3283457 175.598544,25.3283457 175.598544,25.329129 L175.598544,25.329129 Z M169.378266,17.1526818 L169.380616,17.1526818 L169.378266,17.1526818 L169.378266,17.1526818 Z M52.9215446,55.7420972 C52.9951666,55.6136303 53.0695718,55.4867301 53.1416274,55.3566965 C53.0695718,55.4859468 52.9982994,55.615197 52.9254606,55.7428805 C52.9238942,55.7420972 52.923111,55.7420972 52.9215446,55.7420972 L52.9215446,55.7420972 Z M49.7871262,29.9641202 C49.9281046,29.9406201 50.0690829,29.9194701 50.2178934,29.9061534 C50.0690829,29.9194701 49.9281046,29.9406201 49.7871262,29.9641202 L49.7871262,29.9641202 Z M49.0736192,30.1348871 C49.1989333,30.0949371 49.3242473,30.0542037 49.4581768,30.0236536 C49.3242473,30.0542037 49.1989333,30.0949371 49.0736192,30.1348871 L49.0736192,30.1348871 Z M48.4392167,30.4027876 C48.5488665,30.3440375 48.6585163,30.2845041 48.7775647,30.2359373 C48.6585163,30.2845041 48.5488665,30.3440375 48.4392167,30.4027876 L48.4392167,30.4027876 Z M50.3432074,41.5355398 C50.3479067,41.4391896 50.3557388,41.3428395 50.3588717,41.245706 C50.3557388,41.3428395 50.3479067,41.4391896 50.3432074,41.5355398 L50.3432074,41.5355398 Z M50.2782008,42.4935581 C50.2883825,42.3768412 50.3009139,42.2601243 50.3095293,42.1434075 C50.3009139,42.2601243 50.2883825,42.3768412 50.2782008,42.4935581 L50.2782008,42.4935581 Z M50.1826488,43.4163263 C50.198313,43.2886428 50.2155437,43.1625259 50.2288583,43.0348423 C50.2155437,43.1625259 50.198313,43.2886428 50.1826488,43.4163263 L50.1826488,43.4163263 Z M50.0581179,44.3163778 C50.0784815,44.1855609 50.1004114,44.0547441 50.1192085,43.9239272 C50.1004114,44.0547441 50.0784815,44.1855609 50.0581179,44.3163778 L50.0581179,44.3163778 Z M49.9053914,45.2023293 C49.9304542,45.0691624 49.9570834,44.9367789 49.9805798,44.8028287 C49.9570834,44.9367789 49.9304542,45.0691624 49.9053914,45.2023293 L49.9053914,45.2023293 Z M49.7268188,46.0773141 C49.7557977,45.9433639 49.7871262,45.810197 49.8145387,45.6754635 C49.7871262,45.810197 49.7557977,45.9433639 49.7268188,46.0773141 L49.7268188,46.0773141 Z M49.5231834,46.9358489 C49.5568616,46.8018987 49.5921062,46.6687318 49.6242179,46.5347816 C49.5921062,46.6687318 49.5568616,46.8018987 49.5231834,46.9358489 L49.5231834,46.9358489 Z M49.2976181,47.7755837 C49.3352123,47.6455501 49.3728066,47.5155166 49.4080511,47.3846997 C49.3728066,47.5162999 49.3352123,47.6455501 49.2976181,47.7755837 L49.2976181,47.7755837 Z M49.0477732,48.6074851 C49.0885002,48.4782349 49.1307937,48.3489847 49.1699544,48.2189511 C49.1307937,48.349768 49.0892835,48.4782349 49.0477732,48.6074851 L49.0477732,48.6074851 Z M48.7775647,49.4213698 C48.8222078,49.2929029 48.8676342,49.164436 48.9107109,49.0344025 C48.8676342,49.164436 48.8222078,49.2929029 48.7775647,49.4213698 L48.7775647,49.4213698 Z M48.4885591,50.2109712 C48.5363351,50.0864209 48.5848943,49.9618707 48.6311039,49.8349705 C48.5848943,49.9618707 48.5363351,50.0864209 48.4885591,50.2109712 L48.4885591,50.2109712 Z M48.1823228,50.9802058 C48.2324485,50.8587889 48.2833573,50.7381554 48.3319165,50.6159552 C48.2833573,50.7381554 48.2324485,50.8587889 48.1823228,50.9802058 L48.1823228,50.9802058 Z M47.8580726,51.7282904 C47.9113311,51.6115735 47.9645896,51.4940733 48.0162817,51.3750065 C47.9645896,51.4940733 47.9113311,51.6115735 47.8580726,51.7282904 L47.8580726,51.7282904 Z M47.5197246,52.4520916 C47.5745495,52.3385081 47.6301577,52.2249246 47.6841994,52.1097744 C47.6301577,52.2249246 47.5745495,52.3385081 47.5197246,52.4520916 L47.5197246,52.4520916 Z M47.1664956,53.1492595 C47.2236701,53.0403759 47.2808447,52.9314924 47.337236,52.8210422 C47.2808447,52.9314924 47.2236701,53.0403759 47.1664956,53.1492595 L47.1664956,53.1492595 Z M46.8007351,53.8205773 C46.8602593,53.7156104 46.9190003,53.6106436 46.9777413,53.5041101 C46.9190003,53.6106436 46.8602593,53.7156104 46.8007351,53.8205773 L46.8007351,53.8205773 Z M46.4240097,54.4605617 C46.4851003,54.3602949 46.5461909,54.260028 46.6064983,54.1574112 C46.5461909,54.260028 46.4851003,54.3602949 46.4240097,54.4605617 L46.4240097,54.4605617 Z M46.0371025,55.0692127 C46.0997595,54.9744292 46.1624165,54.8788624 46.2242904,54.7817289 C46.1624165,54.8788624 46.0997595,54.9744292 46.0371025,55.0692127 L46.0371025,55.0692127 Z M45.6439295,55.6426137 C45.7065866,55.5540969 45.7700268,55.4655801 45.8326839,55.3739299 C45.7700268,55.4655801 45.7073698,55.5540969 45.6439295,55.6426137 L45.6439295,55.6426137 Z M45.2413581,56.1838979 C45.3055815,56.1008645 45.369805,56.0170477 45.4332453,55.9316642 C45.369805,56.0170477 45.3055815,56.1008645 45.2413581,56.1838979 L45.2413581,56.1838979 Z M35.7026072,40.9331554 C35.7589985,40.8281886 35.8153898,40.7247884 35.8733476,40.6229549 C35.8153898,40.7247884 35.7589985,40.8281886 35.7026072,40.9331554 L35.7026072,40.9331554 Z M35.3940212,41.5292731 C35.4480629,41.4196063 35.5028878,41.3115061 35.558496,41.2041892 C35.5028878,41.3115061 35.4480629,41.4196063 35.3940212,41.5292731 L35.3940212,41.5292731 Z M35.0964003,42.1575075 C35.1488756,42.0423573 35.2013509,41.9279905 35.2546093,41.8151903 C35.2013509,41.9279905 35.1488756,42.0423573 35.0964003,42.1575075 L35.0964003,42.1575075 Z M34.8144436,42.8084586 C34.8645693,42.6878251 34.9139117,42.5687582 34.9656037,42.451258 C34.9139117,42.5687582 34.8645693,42.6878251 34.8144436,42.8084586 L34.8144436,42.8084586 Z M34.5465848,43.4821264 C34.5935776,43.3591429 34.6397871,43.2361593 34.6883463,43.1155258 C34.6397871,43.2361593 34.5927944,43.3591429 34.5465848,43.4821264 L34.5465848,43.4821264 Z M34.2912574,44.1832109 C34.3359005,44.0555274 34.3805436,43.9270605 34.42597,43.801727 C34.3805436,43.9270605 34.3359005,44.0555274 34.2912574,44.1832109 L34.2912574,44.1832109 Z M34.0531606,44.9023122 C34.0946709,44.7699286 34.1361812,44.6383284 34.1800411,44.5082948 C34.1361812,44.6383284 34.0946709,44.7699286 34.0531606,44.9023122 L34.0531606,44.9023122 Z M33.8307281,45.6417801 C33.8691056,45.5062632 33.907483,45.3707463 33.9482101,45.2367961 C33.907483,45.3707463 33.8691056,45.5062632 33.8307281,45.6417801 L33.8307281,45.6417801 Z M33.6247431,46.3984814 C33.6607709,46.2590478 33.6960155,46.1203976 33.7336097,45.9825307 C33.6960155,46.1203976 33.6607709,46.2590478 33.6247431,46.3984814 L33.6247431,46.3984814 Z M33.4375552,47.167716 C33.4696669,47.0274991 33.5017787,46.8864989 33.53624,46.7470653 C33.5017787,46.8857155 33.4696669,47.0274991 33.4375552,47.167716 L33.4375552,47.167716 Z M33.267598,47.9557507 C33.2965769,47.8116171 33.3247725,47.6682668 33.3561011,47.5256999 C33.3247725,47.6682668 33.2965769,47.8116171 33.267598,47.9557507 L33.267598,47.9557507 Z M36.5375122,39.5521364 C36.4772048,39.6414366 36.4168974,39.7323034 36.35659,39.8247369 C36.4168974,39.7323034 36.4772048,39.6414366 36.5375122,39.5521364 L36.5375122,39.5521364 Z M36.886042,39.0656856 C36.8233849,39.1487191 36.7607279,39.2341026 36.6988541,39.3202694 C36.7607279,39.2341026 36.8233849,39.1487191 36.886042,39.0656856 L36.886042,39.0656856 Z M37.2424039,38.6160515 C37.1789636,38.692035 37.1155234,38.7695851 37.0528663,38.8494852 C37.1155234,38.7695851 37.1781804,38.692035 37.2424039,38.6160515 L37.2424039,38.6160515 Z M37.6081643,38.2024508 C37.5431577,38.2713843 37.4797174,38.3418844 37.415494,38.4139512 C37.4797174,38.3418844 37.5431577,38.2713843 37.6081643,38.2024508 L37.6081643,38.2024508 Z M36.1999474,40.0722706 C36.1404232,40.1670541 36.0824655,40.2641876 36.0245077,40.3628878 C36.0824655,40.2641876 36.1404232,40.1670541 36.1999474,40.0722706 L36.1999474,40.0722706 Z M37.9817569,37.8280168 C37.9167503,37.8891169 37.8509604,37.952567 37.7859537,38.0175838 C37.8509604,37.952567 37.9167503,37.8891169 37.9817569,37.8280168 L37.9817569,37.8280168 Z M45.0275409,56.4533651 C44.9633175,56.5332652 44.899094,56.6108153 44.8340873,56.6867988 C44.899094,56.6108153 44.9633175,56.5324819 45.0275409,56.4533651 L45.0275409,56.4533651 Z M44.5638788,56.996216 C44.5818927,56.9758493 44.5999066,56.9570493 44.6179205,56.9366826 C44.5999066,56.9570493 44.582676,56.9781993 44.5646621,56.9977827 L44.5638788,56.996216 Z M33.1454168,48.5886851 C33.1618642,48.4978183 33.1775285,48.4069514 33.1947592,48.3168679 C33.1775285,48.4069514 33.1626475,48.4986016 33.1462,48.5886851 C33.1462,48.5886851 33.1462,48.5886851 33.1454168,48.5886851 L33.1454168,48.5886851 Z M247.219455,46.961699 C248.450666,45.0856125 249.07332,42.7920086 248.830524,40.3856045 C248.523504,37.3540994 246.905386,34.7777117 244.601957,33.1413256 C247.131735,30.8359717 248.584595,27.4127992 248.214919,23.746793 C247.593047,17.5976159 242.104291,13.1192916 235.958419,13.7373427 C233.636975,13.9731264 231.554412,14.903728 229.893217,16.2996304 C227.103413,13.5454257 223.152886,12.0093064 218.949382,12.4330905 C214.313545,12.9023079 210.460137,15.6471126 208.375224,19.4462857 C207.650752,17.8890164 206.01462,16.876948 204.210097,17.0586816 C202.567699,17.2247486 201.258167,18.3347338 200.734198,19.7917363 C198.605425,15.3525787 193.873252,12.4981072 188.695431,13.0198081 C188.021868,13.0879582 187.371801,13.2234751 186.738965,13.3958088 C186.741315,13.1349583 186.733483,12.8717579 186.706853,12.6054241 C186.31603,8.74985089 182.873809,5.9408128 179.020401,6.32856345 C176.636301,6.57061387 174.654772,7.98061625 173.579421,9.93268623 C172.784459,8.57281726 171.254061,7.72133248 169.584251,7.8889661 C168.515949,7.99706628 167.593324,8.51171715 166.927593,9.25275174 C164.140138,5.20996156 159.296749,2.76674075 154.069585,3.29314164 C148.29104,3.87829264 143.702195,7.92343282 142.138902,13.167075 C142.02377,13.1756917 141.910204,13.1725584 141.795071,13.1843084 C134.305206,13.9425764 128.819582,20.5131875 129.331803,27.9752335 C128.194578,27.7668665 127.011926,27.7041997 125.804212,27.8256166 C123.960529,28.0120502 122.25704,28.5972012 120.753271,29.4729693 C120.741523,29.2700857 120.74309,29.069552 120.722726,28.865885 C119.977107,21.4868725 113.389503,16.1124134 106.015553,16.8550146 C98.9666358,17.5686325 93.7574863,23.6159761 93.9603384,30.5939212 C92.0626134,29.1384854 89.6346531,28.3669008 87.0688474,28.6254012 C84.8155436,28.8533516 82.8253995,29.83957 81.3106655,31.2981391 C79.8115959,25.4489792 74.2382523,21.4093223 68.0508698,22.0328567 C63.4118993,22.5020742 59.6328966,25.4716959 57.9035624,29.4690527 C56.2235705,27.672083 53.9694835,26.5777644 51.3441536,26.4712309 C51.1820285,26.4641809 51.0159874,26.4610476 50.8522959,26.4610476 C49.4503446,26.4610476 48.1893717,26.7414814 47.1132371,27.2553489 C45.6877895,25.0909953 43.1415641,23.770293 40.3862208,24.0475935 C40.3039834,24.0562102 40.2248789,24.0734435 40.1434248,24.0851935 C39.4079878,21.017655 36.5069669,18.8885514 33.2832623,19.212852 C30.9367562,19.4509857 29.0210172,20.9307049 28.1077909,22.9329083 C28.0396513,22.9195916 27.9754279,22.9023582 27.9065051,22.8890415 L27.825051,22.8749415 C27.1060615,22.7558746 26.3330303,22.6963412 25.5286705,22.6963412 C24.6538216,22.6963412 23.7499938,22.7699747 22.8375507,22.9031415 C20.393143,20.996505 17.24541,19.9836533 13.9198877,20.3189205 C7.06520767,21.0121717 2.06909206,27.1307987 2.76223555,33.989677 C3.23059691,38.6270182 6.18330985,42.4058246 10.162815,44.1573609 C9.96466213,44.1604942 9.76572603,44.1675442 9.5644403,44.1871276 C5.71024921,44.5787949 2.90008103,48.0184174 3.2901211,51.8763406 C3.65588156,55.5055301 6.72529324,58.2072514 10.2990941,58.1868847 C10.0743119,58.7085856 9.96074607,59.2859032 10.0226199,59.8914209 C10.2137239,61.7902241 11.9070303,63.1728098 13.8039722,62.9808928 C14.4783185,62.9127427 15.0821758,62.6479756 15.5787328,62.2586582 C17.0370754,64.2444116 19.1141562,65.7155141 21.7105072,66.5246988 C23.9457971,71.0155564 28.7782212,73.8872613 34.0633424,73.3522437 C37.5470737,72.9997431 40.5428634,71.2333234 42.5549375,68.6851358 C44.2012512,71.9876747 47.7570382,74.0987616 51.6441242,73.7047443 C53.2826058,73.5386774 54.7714936,72.9441263 56.023068,72.0511248 C57.8816324,75.9920815 62.0647729,78.5332192 66.6457857,78.0687017 C71.9074105,77.5368175 75.8657689,73.2308268 76.138327,68.1070348 C77.9068219,70.3230886 80.724039,71.6281241 83.7542901,71.3210569 C85.5870084,71.1361899 87.2247068,70.384972 88.5209243,69.2648034 C90.2831535,74.7113293 95.6489456,78.3859522 101.572385,77.7859179 C107.701027,77.1663002 112.321984,72.1850751 112.704192,66.232515 C114.834531,67.8798678 117.569511,68.7532859 120.459566,68.4611021 C124.610595,68.0404514 127.978411,65.3418635 129.457117,61.731474 C130.611573,62.0064245 131.82712,62.1066913 133.074778,61.9805744 C134.627889,61.8231242 136.067435,61.3421567 137.344072,60.6191388 C140.433064,64.7535791 145.53648,67.2234333 151.044033,66.665699 C157.167193,66.0460813 162.06149,61.8654242 163.912223,56.3891316 C163.913789,56.3883483 163.914572,56.387565 163.915356,56.3859983 C166.423987,58.0208177 169.483217,58.8472358 172.693607,58.5221519 C174.980589,58.2910682 177.0749,57.5006835 178.862975,56.3068815 C178.847311,56.6452821 178.848094,56.986816 178.883339,57.3330499 C179.271813,61.1901898 182.71325,64.0007945 186.567441,63.6099105 C190.02376,63.2605433 192.632643,60.4546385 192.856642,57.0988328 C195.547762,58.5033519 198.661033,59.170753 201.906668,58.8417524 C204.734067,58.5558353 207.311621,57.5492503 209.488169,56.0303643 C212.009332,60.1358213 216.715659,62.6753923 221.828473,62.1583914 C224.664487,61.8709076 227.18565,60.6794556 229.15778,58.9114692 C230.44225,60.755439 232.658742,61.8677742 235.052241,61.6257238 C237.413628,61.3868068 239.340332,59.8898542 240.247293,57.8688508 C240.885611,57.9879177 241.550559,58.0231677 242.229605,57.9550176 C246.066565,57.5664836 248.863419,54.1386111 248.477295,50.3010546 C248.351198,49.0516359 247.899284,47.9165839 247.219455,46.961699 L247.219455,46.961699 Z" id="path-1"></path>
        <filter x="-50%" y="-50%" width="200%" height="200%" filterUnits="objectBoundingBox" id="filter-2">
            <feOffset dx="0" dy="0" in="SourceAlpha" result="shadowOffsetOuter1"></feOffset>
            <feGaussianBlur stdDeviation="1" in="shadowOffsetOuter1" result="shadowBlurOuter1"></feGaussianBlur>
            <feColorMatrix values="0 0 0 0 0   0 0 0 0 0   0 0 0 0 0  0 0 0 0.33 0" type="matrix" in="shadowBlurOuter1"></feColorMatrix>
        </filter>
        <filter x="-50%" y="-50%" width="200%" height="200%" filterUnits="objectBoundingBox" id="filter-3">
            <feOffset dx="0" dy="0" in="SourceAlpha" result="shadowOffsetOuter1"></feOffset>
            <feGaussianBlur stdDeviation="1" in="shadowOffsetOuter1" result="shadowBlurOuter1"></feGaussianBlur>
            <feColorMatrix values="0 0 0 0 0   0 0 0 0 0   0 0 0 0 0  0 0 0 0.33 0" type="matrix" in="shadowBlurOuter1" result="shadowMatrixOuter1"></feColorMatrix>
            <feMerge>
                <feMergeNode in="shadowMatrixOuter1"></feMergeNode>
                <feMergeNode in="SourceGraphic"></feMergeNode>
            </feMerge>
        </filter>
        <polygon id="path-4" points="3.18435456e-20 0.117838759 3.18435456e-20 2.46745638 2.34883305 2.46745638 2.34883305 0.117838759 0 0.117838759"></polygon>
        <path d="M174.390594,4.685284 C175.653917,4.55838379 176.574975,3.43038188 176.447312,2.16607973 C176.319648,0.903344261 175.191821,-0.0170739655 173.928499,0.10982625 C172.665959,0.238293134 171.744901,1.36472838 171.873348,2.62903052 C172.000228,3.89254933 173.128055,4.81375089 174.390594,4.685284" id="path-6"></path>
        <filter x="-50%" y="-50%" width="200%" height="200%" filterUnits="objectBoundingBox" id="filter-7">
            <feOffset dx="0" dy="0" in="SourceAlpha" result="shadowOffsetOuter1"></feOffset>
            <feGaussianBlur stdDeviation="1" in="shadowOffsetOuter1" result="shadowBlurOuter1"></feGaussianBlur>
            <feColorMatrix values="0 0 0 0 0   0 0 0 0 0   0 0 0 0 0  0 0 0 0.33 0" type="matrix" in="shadowBlurOuter1"></feColorMatrix>
        </filter>
        <path d="M242.728042,59.4142134 C241.811682,59.5066469 241.143602,60.3252316 241.236021,61.2425165 C241.32844,62.1605847 242.146898,62.8279859 243.063257,62.7355524 C243.980399,62.6431189 244.649263,61.8245342 244.556061,60.9072493 C244.463642,59.9899644 243.644401,59.3217799 242.728042,59.4142134" id="path-8"></path>
        <filter x="-50%" y="-50%" width="200%" height="200%" filterUnits="objectBoundingBox" id="filter-9">
            <feOffset dx="0" dy="0" in="SourceAlpha" result="shadowOffsetOuter1"></feOffset>
            <feGaussianBlur stdDeviation="1" in="shadowOffsetOuter1" result="shadowBlurOuter1"></feGaussianBlur>
            <feColorMatrix values="0 0 0 0 0   0 0 0 0 0   0 0 0 0 0  0 0 0 0.33 0" type="matrix" in="shadowBlurOuter1"></feColorMatrix>
        </filter>
        <path d="M78.0456073,73.738976 C77.1292481,73.8321929 76.4611674,74.6507776 76.5535865,75.5672791 C76.6460057,76.4853473 77.4644632,77.1535318 78.3808224,77.060315 C79.2979648,76.9678815 79.9668287,76.1492968 79.8736264,75.2320119 C79.7812072,74.314727 78.9619665,73.6473259 78.0456073,73.738976" id="path-10"></path>
        <filter x="-50%" y="-50%" width="200%" height="200%" filterUnits="objectBoundingBox" id="filter-11">
            <feOffset dx="0" dy="0" in="SourceAlpha" result="shadowOffsetOuter1"></feOffset>
            <feGaussianBlur stdDeviation="1" in="shadowOffsetOuter1" result="shadowBlurOuter1"></feGaussianBlur>
            <feColorMatrix values="0 0 0 0 0   0 0 0 0 0   0 0 0 0 0  0 0 0 0.33 0" type="matrix" in="shadowBlurOuter1"></feColorMatrix>
        </filter>
        <path d="M27.5785739,17.7144111 C28.494933,17.6211943 29.1637969,16.8026095 29.0713778,15.8853247 C28.9781755,14.9688231 28.1597179,14.3006386 27.2433587,14.3930721 C26.3262163,14.4855056 25.6589188,15.3040903 25.751338,16.2213752 C25.8429739,17.1394434 26.6622147,17.8076279 27.5785739,17.7144111" id="path-12"></path>
        <filter x="-50%" y="-50%" width="200%" height="200%" filterUnits="objectBoundingBox" id="filter-13">
            <feOffset dx="0" dy="0" in="SourceAlpha" result="shadowOffsetOuter1"></feOffset>
            <feGaussianBlur stdDeviation="1" in="shadowOffsetOuter1" result="shadowBlurOuter1"></feGaussianBlur>
            <feColorMatrix values="0 0 0 0 0   0 0 0 0 0   0 0 0 0 0  0 0 0 0.33 0" type="matrix" in="shadowBlurOuter1"></feColorMatrix>
        </filter>
        <path d="M9.81774703,26.0038342 C7.33984544,24.1197956 6.48229101,22.8214319 6.48229101,21.2494396 C6.48229101,17.8835728 11.5320727,15.5926195 12.8665684,15.842727 C13.4860438,15.9744451 13.7734616,16.2237685 13.7718953,17.4186395 C13.7718953,19.1395986 11.8664798,22.0468042 9.81774703,26.0038342 M39.2604493,14.2856314 C36.9266482,14.1860588 35.3055179,15.0767238 34.9249047,17.1073771 C37.4983511,20.1415966 38.4506673,21.8437389 38.4506673,24.5235741 C38.4506673,34.0002178 32.6850821,43.4956784 28.7309339,43.0503459 C27.5413218,42.9256842 26.8255184,41.6461374 26.3971328,39.7793475 C29.6855995,35.3064219 33.0664785,29.5900151 33.0664785,24.2828751 C33.0664785,22.1793063 31.6849935,20.8848628 29.6370439,20.6833656 C25.25451,20.2615542 21.1562613,29.1235136 21.1562613,37.961952 C19.2986182,40.2552574 17.7730328,41.6139919 16.1064795,41.2995934 C14.5339048,41.0000917 13.7711121,39.7338734 13.7718953,38.397092 C13.7734616,36.8188274 14.1525085,35.2303704 15.2959144,32.7300794 C18.7276984,25.3311312 21.5846469,21.0134447 21.5846469,17.2892735 C21.5846469,13.1738683 19.39338,11.3878342 15.9161729,10.7268918 C10.2946883,9.79859311 0.0980136066,13.906158 0.0995799161,20.5963376 C0.0980136066,24.7039024 3.67311497,28.4437544 8.00709328,29.6692027 C6.19722268,33.0358535 5.48220241,36.3186124 5.48220241,38.137576 C5.48220241,42.5650276 7.57714133,46.119063 12.3904103,47.1822159 C15.6780939,47.8972568 18.8232433,46.9799346 21.9198371,43.9543395 C23.1572216,47.0081599 25.2051713,48.6342507 27.5890943,48.8992548 C36.9736375,49.9726002 45.549965,35.461661 45.549965,22.5705403 C45.549965,18.2614782 43.4049042,14.4549832 39.2604493,14.2856314" id="path-14"></path>
        <filter x="-50%" y="-50%" width="200%" height="200%" filterUnits="objectBoundingBox" id="filter-15">
            <feGaussianBlur stdDeviation="0.5" in="SourceAlpha" result="shadowBlurInner1"></feGaussianBlur>
            <feOffset dx="0" dy="0" in="shadowBlurInner1" result="shadowOffsetInner1"></feOffset>
            <feComposite in="shadowOffsetInner1" in2="SourceAlpha" operator="arithmetic" k2="-1" k3="1" result="shadowInnerInner1"></feComposite>
            <feColorMatrix values="0 0 0 0 0   0 0 0 0 0   0 0 0 0 0  0 0 0 0.5 0" type="matrix" in="shadowInnerInner1"></feColorMatrix>
        </filter>
        <path d="M207.20203,12.6721636 C209.487276,10.2769335 210.394952,8.61477708 210.394952,7.4645962 C210.394952,5.98198403 208.251458,3.43700302 206.346042,3.10535577 C204.820457,2.83564737 204.011458,4.09716137 204.011458,7.96637927 C204.011458,10.7387307 205.345954,12.332676 207.20203,12.6721636" id="path-16"></path>
        <filter x="-50%" y="-50%" width="200%" height="200%" filterUnits="objectBoundingBox" id="filter-17">
            <feGaussianBlur stdDeviation="0.5" in="SourceAlpha" result="shadowBlurInner1"></feGaussianBlur>
            <feOffset dx="0" dy="0" in="shadowBlurInner1" result="shadowOffsetInner1"></feOffset>
            <feComposite in="shadowOffsetInner1" in2="SourceAlpha" operator="arithmetic" k2="-1" k3="1" result="shadowInnerInner1"></feComposite>
            <feColorMatrix values="0 0 0 0 0   0 0 0 0 0   0 0 0 0 0  0 0 0 0.5 0" type="matrix" in="shadowInnerInner1"></feColorMatrix>
        </filter>
        <path d="M185.19084,26.6349832 C184.619137,27.325719 183.953455,27.7773237 183.284641,27.7569388 C182.622092,27.7342017 182.047257,27.5280003 182.047257,25.759999 C182.047257,22.0805178 184.334852,18.17053 186.716425,16.7671055 C186.207375,20.0545686 185.699891,23.3428158 185.19084,26.6349832 M222.353882,28.4547309 C219.875197,31.5720582 217.066021,33.5564534 215.587425,33.2005011 C215.158256,33.0962243 214.92096,32.8476848 214.92096,32.3208126 C214.92096,31.1228055 217.159999,23.3577125 218.448289,19.0753076 C222.020258,13.3118586 222.974923,11.3062944 222.974923,9.19253324 C222.974923,6.75731728 221.6882,5.3962307 219.638684,4.82545246 C215.876409,3.77249205 212.492397,6.90550009 211.634843,13.1738683 C211.204891,16.3303974 210.347336,20.6418116 209.776417,23.6329092 C209.652678,24.2499455 209.414599,25.2041174 209.148326,26.3221528 C206.435478,29.4034145 204.61621,30.3818915 204.011615,30.283887 C203.584795,30.2133237 203.343584,29.9851692 203.345933,29.459081 C203.345933,28.3614306 203.963842,26.9250765 205.295988,23.8524393 C206.154326,21.9911377 206.964891,20.1329723 206.964891,18.8894911 C206.964891,17.0297576 206.776934,15.7862764 204.581751,15.4185635 C201.629258,14.9136443 197.387692,19.4187154 197.389258,22.2475175 C197.389258,22.8308403 197.425283,23.4737499 197.539624,24.1025468 C194.706953,27.6056198 192.431105,29.0553025 191.527345,28.9831712 C191.146732,28.9549459 190.955642,28.7957865 190.955642,27.8392626 C190.955642,26.5989175 191.574334,23.628989 193.244803,17.756559 C193.62385,16.4534911 193.767951,15.2719488 193.767951,14.6509922 C193.767951,12.9833475 192.003503,10.5975258 188.765941,10.3881882 C188.097127,10.3442822 187.478435,10.5003054 187.098605,10.9111403 C187.050832,11.8315986 187.003843,12.7528409 186.952938,13.6748673 C186.716425,13.4224077 186.382018,13.3102906 185.716337,13.2789291 C182.215635,13.0970328 178.11817,16.256698 176.185344,21.0236372 C175.059167,22.1949871 173.951786,23.173464 173.11616,23.3545764 C172.617291,23.4619893 172.488853,23.2620601 172.288366,22.7563569 C171.93203,21.8562835 171.955525,19.7856443 172.133301,17.7816481 C172.257039,16.3892001 172.318126,15.3621129 172.032274,14.6423678 C171.691602,13.7807122 170.007819,12.6963903 168.063246,14.0504206 C167.13834,14.6941142 165.19455,17.2077338 164.957254,15.5314647 C164.961953,15.5016713 164.943941,15.5001032 164.910265,15.517352 C164.68315,13.0045165 163.602396,12.4251139 161.523904,12.276147 C159.164259,12.1067952 157.509453,12.5466395 154.74335,15.0633952 C152.788596,16.8392368 152.427562,19.1521432 154.101163,19.3638329 C154.278939,19.3120865 156.467857,17.7542069 158.369357,17.9400234 C158.814972,17.9807933 159.183054,22.4513668 157.086549,28.9063356 C156.279117,31.3917299 154.703409,32.915896 154.680698,33.0240929 C154.352556,34.5655078 155.09342,36.7059262 157.973863,36.7059262 C159.921569,36.7059262 162.645381,35.6529658 163.890597,25.9677685 C163.972046,25.3523002 164.048012,24.7666253 164.120062,24.2083916 C164.123194,24.215448 164.125544,24.2240723 164.127893,24.2311287 C164.240668,23.3098863 164.324465,23.085652 164.432541,22.3713952 C165.073944,18.1242719 167.038096,19.8342545 166.659833,21.2682564 C166.243194,22.8480891 165.506246,25.9269986 166.471875,28.1638535 C166.948034,29.2669922 168.1909,29.7695593 169.366415,29.5257241 C172.205351,28.9345609 174.000342,27.0991325 175.00278,25.8838767 C174.888439,27.1116771 174.919766,28.4241535 175.213449,29.7813199 C175.756958,32.2957235 177.508092,34.3279449 179.760445,34.3624425 C181.426215,34.3828274 183.620615,33.2538155 185.143851,28.9737627 C185.046739,29.6864515 184.99975,30.30584 185.0021,30.8311441 C184.99975,33.8920209 186.334246,34.7999346 188.431534,34.9293005 C190.358878,35.0069201 193.699816,32.8970791 196.25525,30.4908725 C196.184766,31.024801 196.151874,31.5532413 196.151874,32.0934422 C196.151874,34.7278033 197.10184,36.0528242 199.914932,36.418969 C202.222889,36.6878934 205.415028,34.9975117 207.921906,32.9064875 C207.889797,33.2953694 207.869435,33.6670025 207.869435,34.0135464 C207.867868,36.5036449 208.869523,37.8631634 211.634843,38.4527585 C216.444979,39.4061464 224.164535,34.2181798 224.162186,30.6367032 C224.164535,29.6817473 223.257642,28.7252233 222.353882,28.4547309" id="path-18"></path>
        <filter x="-50%" y="-50%" width="200%" height="200%" filterUnits="objectBoundingBox" id="filter-19">
            <feGaussianBlur stdDeviation="0.5" in="SourceAlpha" result="shadowBlurInner1"></feGaussianBlur>
            <feOffset dx="0" dy="0" in="shadowBlurInner1" result="shadowOffsetInner1"></feOffset>
            <feComposite in="shadowOffsetInner1" in2="SourceAlpha" operator="arithmetic" k2="-1" k3="1" result="shadowInnerInner1"></feComposite>
            <feColorMatrix values="0 0 0 0 0   0 0 0 0 0   0 0 0 0 0  0 0 0 0.5 0" type="matrix" in="shadowInnerInner1"></feColorMatrix>
        </filter>
        <path d="M160.722893,9.74237772 C164.43583,9.44130788 167.510495,7.29148104 167.510495,3.91150164 C167.510495,3.31563424 167.212113,2.53316626 166.865959,2.30030756 C161.217847,2.50102079 157.848715,1.99610157 145.516378,0.491536397 C141.20746,-0.0118147457 138.335632,-0.0345517911 135.311871,0.368442737 C130.211968,1.05447428 125.259297,7.11977714 125.259297,13.1294134 C125.259297,16.4443179 126.273483,18.144892 129.116334,18.3032673 C131.959186,18.4624266 134.169249,17.1954244 135.748089,16.0068257 C138.70998,13.7785953 139.773504,11.1771637 139.222163,10.9396008 C138.669256,10.7020378 136.142799,12.9976954 133.084579,12.8338319 C131.984247,12.3861473 131.349892,11.4586326 131.349892,9.95877167 C131.349892,7.97045626 132.588842,6.55213505 134.471546,6.29575526 C136.355817,6.05662426 138.579976,6.0966101 145.475654,7.54550872 C144.165436,9.22961815 143.249145,11.814585 142.728347,14.1666931 C142.216947,16.4748953 141.961638,18.4294971 140.502621,26.3114115 C139.59886,31.1967401 138.471901,33.608435 136.888362,33.8060121 C135.699533,33.955763 133.617125,32.4355171 132.231724,30.7851212 C129.7037,31.1771392 128.265045,32.9741499 128.267395,35.2580469 C128.265045,38.8379555 131.340494,41.0763784 135.44814,40.5479381 C140.850342,39.850146 145.306492,36.1016696 147.339562,29.0469133 C148.746891,24.2156832 149.515949,10.7851457 151.840352,8.89640283 C151.989935,8.92933234 152.144216,8.96304589 152.31651,9.00067962 C155.248642,9.69219942 158.497167,9.92270601 160.722893,9.74237772" id="path-20"></path>
        <filter x="-50%" y="-50%" width="200%" height="200%" filterUnits="objectBoundingBox" id="filter-21">
            <feGaussianBlur stdDeviation="0.5" in="SourceAlpha" result="shadowBlurInner1"></feGaussianBlur>
            <feOffset dx="0" dy="0" in="shadowBlurInner1" result="shadowOffsetInner1"></feOffset>
            <feComposite in="shadowOffsetInner1" in2="SourceAlpha" operator="arithmetic" k2="-1" k3="1" result="shadowInnerInner1"></feComposite>
            <feColorMatrix values="0 0 0 0 0   0 0 0 0 0   0 0 0 0 0  0 0 0 0.5 0" type="matrix" in="shadowInnerInner1"></feColorMatrix>
        </filter>
        <path d="M76.9944891,39.6010577 C76.4243524,40.3819576 75.7555383,40.9315669 75.0890736,41.0036982 C74.4226089,41.0734774 73.8501228,40.9409753 73.8501228,39.1729741 C73.850906,35.4934929 76.1385009,31.2957639 78.5200745,29.4893448 C78.0110239,32.8614839 77.5027565,36.2312708 76.9944891,39.6010577 M109.439807,25.7040188 C110.012293,25.6154227 110.392123,26.1289663 110.392906,27.1317484 C110.392906,28.5657504 109.822769,30.1369586 107.152995,31.036248 C107.487402,27.6374517 108.771776,25.8106477 109.439807,25.7040188 M119.301291,29.0745898 C116.583744,33.6533603 112.393083,37.0897903 109.153955,37.6017658 C107.295529,37.8949953 106.867143,36.7675515 106.867143,34.6161565 C113.393955,32.1088093 115.729322,28.6300413 115.729322,24.6173448 C115.731672,21.271079 113.918669,19.9797716 110.630985,20.4995875 C106.437191,21.1652341 101.226863,28.0279016 100.297258,34.6804475 C98.3440703,37.47632 96.4237749,39.3713352 95.2897668,39.540687 C94.8621643,39.6010577 94.622519,39.4458186 94.622519,38.9220825 C94.622519,37.7264275 96.8623415,29.0816461 98.1490648,24.2527681 C101.721817,16.9737774 102.674916,14.4805428 102.674916,12.3793262 C102.674916,9.94254213 101.389759,9.18673138 99.3386768,9.49799369 C95.5764015,10.071124 92.193173,14.4248762 91.3356186,20.9966664 C90.9056666,24.3068666 90.0496785,28.9185666 89.4779755,32.1048891 C89.3432729,32.8293384 89.0683856,34.0100967 88.7676542,35.3766715 C86.2028224,39.019303 84.1728854,40.6987082 83.3317772,40.8045531 C82.9519471,40.8539473 82.7561584,40.7347739 82.7592911,39.7790339 C82.7592911,38.5339847 83.3803328,35.4503709 85.0461029,29.211012 C85.4282824,27.8217002 85.5700334,26.6103645 85.5708166,25.9886239 C85.5700334,24.315491 83.8063689,22.3569689 80.5680241,22.7489869 C79.8999931,22.8289586 79.282084,23.0923947 78.8999045,23.5667365 C78.8529152,24.4973873 78.8043597,25.42647 78.7573704,26.3555527 C78.5200745,26.143863 78.1841011,26.0874124 77.5199859,26.1634639 C73.507101,26.6299654 68.6875668,32.3683252 67.2630083,38.4430365 C64.77101,41.7524527 62.6055871,43.522806 61.8921331,43.56436 C61.4621812,43.5910172 61.223319,43.4146091 61.2248853,42.8893049 C61.2248853,41.695218 62.7951106,37.7264275 63.6064589,35.5679763 C64.3214791,33.7011865 64.7514311,32.1887809 64.7498648,30.7085209 C64.7514311,29.0322518 63.7967655,27.9596905 61.9868949,28.0757278 C60.1276855,28.1933332 57.1751922,29.8892032 53.7449744,33.1437368 C54.1255876,31.6352515 54.506984,30.124414 54.8875972,28.6135766 C58.6021001,22.3138469 59.6523106,19.4599557 59.6523106,17.3650114 C59.6523106,14.9266593 58.6044496,14.0336422 56.5564999,14.1206702 C50.4565077,14.3503928 48.5048861,21.8520497 46.6464599,39.303124 C45.4552816,41.3525943 45.0738852,43.065713 45.0738852,44.5475412 C45.1208745,47.0329354 47.1696073,49.5967333 49.9333603,49.5645878 C50.8856765,49.5512592 51.6954585,49.3450577 52.1254104,48.8581714 C52.173966,44.413471 52.5036742,40.8218019 52.9829649,37.4159493 C54.2673386,36.2845853 55.4138772,35.7177272 56.2220929,35.6832296 C56.7475897,35.6628447 56.8893407,36.039966 56.8893407,36.4225756 C56.8893407,37.47632 54.4122223,43.065713 54.4122223,46.2159699 C54.410656,48.8409226 55.3637553,50.0655869 58.1752808,49.9346528 C60.6445677,49.8374324 64.295635,46.9192502 67.0116157,43.8450449 C67.5363293,46.8431987 69.2999938,48.2646561 71.5640941,48.0482621 C73.2306474,47.8914549 75.4211312,46.4660774 76.9467166,41.9492457 C76.8519549,42.673695 76.8033993,43.3024919 76.8057488,43.8277961 C76.8033993,46.8871047 78.137895,47.5990095 80.233617,47.348902 C82.0599339,47.1427005 85.1518288,44.5593017 87.6469598,41.716387 C87.5999705,42.2205222 87.5709938,42.6901598 87.5709938,43.1166754 C87.5709938,45.6012856 88.5734318,46.6652225 91.3356186,46.2747726 C94.0884075,45.8913789 97.7903799,42.8798965 100.455455,39.6904378 C101.197103,42.8344224 103.304572,44.3013538 106.962688,43.7290075 C113.155093,42.7513146 121.111945,33.8995476 121.111945,30.3706013 C121.111945,29.6069502 120.444697,28.9436557 119.301291,29.0745898" id="path-22"></path>
        <filter x="-50%" y="-50%" width="200%" height="200%" filterUnits="objectBoundingBox" id="filter-23">
            <feGaussianBlur stdDeviation="0.5" in="SourceAlpha" result="shadowBlurInner1"></feGaussianBlur>
            <feOffset dx="0" dy="0" in="shadowBlurInner1" result="shadowOffsetInner1"></feOffset>
            <feComposite in="shadowOffsetInner1" in2="SourceAlpha" operator="arithmetic" k2="-1" k3="1" result="shadowInnerInner1"></feComposite>
            <feColorMatrix values="0 0 0 0 0   0 0 0 0 0   0 0 0 0 0  0 0 0 0.5 0" type="matrix" in="shadowInnerInner1"></feColorMatrix>
        </filter>
    </defs>
    <g id="Page-1" stroke="none" stroke-width="1" fill="none" fill-rule="evenodd">
        <g id="wt-logotype-color">
            <g id="Page-1" transform="translate(4.000000, 5.000000)">
                <g id="Group-14">
                    <g id="Fill-1">
                        <use fill="black" fill-opacity="1" filter="url(#filter-2)" xlink:href="#path-1"></use>
                        <use fill="#FEFEFE" fill-rule="evenodd" xlink:href="#path-1"></use>
                    </g>
                    <g id="Group-5" filter="url(#filter-3)" transform="translate(0.000000, 54.050092)">
                        <mask id="mask-5" fill="white">
                            <use xlink:href="#path-4"></use>
                        </mask>
                        <g id="Clip-4"></g>
                        <path d="M1.05678928,0.12384794 C0.41142178,0.188864717 -0.0592892228,0.764615693 0.00571745477,1.41086679 C0.0715073453,2.05633455 0.647168887,2.52711868 1.29253638,2.46131857 C1.93790388,2.39630179 2.40783167,1.81976748 2.34282499,1.17351639 C2.27781832,0.52883196 1.70137356,0.0588311631 1.05678928,0.12384794" id="Fill-3" fill="#FEFEFE" mask="url(#mask-5)"></path>
                    </g>
                    <g id="Fill-6">
                        <use fill="black" fill-opacity="1" filter="url(#filter-7)" xlink:href="#path-6"></use>
                        <use fill="#FEFEFE" fill-rule="evenodd" xlink:href="#path-6"></use>
                    </g>
                    <g id="Fill-8">
                        <use fill="black" fill-opacity="1" filter="url(#filter-9)" xlink:href="#path-8"></use>
                        <use fill="#FEFEFE" fill-rule="evenodd" xlink:href="#path-8"></use>
                    </g>
                    <g id="Fill-10">
                        <use fill="black" fill-opacity="1" filter="url(#filter-11)" xlink:href="#path-10"></use>
                        <use fill="#FEFEFE" fill-rule="evenodd" xlink:href="#path-10"></use>
                    </g>
                    <g id="Fill-12">
                        <use fill="black" fill-opacity="1" filter="url(#filter-13)" xlink:href="#path-12"></use>
                        <use fill="#FEFEFE" fill-rule="evenodd" xlink:href="#path-12"></use>
                    </g>
                </g>
                <g id="Group-25" transform="translate(12.962963, 16.246914)">
                    <g id="Fill-15">
                        <use fill="#ED2024" fill-rule="evenodd" xlink:href="#path-14"></use>
                        <use fill="black" fill-opacity="1" filter="url(#filter-15)" xlink:href="#path-14"></use>
                    </g>
                    <g id="Fill-17">
                        <use fill="#ED2024" fill-rule="evenodd" xlink:href="#path-16"></use>
                        <use fill="black" fill-opacity="1" filter="url(#filter-17)" xlink:href="#path-16"></use>
                    </g>
                    <g id="Fill-19">
                        <use fill="#ED2024" fill-rule="evenodd" xlink:href="#path-18"></use>
                        <use fill="black" fill-opacity="1" filter="url(#filter-19)" xlink:href="#path-18"></use>
                    </g>
                    <g id="Fill-21">
                        <use fill="#ED2024" fill-rule="evenodd" xlink:href="#path-20"></use>
                        <use fill="black" fill-opacity="1" filter="url(#filter-21)" xlink:href="#path-20"></use>
                    </g>
                    <g id="Fill-23">
                        <use fill="#ED2024" fill-rule="evenodd" xlink:href="#path-22"></use>
                        <use fill="black" fill-opacity="1" filter="url(#filter-23)" xlink:href="#path-22"></use>
                    </g>
                </g>
            </g>
        </g>
    </g>
</svg>