<?xml version="1.0" encoding="utf-8"?>
<!-- Generator: Adobe Illustrator 16.0.0, SVG Export Plug-In . SVG Version: 6.00 Build 0)  -->
<!DOCTYPE svg PUBLIC "-//W3C//DTD SVG 1.1//EN" "http://www.w3.org/Graphics/SVG/1.1/DTD/svg11.dtd">
<svg version="1.1" id="Layer_1" xmlns="http://www.w3.org/2000/svg" xmlns:xlink="http://www.w3.org/1999/xlink" x="0px" y="0px"
	 width="288.048px" height="22.195px" viewBox="109.976 146.341 288.048 22.195"
	 enable-background="new 109.976 146.341 288.048 22.195" xml:space="preserve">
<g>
	<circle fill="#FFFFFF" cx="111.318" cy="147.683" r="1.342"/>
	<circle fill="#FFFFFF" cx="123.631" cy="147.683" r="1.342"/>
	<path fill="#FFFFFF" d="M122.828,151.859l-5.259,6.136l-5.26-6.136h-1.815v14.597v0.002v2.078h14.149v-2.078v-0.002v-14.597
		H122.828z M112.523,166.457v-11.391l5.047,5.878l5.043-5.878v11.391H112.523z"/>
	<path fill="#FFFFFF" d="M133.551,153.826c1.496-1.432,3.42-2.202,5.494-2.202c2.094,0,4.061,0.771,5.514,2.202
		c1.519,1.474,2.287,3.292,2.287,5.408c0,1.967-0.791,3.869-2.266,5.279c-1.519,1.454-3.42,2.201-5.535,2.201
		c-2.074,0-4.041-0.79-5.494-2.201c-1.496-1.453-2.287-3.333-2.287-5.408C131.264,157.139,132.096,155.236,133.551,153.826z
		 M135.111,163.104c1.025,1.048,2.457,1.624,3.935,1.624c1.516,0,2.885-0.556,3.955-1.624c1.045-1.048,1.623-2.438,1.623-3.935
		s-0.578-2.842-1.646-3.934c-1.047-1.069-2.438-1.646-3.932-1.646c-1.478,0-2.865,0.6-3.935,1.646
		c-1.049,1.027-1.625,2.437-1.625,3.934S134.062,162.056,135.111,163.104z"/>
	<path fill="#FFFFFF" d="M153.463,151.859h1.815l9.619,11.329v-11.329h2.072v14.6h-1.857l-9.575-11.35v11.35h-2.074V151.859z"/>
	<path fill="#FFFFFF" d="M176.369,151.859v8.379c0,1.304,0.021,2.246,0.659,2.994c0.857,1.004,2.031,1.518,3.552,1.518
		c2.543,0,4.209-1.455,4.209-3.569v-9.321h2.073v9.383c0,3.229-2.521,5.472-6.282,5.472c-2.244,0-4.041-0.811-5.261-2.308
		c-0.981-1.219-1.024-2.48-1.024-4.083v-8.464H176.369z"/>
	<path fill="#FFFFFF" d="M194.205,151.859h1.815l5.26,6.136l5.259-6.136h1.815v14.6h-2.031v-11.394l-5.043,5.878l-5.047-5.878
		v11.394h-2.028V151.859L194.205,151.859z"/>
	<path fill="#FFFFFF" d="M215.766,151.859h8.785v1.858h-6.713v4.427h6.521v1.88h-6.521v4.553h6.926v1.881h-8.998V151.859z"/>
	<path fill="#FFFFFF" d="M231.68,151.859h1.814l9.62,11.329v-11.329h2.072v14.6h-1.858l-9.576-11.35v11.35h-2.072V151.859z"/>
	<path fill="#FFFFFF" d="M256.551,153.761h-5.367v-1.901h12.805v1.901h-5.364v12.697h-2.072L256.551,153.761L256.551,153.761z"/>
	<path fill="#FFFFFF" d="M278.098,151.934h2.182l4.554,10.409l4.639-10.409h2.158l-6.562,14.706h-0.534L278.098,151.934z"/>
	<path fill="#FFFFFF" d="M300.452,151.934h1.519l6.412,14.6h-2.158l-1.883-4.297h-6.222l-1.858,4.297h-2.137L300.452,151.934z
		 M303.488,160.356l-2.309-5.258l-2.246,5.258H303.488z"/>
	<path fill="#FFFFFF" d="M313.82,151.934h2.076v12.718h6.945v1.881h-9.021V151.934z"/>
	<path fill="#FFFFFF" d="M328.898,151.934h2.074v12.718h6.945v1.881h-9.021L328.898,151.934L328.898,151.934z"/>
	<path fill="#FFFFFF" d="M343.913,151.934h8.783v1.858h-6.711v4.426h6.521v1.881h-6.521v4.553h6.926v1.881h-8.998V151.934z"/>
	<path fill="#FFFFFF" d="M363.329,159.224l-5.645-7.29h2.479l4.255,5.537l4.36-5.537h2.523l-5.859,7.396v7.204h-2.115
		L363.329,159.224L363.329,159.224z"/>
	<path fill="#FFFFFF" d="M386.305,151.934h2.096v14.6h-2.096V151.934z"/>
	<path fill="#FFFFFF" d="M395.928,151.934h2.096v14.6h-2.096V151.934z"/>
</g>
</svg>
