<?xml version="1.0" standalone="no"?>
<!DOCTYPE svg PUBLIC "-//W3C//DTD SVG 1.1//EN" "http://www.w3.org/Graphics/SVG/1.1/DTD/svg11.dtd" >
<svg xmlns="http://www.w3.org/2000/svg" xmlns:xlink="http://www.w3.org/1999/xlink" version="1.1">
<metadata>
Created by FontForge 20161013 at Mon Jun 10 16:24:39 2013
 By ,,,
(c)2013 Optimo.
</metadata>
<defs>
<font id="PxGrotesk-Light" horiz-adv-x="600" >
  <font-face 
    font-family="Px Grotesk Light"
    font-weight="300"
    font-stretch="normal"
    units-per-em="1000"
    panose-1="2 6 3 3 3 0 0 2 0 4"
    ascent="805"
    descent="-195"
    x-height="510"
    cap-height="680"
    bbox="-190 -211 1058 1064"
    underline-thickness="50"
    underline-position="-200"
    unicode-range="U+000D-FB02"
  />
<missing-glyph horiz-adv-x="644" 
d="M50 240v49l309 309q16 -9 26 -23zM50 142v49l347 347v-15q0 -20 -13.5 -37.5t-42 -40t-36.5 -30.5q-23 -22 -36 -54zM104 0h-49l261 261h49l-93 -93h-23v-23zM321 168l273 273v-49l-224 -224h-49zM398 0h-49l33 33h2v2l210 210v-49zM50 338v49l148 148l39 -2q0 29 20 52
t55 23h8zM384 133l210 210v-49l-210 -210v49zM50 44v49l206 206v-38h11zM50 583l196 196h49l-44 -44q-53 -14 -92.5 -53.5t-54.5 -93.5l-54 -54v49zM537 482l57 57v-49l-216 -216v7q0 15 6.5 27.5t11 17.5t25.5 20t27 20q2 1 15.5 11t21.5 17.5t20 20.5t20 30t12 37zM50 681
l98 98h49l-147 -147v49zM496 0h-49l147 147v-49zM459 698l81 81h49l-104 -104q-13 12 -26 23zM50 436v49l56 56l46 -3zM506 647l88 88v-49l-70 -70q-7 15 -18 31zM202 0h-49l96 96v-49zM536 579l58 58v-49l-52 -52q0 15 -6 43zM395 732l47 47h49l-62 -62q-17 9 -34 15z
M307 742l37 37h49l-38 -38q-18 2 -28 2zM300 0h-49l33 33h49zM594 49v-49h-49zM50 779h49l-49 -49v49z" />
    <glyph glyph-name="fi" unicode="fi" horiz-adv-x="555" 
d="M466 0h-65v453h-216v-453h-65v453h-85v57h85v170h187v-57h-122v-113h281v-510zM468 670v-69h-69v69h69z" />
    <glyph glyph-name="fl" unicode="fl" horiz-adv-x="557" 
d="M185 623v-113h112v-57h-112v-453h-65v453h-85v57h85v170h346v-680h-65v623h-216z" />
    <glyph glyph-name=".notdef" horiz-adv-x="644" 
d="M50 240v49l309 309q16 -9 26 -23zM50 142v49l347 347v-15q0 -20 -13.5 -37.5t-42 -40t-36.5 -30.5q-23 -22 -36 -54zM104 0h-49l261 261h49l-93 -93h-23v-23zM321 168l273 273v-49l-224 -224h-49zM398 0h-49l33 33h2v2l210 210v-49zM50 338v49l148 148l39 -2q0 29 20 52
t55 23h8zM384 133l210 210v-49l-210 -210v49zM50 44v49l206 206v-38h11zM50 583l196 196h49l-44 -44q-53 -14 -92.5 -53.5t-54.5 -93.5l-54 -54v49zM537 482l57 57v-49l-216 -216v7q0 15 6.5 27.5t11 17.5t25.5 20t27 20q2 1 15.5 11t21.5 17.5t20 20.5t20 30t12 37zM50 681
l98 98h49l-147 -147v49zM496 0h-49l147 147v-49zM459 698l81 81h49l-104 -104q-13 12 -26 23zM50 436v49l56 56l46 -3zM506 647l88 88v-49l-70 -70q-7 15 -18 31zM202 0h-49l96 96v-49zM536 579l58 58v-49l-52 -52q0 15 -6 43zM395 732l47 47h49l-62 -62q-17 9 -34 15z
M307 742l37 37h49l-38 -38q-18 2 -28 2zM300 0h-49l33 33h49zM594 49v-49h-49zM50 779h49l-49 -49v49z" />
    <glyph glyph-name=".null" horiz-adv-x="0" 
 />
    <glyph glyph-name="nonmarkingreturn" horiz-adv-x="333" 
 />
    <glyph glyph-name="NULL" horiz-adv-x="0" 
 />
    <glyph glyph-name="NULL" horiz-adv-x="0" 
 />
    <glyph glyph-name="CR" unicode="&#xd;" horiz-adv-x="0" 
 />
    <glyph glyph-name="space" unicode=" " horiz-adv-x="262" 
 />
    <glyph glyph-name="exclam" unicode="!" horiz-adv-x="261" 
d="M173 85v-85h-85v85h85zM145 158h-29l-18 149v373h65v-373z" />
    <glyph glyph-name="quotedbl" unicode="&#x22;" horiz-adv-x="356" 
d="M140 695v-262h-56v262h56zM272 695v-262h-56v262h56z" />
    <glyph glyph-name="numbersign" unicode="#" horiz-adv-x="606" 
d="M524 222v-52h-124l-24 -170h-55l24 170h-135l-24 -170h-55l24 170h-97v52h105l35 236h-117v52h124l25 170h55l-25 -170h135l25 170h55l-25 -170h98v-52h-105l-35 -236h116zM252 458l-33 -236h135l33 236h-135z" />
    <glyph glyph-name="dollar" unicode="$" horiz-adv-x="570" 
d="M257 694v81h50v-82q79 -8 130 -57.5t57 -135.5h-65q-9 117 -122 132v-256l47 -12q80 -20 122.5 -63.5t42.5 -121.5q0 -84 -61.5 -136t-150.5 -57v-81h-50v82q-88 8 -143 58.5t-63 147.5h65q4 -66 42 -102.5t99 -43.5v272l-37 10q-74 18 -112 66.5t-38 117.5
q0 76 53 125.5t134 55.5zM452 177q0 54 -29.5 81t-88.5 42l-27 7v-260q63 5 104 40.5t41 89.5zM135 517q0 -56 31 -84.5t91 -44.5v245q-52 -6 -87 -37t-35 -79z" />
    <glyph glyph-name="percent" unicode="%" horiz-adv-x="780" 
d="M150 0l426 680h54l-426 -680h-54zM307 505q0 -183 -128 -183t-128 183t128 183t128 -183zM179 363q35 0 55 19.5t20 54.5v136q0 34 -20 54t-55 20t-55 -20t-20 -54v-136q0 -34 20 -54t55 -20zM729 175q0 -183 -128 -183t-128 183t128 183t128 -183zM601 33q35 0 55 19.5
t20 54.5v136q0 34 -20 54t-55 20t-55 -20t-20 -54v-136q0 -34 20 -54t55 -20z" />
    <glyph glyph-name="ampersand" unicode="&#x26;" horiz-adv-x="602" 
d="M421 197h2v166h64v-248l90 -115h-82l-47 60q-81 -72 -195 -72q-88 0 -139.5 47.5t-51.5 132.5q0 55 23 92t70 74l49 39q-36 45 -50.5 65t-28.5 51.5t-14 60.5q0 64 45.5 104.5t113.5 40.5q70 0 110.5 -38t40.5 -105q0 -51 -32 -95t-96 -94zM132 199v-54q0 -46 35.5 -73.5
t84.5 -27.5q99 0 159 63l-168 216l-81 -64q-30 -24 -30 -60zM255 413q52 41 77 72.5t25 72.5q0 38 -24 59.5t-66 21.5q-41 0 -66.5 -23t-25.5 -60q0 -30 19.5 -61t60.5 -82z" />
    <glyph glyph-name="quotesingle" unicode="'" horiz-adv-x="224" 
d="M140 695v-262h-56v262h56z" />
    <glyph glyph-name="parenleft" unicode="(" horiz-adv-x="300" 
d="M127 378v-210q0 -153 139 -338h-55q-73 95 -111 199t-38 244t38 244t111 199h55q-139 -188 -139 -338z" />
    <glyph glyph-name="parenright" unicode=")" horiz-adv-x="299" 
d="M173 168v210q0 150 -139 338h55q73 -95 111 -199t38 -244t-38 -244t-111 -199h-55q139 185 139 338z" />
    <glyph glyph-name="asterisk" unicode="*" horiz-adv-x="468" 
d="M373 410l-122 70v-140h-34v140l-122 -70l-17 30l121 70l-121 70l17 30l122 -70v140h34v-140l122 70l17 -30l-122 -70l122 -70z" />
    <glyph glyph-name="plus" unicode="+" 
d="M272 229h-227v52h227v229h56v-229h227v-52h-227v-229h-56v229z" />
    <glyph glyph-name="comma" unicode="," horiz-adv-x="245" 
d="M165 85v-85l-49 -85h-36l46 85h-46v85h85z" />
    <glyph glyph-name="hyphen" unicode="-" horiz-adv-x="440" 
d="M80 240v62h280v-62h-280z" />
    <glyph glyph-name="period" unicode="." horiz-adv-x="245" 
d="M165 85v-85h-85v85h85z" />
    <glyph glyph-name="slash" unicode="/" horiz-adv-x="434" 
d="M407 680l-312 -680h-68l312 680h68z" />
    <glyph glyph-name="zero" unicode="0" 
d="M531 340q0 -64 -5.5 -113.5t-21 -96.5t-41 -77.5t-67 -49t-96.5 -18.5t-96.5 18.5t-67 49t-41 77.5t-21 96.5t-5.5 113.5t5.5 113.5t21 96.5t41 77.5t67 49t96.5 18.5t96.5 -18.5t67 -49t41 -77.5t21 -96.5t5.5 -113.5zM456 207v266q0 75 -42.5 119t-113.5 44t-113.5 -44
t-42.5 -119v-266q0 -75 42.5 -119t113.5 -44t113.5 44t42.5 119z" />
    <glyph glyph-name="one" unicode="1" 
d="M122 0v59h175v482h-175v59h175v80h65v-621h155v-59h-395z" />
    <glyph glyph-name="two" unicode="2" 
d="M154 61v-2h366v-59h-439v73l279 272q29 29 43 45.5t25.5 45t11.5 64.5q0 62 -36 99t-99 37q-68 0 -109 -40.5t-43 -110.5h-67q2 94 63 152t156 58q94 0 148.5 -52.5t54.5 -142.5q0 -48 -19 -91t-37.5 -63.5t-53.5 -53.5z" />
    <glyph glyph-name="three" unicode="3" 
d="M362 319h-156v59h149q40 0 61.5 22.5t21.5 57.5v65q0 51 -37 82.5t-101 31.5q-69 0 -108 -36.5t-41 -94.5h-67q2 79 59.5 134t156.5 55q96 0 153.5 -52t57.5 -134q0 -108 -88 -158q101 -46 101 -166q0 -90 -63 -145t-165 -55q-98 0 -162.5 54t-65.5 154h67q1 -72 46 -111
t115 -39q68 0 111.5 36.5t43.5 87.5v72q0 35 -24.5 57.5t-64.5 22.5z" />
    <glyph glyph-name="four" unicode="4" 
d="M432 0h-65v174h-301v59l300 447h66v-447h98v-59h-98v-174zM367 578l-232 -345h232v345z" />
    <glyph glyph-name="five" unicode="5" 
d="M155 298h-67l26 382h367v-59h-309l-16 -248q58 84 160 84q99 0 155.5 -62.5t56.5 -168.5q0 -110 -61 -175.5t-164 -65.5q-101 0 -158 50.5t-68 147.5h67q8 -66 48 -103t108 -37q66 0 109.5 39t43.5 99v87q0 58 -41 94.5t-110 36.5q-47 0 -86.5 -27.5t-60.5 -73.5z" />
    <glyph glyph-name="six" unicode="6" 
d="M304 -15q-130 0 -181.5 86.5t-51.5 252.5q0 86 11 149.5t37 115.5t74.5 79t118.5 27q92 0 144.5 -47t61.5 -132h-67q-16 121 -144 121q-76 0 -118.5 -53t-42.5 -134v-88q55 85 172 85q103 0 161 -61.5t58 -160.5q0 -41 -13.5 -82t-40.5 -77t-73.5 -58.5t-105.5 -22.5z
M304 42q72 0 115 44t43 106v58q0 60 -42.5 99.5t-115.5 39.5t-115.5 -39.5t-42.5 -99.5v-58q0 -62 43 -106t115 -44z" />
    <glyph glyph-name="seven" unicode="7" 
d="M522 621l-288 -621h-73l290 621h-361v59h432v-59z" />
    <glyph glyph-name="eight" unicode="8" 
d="M300 -15q-100 0 -167 50.5t-67 146.5q0 63 33.5 107t95.5 65q-109 44 -109 157q0 83 62 133.5t152 50.5t152 -50.5t62 -133.5q0 -113 -109 -157q62 -21 95.5 -65t33.5 -107q0 -96 -67 -146.5t-167 -50.5zM441 478v57q0 43 -38.5 72t-102.5 29t-102.5 -29t-38.5 -72v-57
q0 -44 38 -72.5t103 -28.5t103 28.5t38 72.5zM139 217v-66q0 -46 42.5 -76.5t118.5 -30.5t118.5 30.5t42.5 76.5v66q0 46 -42.5 76t-118.5 30t-118.5 -30t-42.5 -76z" />
    <glyph glyph-name="nine" unicode="9" 
d="M293 695q132 0 183.5 -85.5t51.5 -252.5q0 -71 -6 -125t-22 -102t-42 -79t-67.5 -48.5t-96.5 -17.5q-94 0 -149.5 48t-64.5 132h67q7 -54 45 -88t100 -34q76 0 118.5 52t42.5 133v90q-55 -85 -176 -85q-103 0 -159 61.5t-56 162.5q0 41 14 81.5t40.5 76t72.5 58t104 22.5
zM295 637q-72 0 -115 -44t-43 -106v-57q0 -60 42.5 -99.5t115.5 -39.5t115.5 39.5t42.5 99.5v58q0 61 -43 105t-115 44z" />
    <glyph glyph-name="colon" unicode=":" horiz-adv-x="245" 
d="M165 85v-85h-85v85h85zM165 510v-85h-85v85h85z" />
    <glyph glyph-name="semicolon" unicode=";" horiz-adv-x="245" 
d="M165 510v-85h-85v85h85zM165 85v-85l-49 -85h-36l46 85h-46v85h85z" />
    <glyph glyph-name="less" unicode="&#x3c;" 
d="M547 510v-60l-456 -195l456 -195v-60l-510 219v72z" />
    <glyph glyph-name="equal" unicode="=" 
d="M555 332h-510v52h510v-52zM555 126h-510v52h510v-52z" />
    <glyph glyph-name="greater" unicode="&#x3e;" 
d="M52 450v60l510 -219v-72l-510 -219v60l456 195z" />
    <glyph glyph-name="question" unicode="?" horiz-adv-x="496" 
d="M279 85v-85h-85v85h85zM381 511q0 56 -35 91.5t-95 35.5q-63 0 -100 -37.5t-42 -99.5h-65q7 88 64 141t144 53q86 0 140 -52t54 -130q0 -103 -89 -174q-50 -40 -69 -66t-19 -65v-30h-65v30q0 50 23 87.5t74 78.5q43 35 61.5 65.5t18.5 71.5z" />
    <glyph glyph-name="at" unicode="@" horiz-adv-x="828" 
d="M353 376v-242h120v242h-120zM718 77h-430v356h250v-299h115v396h-480v-550h375v-57h-440v664h610v-510z" />
    <glyph glyph-name="A" unicode="A" horiz-adv-x="623" 
d="M514 0l-60 177h-286l-60 -177h-74l235 680h85l235 -680h-75zM314 602h-4l-122 -365h246z" />
    <glyph glyph-name="B" unicode="B" horiz-adv-x="640" 
d="M393 615h-224v-231h224q41 0 65 22t24 60v71q0 37 -23.5 57.5t-65.5 20.5zM454 355q55 -13 86.5 -54t31.5 -102q0 -199 -203 -199h-270v680h270q188 0 188 -165q0 -57 -27.5 -99.5t-75.5 -60.5zM497 149v92q0 36 -26.5 57t-66.5 21h-235v-254h229q44 0 71.5 22.5
t27.5 61.5z" />
    <glyph glyph-name="C" unicode="C" horiz-adv-x="633" 
d="M336 -15q-131 0 -200.5 89.5t-69.5 259.5q0 167 68 264t202 97q96 0 159.5 -55.5t73.5 -152.5h-70q-8 72 -53.5 107.5t-116.5 35.5q-80 0 -131.5 -55t-51.5 -135v-200q0 -81 53 -135.5t128 -54.5q167 0 181 148h70q-8 -97 -73 -155t-169 -58z" />
    <glyph glyph-name="D" unicode="D" horiz-adv-x="659" 
d="M99 680h210q146 0 214 -82.5t68 -257.5t-68 -257.5t-214 -82.5h-210v680zM307 615h-138v-550h137q97 0 151 46t54 129v200q0 83 -53.5 129t-150.5 46z" />
    <glyph glyph-name="E" unicode="E" horiz-adv-x="589" 
d="M99 0v680h426v-65h-356v-236h310v-65h-310v-249h356v-65h-426z" />
    <glyph glyph-name="F" unicode="F" horiz-adv-x="542" 
d="M99 0v680h392v-65h-322v-236h298v-65h-298v-314h-70z" />
    <glyph glyph-name="G" unicode="G" horiz-adv-x="662" 
d="M329 -15q-127 0 -195 91t-68 258q0 169 68 265t206 96q99 0 163 -56t74 -152h-70q-7 70 -53 106.5t-121 36.5q-81 0 -134 -54t-53 -136v-200q0 -83 53 -136.5t132 -53.5q87 0 137 48t50 134v56h-164v65h234v-353h-66l-4 77q-27 -43 -76 -67.5t-113 -24.5z" />
    <glyph glyph-name="H" unicode="H" horiz-adv-x="689" 
d="M520 0v317h-351v-317h-70v680h70v-298h351v298h70v-680h-70z" />
    <glyph glyph-name="I" unicode="I" horiz-adv-x="268" 
d="M99 0v680h70v-680h-70z" />
    <glyph glyph-name="J" unicode="J" horiz-adv-x="410" 
d="M311 680v-680h-289v65h219v615h70z" />
    <glyph glyph-name="K" unicode="K" horiz-adv-x="603" 
d="M491 0l-320 362l293 318h93l-301 -318l323 -362h-88zM169 680v-680h-70v680h70z" />
    <glyph glyph-name="L" unicode="L" horiz-adv-x="498" 
d="M99 0v680h70v-615h308v-65h-378z" />
    <glyph glyph-name="M" unicode="M" horiz-adv-x="829" 
d="M209 680l205 -567h4l204 567h108v-680h-67v588h-4l-215 -588h-58l-216 588h-4v-588h-67v680h110z" />
    <glyph glyph-name="N" unicode="N" horiz-adv-x="689" 
d="M517 79h4v601h69v-680h-111l-307 602h-4v-602h-69v680h111z" />
    <glyph glyph-name="O" unicode="O" horiz-adv-x="696" 
d="M630 340q0 -166 -68.5 -260.5t-213.5 -94.5t-213.5 94.5t-68.5 260.5t68.5 260.5t213.5 94.5t213.5 -94.5t68.5 -260.5zM348 50q89 0 145.5 51t56.5 138v202q0 86 -57 137.5t-145 51.5t-145 -51.5t-57 -137.5v-202q0 -86 57 -137.5t145 -51.5z" />
    <glyph glyph-name="P" unicode="P" horiz-adv-x="597" 
d="M347 259h-178v-259h-70v680h257q104 0 148.5 -49.5t44.5 -157.5q0 -113 -50.5 -163.5t-151.5 -50.5zM169 324h210q41 0 68 25t27 63v119q0 38 -25.5 61t-69.5 23h-210v-291z" />
    <glyph glyph-name="Q" unicode="Q" horiz-adv-x="702" 
d="M623 -46l-94 91q-69 -60 -181 -60q-145 0 -213.5 94.5t-68.5 260.5t68.5 260.5t213.5 94.5t213.5 -94.5t68.5 -260.5q0 -157 -58 -245l98 -95zM348 50q89 0 145.5 51t56.5 138v202q0 86 -57 137.5t-145 51.5t-145 -51.5t-57 -137.5v-202q0 -86 57 -137.5t145 -51.5z" />
    <glyph glyph-name="R" unicode="R" horiz-adv-x="614" 
d="M313 296h-144v-296h-70v680h257q103 0 148 -47.5t45 -142.5q0 -171 -160 -192l161 -298h-80zM169 358h210q42 0 68.5 24.5t26.5 65.5v83q0 40 -26 62t-69 22h-210v-257z" />
    <glyph glyph-name="S" unicode="S" horiz-adv-x="607" 
d="M299 632q-72 0 -113.5 -30.5t-41.5 -85.5q0 -30 7.5 -50t26.5 -33t36.5 -19.5t51.5 -16.5l113 -32q90 -25 131 -68t41 -118q0 -89 -68 -141.5t-175 -52.5q-109 0 -176 53t-79 160h70q7 -74 56 -112t127 -38q77 0 126 34.5t49 94.5q0 54 -27.5 78t-89.5 41l-135 37
q-81 22 -118 66.5t-37 116.5q0 78 60.5 128.5t164.5 50.5q100 0 163 -51.5t72 -148.5h-70q-6 70 -52 103.5t-113 33.5z" />
    <glyph glyph-name="T" unicode="T" horiz-adv-x="520" 
d="M22 615v65h476v-65h-203v-615h-70v615h-203z" />
    <glyph glyph-name="U" unicode="U" horiz-adv-x="678" 
d="M516 235v445h69v-438q0 -118 -68 -187.5t-178 -69.5t-178 69.5t-68 187.5v438h70v-445q0 -84 49 -135t127 -51q79 0 128 50.5t49 135.5z" />
    <glyph glyph-name="V" unicode="V" horiz-adv-x="611" 
d="M117 680l185 -602h4l189 602h74l-220 -680h-88l-219 680h75z" />
    <glyph glyph-name="W" unicode="W" horiz-adv-x="915" 
d="M271 80h4l137 600h90l139 -600h4l146 600h76l-178 -680h-94l-136 574h-4l-135 -574h-94l-178 680h75z" />
    <glyph glyph-name="X" unicode="X" horiz-adv-x="577" 
d="M31 0l217 347l-205 333h81l164 -275l169 275h78l-206 -333l215 -347h-81l-175 290l-175 -290h-82z" />
    <glyph glyph-name="Y" unicode="Y" horiz-adv-x="574" 
d="M252 270l-224 410h78l181 -340l184 340h76l-225 -410v-270h-70v270z" />
    <glyph glyph-name="Z" unicode="Z" horiz-adv-x="574" 
d="M517 680v-65l-384 -550h382v-65h-464v65l385 550h-369v65h450z" />
    <glyph glyph-name="bracketleft" unicode="[" horiz-adv-x="329" 
d="M95 716h185v-54h-125v-778h125v-54h-185v886z" />
    <glyph glyph-name="backslash" unicode="\" horiz-adv-x="434" 
d="M339 0l-312 680h68l312 -680h-68z" />
    <glyph glyph-name="bracketright" unicode="]" horiz-adv-x="329" 
d="M49 716h185v-886h-185v54h125v778h-125v54z" />
    <glyph glyph-name="asciicircum" unicode="^" 
d="M65 292l207 388h56l207 -388h-64l-172 321l-169 -321h-65z" />
    <glyph glyph-name="underscore" unicode="_" horiz-adv-x="630" 
d="M80 -95v40h470v-40h-470z" />
    <glyph glyph-name="grave" unicode="`" horiz-adv-x="284" 
d="M88 695l82 -122h-53l-105 122h76z" />
    <glyph glyph-name="a" unicode="a" horiz-adv-x="540" 
d="M379 303v47q0 64 -31 89.5t-90 25.5q-56 0 -88 -26t-32 -76h-65q0 71 52 115t135 44q86 0 134.5 -43.5t48.5 -130.5v-291h75v-57h-131l-2 99h-3q-43 -111 -162 -111q-81 0 -123 45q-41 43 -41 107q0 62 32.5 100.5t97.5 44.5zM379 247l-212 -19q-42 -4 -42 -50v-56
q0 -77 106 -77q68 0 108 48.5t40 128.5v25z" />
    <glyph glyph-name="b" unicode="b" horiz-adv-x="585" 
d="M154 297v-84q0 -74 42 -121t113 -47q66 0 105.5 38t39.5 95v154q0 57 -39.5 95t-105.5 38q-71 0 -113 -47t-42 -121zM154 0h-65v680h65v-258q50 100 167 100q97 0 150 -73t53 -194q0 -122 -52.5 -194.5t-150.5 -72.5q-55 0 -99 25.5t-68 74.5v-88z" />
    <glyph glyph-name="c" unicode="c" horiz-adv-x="523" 
d="M464 348h-65q-5 59 -42 88t-91 29t-94 -38t-40 -98v-148q0 -58 39.5 -97t95.5 -39t94.5 32t41.5 89h65q-9 -87 -64.5 -132.5t-134.5 -45.5q-104 0 -155.5 72t-51.5 192q0 125 54 197.5t155 72.5q80 0 133 -45t60 -129z" />
    <glyph glyph-name="d" unicode="d" horiz-adv-x="585" 
d="M431 213v84q0 74 -42 121t-113 47q-65 0 -105 -38t-40 -95v-154q0 -57 40 -95t105 -38q71 0 113 47t42 121zM496 0h-65v88q-50 -100 -165 -100q-99 0 -152 72.5t-53 194.5q0 121 53 194t150 73q117 0 167 -100v258h65v-680z" />
    <glyph glyph-name="e" unicode="e" horiz-adv-x="537" 
d="M409 292v38q0 61 -40.5 98t-98.5 37t-98.5 -37t-40.5 -98v-38h278zM409 157h65q-9 -79 -66 -124t-137 -45q-105 0 -157.5 72.5t-52.5 194.5q0 120 54 193.5t155 73.5q99 0 154 -70.5t55 -173.5v-43h-348v-55q0 -60 42 -97.5t99 -37.5q56 0 93.5 28t43.5 84z" />
    <glyph glyph-name="f" unicode="f" horiz-adv-x="328" 
d="M185 623v-113h112v-57h-112v-453h-65v453h-85v57h85v170h187v-57h-122z" />
    <glyph glyph-name="g" unicode="g" horiz-adv-x="585" 
d="M496 510v-495q0 -100 -61 -155t-149 -55q-189 0 -207 155h65q12 -98 138 -98q67 0 108 39t41 113v74q-50 -100 -165 -100q-99 0 -152 72.5t-53 194.5q0 121 53 194t150 73q117 0 167 -100v88h65zM431 213v84q0 74 -42 121t-113 47q-65 0 -105 -38t-40 -95v-154
q0 -57 40 -95t105 -38q71 0 113 47t42 121z" />
    <glyph glyph-name="h" unicode="h" horiz-adv-x="561" 
d="M412 0v330q0 67 -26 101t-88 34q-63 0 -103.5 -47.5t-40.5 -122.5v-295h-65v680h65v-259q44 101 157 101q78 0 122 -44t44 -138v-340h-65z" />
    <glyph glyph-name="i" unicode="i" horiz-adv-x="243" 
d="M154 0h-65v510h65v-510zM156 670v-69h-69v69h69z" />
    <glyph glyph-name="j" unicode="j" horiz-adv-x="255" 
d="M101 -113v623h65v-680h-183v57h118zM168 670v-69h-69v69h69z" />
    <glyph glyph-name="k" unicode="k" horiz-adv-x="494" 
d="M389 0l-233 285l208 225h85l-215 -226l233 -284h-78zM154 680v-680h-65v680h65z" />
    <glyph glyph-name="l" unicode="l" horiz-adv-x="247" 
d="M156 0h-65v680h65v-680z" />
    <glyph glyph-name="m" unicode="m" horiz-adv-x="838" 
d="M89 0v510h65v-89q38 101 143 101q116 0 147 -110q16 50 55.5 80t95.5 30q72 0 115.5 -44.5t43.5 -137.5v-340h-65v331q0 134 -106 134q-54 0 -91.5 -48t-37.5 -122v-295h-65v331q0 134 -106 134q-54 0 -91.5 -48t-37.5 -122v-295h-65z" />
    <glyph glyph-name="n" unicode="n" horiz-adv-x="561" 
d="M412 0v328q0 67 -26 102t-88 35q-63 0 -103.5 -48.5t-40.5 -123.5v-293h-65v510h65v-89q44 101 157 101q78 0 122 -44t44 -138v-340h-65z" />
    <glyph glyph-name="o" unicode="o" horiz-adv-x="560" 
d="M61 255q0 122 55.5 194.5t163.5 72.5t163.5 -72.5t55.5 -194.5t-55.5 -194.5t-163.5 -72.5t-163.5 72.5t-55.5 194.5zM429 178v154q0 59 -42.5 96.5t-106.5 37.5t-106.5 -37.5t-42.5 -96.5v-154q0 -59 42.5 -96.5t106.5 -37.5t106.5 37.5t42.5 96.5z" />
    <glyph glyph-name="p" unicode="p" horiz-adv-x="585" 
d="M154 297v-84q0 -74 42 -121t113 -47q66 0 105.5 38t39.5 95v154q0 57 -39.5 95t-105.5 38q-71 0 -113 -47t-42 -121zM154 -170h-65v680h65v-88q50 100 167 100q97 0 150 -73t53 -194q0 -122 -52.5 -194.5t-150.5 -72.5q-55 0 -99 25.5t-68 74.5v-258z" />
    <glyph glyph-name="q" unicode="q" horiz-adv-x="585" 
d="M431 213v84q0 74 -42 121t-113 47q-65 0 -105 -38t-40 -95v-154q0 -57 40 -95t105 -38q71 0 113 47t42 121zM496 -170h-65v258q-50 -100 -165 -100q-99 0 -152 72.5t-53 194.5q0 121 53 194t150 73q117 0 167 -100v88h65v-680z" />
    <glyph glyph-name="r" unicode="r" horiz-adv-x="342" 
d="M89 0v510h225v-57h-160v-453h-65z" />
    <glyph glyph-name="s" unicode="s" horiz-adv-x="495" 
d="M212 299l86 -18q73 -15 108.5 -50t35.5 -96q0 -65 -52 -106t-140 -41q-85 0 -140.5 44.5t-56.5 123.5h65q1 -52 39.5 -81.5t93.5 -29.5t90.5 23.5t35.5 65.5q0 38 -23 57.5t-79 31.5l-84 18q-125 26 -125 138q0 62 49.5 102.5t127.5 40.5q75 0 128.5 -40.5t54.5 -118.5
h-65q-1 51 -34 76.5t-84 25.5t-82.5 -23.5t-31.5 -61.5q0 -36 21 -54.5t62 -26.5z" />
    <glyph glyph-name="t" unicode="t" horiz-adv-x="347" 
d="M185 453v-396h122v-57h-187v453h-85v57h85v170h65v-170h122v-57h-122z" />
    <glyph glyph-name="u" unicode="u" horiz-adv-x="557" 
d="M149 510v-329q0 -66 25.5 -101t85.5 -35q62 0 102.5 48.5t40.5 123.5v293h65v-510h-65v89q-44 -101 -155 -101q-76 0 -120 44.5t-44 137.5v340h65z" />
    <glyph glyph-name="v" unicode="v" horiz-adv-x="496" 
d="M246 95h4l143 415h71l-183 -510h-66l-183 510h71z" />
    <glyph glyph-name="w" unicode="w" horiz-adv-x="743" 
d="M223 95h4l104 415h83l105 -415h4l114 415h69l-155 -510h-66l-111 429h-4l-111 -429h-67l-155 510h71z" />
    <glyph glyph-name="x" unicode="x" horiz-adv-x="494" 
d="M31 0l174 264l-160 246h79l122 -194l124 194h79l-162 -241l177 -269h-79l-138 216l-137 -216h-79z" />
    <glyph glyph-name="y" unicode="y" horiz-adv-x="510" 
d="M255 95h4l147 415h72l-250 -680h-153v57h108l41 113l-189 510h75z" />
    <glyph glyph-name="z" unicode="z" horiz-adv-x="468" 
d="M129 57h287v-57h-366v57l276 396h-261v57h340v-57z" />
    <glyph glyph-name="braceleft" unicode="{" horiz-adv-x="366" 
d="M132 -170v415h-95v56h95v-56h60v-361h125v-54h-185zM132 301v415h185v-54h-125v-361h-60z" />
    <glyph glyph-name="bar" unicode="|" horiz-adv-x="246" 
d="M93 -170v1020h60v-1020h-60z" />
    <glyph glyph-name="braceright" unicode="}" horiz-adv-x="366" 
d="M234 716v-415h95v-56h-95v56h-60v361h-125v54h185zM234 245v-415h-185v54h125v361h60z" />
    <glyph glyph-name="asciitilde" unicode="~" 
d="M490 290h55q0 -48 -34.5 -77t-87.5 -29q-32 0 -59.5 10t-84.5 40q-7 3 -20.5 10.5t-17.5 9.5t-14 6.5t-13.5 6t-10.5 4t-11.5 3.5t-10 1.5t-11.5 0.5q-26 0 -43.5 -15.5t-17.5 -41.5h-55q0 48 34.5 77t87.5 29q32 0 59.5 -10t84.5 -40q7 -3 20.5 -10.5t17.5 -9.5t14 -6.5
t13.5 -6t10.5 -4t11.5 -3.5t10 -1.5t11.5 -0.5q26 0 43.5 15.5t17.5 41.5z" />
    <glyph glyph-name="uni00A0" unicode="&#xa0;" horiz-adv-x="262" 
 />
    <glyph glyph-name="exclamdown" unicode="&#xa1;" horiz-adv-x="247" 
d="M166 510v-85h-85v85h85zM109 352h29l18 -149v-373h-65v373z" />
    <glyph glyph-name="cent" unicode="&#xa2;" 
d="M282 -92v82q-92 9 -137 79t-45 183q0 116 47 187t135 81v82h50v-81q71 -6 117 -51t53 -122h-65q-4 51 -33 79.5t-72 35.5v-416q46 7 76 38.5t33 80.5h65q-9 -80 -56.5 -125t-117.5 -52v-81h-50zM170 181q0 -52 31.5 -89.5t80.5 -45.5v417q-47 -8 -79.5 -44t-32.5 -90
v-148z" />
    <glyph glyph-name="sterling" unicode="&#xa3;" 
d="M63 0v59h90v267h-90v59h90v118q0 79 50 135.5t141 56.5q92 0 141.5 -54.5t49.5 -135.5h-65q0 64 -31.5 98t-93.5 34q-61 0 -94 -37t-33 -100v-115h178v-59h-178v-267h304v-59h-459z" />
    <glyph glyph-name="currency" unicode="&#xa4;" 
d="M496 57l-54 54q-62 -49 -142 -49t-142 49l-54 -54l-39 39l54 54q-49 62 -49 142t49 142l-54 54l39 39l54 -54q64 49 142 49t142 -49l54 54l39 -39l-54 -54q49 -64 49 -142t-49 -142l54 -54zM124 292q0 -73 51.5 -124.5t124.5 -51.5t124.5 51.5t51.5 124.5t-51.5 124.5
t-124.5 51.5t-124.5 -51.5t-51.5 -124.5z" />
    <glyph glyph-name="yen" unicode="&#xa5;" 
d="M97 178v49h170v69h-170v49h132l-166 335h72l164 -335l166 335h72l-168 -335h132v-49h-169v-69h169v-49h-169v-178h-65v178h-170z" />
    <glyph glyph-name="brokenbar" unicode="&#xa6;" horiz-adv-x="228" 
d="M84 -170v417h60v-417h-60zM84 433v417h60v-417h-60z" />
    <glyph glyph-name="section" unicode="&#xa7;" horiz-adv-x="573" 
d="M429 70h-320v610h384v-58h-319v-181h320v-610h-386v58h321v181zM174 383v-255h255v255h-255z" />
    <glyph glyph-name="dieresis" unicode="&#xa8;" horiz-adv-x="282" 
d="M91 660v-68h-68v68h68zM227 660v-68h-68v68h68z" />
    <glyph glyph-name="copyright" unicode="&#xa9;" horiz-adv-x="836" 
d="M63 340q0 147 104 251t251 104t251 -104t104 -251t-104 -251t-251 -104t-251 104t-104 251zM107 337q0 -129 91.5 -220.5t220.5 -91.5t221 91.5t92 220.5t-92 221t-221 92t-220.5 -92t-91.5 -221zM551 403h-46q-3 42 -27 61t-61 19t-63 -25t-26 -68v-100q0 -41 25.5 -67
t63.5 -26q37 0 62.5 21t28.5 61h46q-6 -59 -44 -90t-91 -31q-69 0 -105 49.5t-36 130.5q0 85 37 134.5t105 49.5q53 0 90 -31.5t41 -87.5z" />
    <glyph glyph-name="ordfeminine" unicode="&#xaa;" horiz-adv-x="391" 
d="M283 370h39v-40h-79l-1 49h-2q-22 -55 -83 -55q-43 0 -65 24q-21 23 -21 54q0 32 20.5 53.5t59.5 25.5l85 8v21q0 30 -14 42t-40 12q-55 0 -55 -48h-47q0 38 29.5 61t73.5 23q45 0 72.5 -22.5t27.5 -67.5v-140zM169 361q31 0 49 22t18 59v12l-94 -9q-22 -2 -22 -25v-24
q0 -35 49 -35z" />
    <glyph glyph-name="guillemotleft" unicode="&#xab;" horiz-adv-x="447" 
d="M377 71h-55l-107 186l107 186h55l-97 -186zM225 71h-55l-107 186l107 186h55l-97 -186z" />
    <glyph glyph-name="logicalnot" unicode="&#xac;" 
d="M497 120v212h-454v52h510v-264h-56z" />
    <glyph glyph-name="uni00AD" unicode="&#xad;" horiz-adv-x="440" 
d="M80 240v62h280v-62h-280z" />
    <glyph glyph-name="registered" unicode="&#xae;" horiz-adv-x="836" 
d="M63 340q0 147 104 251t251 104t251 -104t104 -251t-104 -251t-251 -104t-251 104t-104 251zM425 303h-79v-133h-45v340h146q49 0 75 -26.5t26 -76.5q0 -88 -76 -101l79 -136h-52zM346 342h115q18 0 27.5 11t9.5 28v53q0 37 -37 37h-115v-129zM107 337q0 -129 91.5 -220.5
t220.5 -91.5t221 91.5t92 220.5t-92 221t-221 92t-220.5 -92t-91.5 -221z" />
    <glyph glyph-name="macron" unicode="&#xaf;" horiz-adv-x="310" 
d="M10 619v43h289v-43h-289z" />
    <glyph glyph-name="degree" unicode="&#xb0;" horiz-adv-x="404" 
d="M62 555q0 58 41 99t99 41t99 -41t41 -99t-41 -99t-99 -41t-99 41t-41 99zM94 555q0 -45 31.5 -76.5t76.5 -31.5t76.5 31.5t31.5 76.5t-31.5 76.5t-76.5 31.5t-76.5 -31.5t-31.5 -76.5z" />
    <glyph glyph-name="plusminus" unicode="&#xb1;" 
d="M272 281h-227v52h227v177h56v-177h227v-52h-227v-177h-56v177zM555 52v-52h-510v52h510z" />
    <glyph glyph-name="twosuperior" unicode="&#xb2;" horiz-adv-x="399" 
d="M147 373v-1h174v-42h-243v40l145 139q42 41 42 77q0 28 -16.5 44.5t-47.5 16.5t-50.5 -19t-19.5 -51h-50q0 52 34 81.5t87 29.5q52 0 82.5 -28t30.5 -75q0 -54 -55 -107z" />
    <glyph glyph-name="threesuperior" unicode="&#xb3;" horiz-adv-x="383" 
d="M226 488h-81v42h74q18 0 28 10.5t10 26.5v32q0 23 -18 35.5t-45 12.5q-62 0 -67 -59h-50q0 41 33 70.5t85 29.5t82 -26t30 -69q0 -59 -50 -82q57 -19 57 -83q0 -49 -34.5 -77.5t-89.5 -28.5q-53 0 -86.5 27.5t-35.5 82.5h49q6 -69 73 -69q32 0 53 15.5t21 38.5v33
q0 16 -10.5 27t-27.5 11z" />
    <glyph glyph-name="acute" unicode="&#xb4;" horiz-adv-x="284" 
d="M114 573l82 122h76l-105 -122h-53z" />
    <glyph glyph-name="mu" unicode="&#xb5;" horiz-adv-x="588" 
d="M165 26v-196h-65v680h65v-341q0 -124 111 -124q62 0 102.5 48.5t40.5 123.5v293h65v-510h-65v89q-44 -101 -155 -101q-61 0 -99 38z" />
    <glyph glyph-name="paragraph" unicode="&#xb6;" horiz-adv-x="581" 
d="M56 680h417v-770h-60v718h-127v-718h-60v450h-170v320z" />
    <glyph glyph-name="periodcentered" unicode="&#xb7;" horiz-adv-x="245" 
d="M165 299v-85h-85v85h85z" />
    <glyph glyph-name="cedilla" unicode="&#xb8;" horiz-adv-x="290" 
d="M85 -145v55h60v55h60v-110h-120z" />
    <glyph glyph-name="onesuperior" unicode="&#xb9;" horiz-adv-x="302" 
d="M217 680v-350h-50v258h-111v42h111v50h50z" />
    <glyph glyph-name="ordmasculine" unicode="&#xba;" horiz-adv-x="372" 
d="M255 421v82q0 26 -20.5 42.5t-48.5 16.5t-48.5 -16.5t-20.5 -42.5v-82q0 -26 20.5 -42.5t48.5 -16.5t48.5 16.5t20.5 42.5zM304 462q0 -63 -30 -100.5t-88 -37.5t-88 37.5t-30 100.5t30 100.5t88 37.5t88 -37.5t30 -100.5z" />
    <glyph glyph-name="guillemotright" unicode="&#xbb;" horiz-adv-x="447" 
d="M125 71h-55l97 186l-97 186h55l107 -186zM277 71h-55l97 186l-97 186h55l107 -186z" />
    <glyph glyph-name="onequarter" unicode="&#xbc;" horiz-adv-x="722" 
d="M208 680v-350h-50v258h-111v42h111v50h50zM121 0l426 680h54l-426 -680h-54zM619 0h-50v84h-157v42l159 224h48v-224h56v-42h-56v-84zM569 280h-2l-108 -154h110v154z" />
    <glyph glyph-name="onehalf" unicode="&#xbd;" horiz-adv-x="748" 
d="M208 680v-350h-50v258h-111v42h111v50h50zM121 0l426 680h54l-426 -680h-54zM519 43v-1h174v-42h-243v40l145 139q42 41 42 77q0 28 -16.5 44.5t-47.5 16.5t-50.5 -19t-19.5 -51h-50q0 52 34 81.5t87 29.5q52 0 82.5 -28t30.5 -75q0 -54 -55 -107z" />
    <glyph glyph-name="threequarters" unicode="&#xbe;" horiz-adv-x="755" 
d="M154 0l426 680h54l-426 -680h-54zM212 488h-81v42h74q18 0 28 10.5t10 26.5v32q0 23 -18 35.5t-45 12.5q-62 0 -67 -59h-50q0 41 33 70.5t85 29.5t82 -26t30 -69q0 -59 -50 -82q57 -19 57 -83q0 -49 -34.5 -77.5t-89.5 -28.5q-53 0 -86.5 27.5t-35.5 82.5h49
q6 -69 73 -69q32 0 53 15.5t21 38.5v33q0 16 -10.5 27t-27.5 11zM652 0h-50v84h-157v42l159 224h48v-224h56v-42h-56v-84zM602 280h-2l-108 -154h110v154z" />
    <glyph glyph-name="questiondown" unicode="&#xbf;" horiz-adv-x="487" 
d="M212 425v85h85v-85h-85zM110 -1q0 -56 35 -91.5t95 -35.5q63 0 100 37.5t42 99.5h65q-7 -88 -64 -141t-144 -53q-86 0 -140 52t-54 130q0 103 89 174q50 40 69 66t19 65v30h65v-30q0 -50 -23 -87.5t-74 -78.5q-43 -35 -61.5 -65.5t-18.5 -71.5z" />
    <glyph glyph-name="Agrave" unicode="&#xc0;" horiz-adv-x="623" 
d="M514 0l-60 177h-286l-60 -177h-74l235 680h85l235 -680h-75zM314 602h-4l-122 -365h246zM302 869l82 -122h-53l-105 122h76z" />
    <glyph glyph-name="Aacute" unicode="&#xc1;" horiz-adv-x="623" 
d="M514 0l-60 177h-286l-60 -177h-74l235 680h85l235 -680h-75zM314 602h-4l-122 -365h246zM240 747l82 122h76l-105 -122h-53z" />
    <glyph glyph-name="Acircumflex" unicode="&#xc2;" horiz-adv-x="623" 
d="M514 0l-60 177h-286l-60 -177h-74l235 680h85l235 -680h-75zM314 602h-4l-122 -365h246zM312 835l-70 -88h-52l85 122h75l85 -122h-53z" />
    <glyph glyph-name="Atilde" unicode="&#xc3;" horiz-adv-x="623" 
d="M514 0l-60 177h-286l-60 -177h-74l235 680h85l235 -680h-75zM314 602h-4l-122 -365h246zM423 842h36q0 -37 -20 -58t-56 -21q-28 0 -78 24t-67 24q-36 0 -36 -38h-36q0 37 20 58t56 21q28 0 78 -24t67 -24q36 0 36 38z" />
    <glyph glyph-name="Adieresis" unicode="&#xc4;" horiz-adv-x="623" 
d="M514 0l-60 177h-286l-60 -177h-74l235 680h85l235 -680h-75zM314 602h-4l-122 -365h246zM278 834v-68h-68v68h68zM414 834v-68h-68v68h68z" />
    <glyph glyph-name="Aring" unicode="&#xc5;" horiz-adv-x="623" 
d="M514 0l-60 177h-286l-60 -177h-74l235 680h85l235 -680h-75zM314 602h-4l-122 -365h246zM401 836q0 -35 -24.5 -60.5t-64.5 -25.5t-64.5 25.5t-24.5 60.5t24.5 60.5t64.5 25.5t64.5 -25.5t24.5 -60.5zM364 836q0 22 -14.5 37t-37.5 15t-38 -15.5t-15 -36.5
q0 -22 15 -37.5t38 -15.5t37.5 15.5t14.5 37.5z" />
    <glyph glyph-name="AE" unicode="&#xc6;" horiz-adv-x="928" 
d="M335 680h529v-65h-346v-236h300v-65h-300v-249h346v-65h-416v178h-281l-86 -178h-76zM380 615l-183 -377h251v377h-68z" />
    <glyph glyph-name="Ccedilla" unicode="&#xc7;" horiz-adv-x="633" 
d="M245 -145v55h60v55h60v-110h-120zM336 -15q-131 0 -200.5 89.5t-69.5 259.5q0 167 68 264t202 97q96 0 159.5 -55.5t73.5 -152.5h-70q-8 72 -53.5 107.5t-116.5 35.5q-80 0 -131.5 -55t-51.5 -135v-200q0 -81 53 -135.5t128 -54.5q167 0 181 148h70q-8 -97 -73 -155
t-169 -58z" />
    <glyph glyph-name="Egrave" unicode="&#xc8;" horiz-adv-x="589" 
d="M99 0v680h426v-65h-356v-236h310v-65h-310v-249h356v-65h-426zM280 869l82 -122h-53l-105 122h76z" />
    <glyph glyph-name="Eacute" unicode="&#xc9;" horiz-adv-x="589" 
d="M99 0v680h426v-65h-356v-236h310v-65h-310v-249h356v-65h-426zM251 747l82 122h76l-105 -122h-53z" />
    <glyph glyph-name="Ecircumflex" unicode="&#xca;" horiz-adv-x="589" 
d="M99 0v680h426v-65h-356v-236h310v-65h-310v-249h356v-65h-426zM316 835l-70 -88h-52l85 122h75l85 -122h-53z" />
    <glyph glyph-name="Edieresis" unicode="&#xcb;" horiz-adv-x="589" 
d="M99 0v680h426v-65h-356v-236h310v-65h-310v-249h356v-65h-426zM283 834v-68h-68v68h68zM419 834v-68h-68v68h68z" />
    <glyph glyph-name="Igrave" unicode="&#xcc;" horiz-adv-x="268" 
d="M99 0v680h70v-680h-70zM111 869l82 -122h-53l-105 122h76z" />
    <glyph glyph-name="Iacute" unicode="&#xcd;" horiz-adv-x="268" 
d="M99 0v680h70v-680h-70zM86 747l82 122h76l-105 -122h-53z" />
    <glyph glyph-name="Icircumflex" unicode="&#xce;" horiz-adv-x="268" 
d="M99 0v680h70v-680h-70zM134 835l-70 -88h-52l85 122h75l85 -122h-53z" />
    <glyph glyph-name="Idieresis" unicode="&#xcf;" horiz-adv-x="268" 
d="M99 0v680h70v-680h-70zM99 834v-68h-68v68h68zM235 834v-68h-68v68h68z" />
    <glyph glyph-name="Eth" unicode="&#xd0;" horiz-adv-x="661" 
d="M171 314v-249h140q99 0 150.5 45.5t51.5 129.5v200q0 84 -51.5 129.5t-150.5 45.5h-140v-249h172v-52h-172zM101 366v314h210q146 0 214 -82.5t68 -257.5t-68 -257.5t-214 -82.5h-210v314h-71v52h71z" />
    <glyph glyph-name="Ntilde" unicode="&#xd1;" horiz-adv-x="689" 
d="M517 79h4v601h69v-680h-111l-307 602h-4v-602h-69v680h111zM455 842h36q0 -37 -20 -58t-56 -21q-28 0 -78 24t-67 24q-36 0 -36 -38h-36q0 37 20 58t56 21q28 0 78 -24t67 -24q36 0 36 38z" />
    <glyph glyph-name="Ograve" unicode="&#xd2;" horiz-adv-x="696" 
d="M630 340q0 -166 -68.5 -260.5t-213.5 -94.5t-213.5 94.5t-68.5 260.5t68.5 260.5t213.5 94.5t213.5 -94.5t68.5 -260.5zM348 50q89 0 145.5 51t56.5 138v202q0 86 -57 137.5t-145 51.5t-145 -51.5t-57 -137.5v-202q0 -86 57 -137.5t145 -51.5zM306 880l82 -122h-53
l-105 122h76z" />
    <glyph glyph-name="Oacute" unicode="&#xd3;" horiz-adv-x="696" 
d="M630 340q0 -166 -68.5 -260.5t-213.5 -94.5t-213.5 94.5t-68.5 260.5t68.5 260.5t213.5 94.5t213.5 -94.5t68.5 -260.5zM348 50q89 0 145.5 51t56.5 138v202q0 86 -57 137.5t-145 51.5t-145 -51.5t-57 -137.5v-202q0 -86 57 -137.5t145 -51.5zM304 758l82 122h76
l-105 -122h-53z" />
    <glyph glyph-name="Ocircumflex" unicode="&#xd4;" horiz-adv-x="696" 
d="M630 340q0 -166 -68.5 -260.5t-213.5 -94.5t-213.5 94.5t-68.5 260.5t68.5 260.5t213.5 94.5t213.5 -94.5t68.5 -260.5zM348 50q89 0 145.5 51t56.5 138v202q0 86 -57 137.5t-145 51.5t-145 -51.5t-57 -137.5v-202q0 -86 57 -137.5t145 -51.5zM348 846l-70 -88h-52
l85 122h75l85 -122h-53z" />
    <glyph glyph-name="Otilde" unicode="&#xd5;" horiz-adv-x="696" 
d="M630 340q0 -166 -68.5 -260.5t-213.5 -94.5t-213.5 94.5t-68.5 260.5t68.5 260.5t213.5 94.5t213.5 -94.5t68.5 -260.5zM348 50q89 0 145.5 51t56.5 138v202q0 86 -57 137.5t-145 51.5t-145 -51.5t-57 -137.5v-202q0 -86 57 -137.5t145 -51.5zM459 842h36q0 -37 -20 -58
t-56 -21q-28 0 -78 24t-67 24q-36 0 -36 -38h-36q0 37 20 58t56 21q28 0 78 -24t67 -24q36 0 36 38z" />
    <glyph glyph-name="Odieresis" unicode="&#xd6;" horiz-adv-x="696" 
d="M630 340q0 -166 -68.5 -260.5t-213.5 -94.5t-213.5 94.5t-68.5 260.5t68.5 260.5t213.5 94.5t213.5 -94.5t68.5 -260.5zM348 50q89 0 145.5 51t56.5 138v202q0 86 -57 137.5t-145 51.5t-145 -51.5t-57 -137.5v-202q0 -86 57 -137.5t145 -51.5zM314 845v-68h-68v68h68z
M450 845v-68h-68v68h68z" />
    <glyph glyph-name="multiply" unicode="&#xd7;" 
d="M339 255l215 -215l-40 -40l-214 214l-215 -215l-40 41l215 215l-215 215l40 40l215 -215l215 215l39 -40z" />
    <glyph glyph-name="Oslash" unicode="&#xd8;" horiz-adv-x="696" 
d="M630 340q0 -166 -68.5 -260.5t-213.5 -94.5q-73 0 -132 27l-37 -76l-43 20l40 81q-110 86 -110 303q0 166 68.5 260.5t213.5 94.5q81 0 140 -31l40 80l43 -20l-44 -88q103 -87 103 -296zM146 239q0 -88 61 -141l251 505q-49 27 -110 27q-88 0 -145 -51.5t-57 -137.5v-202
zM348 50q89 0 145.5 51t56.5 138v202q0 81 -53 134l-251 -503q44 -22 102 -22z" />
    <glyph glyph-name="Ugrave" unicode="&#xd9;" horiz-adv-x="678" 
d="M516 235v445h69v-438q0 -118 -68 -187.5t-178 -69.5t-178 69.5t-68 187.5v438h70v-445q0 -84 49 -135t127 -51q79 0 128 50.5t49 135.5zM312 869l82 -122h-53l-105 122h76z" />
    <glyph glyph-name="Uacute" unicode="&#xda;" horiz-adv-x="678" 
d="M516 235v445h69v-438q0 -118 -68 -187.5t-178 -69.5t-178 69.5t-68 187.5v438h70v-445q0 -84 49 -135t127 -51q79 0 128 50.5t49 135.5zM287 747l82 122h76l-105 -122h-53z" />
    <glyph glyph-name="Ucircumflex" unicode="&#xdb;" horiz-adv-x="678" 
d="M516 235v445h69v-438q0 -118 -68 -187.5t-178 -69.5t-178 69.5t-68 187.5v438h70v-445q0 -84 49 -135t127 -51q79 0 128 50.5t49 135.5zM339 835l-70 -88h-52l85 122h75l85 -122h-53z" />
    <glyph glyph-name="Udieresis" unicode="&#xdc;" horiz-adv-x="678" 
d="M516 235v445h69v-438q0 -118 -68 -187.5t-178 -69.5t-178 69.5t-68 187.5v438h70v-445q0 -84 49 -135t127 -51q79 0 128 50.5t49 135.5zM305 834v-68h-68v68h68zM441 834v-68h-68v68h68z" />
    <glyph glyph-name="Yacute" unicode="&#xdd;" horiz-adv-x="574" 
d="M252 270l-224 410h78l181 -340l184 340h76l-225 -410v-270h-70v270zM255 727l82 122h76l-105 -122h-53z" />
    <glyph glyph-name="Thorn" unicode="&#xde;" horiz-adv-x="602" 
d="M99 0v680h70v-127h187q104 0 148.5 -49.5t44.5 -157.5q0 -113 -50.5 -163.5t-151.5 -50.5h-178v-132h-70zM169 197h210q41 0 68 25t27 63v119q0 38 -25.5 61t-69.5 23h-210v-291z" />
    <glyph glyph-name="germandbls" unicode="&#xdf;" horiz-adv-x="544" 
d="M249 -15v58h7q70 0 113 33t43 86v92q0 33 -18 54.5t-51 21.5h-94v57h83q34 0 52 19t18 51v86q0 45 -33.5 70t-83.5 25q-57 0 -94 -33.5t-37 -94.5v-510h-65v510q0 74 54.5 129.5t141.5 55.5q88 0 137 -50.5t49 -128.5q0 -114 -94 -157q104 -31 104 -169q0 -94 -60 -149.5
t-162 -55.5h-10z" />
    <glyph glyph-name="agrave" unicode="&#xe0;" horiz-adv-x="540" 
d="M379 303v47q0 64 -31 89.5t-90 25.5q-56 0 -88 -26t-32 -76h-65q0 71 52 115t135 44q86 0 134.5 -43.5t48.5 -130.5v-291h75v-57h-131l-2 99h-3q-43 -111 -162 -111q-81 0 -123 45q-41 43 -41 107q0 62 32.5 100.5t97.5 44.5zM379 247l-212 -19q-42 -4 -42 -50v-56
q0 -77 106 -77q68 0 108 48.5t40 128.5v25zM199 695l82 -122h-53l-105 122h76z" />
    <glyph glyph-name="aacute" unicode="&#xe1;" horiz-adv-x="540" 
d="M379 303v47q0 64 -31 89.5t-90 25.5q-56 0 -88 -26t-32 -76h-65q0 71 52 115t135 44q86 0 134.5 -43.5t48.5 -130.5v-291h75v-57h-131l-2 99h-3q-43 -111 -162 -111q-81 0 -123 45q-41 43 -41 107q0 62 32.5 100.5t97.5 44.5zM379 247l-212 -19q-42 -4 -42 -50v-56
q0 -77 106 -77q68 0 108 48.5t40 128.5v25zM224 573l82 122h76l-105 -122h-53z" />
    <glyph glyph-name="acircumflex" unicode="&#xe2;" horiz-adv-x="540" 
d="M379 303v47q0 64 -31 89.5t-90 25.5q-56 0 -88 -26t-32 -76h-65q0 71 52 115t135 44q86 0 134.5 -43.5t48.5 -130.5v-291h75v-57h-131l-2 99h-3q-43 -111 -162 -111q-81 0 -123 45q-41 43 -41 107q0 62 32.5 100.5t97.5 44.5zM379 247l-212 -19q-42 -4 -42 -50v-56
q0 -77 106 -77q68 0 108 48.5t40 128.5v25zM255 661l-70 -88h-52l85 122h75l85 -122h-53z" />
    <glyph glyph-name="atilde" unicode="&#xe3;" horiz-adv-x="540" 
d="M379 303v47q0 64 -31 89.5t-90 25.5q-56 0 -88 -26t-32 -76h-65q0 71 52 115t135 44q86 0 134.5 -43.5t48.5 -130.5v-291h75v-57h-131l-2 99h-3q-43 -111 -162 -111q-81 0 -123 45q-41 43 -41 107q0 62 32.5 100.5t97.5 44.5zM379 247l-212 -19q-42 -4 -42 -50v-56
q0 -77 106 -77q68 0 108 48.5t40 128.5v25zM370 672h36q0 -37 -20 -58t-56 -21q-28 0 -78 24t-67 24q-36 0 -36 -38h-36q0 37 20 58t56 21q28 0 78 -24t67 -24q36 0 36 38z" />
    <glyph glyph-name="adieresis" unicode="&#xe4;" horiz-adv-x="540" 
d="M379 303v47q0 64 -31 89.5t-90 25.5q-56 0 -88 -26t-32 -76h-65q0 71 52 115t135 44q86 0 134.5 -43.5t48.5 -130.5v-291h75v-57h-131l-2 99h-3q-43 -111 -162 -111q-81 0 -123 45q-41 43 -41 107q0 62 32.5 100.5t97.5 44.5zM379 247l-212 -19q-42 -4 -42 -50v-56
q0 -77 106 -77q68 0 108 48.5t40 128.5v25zM222 660v-68h-68v68h68zM358 660v-68h-68v68h68z" />
    <glyph glyph-name="aring" unicode="&#xe5;" horiz-adv-x="540" 
d="M379 303v47q0 64 -31 89.5t-90 25.5q-56 0 -88 -26t-32 -76h-65q0 71 52 115t135 44q86 0 134.5 -43.5t48.5 -130.5v-291h75v-57h-131l-2 99h-3q-43 -111 -162 -111q-81 0 -123 45q-41 43 -41 107q0 62 32.5 100.5t97.5 44.5zM379 247l-212 -19q-42 -4 -42 -50v-56
q0 -77 106 -77q68 0 108 48.5t40 128.5v25zM348 651q0 -35 -24.5 -60.5t-64.5 -25.5t-64.5 25.5t-24.5 60.5t24.5 60.5t64.5 25.5t64.5 -25.5t24.5 -60.5zM311 651q0 22 -14.5 37t-37.5 15t-38 -15.5t-15 -36.5q0 -22 15 -37.5t38 -15.5t37.5 15.5t14.5 37.5z" />
    <glyph glyph-name="ae" unicode="&#xe6;" horiz-adv-x="840" 
d="M379 235h-206q-22 0 -35 -13.5t-13 -36.5v-63q0 -77 106 -77q68 0 108 48.5t40 128.5v13zM712 292v38q0 61 -39.5 98t-94.5 37t-94.5 -37t-39.5 -98v-38h268zM403 86h-3q-60 -98 -180 -98q-79 0 -122 46q-42 44 -42 116q0 58 34.5 100t101.5 42h187v58q0 64 -31 89.5
t-90 25.5q-56 0 -88 -26t-32 -76h-65q0 71 52 115t135 44q118 0 161 -80q53 80 157 80q96 0 150 -70.5t54 -173.5v-43h-338v-55q0 -59 41.5 -97t94.5 -38t89.5 28t42.5 84h65q-9 -79 -65 -124t-133 -45q-115 0 -176 98z" />
    <glyph glyph-name="ccedilla" unicode="&#xe7;" horiz-adv-x="523" 
d="M464 348h-65q-5 59 -42 88t-91 29t-94 -38t-40 -98v-148q0 -58 39.5 -97t95.5 -39t94.5 32t41.5 89h65q-9 -87 -64.5 -132.5t-134.5 -45.5q-104 0 -155.5 72t-51.5 192q0 125 54 197.5t155 72.5q80 0 133 -45t60 -129zM180 -145v55h60v55h60v-110h-120z" />
    <glyph glyph-name="egrave" unicode="&#xe8;" horiz-adv-x="537" 
d="M409 292v38q0 61 -40.5 98t-98.5 37t-98.5 -37t-40.5 -98v-38h278zM409 157h65q-9 -79 -66 -124t-137 -45q-105 0 -157.5 72.5t-52.5 194.5q0 120 54 193.5t155 73.5q99 0 154 -70.5t55 -173.5v-43h-348v-55q0 -60 42 -97.5t99 -37.5q56 0 93.5 28t43.5 84zM223 695
l82 -122h-53l-105 122h76z" />
    <glyph glyph-name="eacute" unicode="&#xe9;" horiz-adv-x="537" 
d="M409 292v38q0 61 -40.5 98t-98.5 37t-98.5 -37t-40.5 -98v-38h278zM409 157h65q-9 -79 -66 -124t-137 -45q-105 0 -157.5 72.5t-52.5 194.5q0 120 54 193.5t155 73.5q99 0 154 -70.5t55 -173.5v-43h-348v-55q0 -60 42 -97.5t99 -37.5q56 0 93.5 28t43.5 84zM239 573
l82 122h76l-105 -122h-53z" />
    <glyph glyph-name="ecircumflex" unicode="&#xea;" horiz-adv-x="537" 
d="M409 292v38q0 61 -40.5 98t-98.5 37t-98.5 -37t-40.5 -98v-38h278zM409 157h65q-9 -79 -66 -124t-137 -45q-105 0 -157.5 72.5t-52.5 194.5q0 120 54 193.5t155 73.5q99 0 154 -70.5t55 -173.5v-43h-348v-55q0 -60 42 -97.5t99 -37.5q56 0 93.5 28t43.5 84zM271 661
l-70 -88h-52l85 122h75l85 -122h-53z" />
    <glyph glyph-name="edieresis" unicode="&#xeb;" horiz-adv-x="537" 
d="M409 292v38q0 61 -40.5 98t-98.5 37t-98.5 -37t-40.5 -98v-38h278zM409 157h65q-9 -79 -66 -124t-137 -45q-105 0 -157.5 72.5t-52.5 194.5q0 120 54 193.5t155 73.5q99 0 154 -70.5t55 -173.5v-43h-348v-55q0 -60 42 -97.5t99 -37.5q56 0 93.5 28t43.5 84zM234 660v-68
h-68v68h68zM370 660v-68h-68v68h68z" />
    <glyph glyph-name="igrave" unicode="&#xec;" horiz-adv-x="243" 
d="M105 695l82 -122h-53l-105 122h76zM154 0h-65v510h65v-510z" />
    <glyph glyph-name="iacute" unicode="&#xed;" horiz-adv-x="243" 
d="M72 573l82 122h76l-105 -122h-53zM154 0h-65v510h65v-510z" />
    <glyph glyph-name="icircumflex" unicode="&#xee;" horiz-adv-x="243" 
d="M121 661l-70 -88h-52l85 122h75l85 -122h-53zM154 0h-65v510h65v-510z" />
    <glyph glyph-name="idieresis" unicode="&#xef;" horiz-adv-x="243" 
d="M88 660v-68h-68v68h68zM224 660v-68h-68v68h68zM154 0h-65v510h65v-510z" />
    <glyph glyph-name="eth" unicode="&#xf0;" horiz-adv-x="561" 
d="M430 176v118q0 59 -42.5 95t-106.5 36q-65 0 -107 -36t-42 -95v-118q0 -59 42 -95t107 -36t107 36t42 95zM344 468l-56 85h-126v40h101l-56 87h72l56 -87h128v-40h-102l61 -89q78 -114 78 -229q0 -114 -55 -180.5t-164 -66.5t-164 66.5t-55 180.5q0 109 55.5 178
t148.5 69q47 0 78 -14z" />
    <glyph glyph-name="ntilde" unicode="&#xf1;" horiz-adv-x="561" 
d="M412 0v328q0 67 -26 102t-88 35q-63 0 -103.5 -48.5t-40.5 -123.5v-293h-65v510h65v-89q44 101 157 101q78 0 122 -44t44 -138v-340h-65zM392 672h36q0 -37 -20 -58t-56 -21q-28 0 -78 24t-67 24q-36 0 -36 -38h-36q0 37 20 58t56 21q28 0 78 -24t67 -24q36 0 36 38z" />
    <glyph glyph-name="ograve" unicode="&#xf2;" horiz-adv-x="560" 
d="M61 255q0 122 55.5 194.5t163.5 72.5t163.5 -72.5t55.5 -194.5t-55.5 -194.5t-163.5 -72.5t-163.5 72.5t-55.5 194.5zM429 178v154q0 59 -42.5 96.5t-106.5 37.5t-106.5 -37.5t-42.5 -96.5v-154q0 -59 42.5 -96.5t106.5 -37.5t106.5 37.5t42.5 96.5zM221 695l82 -122h-53
l-105 122h76z" />
    <glyph glyph-name="oacute" unicode="&#xf3;" horiz-adv-x="560" 
d="M61 255q0 122 55.5 194.5t163.5 72.5t163.5 -72.5t55.5 -194.5t-55.5 -194.5t-163.5 -72.5t-163.5 72.5t-55.5 194.5zM429 178v154q0 59 -42.5 96.5t-106.5 37.5t-106.5 -37.5t-42.5 -96.5v-154q0 -59 42.5 -96.5t106.5 -37.5t106.5 37.5t42.5 96.5zM248 573l82 122h76
l-105 -122h-53z" />
    <glyph glyph-name="ocircumflex" unicode="&#xf4;" horiz-adv-x="560" 
d="M61 255q0 122 55.5 194.5t163.5 72.5t163.5 -72.5t55.5 -194.5t-55.5 -194.5t-163.5 -72.5t-163.5 72.5t-55.5 194.5zM429 178v154q0 59 -42.5 96.5t-106.5 37.5t-106.5 -37.5t-42.5 -96.5v-154q0 -59 42.5 -96.5t106.5 -37.5t106.5 37.5t42.5 96.5zM280 661l-70 -88h-52
l85 122h75l85 -122h-53z" />
    <glyph glyph-name="otilde" unicode="&#xf5;" horiz-adv-x="560" 
d="M61 255q0 122 55.5 194.5t163.5 72.5t163.5 -72.5t55.5 -194.5t-55.5 -194.5t-163.5 -72.5t-163.5 72.5t-55.5 194.5zM429 178v154q0 59 -42.5 96.5t-106.5 37.5t-106.5 -37.5t-42.5 -96.5v-154q0 -59 42.5 -96.5t106.5 -37.5t106.5 37.5t42.5 96.5zM390 672h36
q0 -37 -20 -58t-56 -21q-28 0 -78 24t-67 24q-36 0 -36 -38h-36q0 37 20 58t56 21q28 0 78 -24t67 -24q36 0 36 38z" />
    <glyph glyph-name="odieresis" unicode="&#xf6;" horiz-adv-x="560" 
d="M61 255q0 122 55.5 194.5t163.5 72.5t163.5 -72.5t55.5 -194.5t-55.5 -194.5t-163.5 -72.5t-163.5 72.5t-55.5 194.5zM429 178v154q0 59 -42.5 96.5t-106.5 37.5t-106.5 -37.5t-42.5 -96.5v-154q0 -59 42.5 -96.5t106.5 -37.5t106.5 37.5t42.5 96.5zM246 660v-68h-68v68
h68zM382 660v-68h-68v68h68z" />
    <glyph glyph-name="divide" unicode="&#xf7;" 
d="M555 281v-52h-510v52h510zM341 83v-83h-82v83h82zM341 510v-83h-82v83h82z" />
    <glyph glyph-name="oslash" unicode="&#xf8;" horiz-adv-x="560" 
d="M170 83l180 369q-33 14 -70 14q-64 0 -106.5 -37.5t-42.5 -96.5v-154q0 -58 39 -95zM390 425l-179 -368q29 -13 69 -13q64 0 106.5 37.5t42.5 96.5v154q0 57 -39 93zM454 556l-38 -79q83 -68 83 -222q0 -122 -55.5 -194.5t-163.5 -72.5q-50 0 -94 18l-36 -73l-43 21
l38 77q-84 69 -84 224q0 122 55.5 194.5t163.5 72.5q52 0 95 -19l36 74z" />
    <glyph glyph-name="ugrave" unicode="&#xf9;" horiz-adv-x="557" 
d="M149 510v-329q0 -66 25.5 -101t85.5 -35q62 0 102.5 48.5t40.5 123.5v293h65v-510h-65v89q-44 -101 -155 -101q-76 0 -120 44.5t-44 137.5v340h65zM251 695l82 -122h-53l-105 122h76z" />
    <glyph glyph-name="uacute" unicode="&#xfa;" horiz-adv-x="557" 
d="M149 510v-329q0 -66 25.5 -101t85.5 -35q62 0 102.5 48.5t40.5 123.5v293h65v-510h-65v89q-44 -101 -155 -101q-76 0 -120 44.5t-44 137.5v340h65zM228 573l82 122h76l-105 -122h-53z" />
    <glyph glyph-name="ucircumflex" unicode="&#xfb;" horiz-adv-x="557" 
d="M149 510v-329q0 -66 25.5 -101t85.5 -35q62 0 102.5 48.5t40.5 123.5v293h65v-510h-65v89q-44 -101 -155 -101q-76 0 -120 44.5t-44 137.5v340h65zM276 661l-70 -88h-52l85 122h75l85 -122h-53z" />
    <glyph glyph-name="udieresis" unicode="&#xfc;" horiz-adv-x="557" 
d="M149 510v-329q0 -66 25.5 -101t85.5 -35q62 0 102.5 48.5t40.5 123.5v293h65v-510h-65v89q-44 -101 -155 -101q-76 0 -120 44.5t-44 137.5v340h65zM242 660v-68h-68v68h68zM378 660v-68h-68v68h68z" />
    <glyph glyph-name="yacute" unicode="&#xfd;" horiz-adv-x="510" 
d="M255 95h4l147 415h72l-250 -680h-153v57h108l41 113l-189 510h75zM217 573l82 122h76l-105 -122h-53z" />
    <glyph glyph-name="thorn" unicode="&#xfe;" horiz-adv-x="585" 
d="M154 297v-84q0 -74 42 -121t113 -47q66 0 105.5 38t39.5 95v154q0 57 -39.5 95t-105.5 38q-71 0 -113 -47t-42 -121zM154 -170h-65v850h65v-258q50 100 167 100q97 0 150 -73t53 -194q0 -122 -52.5 -194.5t-150.5 -72.5q-55 0 -99 25.5t-68 74.5v-258z" />
    <glyph glyph-name="ydieresis" unicode="&#xff;" horiz-adv-x="510" 
d="M255 95h4l147 415h72l-250 -680h-153v57h108l41 113l-189 510h75zM223 660v-68h-68v68h68zM359 660v-68h-68v68h68z" />
    <glyph glyph-name="Amacron" unicode="&#x100;" horiz-adv-x="623" 
d="M514 0l-60 177h-286l-60 -177h-74l235 680h85l235 -680h-75zM314 602h-4l-122 -365h246zM168 789v43h289v-43h-289z" />
    <glyph glyph-name="amacron" unicode="&#x101;" horiz-adv-x="540" 
d="M379 303v47q0 64 -31 89.5t-90 25.5q-56 0 -88 -26t-32 -76h-65q0 71 52 115t135 44q86 0 134.5 -43.5t48.5 -130.5v-291h75v-57h-131l-2 99h-3q-43 -111 -162 -111q-81 0 -123 45q-41 43 -41 107q0 62 32.5 100.5t97.5 44.5zM379 247l-212 -19q-42 -4 -42 -50v-56
q0 -77 106 -77q68 0 108 48.5t40 128.5v25zM111 619v43h289v-43h-289z" />
    <glyph glyph-name="Abreve" unicode="&#x102;" horiz-adv-x="623" 
d="M514 0l-60 177h-286l-60 -177h-74l235 680h85l235 -680h-75zM314 602h-4l-122 -365h246zM185 865h42q0 -42 22.5 -68.5t62.5 -26.5t62.5 26.5t22.5 68.5h42q0 -60 -35 -97.5t-92 -37.5t-92 37.5t-35 97.5z" />
    <glyph glyph-name="abreve" unicode="&#x103;" horiz-adv-x="540" 
d="M379 303v47q0 64 -31 89.5t-90 25.5q-56 0 -88 -26t-32 -76h-65q0 71 52 115t135 44q86 0 134.5 -43.5t48.5 -130.5v-291h75v-57h-131l-2 99h-3q-43 -111 -162 -111q-81 0 -123 45q-41 43 -41 107q0 62 32.5 100.5t97.5 44.5zM379 247l-212 -19q-42 -4 -42 -50v-56
q0 -77 106 -77q68 0 108 48.5t40 128.5v25zM131 695h42q0 -42 22.5 -68.5t62.5 -26.5t62.5 26.5t22.5 68.5h42q0 -60 -35 -97.5t-92 -37.5t-92 37.5t-35 97.5z" />
    <glyph glyph-name="Aogonek" unicode="&#x104;" horiz-adv-x="623" 
d="M514 0l-60 177h-286l-60 -177h-74l235 680h85l235 -680h-75zM314 602h-4l-122 -365h246zM573 -90v-55h-120v55l60 55h50l-50 -55h60z" />
    <glyph glyph-name="aogonek" unicode="&#x105;" horiz-adv-x="540" 
d="M379 303v47q0 64 -31 89.5t-90 25.5q-56 0 -88 -26t-32 -76h-65q0 71 52 115t135 44q86 0 134.5 -43.5t48.5 -130.5v-291h75v-57h-131l-2 99h-3q-43 -111 -162 -111q-81 0 -123 45q-41 43 -41 107q0 62 32.5 100.5t97.5 44.5zM379 247l-212 -19q-42 -4 -42 -50v-56
q0 -77 106 -77q68 0 108 48.5t40 128.5v25zM447 -90v-55h-120v55l60 55h50l-50 -55h60z" />
    <glyph glyph-name="Cacute" unicode="&#x106;" horiz-adv-x="633" 
d="M336 -15q-131 0 -200.5 89.5t-69.5 259.5q0 167 68 264t202 97q96 0 159.5 -55.5t73.5 -152.5h-70q-8 72 -53.5 107.5t-116.5 35.5q-80 0 -131.5 -55t-51.5 -135v-200q0 -81 53 -135.5t128 -54.5q167 0 181 148h70q-8 -97 -73 -155t-169 -58zM285 743l82 122h76
l-105 -122h-53z" />
    <glyph glyph-name="cacute" unicode="&#x107;" horiz-adv-x="523" 
d="M464 348h-65q-5 59 -42 88t-91 29t-94 -38t-40 -98v-148q0 -58 39.5 -97t95.5 -39t94.5 32t41.5 89h65q-9 -87 -64.5 -132.5t-134.5 -45.5q-104 0 -155.5 72t-51.5 192q0 125 54 197.5t155 72.5q80 0 133 -45t60 -129zM237 573l82 122h76l-105 -122h-53z" />
    <glyph glyph-name="Ccircumflex" unicode="&#x108;" horiz-adv-x="633" 
d="M336 -15q-131 0 -200.5 89.5t-69.5 259.5q0 167 68 264t202 97q96 0 159.5 -55.5t73.5 -152.5h-70q-8 72 -53.5 107.5t-116.5 35.5q-80 0 -131.5 -55t-51.5 -135v-200q0 -81 53 -135.5t128 -54.5q167 0 181 148h70q-8 -97 -73 -155t-169 -58zM331 831l-70 -88h-52l85 122
h75l85 -122h-53z" />
    <glyph glyph-name="ccircumflex" unicode="&#x109;" horiz-adv-x="523" 
d="M464 348h-65q-5 59 -42 88t-91 29t-94 -38t-40 -98v-148q0 -58 39.5 -97t95.5 -39t94.5 32t41.5 89h65q-9 -87 -64.5 -132.5t-134.5 -45.5q-104 0 -155.5 72t-51.5 192q0 125 54 197.5t155 72.5q80 0 133 -45t60 -129zM267 661l-70 -88h-52l85 122h75l85 -122h-53z" />
    <glyph glyph-name="Cdotaccent" unicode="&#x10a;" horiz-adv-x="633" 
d="M336 -15q-131 0 -200.5 89.5t-69.5 259.5q0 167 68 264t202 97q96 0 159.5 -55.5t73.5 -152.5h-70q-8 72 -53.5 107.5t-116.5 35.5q-80 0 -131.5 -55t-51.5 -135v-200q0 -81 53 -135.5t128 -54.5q167 0 181 148h70q-8 -97 -73 -155t-169 -58zM359 840v-68h-68v68h68z" />
    <glyph glyph-name="cdotaccent" unicode="&#x10b;" horiz-adv-x="523" 
d="M464 348h-65q-5 59 -42 88t-91 29t-94 -38t-40 -98v-148q0 -58 39.5 -97t95.5 -39t94.5 32t41.5 89h65q-9 -87 -64.5 -132.5t-134.5 -45.5q-104 0 -155.5 72t-51.5 192q0 125 54 197.5t155 72.5q80 0 133 -45t60 -129zM297 670v-68h-68v68h68z" />
    <glyph glyph-name="Ccaron" unicode="&#x10c;" horiz-adv-x="633" 
d="M336 -15q-131 0 -200.5 89.5t-69.5 259.5q0 167 68 264t202 97q96 0 159.5 -55.5t73.5 -152.5h-70q-8 72 -53.5 107.5t-116.5 35.5q-80 0 -131.5 -55t-51.5 -135v-200q0 -81 53 -135.5t128 -54.5q167 0 181 148h70q-8 -97 -73 -155t-169 -58zM255 865l70 -88l70 88h53
l-85 -122h-75l-85 122h52z" />
    <glyph glyph-name="ccaron" unicode="&#x10d;" horiz-adv-x="523" 
d="M464 348h-65q-5 59 -42 88t-91 29t-94 -38t-40 -98v-148q0 -58 39.5 -97t95.5 -39t94.5 32t41.5 89h65q-9 -87 -64.5 -132.5t-134.5 -45.5q-104 0 -155.5 72t-51.5 192q0 125 54 197.5t155 72.5q80 0 133 -45t60 -129zM194 695l70 -88l70 88h53l-85 -122h-75l-85 122h52z
" />
    <glyph glyph-name="Dcaron" unicode="&#x10e;" horiz-adv-x="659" 
d="M99 680h210q146 0 214 -82.5t68 -257.5t-68 -257.5t-214 -82.5h-210v680zM307 615h-138v-550h137q97 0 151 46t54 129v200q0 83 -53.5 129t-150.5 46zM242 865l70 -88l70 88h53l-85 -122h-75l-85 122h52z" />
    <glyph glyph-name="dcaron" unicode="&#x10f;" horiz-adv-x="585" 
d="M431 213v84q0 74 -42 121t-113 47q-65 0 -105 -38t-40 -95v-154q0 -57 40 -95t105 -38q71 0 113 47t42 121zM496 0h-65v88q-50 -100 -165 -100q-99 0 -152 72.5t-53 194.5q0 121 53 194t150 73q117 0 167 -100v258h65v-680zM641 680v-85l-49 -85h-36l46 85h-46v85h85z
" />
    <glyph glyph-name="Dcroat" unicode="&#x110;" horiz-adv-x="661" 
d="M171 314v-249h140q99 0 150.5 45.5t51.5 129.5v200q0 84 -51.5 129.5t-150.5 45.5h-140v-249h172v-52h-172zM101 366v314h210q146 0 214 -82.5t68 -257.5t-68 -257.5t-214 -82.5h-210v314h-71v52h71z" />
    <glyph glyph-name="dcroat" unicode="&#x111;" horiz-adv-x="585" 
d="M431 213v84q0 74 -42 121t-113 47q-65 0 -105 -38t-40 -95v-154q0 -57 40 -95t105 -38q71 0 113 47t42 121zM496 572v-572h-65v88q-50 -100 -165 -100q-99 0 -152 72.5t-53 194.5q0 121 53 194t150 73q117 0 167 -100v150h-150v40h150v68h65v-68h93v-40h-93z" />
    <glyph glyph-name="Emacron" unicode="&#x112;" horiz-adv-x="589" 
d="M99 0v680h426v-65h-356v-236h310v-65h-310v-249h356v-65h-426zM168 789v43h289v-43h-289z" />
    <glyph glyph-name="emacron" unicode="&#x113;" horiz-adv-x="537" 
d="M409 292v38q0 61 -40.5 98t-98.5 37t-98.5 -37t-40.5 -98v-38h278zM409 157h65q-9 -79 -66 -124t-137 -45q-105 0 -157.5 72.5t-52.5 194.5q0 120 54 193.5t155 73.5q99 0 154 -70.5t55 -173.5v-43h-348v-55q0 -60 42 -97.5t99 -37.5q56 0 93.5 28t43.5 84zM126 619v43
h289v-43h-289z" />
    <glyph glyph-name="Ebreve" unicode="&#x114;" horiz-adv-x="589" 
d="M99 0v680h426v-65h-356v-236h310v-65h-310v-249h356v-65h-426zM184 865h42q0 -42 22.5 -68.5t62.5 -26.5t62.5 26.5t22.5 68.5h42q0 -60 -35 -97.5t-92 -37.5t-92 37.5t-35 97.5z" />
    <glyph glyph-name="ebreve" unicode="&#x115;" horiz-adv-x="537" 
d="M409 292v38q0 61 -40.5 98t-98.5 37t-98.5 -37t-40.5 -98v-38h278zM409 157h65q-9 -79 -66 -124t-137 -45q-105 0 -157.5 72.5t-52.5 194.5q0 120 54 193.5t155 73.5q99 0 154 -70.5t55 -173.5v-43h-348v-55q0 -60 42 -97.5t99 -37.5q56 0 93.5 28t43.5 84zM143 695h42
q0 -42 22.5 -68.5t62.5 -26.5t62.5 26.5t22.5 68.5h42q0 -60 -35 -97.5t-92 -37.5t-92 37.5t-35 97.5z" />
    <glyph glyph-name="Edotaccent" unicode="&#x116;" horiz-adv-x="589" 
d="M99 0v680h426v-65h-356v-236h310v-65h-310v-249h356v-65h-426zM346 840v-68h-68v68h68z" />
    <glyph glyph-name="edotaccent" unicode="&#x117;" horiz-adv-x="537" 
d="M409 292v38q0 61 -40.5 98t-98.5 37t-98.5 -37t-40.5 -98v-38h278zM409 157h65q-9 -79 -66 -124t-137 -45q-105 0 -157.5 72.5t-52.5 194.5q0 120 54 193.5t155 73.5q99 0 154 -70.5t55 -173.5v-43h-348v-55q0 -60 42 -97.5t99 -37.5q56 0 93.5 28t43.5 84zM303 670v-68
h-68v68h68z" />
    <glyph glyph-name="Eogonek" unicode="&#x118;" horiz-adv-x="589" 
d="M99 0v680h426v-65h-356v-236h310v-65h-310v-249h356v-65h-426zM347 -90v-55h-120v55l60 55h50l-50 -55h60z" />
    <glyph glyph-name="eogonek" unicode="&#x119;" horiz-adv-x="537" 
d="M409 292v38q0 61 -40.5 98t-98.5 37t-98.5 -37t-40.5 -98v-38h278zM409 157h65q-9 -79 -66 -124t-137 -45q-105 0 -157.5 72.5t-52.5 194.5q0 120 54 193.5t155 73.5q99 0 154 -70.5t55 -173.5v-43h-348v-55q0 -60 42 -97.5t99 -37.5q56 0 93.5 28t43.5 84zM304 -90v-55
h-120v55l60 55h50l-50 -55h60z" />
    <glyph glyph-name="Ecaron" unicode="&#x11a;" horiz-adv-x="589" 
d="M99 0v680h426v-65h-356v-236h310v-65h-310v-249h356v-65h-426zM242 865l70 -88l70 88h53l-85 -122h-75l-85 122h52z" />
    <glyph glyph-name="ecaron" unicode="&#x11b;" horiz-adv-x="537" 
d="M409 292v38q0 61 -40.5 98t-98.5 37t-98.5 -37t-40.5 -98v-38h278zM409 157h65q-9 -79 -66 -124t-137 -45q-105 0 -157.5 72.5t-52.5 194.5q0 120 54 193.5t155 73.5q99 0 154 -70.5t55 -173.5v-43h-348v-55q0 -60 42 -97.5t99 -37.5q56 0 93.5 28t43.5 84zM200 695
l70 -88l70 88h53l-85 -122h-75l-85 122h52z" />
    <glyph glyph-name="Gcircumflex" unicode="&#x11c;" horiz-adv-x="662" 
d="M329 -15q-127 0 -195 91t-68 258q0 169 68 265t206 96q99 0 163 -56t74 -152h-70q-7 70 -53 106.5t-121 36.5q-81 0 -134 -54t-53 -136v-200q0 -83 53 -136.5t132 -53.5q87 0 137 48t50 134v56h-164v65h234v-353h-66l-4 77q-27 -43 -76 -67.5t-113 -24.5zM333 831
l-70 -88h-52l85 122h75l85 -122h-53z" />
    <glyph glyph-name="gcircumflex" unicode="&#x11d;" horiz-adv-x="585" 
d="M496 510v-495q0 -100 -61 -155t-149 -55q-189 0 -207 155h65q12 -98 138 -98q67 0 108 39t41 113v74q-50 -100 -165 -100q-99 0 -152 72.5t-53 194.5q0 121 53 194t150 73q117 0 167 -100v88h65zM431 213v84q0 74 -42 121t-113 47q-65 0 -105 -38t-40 -95v-154
q0 -57 40 -95t105 -38q71 0 113 47t42 121zM307 661l-70 -88h-52l85 122h75l85 -122h-53z" />
    <glyph glyph-name="Gbreve" unicode="&#x11e;" horiz-adv-x="662" 
d="M329 -15q-127 0 -195 91t-68 258q0 169 68 265t206 96q99 0 163 -56t74 -152h-70q-7 70 -53 106.5t-121 36.5q-81 0 -134 -54t-53 -136v-200q0 -83 53 -136.5t132 -53.5q87 0 137 48t50 134v56h-164v65h234v-353h-66l-4 77q-27 -43 -76 -67.5t-113 -24.5zM200 865h42
q0 -42 22.5 -68.5t62.5 -26.5t62.5 26.5t22.5 68.5h42q0 -60 -35 -97.5t-92 -37.5t-92 37.5t-35 97.5z" />
    <glyph glyph-name="gbreve" unicode="&#x11f;" horiz-adv-x="585" 
d="M496 510v-495q0 -100 -61 -155t-149 -55q-189 0 -207 155h65q12 -98 138 -98q67 0 108 39t41 113v74q-50 -100 -165 -100q-99 0 -152 72.5t-53 194.5q0 121 53 194t150 73q117 0 167 -100v88h65zM431 213v84q0 74 -42 121t-113 47q-65 0 -105 -38t-40 -95v-154
q0 -57 40 -95t105 -38q71 0 113 47t42 121zM186 695h42q0 -42 22.5 -68.5t62.5 -26.5t62.5 26.5t22.5 68.5h42q0 -60 -35 -97.5t-92 -37.5t-92 37.5t-35 97.5z" />
    <glyph glyph-name="Gdotaccent" unicode="&#x120;" horiz-adv-x="662" 
d="M329 -15q-127 0 -195 91t-68 258q0 169 68 265t206 96q99 0 163 -56t74 -152h-70q-7 70 -53 106.5t-121 36.5q-81 0 -134 -54t-53 -136v-200q0 -83 53 -136.5t132 -53.5q87 0 137 48t50 134v56h-164v65h234v-353h-66l-4 77q-27 -43 -76 -67.5t-113 -24.5zM359 840v-68
h-68v68h68z" />
    <glyph glyph-name="gdotaccent" unicode="&#x121;" horiz-adv-x="585" 
d="M496 510v-495q0 -100 -61 -155t-149 -55q-189 0 -207 155h65q12 -98 138 -98q67 0 108 39t41 113v74q-50 -100 -165 -100q-99 0 -152 72.5t-53 194.5q0 121 53 194t150 73q117 0 167 -100v88h65zM431 213v84q0 74 -42 121t-113 47q-65 0 -105 -38t-40 -95v-154
q0 -57 40 -95t105 -38q71 0 113 47t42 121zM342 670v-68h-68v68h68z" />
    <glyph glyph-name="Gcommaaccent" unicode="&#x122;" horiz-adv-x="662" 
d="M329 -15q-127 0 -195 91t-68 258q0 169 68 265t206 96q99 0 163 -56t74 -152h-70q-7 70 -53 106.5t-121 36.5q-81 0 -134 -54t-53 -136v-200q0 -83 53 -136.5t132 -53.5q87 0 137 48t50 134v56h-164v65h234v-353h-66l-4 77q-27 -43 -76 -67.5t-113 -24.5zM354 -62v-68
l-40 -68h-28l37 68h-37v68h68z" />
    <glyph glyph-name="gcommaaccent" unicode="&#x123;" horiz-adv-x="585" 
d="M496 510v-495q0 -100 -61 -155t-149 -55q-189 0 -207 155h65q12 -98 138 -98q67 0 108 39t41 113v74q-50 -100 -165 -100q-99 0 -152 72.5t-53 194.5q0 121 53 194t150 73q117 0 167 -100v88h65zM431 213v84q0 74 -42 121t-113 47q-65 0 -105 -38t-40 -95v-154
q0 -57 40 -95t105 -38q71 0 113 47t42 121zM263 680v85l49 85h36l-46 -85h46v-85h-85z" />
    <glyph glyph-name="Hcircumflex" unicode="&#x124;" horiz-adv-x="689" 
d="M520 0v317h-351v-317h-70v680h70v-298h351v298h70v-680h-70zM344 831l-70 -88h-52l85 122h75l85 -122h-53z" />
    <glyph glyph-name="hcircumflex" unicode="&#x125;" horiz-adv-x="561" 
d="M412 0v330q0 67 -26 101t-88 34q-63 0 -103.5 -47.5t-40.5 -122.5v-295h-65v680h65v-259q44 101 157 101q78 0 122 -44t44 -138v-340h-65zM122 831l-70 -88h-52l85 122h75l85 -122h-53z" />
    <glyph glyph-name="Hbar" unicode="&#x126;" horiz-adv-x="695" 
d="M30 487v52h72v141h70v-141h351v141h70v-141h72v-52h-72v-487h-70v317h-351v-317h-70v487h-72zM172 382h351v105h-351v-105z" />
    <glyph glyph-name="hbar" unicode="&#x127;" horiz-adv-x="561" 
d="M89 572h-93v40h93v68h65v-68h150v-40h-150v-151q44 101 157 101q78 0 122 -44t44 -138v-340h-65v330q0 67 -26 101t-88 34q-63 0 -103.5 -47.5t-40.5 -122.5v-295h-65v572z" />
    <glyph glyph-name="Itilde" unicode="&#x128;" horiz-adv-x="268" 
d="M99 0v680h70v-680h-70zM245 842h36q0 -37 -20 -58t-56 -21q-28 0 -78 24t-67 24q-36 0 -36 -38h-36q0 37 20 58t56 21q28 0 78 -24t67 -24q36 0 36 38z" />
    <glyph glyph-name="itilde" unicode="&#x129;" horiz-adv-x="243" 
d="M154 0h-65v510h65v-510zM231 672h36q0 -37 -20 -58t-56 -21q-28 0 -78 24t-67 24q-36 0 -36 -38h-36q0 37 20 58t56 21q28 0 78 -24t67 -24q36 0 36 38z" />
    <glyph glyph-name="Imacron" unicode="&#x12a;" horiz-adv-x="268" 
d="M99 0v680h70v-680h-70zM-10 789v43h289v-43h-289z" />
    <glyph glyph-name="imacron" unicode="&#x12b;" horiz-adv-x="243" 
d="M154 0h-65v510h65v-510zM-23 619v43h289v-43h-289z" />
    <glyph glyph-name="Ibreve" unicode="&#x12c;" horiz-adv-x="268" 
d="M99 0v680h70v-680h-70zM7 865h42q0 -42 22.5 -68.5t62.5 -26.5t62.5 26.5t22.5 68.5h42q0 -60 -35 -97.5t-92 -37.5t-92 37.5t-35 97.5z" />
    <glyph glyph-name="ibreve" unicode="&#x12d;" horiz-adv-x="243" 
d="M154 0h-65v510h65v-510zM-6 695h42q0 -42 22.5 -68.5t62.5 -26.5t62.5 26.5t22.5 68.5h42q0 -60 -35 -97.5t-92 -37.5t-92 37.5t-35 97.5z" />
    <glyph glyph-name="Iogonek" unicode="&#x12e;" horiz-adv-x="268" 
d="M99 0v680h70v-680h-70zM163 -90v-55h-120v55l60 55h50l-50 -55h60z" />
    <glyph glyph-name="iogonek" unicode="&#x12f;" horiz-adv-x="243" 
d="M154 0h-65v510h65v-510zM156 670v-69h-69v69h69zM151 -90v-55h-120v55l60 55h50l-50 -55h60z" />
    <glyph glyph-name="Idotaccent" unicode="&#x130;" horiz-adv-x="268" 
d="M99 0v680h70v-680h-70zM168 840v-68h-68v68h68z" />
    <glyph glyph-name="dotlessi" unicode="&#x131;" horiz-adv-x="243" 
d="M154 0h-65v510h65v-510z" />
    <glyph glyph-name="IJ" unicode="&#x132;" horiz-adv-x="678" 
d="M99 0v680h70v-680h-70zM579 680v-680h-289v65h219v615h70z" />
    <glyph glyph-name="ij" unicode="&#x133;" horiz-adv-x="498" 
d="M154 0h-65v510h65v-510zM156 670v-69h-69v69h69zM344 -113v623h65v-680h-183v57h118zM411 670v-69h-69v69h69z" />
    <glyph glyph-name="Jcircumflex" unicode="&#x134;" horiz-adv-x="410" 
d="M311 680v-680h-289v65h219v615h70zM276 831l-70 -88h-52l85 122h75l85 -122h-53z" />
    <glyph glyph-name="jcircumflex" unicode="&#x135;" horiz-adv-x="243" 
d="M89 -113v623h65v-680h-183v57h118zM121 661l-70 -88h-52l85 122h75l85 -122h-53z" />
    <glyph glyph-name="Kcommaaccent" unicode="&#x136;" horiz-adv-x="603" 
d="M491 0l-320 362l293 318h93l-301 -318l323 -362h-88zM169 680v-680h-70v680h70zM321 -62v-68l-40 -68h-28l37 68h-37v68h68z" />
    <glyph glyph-name="kcommaaccent" unicode="&#x137;" horiz-adv-x="494" 
d="M389 0l-233 285l208 225h85l-215 -226l233 -284h-78zM154 680v-680h-65v680h65zM275 -62v-68l-40 -68h-28l37 68h-37v68h68z" />
    <glyph glyph-name="kgreenlandic" unicode="&#x138;" horiz-adv-x="494" 
d="M389 0l-233 285l208 225h85l-215 -226l233 -284h-78zM154 510v-510h-65v510h65z" />
    <glyph glyph-name="Lacute" unicode="&#x139;" horiz-adv-x="498" 
d="M99 0v680h70v-615h308v-65h-378zM86 743l82 122h76l-105 -122h-53z" />
    <glyph glyph-name="lacute" unicode="&#x13a;" horiz-adv-x="247" 
d="M156 0h-65v680h65v-680zM73 743l82 122h76l-105 -122h-53z" />
    <glyph glyph-name="Lcommaaccent" unicode="&#x13b;" horiz-adv-x="498" 
d="M99 0v680h70v-615h308v-65h-378zM289 -62v-68l-40 -68h-28l37 68h-37v68h68z" />
    <glyph glyph-name="lcommaaccent" unicode="&#x13c;" horiz-adv-x="247" 
d="M156 0h-65v680h65v-680zM157 -62v-68l-40 -68h-28l37 68h-37v68h68z" />
    <glyph glyph-name="Lcaron" unicode="&#x13d;" horiz-adv-x="498" 
d="M99 0v680h70v-615h308v-65h-378zM324 680v-85l-49 -85h-36l46 85h-46v85h85z" />
    <glyph glyph-name="lcaron" unicode="&#x13e;" horiz-adv-x="245" 
d="M156 0h-65v680h65v-680zM301 680v-85l-49 -85h-36l46 85h-46v85h85z" />
    <glyph glyph-name="Ldot" unicode="&#x13f;" horiz-adv-x="499" 
d="M99 0v680h70v-615h308v-65h-378zM367 498v-85h-85v85h85z" />
    <glyph glyph-name="ldot" unicode="&#x140;" horiz-adv-x="270" 
d="M156 0h-65v680h65v-680zM301 498v-85h-85v85h85z" />
    <glyph glyph-name="Lslash" unicode="&#x141;" horiz-adv-x="511" 
d="M112 0v272l-96 -55v58l96 56v349h70v-309l152 89v-58l-152 -89v-248h308v-65h-378z" />
    <glyph glyph-name="lslash" unicode="&#x142;" horiz-adv-x="268" 
d="M243 404l-76 -44v-360h-65v321l-76 -44v47l76 44v312h65v-273l76 43v-46z" />
    <glyph glyph-name="Nacute" unicode="&#x143;" horiz-adv-x="689" 
d="M517 79h4v601h69v-680h-111l-307 602h-4v-602h-69v680h111zM275 743l82 122h76l-105 -122h-53z" />
    <glyph glyph-name="nacute" unicode="&#x144;" horiz-adv-x="561" 
d="M412 0v328q0 67 -26 102t-88 35q-63 0 -103.5 -48.5t-40.5 -123.5v-293h-65v510h65v-89q44 101 157 101q78 0 122 -44t44 -138v-340h-65zM222 573l82 122h76l-105 -122h-53z" />
    <glyph glyph-name="Ncommaaccent" unicode="&#x145;" horiz-adv-x="689" 
d="M517 79h4v601h69v-680h-111l-307 602h-4v-602h-69v680h111zM378 -62v-68l-40 -68h-28l37 68h-37v68h68z" />
    <glyph glyph-name="ncommaaccent" unicode="&#x146;" horiz-adv-x="561" 
d="M412 0v328q0 67 -26 102t-88 35q-63 0 -103.5 -48.5t-40.5 -123.5v-293h-65v510h65v-89q44 101 157 101q78 0 122 -44t44 -138v-340h-65zM317 -62v-68l-40 -68h-28l37 68h-37v68h68z" />
    <glyph glyph-name="Ncaron" unicode="&#x147;" horiz-adv-x="689" 
d="M517 79h4v601h69v-680h-111l-307 602h-4v-602h-69v680h111zM274 865l70 -88l70 88h53l-85 -122h-75l-85 122h52z" />
    <glyph glyph-name="ncaron" unicode="&#x148;" horiz-adv-x="561" 
d="M412 0v328q0 67 -26 102t-88 35q-63 0 -103.5 -48.5t-40.5 -123.5v-293h-65v510h65v-89q44 101 157 101q78 0 122 -44t44 -138v-340h-65zM221 695l70 -88l70 88h53l-85 -122h-75l-85 122h52z" />
    <glyph glyph-name="napostrophe" unicode="&#x149;" horiz-adv-x="561" 
d="M129 749v-68l-40 -68h-28l37 68h-37v68h68zM412 0v328q0 67 -26 102t-88 35q-63 0 -103.5 -48.5t-40.5 -123.5v-293h-65v510h65v-89q44 101 157 101q78 0 122 -44t44 -138v-340h-65z" />
    <glyph glyph-name="Eng" unicode="&#x14a;" horiz-adv-x="689" 
d="M168 549v-549h-69v680h70l348 -549h4l-1 549h70v-850h-289v65h219v105l-348 549h-4z" />
    <glyph glyph-name="eng" unicode="&#x14b;" horiz-adv-x="561" 
d="M477 340v-510h-183v57h118v441q0 67 -26 102t-88 35q-63 0 -103.5 -48.5t-40.5 -123.5v-293h-65v510h65v-89q44 101 157 101q78 0 122 -44t44 -138z" />
    <glyph glyph-name="Omacron" unicode="&#x14c;" horiz-adv-x="696" 
d="M630 340q0 -166 -68.5 -260.5t-213.5 -94.5t-213.5 94.5t-68.5 260.5t68.5 260.5t213.5 94.5t213.5 -94.5t68.5 -260.5zM348 50q89 0 145.5 51t56.5 138v202q0 86 -57 137.5t-145 51.5t-145 -51.5t-57 -137.5v-202q0 -86 57 -137.5t145 -51.5zM204 789v43h289v-43h-289z
" />
    <glyph glyph-name="omacron" unicode="&#x14d;" horiz-adv-x="560" 
d="M61 255q0 122 55.5 194.5t163.5 72.5t163.5 -72.5t55.5 -194.5t-55.5 -194.5t-163.5 -72.5t-163.5 72.5t-55.5 194.5zM429 178v154q0 59 -42.5 96.5t-106.5 37.5t-106.5 -37.5t-42.5 -96.5v-154q0 -59 42.5 -96.5t106.5 -37.5t106.5 37.5t42.5 96.5zM136 619v43h289v-43
h-289z" />
    <glyph glyph-name="Obreve" unicode="&#x14e;" horiz-adv-x="696" 
d="M630 340q0 -166 -68.5 -260.5t-213.5 -94.5t-213.5 94.5t-68.5 260.5t68.5 260.5t213.5 94.5t213.5 -94.5t68.5 -260.5zM348 50q89 0 145.5 51t56.5 138v202q0 86 -57 137.5t-145 51.5t-145 -51.5t-57 -137.5v-202q0 -86 57 -137.5t145 -51.5zM221 865h42
q0 -42 22.5 -68.5t62.5 -26.5t62.5 26.5t22.5 68.5h42q0 -60 -35 -97.5t-92 -37.5t-92 37.5t-35 97.5z" />
    <glyph glyph-name="obreve" unicode="&#x14f;" horiz-adv-x="560" 
d="M61 255q0 122 55.5 194.5t163.5 72.5t163.5 -72.5t55.5 -194.5t-55.5 -194.5t-163.5 -72.5t-163.5 72.5t-55.5 194.5zM429 178v154q0 59 -42.5 96.5t-106.5 37.5t-106.5 -37.5t-42.5 -96.5v-154q0 -59 42.5 -96.5t106.5 -37.5t106.5 37.5t42.5 96.5zM153 695h42
q0 -42 22.5 -68.5t62.5 -26.5t62.5 26.5t22.5 68.5h42q0 -60 -35 -97.5t-92 -37.5t-92 37.5t-35 97.5z" />
    <glyph glyph-name="Ohungarumlaut" unicode="&#x150;" horiz-adv-x="696" 
d="M630 340q0 -166 -68.5 -260.5t-213.5 -94.5t-213.5 94.5t-68.5 260.5t68.5 260.5t213.5 94.5t213.5 -94.5t68.5 -260.5zM348 50q89 0 145.5 51t56.5 138v202q0 86 -57 137.5t-145 51.5t-145 -51.5t-57 -137.5v-202q0 -86 57 -137.5t145 -51.5zM247 743l77 122h76
l-100 -122h-53zM375 743l77 122h76l-100 -122h-53z" />
    <glyph glyph-name="ohungarumlaut" unicode="&#x151;" horiz-adv-x="560" 
d="M61 255q0 122 55.5 194.5t163.5 72.5t163.5 -72.5t55.5 -194.5t-55.5 -194.5t-163.5 -72.5t-163.5 72.5t-55.5 194.5zM429 178v154q0 59 -42.5 96.5t-106.5 37.5t-106.5 -37.5t-42.5 -96.5v-154q0 -59 42.5 -96.5t106.5 -37.5t106.5 37.5t42.5 96.5zM179 573l77 122h76
l-100 -122h-53zM307 573l77 122h76l-100 -122h-53z" />
    <glyph glyph-name="OE" unicode="&#x152;" horiz-adv-x="1040" 
d="M348 630q-88 0 -145 -51.5t-57 -137.5v-202q0 -86 57 -137.5t145 -51.5q84 0 143 50.5t59 132.5v214q0 82 -59 132.5t-143 50.5zM348 -15q-145 0 -213.5 94.5t-68.5 260.5t68.5 260.5t213.5 94.5q130 0 202 -83v68h426v-65h-356v-236h310v-65h-310v-249h356v-65h-426v68
q-72 -83 -202 -83z" />
    <glyph glyph-name="oe" unicode="&#x153;" horiz-adv-x="900" 
d="M460 82q-57 -94 -180 -94q-108 0 -163.5 72.5t-55.5 194.5t55.5 194.5t163.5 72.5q126 0 182 -95q56 95 171 95q99 0 154 -70.5t55 -173.5v-43h-349v-55q0 -60 42.5 -97.5t99.5 -37.5q56 0 93.5 28t43.5 84h65q-9 -79 -66 -124t-137 -45q-121 0 -174 94zM429 178v154
q0 59 -42.5 96.5t-106.5 37.5t-106.5 -37.5t-42.5 -96.5v-154q0 -59 42.5 -96.5t106.5 -37.5t106.5 37.5t42.5 96.5zM772 292v38q0 61 -40.5 98t-98.5 37t-99 -37t-41 -98v-38h279z" />
    <glyph glyph-name="Racute" unicode="&#x154;" horiz-adv-x="614" 
d="M313 296h-144v-296h-70v680h257q103 0 148 -47.5t45 -142.5q0 -171 -160 -192l161 -298h-80zM169 358h210q42 0 68.5 24.5t26.5 65.5v83q0 40 -26 62t-69 22h-210v-257zM265 743l82 122h76l-105 -122h-53z" />
    <glyph glyph-name="racute" unicode="&#x155;" horiz-adv-x="342" 
d="M89 0v510h225v-57h-160v-453h-65zM90 573l82 122h76l-105 -122h-53z" />
    <glyph glyph-name="Rcommaaccent" unicode="&#x156;" horiz-adv-x="614" 
d="M313 296h-144v-296h-70v680h257q103 0 148 -47.5t45 -142.5q0 -171 -160 -192l161 -298h-80zM169 358h210q42 0 68.5 24.5t26.5 65.5v83q0 40 -26 62t-69 22h-210v-257zM338 -62v-68l-40 -68h-28l37 68h-37v68h68z" />
    <glyph glyph-name="rcommaaccent" unicode="&#x157;" horiz-adv-x="342" 
d="M89 0v510h225v-57h-160v-453h-65zM156 -62v-68l-40 -68h-28l37 68h-37v68h68z" />
    <glyph glyph-name="Rcaron" unicode="&#x158;" horiz-adv-x="614" 
d="M313 296h-144v-296h-70v680h257q103 0 148 -47.5t45 -142.5q0 -171 -160 -192l161 -298h-80zM169 358h210q42 0 68.5 24.5t26.5 65.5v83q0 40 -26 62t-69 22h-210v-257zM234 865l70 -88l70 88h53l-85 -122h-75l-85 122h52z" />
    <glyph glyph-name="rcaron" unicode="&#x159;" horiz-adv-x="342" 
d="M89 0v510h225v-57h-160v-453h-65zM131 695l70 -88l70 88h53l-85 -122h-75l-85 122h52z" />
    <glyph glyph-name="Sacute" unicode="&#x15a;" horiz-adv-x="607" 
d="M299 632q-72 0 -113.5 -30.5t-41.5 -85.5q0 -30 7.5 -50t26.5 -33t36.5 -19.5t51.5 -16.5l113 -32q90 -25 131 -68t41 -118q0 -89 -68 -141.5t-175 -52.5q-109 0 -176 53t-79 160h70q7 -74 56 -112t127 -38q77 0 126 34.5t49 94.5q0 54 -27.5 78t-89.5 41l-135 37
q-81 22 -118 66.5t-37 116.5q0 78 60.5 128.5t164.5 50.5q100 0 163 -51.5t72 -148.5h-70q-6 70 -52 103.5t-113 33.5zM251 743l82 122h76l-105 -122h-53z" />
    <glyph glyph-name="sacute" unicode="&#x15b;" horiz-adv-x="495" 
d="M212 299l86 -18q73 -15 108.5 -50t35.5 -96q0 -65 -52 -106t-140 -41q-85 0 -140.5 44.5t-56.5 123.5h65q1 -52 39.5 -81.5t93.5 -29.5t90.5 23.5t35.5 65.5q0 38 -23 57.5t-79 31.5l-84 18q-125 26 -125 138q0 62 49.5 102.5t127.5 40.5q75 0 128.5 -40.5t54.5 -118.5
h-65q-1 51 -34 76.5t-84 25.5t-82.5 -23.5t-31.5 -61.5q0 -36 21 -54.5t62 -26.5zM189 573l82 122h76l-105 -122h-53z" />
    <glyph glyph-name="Scircumflex" unicode="&#x15c;" horiz-adv-x="607" 
d="M299 632q-72 0 -113.5 -30.5t-41.5 -85.5q0 -30 7.5 -50t26.5 -33t36.5 -19.5t51.5 -16.5l113 -32q90 -25 131 -68t41 -118q0 -89 -68 -141.5t-175 -52.5q-109 0 -176 53t-79 160h70q7 -74 56 -112t127 -38q77 0 126 34.5t49 94.5q0 54 -27.5 78t-89.5 41l-135 37
q-81 22 -118 66.5t-37 116.5q0 78 60.5 128.5t164.5 50.5q100 0 163 -51.5t72 -148.5h-70q-6 70 -52 103.5t-113 33.5zM301 831l-70 -88h-52l85 122h75l85 -122h-53z" />
    <glyph glyph-name="scircumflex" unicode="&#x15d;" horiz-adv-x="495" 
d="M212 299l86 -18q73 -15 108.5 -50t35.5 -96q0 -65 -52 -106t-140 -41q-85 0 -140.5 44.5t-56.5 123.5h65q1 -52 39.5 -81.5t93.5 -29.5t90.5 23.5t35.5 65.5q0 38 -23 57.5t-79 31.5l-84 18q-125 26 -125 138q0 62 49.5 102.5t127.5 40.5q75 0 128.5 -40.5t54.5 -118.5
h-65q-1 51 -34 76.5t-84 25.5t-82.5 -23.5t-31.5 -61.5q0 -36 21 -54.5t62 -26.5zM245 661l-70 -88h-52l85 122h75l85 -122h-53z" />
    <glyph glyph-name="Scedilla" unicode="&#x15e;" horiz-adv-x="607" 
d="M299 632q-72 0 -113.5 -30.5t-41.5 -85.5q0 -30 7.5 -50t26.5 -33t36.5 -19.5t51.5 -16.5l113 -32q90 -25 131 -68t41 -118q0 -89 -68 -141.5t-175 -52.5q-109 0 -176 53t-79 160h70q7 -74 56 -112t127 -38q77 0 126 34.5t49 94.5q0 54 -27.5 78t-89.5 41l-135 37
q-81 22 -118 66.5t-37 116.5q0 78 60.5 128.5t164.5 50.5q100 0 163 -51.5t72 -148.5h-70q-6 70 -52 103.5t-113 33.5zM211 -145v55h60v55h60v-110h-120z" />
    <glyph glyph-name="scedilla" unicode="&#x15f;" horiz-adv-x="495" 
d="M212 299l86 -18q73 -15 108.5 -50t35.5 -96q0 -65 -52 -106t-140 -41q-85 0 -140.5 44.5t-56.5 123.5h65q1 -52 39.5 -81.5t93.5 -29.5t90.5 23.5t35.5 65.5q0 38 -23 57.5t-79 31.5l-84 18q-125 26 -125 138q0 62 49.5 102.5t127.5 40.5q75 0 128.5 -40.5t54.5 -118.5
h-65q-1 51 -34 76.5t-84 25.5t-82.5 -23.5t-31.5 -61.5q0 -36 21 -54.5t62 -26.5zM157 -145v55h60v55h60v-110h-120z" />
    <glyph glyph-name="Scaron" unicode="&#x160;" horiz-adv-x="607" 
d="M299 632q-72 0 -113.5 -30.5t-41.5 -85.5q0 -30 7.5 -50t26.5 -33t36.5 -19.5t51.5 -16.5l113 -32q90 -25 131 -68t41 -118q0 -89 -68 -141.5t-175 -52.5q-109 0 -176 53t-79 160h70q7 -74 56 -112t127 -38q77 0 126 34.5t49 94.5q0 54 -27.5 78t-89.5 41l-135 37
q-81 22 -118 66.5t-37 116.5q0 78 60.5 128.5t164.5 50.5q100 0 163 -51.5t72 -148.5h-70q-6 70 -52 103.5t-113 33.5zM230 880l70 -88l70 88h53l-85 -122h-75l-85 122h52z" />
    <glyph glyph-name="scaron" unicode="&#x161;" horiz-adv-x="495" 
d="M212 299l86 -18q73 -15 108.5 -50t35.5 -96q0 -65 -52 -106t-140 -41q-85 0 -140.5 44.5t-56.5 123.5h65q1 -52 39.5 -81.5t93.5 -29.5t90.5 23.5t35.5 65.5q0 38 -23 57.5t-79 31.5l-84 18q-125 26 -125 138q0 62 49.5 102.5t127.5 40.5q75 0 128.5 -40.5t54.5 -118.5
h-65q-1 51 -34 76.5t-84 25.5t-82.5 -23.5t-31.5 -61.5q0 -36 21 -54.5t62 -26.5zM175 695l70 -88l70 88h53l-85 -122h-75l-85 122h52z" />
    <glyph glyph-name="uni0162" unicode="&#x162;" horiz-adv-x="520" 
d="M168 -145v55h60v55h60v-110h-120zM22 615v65h476v-65h-203v-615h-70v615h-203z" />
    <glyph glyph-name="uni0163" unicode="&#x163;" horiz-adv-x="347" 
d="M125 -145v55h60v55h60v-110h-120zM185 453v-396h122v-57h-187v453h-85v57h85v170h65v-170h122v-57h-122z" />
    <glyph glyph-name="Tcaron" unicode="&#x164;" horiz-adv-x="520" 
d="M22 615v65h476v-65h-203v-615h-70v615h-203zM190 865l70 -88l70 88h53l-85 -122h-75l-85 122h52z" />
    <glyph glyph-name="tcaron" unicode="&#x165;" horiz-adv-x="357" 
d="M185 453v-396h122v-57h-187v453h-85v57h85v170h65v-170h122v-57h-122zM434 680v-85l-49 -85h-36l46 85h-46v85h85z" />
    <glyph glyph-name="Tbar" unicode="&#x166;" horiz-adv-x="554" 
d="M86 314v52h156v249h-203v65h476v-65h-203v-249h156v-52h-156v-314h-70v314h-156z" />
    <glyph glyph-name="tbar" unicode="&#x167;" horiz-adv-x="356" 
d="M127 235h-85v40h85v178h-85v57h85v170h65v-170h122v-57h-122v-178h117v-40h-117v-178h122v-57h-187v235z" />
    <glyph glyph-name="Utilde" unicode="&#x168;" horiz-adv-x="678" 
d="M516 235v445h69v-438q0 -118 -68 -187.5t-178 -69.5t-178 69.5t-68 187.5v438h70v-445q0 -84 49 -135t127 -51q79 0 128 50.5t49 135.5zM450 842h36q0 -37 -20 -58t-56 -21q-28 0 -78 24t-67 24q-36 0 -36 -38h-36q0 37 20 58t56 21q28 0 78 -24t67 -24q36 0 36 38z" />
    <glyph glyph-name="utilde" unicode="&#x169;" horiz-adv-x="557" 
d="M149 510v-329q0 -66 25.5 -101t85.5 -35q62 0 102.5 48.5t40.5 123.5v293h65v-510h-65v89q-44 -101 -155 -101q-76 0 -120 44.5t-44 137.5v340h65zM387 672h36q0 -37 -20 -58t-56 -21q-28 0 -78 24t-67 24q-36 0 -36 -38h-36q0 37 20 58t56 21q28 0 78 -24t67 -24
q36 0 36 38z" />
    <glyph glyph-name="Umacron" unicode="&#x16a;" horiz-adv-x="678" 
d="M516 235v445h69v-438q0 -118 -68 -187.5t-178 -69.5t-178 69.5t-68 187.5v438h70v-445q0 -84 49 -135t127 -51q79 0 128 50.5t49 135.5zM195 789v43h289v-43h-289z" />
    <glyph glyph-name="umacron" unicode="&#x16b;" horiz-adv-x="557" 
d="M149 510v-329q0 -66 25.5 -101t85.5 -35q62 0 102.5 48.5t40.5 123.5v293h65v-510h-65v89q-44 -101 -155 -101q-76 0 -120 44.5t-44 137.5v340h65zM132 619v43h289v-43h-289z" />
    <glyph glyph-name="Ubreve" unicode="&#x16c;" horiz-adv-x="678" 
d="M516 235v445h69v-438q0 -118 -68 -187.5t-178 -69.5t-178 69.5t-68 187.5v438h70v-445q0 -84 49 -135t127 -51q79 0 128 50.5t49 135.5zM212 865h42q0 -42 22.5 -68.5t62.5 -26.5t62.5 26.5t22.5 68.5h42q0 -60 -35 -97.5t-92 -37.5t-92 37.5t-35 97.5z" />
    <glyph glyph-name="ubreve" unicode="&#x16d;" horiz-adv-x="557" 
d="M149 510v-329q0 -66 25.5 -101t85.5 -35q62 0 102.5 48.5t40.5 123.5v293h65v-510h-65v89q-44 -101 -155 -101q-76 0 -120 44.5t-44 137.5v340h65zM147 695h42q0 -42 22.5 -68.5t62.5 -26.5t62.5 26.5t22.5 68.5h42q0 -60 -35 -97.5t-92 -37.5t-92 37.5t-35 97.5z" />
    <glyph glyph-name="Uring" unicode="&#x16e;" horiz-adv-x="678" 
d="M516 235v445h69v-438q0 -118 -68 -187.5t-178 -69.5t-178 69.5t-68 187.5v438h70v-445q0 -84 49 -135t127 -51q79 0 128 50.5t49 135.5zM428 821q0 -35 -24.5 -60.5t-64.5 -25.5t-64.5 25.5t-24.5 60.5t24.5 60.5t64.5 25.5t64.5 -25.5t24.5 -60.5zM391 821
q0 22 -14.5 37t-37.5 15t-38 -15.5t-15 -36.5q0 -22 15 -37.5t38 -15.5t37.5 15.5t14.5 37.5z" />
    <glyph glyph-name="uring" unicode="&#x16f;" horiz-adv-x="557" 
d="M149 510v-329q0 -66 25.5 -101t85.5 -35q62 0 102.5 48.5t40.5 123.5v293h65v-510h-65v89q-44 -101 -155 -101q-76 0 -120 44.5t-44 137.5v340h65zM365 651q0 -35 -24.5 -60.5t-64.5 -25.5t-64.5 25.5t-24.5 60.5t24.5 60.5t64.5 25.5t64.5 -25.5t24.5 -60.5zM328 651
q0 22 -14.5 37t-37.5 15t-38 -15.5t-15 -36.5q0 -22 15 -37.5t38 -15.5t37.5 15.5t14.5 37.5z" />
    <glyph glyph-name="Uhungarumlaut" unicode="&#x170;" horiz-adv-x="678" 
d="M516 235v445h69v-438q0 -118 -68 -187.5t-178 -69.5t-178 69.5t-68 187.5v438h70v-445q0 -84 49 -135t127 -51q79 0 128 50.5t49 135.5zM238 743l77 122h76l-100 -122h-53zM366 743l77 122h76l-100 -122h-53z" />
    <glyph glyph-name="uhungarumlaut" unicode="&#x171;" horiz-adv-x="557" 
d="M149 510v-329q0 -66 25.5 -101t85.5 -35q62 0 102.5 48.5t40.5 123.5v293h65v-510h-65v89q-44 -101 -155 -101q-76 0 -120 44.5t-44 137.5v340h65zM179 573l77 122h76l-100 -122h-53zM307 573l77 122h76l-100 -122h-53z" />
    <glyph glyph-name="Uogonek" unicode="&#x172;" horiz-adv-x="678" 
d="M516 235v445h69v-438q0 -118 -68 -187.5t-178 -69.5t-178 69.5t-68 187.5v438h70v-445q0 -84 49 -135t127 -51q79 0 128 50.5t49 135.5zM367 -90v-55h-120v55l60 55h50l-50 -55h60z" />
    <glyph glyph-name="uogonek" unicode="&#x173;" horiz-adv-x="557" 
d="M149 510v-329q0 -66 25.5 -101t85.5 -35q62 0 102.5 48.5t40.5 123.5v293h65v-510h-65v89q-44 -101 -155 -101q-76 0 -120 44.5t-44 137.5v340h65zM461 -90v-55h-120v55l60 55h50l-50 -55h60z" />
    <glyph glyph-name="Wcircumflex" unicode="&#x174;" horiz-adv-x="915" 
d="M271 80h4l137 600h90l139 -600h4l146 600h76l-178 -680h-94l-136 574h-4l-135 -574h-94l-178 680h75zM457 831l-70 -88h-52l85 122h75l85 -122h-53z" />
    <glyph glyph-name="wcircumflex" unicode="&#x175;" horiz-adv-x="743" 
d="M223 95h4l104 415h83l105 -415h4l114 415h69l-155 -510h-66l-111 429h-4l-111 -429h-67l-155 510h71zM373 661l-70 -88h-52l85 122h75l85 -122h-53z" />
    <glyph glyph-name="Ycircumflex" unicode="&#x176;" horiz-adv-x="574" 
d="M252 270l-224 410h78l181 -340l184 340h76l-225 -410v-270h-70v270zM287 831l-70 -88h-52l85 122h75l85 -122h-53z" />
    <glyph glyph-name="ycircumflex" unicode="&#x177;" horiz-adv-x="510" 
d="M255 95h4l147 415h72l-250 -680h-153v57h108l41 113l-189 510h75zM257 661l-70 -88h-52l85 122h75l85 -122h-53z" />
    <glyph glyph-name="Ydieresis" unicode="&#x178;" horiz-adv-x="574" 
d="M252 270l-224 410h78l181 -340l184 340h76l-225 -410v-270h-70v270zM253 834v-68h-68v68h68zM389 834v-68h-68v68h68z" />
    <glyph glyph-name="Zacute" unicode="&#x179;" horiz-adv-x="574" 
d="M517 680v-65l-384 -550h382v-65h-464v65l385 550h-369v65h450zM245 743l82 122h76l-105 -122h-53z" />
    <glyph glyph-name="zacute" unicode="&#x17a;" horiz-adv-x="468" 
d="M129 57h287v-57h-366v57l276 396h-261v57h340v-57zM188 573l82 122h76l-105 -122h-53z" />
    <glyph glyph-name="Zdotaccent" unicode="&#x17b;" horiz-adv-x="574" 
d="M517 680v-65l-384 -550h382v-65h-464v65l385 550h-369v65h450zM317 840v-68h-68v68h68z" />
    <glyph glyph-name="zdotaccent" unicode="&#x17c;" horiz-adv-x="468" 
d="M129 57h287v-57h-366v57l276 396h-261v57h340v-57zM267 670v-68h-68v68h68z" />
    <glyph glyph-name="Zcaron" unicode="&#x17d;" horiz-adv-x="574" 
d="M517 680v-65l-384 -550h382v-65h-464v65l385 550h-369v65h450zM213 880l70 -88l70 88h53l-85 -122h-75l-85 122h52z" />
    <glyph glyph-name="zcaron" unicode="&#x17e;" horiz-adv-x="468" 
d="M129 57h287v-57h-366v57l276 396h-261v57h340v-57zM163 695l70 -88l70 88h53l-85 -122h-75l-85 122h52z" />
    <glyph glyph-name="florin" unicode="&#x192;" horiz-adv-x="420" 
d="M64 367v57h103l52 256h179v-57h-124l-41 -199h134v-57h-145l-108 -537h-178v57h124l96 480h-92z" />
    <glyph glyph-name="Aringacute" unicode="&#x1fa;" horiz-adv-x="623" 
d="M514 0l-60 177h-286l-60 -177h-74l235 680h85l235 -680h-75zM314 602h-4l-122 -365h246zM400 811q0 -35 -24.5 -60.5t-64.5 -25.5t-64.5 25.5t-24.5 60.5t24.5 60.5t64.5 25.5t64.5 -25.5t24.5 -60.5zM363 811q0 22 -14.5 37t-37.5 15t-38 -15.5t-15 -36.5
q0 -22 15 -37.5t38 -15.5t37.5 15.5t14.5 37.5zM283 942l82 122h76l-105 -122h-53z" />
    <glyph glyph-name="aringacute" unicode="&#x1fb;" horiz-adv-x="540" 
d="M379 303v47q0 64 -31 89.5t-90 25.5q-56 0 -88 -26t-32 -76h-65q0 71 52 115t135 44q86 0 134.5 -43.5t48.5 -130.5v-291h75v-57h-131l-2 99h-3q-43 -111 -162 -111q-81 0 -123 45q-41 43 -41 107q0 62 32.5 100.5t97.5 44.5zM379 247l-212 -19q-42 -4 -42 -50v-56
q0 -77 106 -77q68 0 108 48.5t40 128.5v25zM344 651q0 -35 -24.5 -60.5t-64.5 -25.5t-64.5 25.5t-24.5 60.5t24.5 60.5t64.5 25.5t64.5 -25.5t24.5 -60.5zM307 651q0 22 -14.5 37t-37.5 15t-38 -15.5t-15 -36.5q0 -22 15 -37.5t38 -15.5t37.5 15.5t14.5 37.5zM225 792
l82 122h76l-105 -122h-53z" />
    <glyph glyph-name="AEacute" unicode="&#x1fc;" horiz-adv-x="928" 
d="M335 680h529v-65h-346v-236h300v-65h-300v-249h346v-65h-416v178h-281l-86 -178h-76zM380 615l-183 -377h251v377h-68zM391 743l82 122h76l-105 -122h-53z" />
    <glyph glyph-name="aeacute" unicode="&#x1fd;" horiz-adv-x="840" 
d="M379 235h-206q-22 0 -35 -13.5t-13 -36.5v-63q0 -77 106 -77q68 0 108 48.5t40 128.5v13zM712 292v38q0 61 -39.5 98t-94.5 37t-94.5 -37t-39.5 -98v-38h268zM403 86h-3q-60 -98 -180 -98q-79 0 -122 46q-42 44 -42 116q0 58 34.5 100t101.5 42h187v58q0 64 -31 89.5
t-90 25.5q-56 0 -88 -26t-32 -76h-65q0 71 52 115t135 44q118 0 161 -80q53 80 157 80q96 0 150 -70.5t54 -173.5v-43h-338v-55q0 -59 41.5 -97t94.5 -38t89.5 28t42.5 84h65q-9 -79 -65 -124t-133 -45q-115 0 -176 98zM385 573l82 122h76l-105 -122h-53z" />
    <glyph glyph-name="Oslashacute" unicode="&#x1fe;" horiz-adv-x="696" 
d="M304 758l82 122h76l-105 -122h-53zM630 340q0 -166 -68.5 -260.5t-213.5 -94.5q-73 0 -132 27l-37 -76l-43 20l40 81q-110 86 -110 303q0 166 68.5 260.5t213.5 94.5q81 0 140 -31l40 80l43 -20l-44 -88q103 -87 103 -296zM146 239q0 -88 61 -141l251 505q-49 27 -110 27
q-88 0 -145 -51.5t-57 -137.5v-202zM348 50q89 0 145.5 51t56.5 138v202q0 81 -53 134l-251 -503q44 -22 102 -22z" />
    <glyph glyph-name="oslashacute" unicode="&#x1ff;" horiz-adv-x="560" 
d="M248 573l82 122h76l-105 -122h-53zM170 83l180 369q-33 14 -70 14q-64 0 -106.5 -37.5t-42.5 -96.5v-154q0 -58 39 -95zM390 425l-179 -368q29 -13 69 -13q64 0 106.5 37.5t42.5 96.5v154q0 57 -39 93zM454 556l-38 -79q83 -68 83 -222q0 -122 -55.5 -194.5t-163.5 -72.5
q-50 0 -94 18l-36 -73l-43 21l38 77q-84 69 -84 224q0 122 55.5 194.5t163.5 72.5q52 0 95 -19l36 74z" />
    <glyph glyph-name="uni0218" unicode="&#x218;" horiz-adv-x="607" 
d="M341 -62v-68l-40 -68h-28l37 68h-37v68h68zM299 632q-72 0 -113.5 -30.5t-41.5 -85.5q0 -30 7.5 -50t26.5 -33t36.5 -19.5t51.5 -16.5l113 -32q90 -25 131 -68t41 -118q0 -89 -68 -141.5t-175 -52.5q-109 0 -176 53t-79 160h70q7 -74 56 -112t127 -38q77 0 126 34.5
t49 94.5q0 54 -27.5 78t-89.5 41l-135 37q-81 22 -118 66.5t-37 116.5q0 78 60.5 128.5t164.5 50.5q100 0 163 -51.5t72 -148.5h-70q-6 70 -52 103.5t-113 33.5z" />
    <glyph glyph-name="uni0219" unicode="&#x219;" horiz-adv-x="495" 
d="M282 -62v-68l-40 -68h-28l37 68h-37v68h68zM212 299l86 -18q73 -15 108.5 -50t35.5 -96q0 -65 -52 -106t-140 -41q-85 0 -140.5 44.5t-56.5 123.5h65q1 -52 39.5 -81.5t93.5 -29.5t90.5 23.5t35.5 65.5q0 38 -23 57.5t-79 31.5l-84 18q-125 26 -125 138q0 62 49.5 102.5
t127.5 40.5q75 0 128.5 -40.5t54.5 -118.5h-65q-1 51 -34 76.5t-84 25.5t-82.5 -23.5t-31.5 -61.5q0 -36 21 -54.5t62 -26.5z" />
    <glyph glyph-name="uni021A" unicode="&#x21a;" horiz-adv-x="520" 
d="M22 615v65h476v-65h-203v-615h-70v615h-203zM294 -62v-68l-40 -68h-28l37 68h-37v68h68z" />
    <glyph glyph-name="uni021B" unicode="&#x21b;" horiz-adv-x="347" 
d="M185 453v-396h122v-57h-187v453h-85v57h85v170h65v-170h122v-57h-122zM250 -62v-68l-40 -68h-28l37 68h-37v68h68z" />
    <glyph glyph-name="apostrophemod" unicode="&#x2bc;" horiz-adv-x="291" 
d="M190 680v-85l-49 -85h-36l46 85h-46v85h85z" />
    <glyph glyph-name="circumflex" unicode="&#x2c6;" horiz-adv-x="286" 
d="M142 661l-70 -88h-52l85 122h75l85 -122h-53z" />
    <glyph glyph-name="caron" unicode="&#x2c7;" horiz-adv-x="286" 
d="M73 695l70 -88l70 88h53l-85 -122h-75l-85 122h52z" />
    <glyph glyph-name="breve" unicode="&#x2d8;" horiz-adv-x="294" 
d="M20 695h42q0 -42 22.5 -68.5t62.5 -26.5t62.5 26.5t22.5 68.5h42q0 -60 -35 -97.5t-92 -37.5t-92 37.5t-35 97.5z" />
    <glyph glyph-name="dotaccent" unicode="&#x2d9;" horiz-adv-x="280" 
d="M174 670v-68h-68v68h68z" />
    <glyph glyph-name="ring" unicode="&#x2da;" horiz-adv-x="310" 
d="M244 651q0 -35 -24.5 -60.5t-64.5 -25.5t-64.5 25.5t-24.5 60.5t24.5 60.5t64.5 25.5t64.5 -25.5t24.5 -60.5zM207 651q0 22 -14.5 37t-37.5 15t-38 -15.5t-15 -36.5q0 -22 15 -37.5t38 -15.5t37.5 15.5t14.5 37.5z" />
    <glyph glyph-name="ogonek" unicode="&#x2db;" horiz-adv-x="290" 
d="M205 -90v-55h-120v55l60 55h50l-50 -55h60z" />
    <glyph glyph-name="tilde" unicode="&#x2dc;" horiz-adv-x="296" 
d="M259 672h36q0 -37 -20 -58t-56 -21q-28 0 -78 24t-67 24q-36 0 -36 -38h-36q0 37 20 58t56 21q28 0 78 -24t67 -24q36 0 36 38z" />
    <glyph glyph-name="hungarumlaut" unicode="&#x2dd;" horiz-adv-x="249" 
d="M-16 573l77 122h76l-100 -122h-53zM112 573l77 122h76l-100 -122h-53z" />
    <glyph glyph-name="uni0394" unicode="&#x394;" horiz-adv-x="660" 
d="M29 0l267 680h68l267 -680h-602zM329 581l-204 -522h409z" />
    <glyph glyph-name="uni03A9" unicode="&#x3a9;" horiz-adv-x="650" 
d="M584 416q0 -95 -36.5 -161.5t-106.5 -96.5v-99h120v-59h-185v199q60 10 99 46.5t39 91.5v158q0 65 -56 103.5t-133 38.5t-133 -38.5t-56 -103.5v-158q0 -55 39 -91.5t99 -46.5v-199h-185v59h120v99q-70 30 -106.5 96.5t-36.5 161.5q0 130 67.5 204.5t191.5 74.5
t191.5 -74.5t67.5 -204.5z" />
    <glyph glyph-name="uni03BC" unicode="&#x3bc;" horiz-adv-x="562" 
d="M154 26v-196h-65v680h65v-341q0 -124 111 -124q62 0 102.5 48.5t40.5 123.5v293h65v-510h-65v89q-44 -101 -155 -101q-61 0 -99 38z" />
    <glyph glyph-name="pi" unicode="&#x3c0;" horiz-adv-x="587" 
d="M377 0v453h-188v-453h-65v453h-90v57h498v-57h-90v-396h90v-57h-155z" />
    <glyph glyph-name="Wgrave" unicode="&#x1e80;" horiz-adv-x="915" 
d="M271 80h4l137 600h90l139 -600h4l146 600h76l-178 -680h-94l-136 574h-4l-135 -574h-94l-178 680h75zM426 865l82 -122h-53l-105 122h76z" />
    <glyph glyph-name="wgrave" unicode="&#x1e81;" horiz-adv-x="743" 
d="M223 95h4l104 415h83l105 -415h4l114 415h69l-155 -510h-66l-111 429h-4l-111 -429h-67l-155 510h71zM337 695l82 -122h-53l-105 122h76z" />
    <glyph glyph-name="Wacute" unicode="&#x1e82;" horiz-adv-x="915" 
d="M271 80h4l137 600h90l139 -600h4l146 600h76l-178 -680h-94l-136 574h-4l-135 -574h-94l-178 680h75zM409 743l82 122h76l-105 -122h-53z" />
    <glyph glyph-name="wacute" unicode="&#x1e83;" horiz-adv-x="743" 
d="M223 95h4l104 415h83l105 -415h4l114 415h69l-155 -510h-66l-111 429h-4l-111 -429h-67l-155 510h71zM320 573l82 122h76l-105 -122h-53z" />
    <glyph glyph-name="Wdieresis" unicode="&#x1e84;" horiz-adv-x="915" 
d="M271 80h4l137 600h90l139 -600h4l146 600h76l-178 -680h-94l-136 574h-4l-135 -574h-94l-178 680h75zM423 830v-68h-68v68h68zM559 830v-68h-68v68h68z" />
    <glyph glyph-name="wdieresis" unicode="&#x1e85;" horiz-adv-x="743" 
d="M223 95h4l104 415h83l105 -415h4l114 415h69l-155 -510h-66l-111 429h-4l-111 -429h-67l-155 510h71zM338 660v-68h-68v68h68zM474 660v-68h-68v68h68z" />
    <glyph glyph-name="Ygrave" unicode="&#x1ef2;" horiz-adv-x="574" 
d="M252 270l-224 410h78l181 -340l184 340h76l-225 -410v-270h-70v270zM246 865l82 -122h-53l-105 122h76z" />
    <glyph glyph-name="ygrave" unicode="&#x1ef3;" horiz-adv-x="510" 
d="M255 95h4l147 415h72l-250 -680h-153v57h108l41 113l-189 510h75zM215 695l82 -122h-53l-105 122h76z" />
    <glyph glyph-name="enspace" unicode="&#x2002;" horiz-adv-x="500" 
 />
    <glyph glyph-name="emspace" unicode="&#x2003;" horiz-adv-x="1000" 
 />
    <glyph glyph-name="threeperemspace" unicode="&#x2004;" horiz-adv-x="333" 
 />
    <glyph glyph-name="fourperemspace" unicode="&#x2005;" horiz-adv-x="250" 
 />
    <glyph glyph-name="thinspace" unicode="&#x2009;" horiz-adv-x="120" 
 />
    <glyph glyph-name="hairspace" unicode="&#x200a;" horiz-adv-x="75" 
 />
    <glyph glyph-name="endash" unicode="&#x2013;" horiz-adv-x="630" 
d="M80 240v62h470v-62h-470z" />
    <glyph glyph-name="emdash" unicode="&#x2014;" horiz-adv-x="1100" 
d="M80 240v62h940v-62h-940z" />
    <glyph glyph-name="quoteleft" unicode="&#x2018;" horiz-adv-x="244" 
d="M78 510v85l49 85h36l-46 -85h46v-85h-85z" />
    <glyph glyph-name="quoteright" unicode="&#x2019;" horiz-adv-x="236" 
d="M166 680v-85l-49 -85h-36l46 85h-46v85h85z" />
    <glyph glyph-name="quotesinglbase" unicode="&#x201a;" horiz-adv-x="245" 
d="M165 85v-85l-49 -85h-36l46 85h-46v85h85z" />
    <glyph glyph-name="quotedblleft" unicode="&#x201c;" horiz-adv-x="404" 
d="M238 510v85l49 85h36l-46 -85h46v-85h-85zM78 510v85l49 85h36l-46 -85h46v-85h-85z" />
    <glyph glyph-name="quotedblright" unicode="&#x201d;" horiz-adv-x="396" 
d="M166 680v-85l-49 -85h-36l46 85h-46v85h85zM326 680v-85l-49 -85h-36l46 85h-46v85h85z" />
    <glyph glyph-name="quotedblbase" unicode="&#x201e;" horiz-adv-x="405" 
d="M165 85v-85l-49 -85h-36l46 85h-46v85h85zM325 85v-85l-49 -85h-36l46 85h-46v85h85z" />
    <glyph glyph-name="dagger" unicode="&#x2020;" horiz-adv-x="482" 
d="M41 457v53h170v170h60v-170h170v-53h-170v-547h-60v547h-170z" />
    <glyph glyph-name="daggerdbl" unicode="&#x2021;" horiz-adv-x="556" 
d="M78 80v53h170v324h-170v53h170v170h60v-170h170v-53h-170v-324h170v-53h-170v-170h-60v170h-170z" />
    <glyph glyph-name="bullet" unicode="&#x2022;" horiz-adv-x="533" 
d="M97 340q0 71 49.5 120.5t119.5 49.5t120 -50t50 -120t-49.5 -119.5t-120.5 -49.5q-70 0 -119.5 49.5t-49.5 119.5z" />
    <glyph glyph-name="ellipsis" unicode="&#x2026;" horiz-adv-x="755" 
d="M165 85v-85h-85v85h85zM420 85v-85h-85v85h85zM675 85v-85h-85v85h85z" />
    <glyph glyph-name="perthousand" unicode="&#x2030;" horiz-adv-x="1108" 
d="M150 0l426 680h54l-426 -680h-54zM307 505q0 -183 -128 -183t-128 183t128 183t128 -183zM179 363q35 0 55 19.5t20 54.5v136q0 34 -20 54t-55 20t-55 -20t-20 -54v-136q0 -34 20 -54t55 -20zM729 175q0 -183 -128 -183t-128 183t128 183t128 -183zM601 33q35 0 55 19.5
t20 54.5v136q0 34 -20 54t-55 20t-55 -20t-20 -54v-136q0 -34 20 -54t55 -20zM1058 175q0 -183 -128 -183t-128 183t128 183t128 -183zM930 33q35 0 55 19.5t20 54.5v136q0 34 -20 54t-55 20t-55 -20t-20 -54v-136q0 -34 20 -54t55 -20z" />
    <glyph glyph-name="guilsinglleft" unicode="&#x2039;" horiz-adv-x="295" 
d="M225 71h-55l-107 186l107 186h55l-97 -186z" />
    <glyph glyph-name="guilsinglright" unicode="&#x203a;" horiz-adv-x="295" 
d="M125 71h-55l97 186l-97 186h55l107 -186z" />
    <glyph glyph-name="fraction" unicode="&#x2044;" horiz-adv-x="100" 
d="M-190 0l426 680h54l-426 -680h-54z" />
    <glyph glyph-name="Euro" unicode="&#x20ac;" 
d="M30 377l17 49h57q14 126 70 197.5t171 71.5q89 0 143.5 -50.5t62.5 -138.5h-65q-16 131 -149 131q-79 0 -120.5 -54t-41.5 -138v-19h226l-17 -49h-209v-71h186l-17 -49h-169v-22q0 -81 44 -136.5t119 -55.5q134 0 149 140h65q-8 -93 -64 -145.5t-149 -52.5
q-106 0 -164.5 71.5t-70.5 200.5h-74l17 49h53v71h-70z" />
    <glyph glyph-name="trademark" unicode="&#x2122;" horiz-adv-x="836" 
d="M70 638v42h254v-42h-102v-298h-50v298h-102zM570 416l90 264h87v-340h-50v296l-106 -296h-45l-105 296v-296h-50v340h89z" />
    <glyph glyph-name="Omega" unicode="&#x2126;" horiz-adv-x="652" 
d="M585 416q0 -95 -36.5 -161.5t-106.5 -96.5v-99h120v-59h-185v199q60 10 99 46.5t39 91.5v158q0 65 -56 103.5t-133 38.5t-133 -38.5t-56 -103.5v-158q0 -55 39 -91.5t99 -46.5v-199h-185v59h120v99q-70 30 -106.5 96.5t-36.5 161.5q0 130 67.5 204.5t191.5 74.5
t191.5 -74.5t67.5 -204.5z" />
    <glyph glyph-name="onethird" unicode="&#x2153;" horiz-adv-x="747" 
d="M208 680v-350h-50v258h-111v42h111v50h50zM121 0l426 680h54l-426 -680h-54zM605 157h-81v42h74q18 0 28 10.5t10 26.5v32q0 22 -18 35t-45 13q-62 0 -67 -59h-50q0 41 33 70.5t85 29.5t82 -26t30 -69q0 -59 -50 -82q57 -19 57 -83q0 -49 -34.5 -77.5t-89.5 -28.5
q-53 0 -86.5 27.5t-35.5 82.5h49q6 -69 73 -69q32 0 53 15.5t21 38.5v33q0 16 -10.5 27t-27.5 11z" />
    <glyph glyph-name="twothirds" unicode="&#x2154;" horiz-adv-x="791" 
d="M165 0l426 680h54l-426 -680h-54zM130 373v-1h174v-42h-243v40l145 139q42 41 42 77q0 28 -16.5 44.5t-47.5 16.5t-50.5 -19t-19.5 -51h-50q0 52 34 81.5t87 29.5q52 0 82.5 -28t30.5 -75q0 -54 -55 -107zM649 157h-81v42h74q18 0 28 10.5t10 26.5v32q0 22 -18 35t-45 13
q-62 0 -67 -59h-50q0 41 33 70.5t85 29.5t82 -26t30 -69q0 -59 -50 -82q57 -19 57 -83q0 -49 -34.5 -77.5t-89.5 -28.5q-53 0 -86.5 27.5t-35.5 82.5h49q6 -69 73 -69q32 0 53 15.5t21 38.5v33q0 16 -10.5 27t-27.5 11z" />
    <glyph glyph-name="oneeighth" unicode="&#x215b;" horiz-adv-x="756" 
d="M208 680v-350h-50v258h-111v42h111v50h50zM121 0l426 680h54l-426 -680h-54zM576 -8q-56 0 -91.5 26t-35.5 76q0 66 64 88q-54 24 -54 81q0 44 33.5 69.5t83.5 25.5t83.5 -25.5t33.5 -69.5q0 -57 -54 -81q64 -22 64 -88q0 -50 -35.5 -76t-91.5 -26zM641 247v23
q0 22 -18.5 34.5t-46.5 12.5t-46.5 -12.5t-18.5 -34.5v-23q0 -22 18.5 -34t46.5 -12t46.5 12t18.5 34zM502 110v-27q0 -23 20 -36.5t54 -13.5t54 13.5t20 36.5v27q0 23 -20 36.5t-54 13.5t-54 -13.5t-20 -36.5z" />
    <glyph glyph-name="threeeighths" unicode="&#x215c;" horiz-adv-x="796" 
d="M154 0l426 680h54l-426 -680h-54zM212 488h-81v42h74q18 0 28 10.5t10 26.5v32q0 23 -18 35.5t-45 12.5q-62 0 -67 -59h-50q0 41 33 70.5t85 29.5t82 -26t30 -69q0 -59 -50 -82q57 -19 57 -83q0 -49 -34.5 -77.5t-89.5 -28.5q-53 0 -86.5 27.5t-35.5 82.5h49
q6 -69 73 -69q32 0 53 15.5t21 38.5v33q0 16 -10.5 27t-27.5 11zM616 -8q-56 0 -91.5 26t-35.5 76q0 66 64 88q-54 24 -54 81q0 44 33.5 69.5t83.5 25.5t83.5 -25.5t33.5 -69.5q0 -57 -54 -81q64 -22 64 -88q0 -50 -35.5 -76t-91.5 -26zM681 247v23q0 22 -18.5 34.5
t-46.5 12.5t-46.5 -12.5t-18.5 -34.5v-23q0 -22 18.5 -34t46.5 -12t46.5 12t18.5 34zM542 110v-27q0 -23 20 -36.5t54 -13.5t54 13.5t20 36.5v27q0 23 -20 36.5t-54 13.5t-54 -13.5t-20 -36.5z" />
    <glyph glyph-name="fiveeighths" unicode="&#x215d;" horiz-adv-x="788" 
d="M153 0l426 680h54l-426 -680h-54zM109 483h-49l14 197h203v-42h-161l-7 -110q26 36 76 36q52 0 82.5 -32.5t30.5 -85.5q0 -57 -33 -90.5t-89 -33.5q-55 0 -86 27t-36 77h49q7 -63 72 -63q33 0 53 16.5t20 43.5v45q0 27 -19.5 41.5t-52.5 14.5q-46 0 -67 -41zM608 -8
q-56 0 -91.5 26t-35.5 76q0 66 64 88q-54 24 -54 81q0 44 33.5 69.5t83.5 25.5t83.5 -25.5t33.5 -69.5q0 -57 -54 -81q64 -22 64 -88q0 -50 -35.5 -76t-91.5 -26zM673 247v23q0 22 -18.5 34.5t-46.5 12.5t-46.5 -12.5t-18.5 -34.5v-23q0 -22 18.5 -34t46.5 -12t46.5 12
t18.5 34zM534 110v-27q0 -23 20 -36.5t54 -13.5t54 13.5t20 36.5v27q0 23 -20 36.5t-54 13.5t-54 -13.5t-20 -36.5z" />
    <glyph glyph-name="seveneighths" unicode="&#x215e;" horiz-adv-x="719" 
d="M86 0l426 680h54l-426 -680h-54zM283 638l-146 -308h-55l148 308h-177v42h230v-42zM540 -8q-56 0 -91.5 26t-35.5 76q0 66 64 88q-54 24 -54 81q0 44 33.5 69.5t83.5 25.5t83.5 -25.5t33.5 -69.5q0 -57 -54 -81q64 -22 64 -88q0 -50 -35.5 -76t-91.5 -26zM605 247v23
q0 22 -18.5 34.5t-46.5 12.5t-46.5 -12.5t-18.5 -34.5v-23q0 -22 18.5 -34t46.5 -12t46.5 12t18.5 34zM466 110v-27q0 -23 20 -36.5t54 -13.5t54 13.5t20 36.5v27q0 23 -20 36.5t-54 13.5t-54 -13.5t-20 -36.5z" />
    <glyph glyph-name="arrowleft" unicode="&#x2190;" horiz-adv-x="870" 
d="M313 510h88l-223 -224h597v-62h-597l223 -224h-88l-218 219v72z" />
    <glyph glyph-name="arrowup" unicode="&#x2191;" horiz-adv-x="700" 
d="M95 374v88l219 218h72l219 -218v-88l-224 223v-597h-62v597z" />
    <glyph glyph-name="arrowright" unicode="&#x2192;" horiz-adv-x="870" 
d="M469 510h88l218 -219v-72l-218 -219h-88l223 224h-597v62h597z" />
    <glyph glyph-name="arrowdown" unicode="&#x2193;" horiz-adv-x="700" 
d="M95 218v88l224 -223v597h62v-597l224 223v-88l-219 -218h-72z" />
    <glyph glyph-name="uni2196" unicode="&#x2196;" horiz-adv-x="718" 
d="M157 88l-62 62v309l51 51h309l62 -62h-316l422 -422l-44 -44l-422 422v-316z" />
    <glyph glyph-name="uni2197" unicode="&#x2197;" horiz-adv-x="718" 
d="M623 150l-62 -62v316l-422 -422l-44 44l422 422h-316l62 62h309l51 -51v-309z" />
    <glyph glyph-name="uni2198" unicode="&#x2198;" horiz-adv-x="718" 
d="M263 0l-62 62h316l-422 422l44 44l422 -422v316l62 -62v-309l-51 -51h-309z" />
    <glyph glyph-name="uni2199" unicode="&#x2199;" horiz-adv-x="718" 
d="M517 62l-62 -62h-309l-51 51v309l62 62v-316l422 422l44 -44l-422 -422h316z" />
    <glyph glyph-name="partialdiff" unicode="&#x2202;" horiz-adv-x="586" 
d="M126 575l-34 57q76 63 166 63q136 0 195.5 -95.5t59.5 -272.5q0 -71 -13 -130t-41.5 -107t-78.5 -75t-118 -27q-105 0 -158 67.5t-53 162.5q0 103 58 162.5t157 59.5q113 0 172 -83q0 141 -43 208t-133 67q-75 0 -136 -57zM261 45q177 0 177 234q-49 103 -158 103
q-73 0 -113.5 -35.5t-40.5 -93.5v-79q0 -57 37.5 -93t97.5 -36z" />
    <glyph glyph-name="Delta" unicode="&#x2206;" horiz-adv-x="654" 
d="M26 0l267 680h68l267 -680h-602zM326 581l-204 -522h409z" />
    <glyph glyph-name="product" unicode="&#x220f;" horiz-adv-x="706" 
d="M537 -170v961h-368v-961h-65v1020h498v-1020h-65z" />
    <glyph glyph-name="summation" unicode="&#x2211;" horiz-adv-x="558" 
d="M504 791h-378l307 -448l-307 -454h378v-59h-458v59l307 454l-307 448v59h458v-59z" />
    <glyph glyph-name="minus" unicode="&#x2212;" 
d="M555 281v-52h-510v52h510z" />
    <glyph glyph-name="uni2219" unicode="&#x2219;" horiz-adv-x="245" 
d="M165 299v-85h-85v85h85z" />
    <glyph glyph-name="radical" unicode="&#x221a;" horiz-adv-x="604" 
d="M37 255h133l107 -342l240 767h69l-271 -850h-76l-118 368h-84v57z" />
    <glyph glyph-name="infinity" unicode="&#x221e;" horiz-adv-x="738" 
d="M616 258q0 41 -23.5 65.5t-64.5 24.5q-57 0 -127 -90q23 -28 39.5 -44t41 -29.5t48.5 -13.5q40 0 63 23.5t23 63.5zM369 218q-29 -32 -47.5 -49t-50 -31.5t-66.5 -14.5q-60 0 -97.5 39t-37.5 98t38.5 98t97.5 39q37 0 68.5 -16.5t48.5 -33.5t46 -52q29 35 46 52
t48.5 33.5t68.5 16.5q59 0 97.5 -39t38.5 -98t-37.5 -98t-98.5 -39q-50 0 -84.5 23.5t-78.5 71.5zM122 258q0 -40 23 -63.5t63 -23.5q35 0 64 22.5t65 64.5q-70 90 -127 90q-41 0 -64.5 -24.5t-23.5 -65.5z" />
    <glyph glyph-name="integral" unicode="&#x222b;" horiz-adv-x="375" 
d="M27 -170v57h128v963h193v-57h-128v-963h-193z" />
    <glyph glyph-name="approxequal" unicode="&#x2248;" 
d="M490 394h55q0 -48 -34.5 -77t-87.5 -29q-32 0 -59.5 10t-84.5 40q-7 3 -20.5 10.5t-17.5 9.5t-14 6.5t-13.5 6t-10.5 4t-11.5 3.5t-10 1.5t-11.5 0.5q-26 0 -43.5 -15.5t-17.5 -41.5h-55q0 48 34.5 77t87.5 29q32 0 59.5 -10t84.5 -40q7 -3 20.5 -10.5t17.5 -9.5t14 -6.5
t13.5 -6t10.5 -4t11.5 -3.5t10 -1.5t11.5 -0.5q26 0 43.5 15.5t17.5 41.5zM490 188h55q0 -48 -34.5 -77t-87.5 -29q-32 0 -59.5 10t-84.5 40q-7 3 -20.5 10.5t-17.5 9.5t-14 6.5t-13.5 6t-10.5 4t-11.5 3.5t-10 1.5t-11.5 0.5q-26 0 -43.5 -15.5t-17.5 -41.5h-55
q0 48 34.5 77t87.5 29q32 0 59.5 -10t84.5 -40q7 -3 20.5 -10.5t17.5 -9.5t14 -6.5t13.5 -6t10.5 -4t11.5 -3.5t10 -1.5t11.5 -0.5q26 0 43.5 15.5t17.5 41.5z" />
    <glyph glyph-name="notequal" unicode="&#x2260;" 
d="M255 126l-72 -126l-44 25l58 101h-152v52h182l88 154h-270v52h300l73 126l44 -25l-58 -101h151v-52h-181l-89 -154h270v-52h-300z" />
    <glyph glyph-name="lessequal" unicode="&#x2264;" 
d="M553 52v-52h-510v52h510zM553 510v-59l-451 -144l451 -144v-59l-510 167v72z" />
    <glyph glyph-name="greaterequal" unicode="&#x2265;" 
d="M47 0v52h510v-52h-510zM47 451v59l510 -167v-72l-510 -167v59l451 144z" />
    <glyph glyph-name="dotmath" unicode="&#x22c5;" 
d="M342 299v-85h-85v85h85z" />
    <glyph glyph-name="lozenge" unicode="&#x25ca;" horiz-adv-x="632" 
d="M316 -29l210 372l-210 372l-210 -372zM358 773l245 -430l-245 -430h-84l-245 430l245 430h84z" />
    <glyph glyph-name="commaaccent" unicode="&#xf6c3;" horiz-adv-x="290" 
d="M179 -62v-68l-40 -68h-28l37 68h-37v68h68z" />
    <glyph glyph-name="uniF8FF" unicode="&#xf8ff;" horiz-adv-x="890" 
d="M105 0v680h680v-680h-680z" />
    <glyph glyph-name="zero.plf" horiz-adv-x="598" 
d="M530 340q0 -64 -5.5 -113.5t-21 -96.5t-41 -77.5t-67 -49t-96.5 -18.5t-96.5 18.5t-67 49t-41 77.5t-21 96.5t-5.5 113.5t5.5 113.5t21 96.5t41 77.5t67 49t96.5 18.5t96.5 -18.5t67 -49t41 -77.5t21 -96.5t5.5 -113.5zM455 207v266q0 75 -42.5 119t-113.5 44t-113.5 -44
t-42.5 -119v-266q0 -75 42.5 -119t113.5 -44t113.5 44t42.5 119z" />
    <glyph glyph-name="one.plf" horiz-adv-x="384" 
d="M221 0v541h-175v59h175v80h65v-680h-65z" />
    <glyph glyph-name="two.plf" horiz-adv-x="560" 
d="M134 61v-2h366v-59h-439v73l279 272q29 29 43 45.5t25.5 45t11.5 64.5q0 62 -36 99t-99 37q-68 0 -109 -40.5t-43 -110.5h-67q2 94 63 152t156 58q94 0 148.5 -52.5t54.5 -142.5q0 -48 -19 -91t-37.5 -63.5t-53.5 -53.5z" />
    <glyph glyph-name="three.plf" horiz-adv-x="580" 
d="M352 319h-156v59h149q40 0 61.5 22.5t21.5 57.5v65q0 51 -37 82.5t-101 31.5q-69 0 -108 -36.5t-41 -94.5h-67q2 79 59.5 134t156.5 55q96 0 153.5 -52t57.5 -134q0 -108 -88 -158q101 -46 101 -166q0 -90 -63 -145t-165 -55q-98 0 -162.5 54t-65.5 154h67q1 -72 46 -111
t115 -39q68 0 111.5 36.5t43.5 87.5v72q0 35 -24.5 57.5t-64.5 22.5z" />
    <glyph glyph-name="four.plf" horiz-adv-x="551" 
d="M408 0h-65v174h-301v59l300 447h66v-447h98v-59h-98v-174zM343 578l-232 -345h232v345z" />
    <glyph glyph-name="five.plf" horiz-adv-x="565" 
d="M138 298h-67l26 382h367v-59h-309l-16 -248q58 84 160 84q99 0 155.5 -62.5t56.5 -168.5q0 -110 -61 -175.5t-164 -65.5q-101 0 -158 50.5t-68 147.5h67q8 -66 48 -103t108 -37q66 0 109.5 39t43.5 99v87q0 58 -41 94.5t-110 36.5q-47 0 -86.5 -27.5t-60.5 -73.5z" />
    <glyph glyph-name="six.plf" horiz-adv-x="592" 
d="M301 -15q-130 0 -181.5 86.5t-51.5 252.5q0 86 11 149.5t37 115.5t74.5 79t118.5 27q92 0 144.5 -47t61.5 -132h-67q-16 121 -144 121q-76 0 -118.5 -53t-42.5 -134v-88q55 85 172 85q103 0 161 -61.5t58 -160.5q0 -41 -13.5 -82t-40.5 -77t-73.5 -58.5t-105.5 -22.5z
M301 42q72 0 115 44t43 106v58q0 60 -42.5 99.5t-115.5 39.5t-115.5 -39.5t-42.5 -99.5v-58q0 -62 43 -106t115 -44z" />
    <glyph glyph-name="seven.plf" horiz-adv-x="505" 
d="M473 621l-288 -621h-73l290 621h-361v59h432v-59z" />
    <glyph glyph-name="eight.plf" horiz-adv-x="596" 
d="M298 -15q-100 0 -167 50.5t-67 146.5q0 63 33.5 107t95.5 65q-109 44 -109 157q0 83 62 133.5t152 50.5t152 -50.5t62 -133.5q0 -113 -109 -157q62 -21 95.5 -65t33.5 -107q0 -96 -67 -146.5t-167 -50.5zM439 478v57q0 43 -38.5 72t-102.5 29t-102.5 -29t-38.5 -72v-57
q0 -44 38 -72.5t103 -28.5t103 28.5t38 72.5zM137 217v-66q0 -46 42.5 -76.5t118.5 -30.5t118.5 30.5t42.5 76.5v66q0 46 -42.5 76t-118.5 30t-118.5 -30t-42.5 -76z" />
    <glyph glyph-name="nine.plf" horiz-adv-x="592" 
d="M289 695q132 0 183.5 -85.5t51.5 -252.5q0 -71 -6 -125t-22 -102t-42 -79t-67.5 -48.5t-96.5 -17.5q-94 0 -149.5 48t-64.5 132h67q7 -54 45 -88t100 -34q76 0 118.5 52t42.5 133v90q-55 -85 -176 -85q-103 0 -159 61.5t-56 162.5q0 41 14 81.5t40.5 76t72.5 58t104 22.5
zM291 637q-72 0 -115 -44t-43 -106v-57q0 -60 42.5 -99.5t115.5 -39.5t115.5 39.5t42.5 99.5v58q0 61 -43 105t-115 44z" />
    <glyph glyph-name="zero.tlfslash" 
d="M531 340q0 -64 -5.5 -113.5t-21 -96.5t-41 -77.5t-67 -49t-96.5 -18.5t-96.5 18.5t-67 49t-41 77.5t-21 96.5t-5.5 113.5t5.5 113.5t21 96.5t41 77.5t67 49t96.5 18.5t96.5 -18.5t67 -49t41 -77.5t21 -96.5t5.5 -113.5zM456 207v266q0 60 -28 100l-220 -504
q39 -25 92 -25q71 0 113.5 44t42.5 119zM144 207q0 -61 27 -101l219 505q-38 25 -90 25q-71 0 -113.5 -44t-42.5 -119v-266z" />
    <glyph glyph-name="zero.plfslash" horiz-adv-x="598" 
d="M530 340q0 -64 -5.5 -113.5t-21 -96.5t-41 -77.5t-67 -49t-96.5 -18.5t-96.5 18.5t-67 49t-41 77.5t-21 96.5t-5.5 113.5t5.5 113.5t21 96.5t41 77.5t67 49t96.5 18.5t96.5 -18.5t67 -49t41 -77.5t21 -96.5t5.5 -113.5zM455 207v266q0 60 -28 100l-220 -504
q39 -25 92 -25q71 0 113.5 44t42.5 119zM143 207q0 -61 27 -101l219 505q-38 25 -90 25q-71 0 -113.5 -44t-42.5 -119v-266z" />
    <glyph glyph-name="zero.num" horiz-adv-x="358" 
d="M307 505q0 -183 -128 -183t-128 183t128 183t128 -183zM179 363q35 0 55 19.5t20 54.5v136q0 34 -20 54t-55 20t-55 -20t-20 -54v-136q0 -34 20 -54t55 -20z" />
    <glyph glyph-name="one.num" horiz-adv-x="307" 
d="M200 680v-350h-50v258h-111v42h111v50h50z" />
    <glyph glyph-name="two.num" horiz-adv-x="341" 
d="M118 373v-1h174v-42h-243v40l145 139q42 41 42 77q0 28 -16.5 44.5t-47.5 16.5t-50.5 -19t-19.5 -51h-50q0 52 34 81.5t87 29.5q52 0 82.5 -28t30.5 -75q0 -54 -55 -107z" />
    <glyph glyph-name="four.num" horiz-adv-x="341" 
d="M245 330h-50v84h-157v42l159 224h48v-224h56v-42h-56v-84zM195 610h-2l-108 -154h110v154z" />
    <glyph glyph-name="five.num" horiz-adv-x="337" 
d="M102 483h-49l14 197h203v-42h-161l-7 -110q26 36 76 36q52 0 82.5 -32.5t30.5 -85.5q0 -57 -33 -90.5t-89 -33.5q-55 0 -86 27t-36 77h49q7 -63 72 -63q33 0 53 16.5t20 43.5v45q0 27 -19.5 41.5t-52.5 14.5q-46 0 -67 -41z" />
    <glyph glyph-name="seven.num" horiz-adv-x="300" 
d="M269 638l-146 -308h-55l148 308h-177v42h230v-42z" />
    <glyph glyph-name="eight.num" horiz-adv-x="354" 
d="M177 322q-56 0 -91.5 26t-35.5 76q0 66 64 88q-54 24 -54 81q0 44 33.5 69.5t83.5 25.5t83.5 -25.5t33.5 -69.5q0 -57 -54 -81q64 -22 64 -88q0 -50 -35.5 -76t-91.5 -26zM242 577v23q0 22 -18.5 34.5t-46.5 12.5t-46.5 -12.5t-18.5 -34.5v-23q0 -22 18.5 -34t46.5 -12
t46.5 12t18.5 34zM103 440v-27q0 -23 20 -36.5t54 -13.5t54 13.5t20 36.5v27q0 23 -20 36.5t-54 13.5t-54 -13.5t-20 -36.5z" />
    <glyph glyph-name="nine.num" horiz-adv-x="351" 
d="M174 688q68 0 97 -43t29 -131q0 -192 -128 -192q-106 0 -115 95h50q6 -54 66 -54q35 0 54.5 24.5t19.5 64.5v34q-28 -37 -81 -37q-54 0 -85.5 31.5t-31.5 83.5q0 49 33 86.5t92 37.5zM174 647q-32 0 -52 -19.5t-20 -47.5v-28q0 -28 19.5 -45t52.5 -17q32 0 52.5 17
t20.5 45v28q0 28 -20.5 47.5t-52.5 19.5z" />
    <glyph glyph-name="six.num" horiz-adv-x="350" 
d="M176 322q-125 0 -125 175q0 87 31.5 139t98.5 52q103 0 113 -95h-49q-6 55 -67 55q-34 0 -54.5 -24.5t-20.5 -60.5v-44q26 41 82 41q53 0 84.5 -31.5t31.5 -82.5q0 -47 -33 -85.5t-92 -38.5zM177 362q32 0 52.5 19.5t20.5 47.5v29q0 28 -20 45t-53 17t-53.5 -17
t-20.5 -45v-29q0 -28 20.5 -47.5t53.5 -19.5z" />
    <glyph glyph-name="a.sup" horiz-adv-x="329" 
d="M257 456h39v-40h-79l-1 49h-2q-22 -55 -83 -55q-43 0 -65 24q-21 23 -21 54q0 32 20.5 53.5t59.5 25.5l85 8v21q0 30 -14 42t-40 12q-55 0 -55 -48h-47q0 38 29.5 61t73.5 23q45 0 72.5 -22.5t27.5 -67.5v-140zM143 447q31 0 49 22t18 59v12l-94 -9q-22 -2 -22 -25v-24
q0 -35 49 -35z" />
    <glyph glyph-name="b.sup" horiz-adv-x="347" 
d="M112 570v-44q0 -36 19 -57.5t53 -21.5q29 0 47.5 16.5t18.5 43.5v82q0 27 -18.5 43t-47.5 16q-34 0 -53 -21.5t-19 -56.5zM112 416h-47v350h47v-129q27 49 84 49q50 0 77 -38.5t27 -99.5q0 -60 -27 -99t-77 -39q-57 0 -84 48v-42z" />
    <glyph glyph-name="c.sup" horiz-adv-x="313" 
d="M47 547q0 65 30 102t85 37q44 0 72.5 -23t31.5 -70h-47q-4 57 -60 57q-25 0 -44 -16.5t-19 -46.5v-77q0 -28 18.5 -45.5t45.5 -17.5q55 0 61 58h47q-4 -47 -34 -71t-73 -24q-57 0 -85.5 37t-28.5 100z" />
    <glyph glyph-name="d.sup" horiz-adv-x="347" 
d="M235 526v43q0 35 -19 56.5t-53 21.5q-29 0 -47.5 -16t-18.5 -43v-81q0 -27 18.5 -43.5t47.5 -16.5q34 0 53 21.5t19 57.5zM282 416h-47v42q-27 -48 -83 -48q-50 0 -77.5 38.5t-27.5 98.5q0 61 27 100t77 39q57 0 84 -50v130h47v-350z" />
    <glyph glyph-name="e.sup" horiz-adv-x="320" 
d="M96 587v-15h130v15q0 29 -19 46t-46 17t-46 -17t-19 -46zM47 549q0 62 30 99.5t84 37.5q53 0 83 -35.5t30 -89.5v-25h-178v-28q0 -28 19 -44.5t46 -16.5q26 0 44.5 13.5t20.5 39.5h46q-4 -41 -35.5 -65.5t-75.5 -24.5q-56 0 -85 37.5t-29 101.5z" />
    <glyph glyph-name="f.sup" horiz-adv-x="217" 
d="M130 727v-47h54v-39h-54v-225h-47v225h-43v39h43v86h107v-39h-60z" />
    <glyph glyph-name="g.sup" horiz-adv-x="346" 
d="M235 526v43q0 35 -19 56.5t-53 21.5q-29 0 -47.5 -16t-18.5 -43v-81q0 -27 18.5 -43.5t47.5 -16.5q34 0 53 21.5t19 57.5zM282 680v-260q0 -52 -33.5 -79.5t-80.5 -27.5q-103 0 -112 83h47q6 -45 63 -45q30 0 49.5 17.5t19.5 53.5v36q-27 -48 -83 -48q-50 0 -77.5 38.5
t-27.5 98.5q0 61 27 100t77 39q57 0 84 -50v44h47z" />
    <glyph glyph-name="k.sup" horiz-adv-x="312" 
d="M225 416l-112 147l101 117h57l-105 -117l113 -147h-54zM112 766v-350h-47v350h47z" />
    <glyph glyph-name="m.sup" horiz-adv-x="481" 
d="M260 633q8 24 28 38.5t49 14.5q82 0 82 -93v-177h-47v172q0 62 -48 62q-24 0 -41 -22.5t-17 -56.5v-155h-47v172q0 62 -49 62q-24 0 -41 -22.5t-17 -56.5v-155h-47v264h47v-42q21 48 72 48q60 0 76 -53z" />
    <glyph glyph-name="n.sup" horiz-adv-x="337" 
d="M112 680v-44q22 50 78 50q85 0 85 -94v-176h-47v171q0 61 -51 61q-29 0 -47 -21.5t-18 -56.5v-154h-47v264h47z" />
    <glyph glyph-name="r.sup" horiz-adv-x="221" 
d="M65 416v264h127v-39h-80v-225h-47z" />
    <glyph glyph-name="s.sup" horiz-adv-x="301" 
d="M134 575l45 -9q77 -17 77 -77q0 -33 -29.5 -56t-74.5 -23q-46 0 -76 23.5t-31 65.5h47q1 -25 18 -38.5t42 -13.5t41 11t16 29q0 32 -46 41l-44 9q-67 13 -67 73q0 33 27 54.5t69 21.5q41 0 70 -21.5t30 -62.5h-47q-1 48 -52 48q-22 0 -36.5 -10.5t-14.5 -26.5
q0 -31 36 -38z" />
    <glyph glyph-name="t.sup" horiz-adv-x="237" 
d="M130 641v-186h60v-39h-107v225h-43v39h43v86h47v-86h60v-39h-60z" />
    <glyph glyph-name="v.sup" horiz-adv-x="295" 
d="M146 474h4l68 206h47l-95 -264h-44l-96 264h50z" />
    <glyph glyph-name="w.sup" horiz-adv-x="431" 
d="M242 680l48 -203h4l53 203h48l-81 -264h-47l-51 210h-4l-48 -210h-47l-81 264h51l51 -203h4l44 203h56z" />
    <glyph glyph-name="x.sup" horiz-adv-x="306" 
d="M35 416l91 137l-84 127h51l60 -92l59 92h51l-85 -123l93 -141h-52l-66 105l-67 -105h-51z" />
    <glyph glyph-name="y.sup" horiz-adv-x="296" 
d="M147 477h4l69 203h47l-128 -350h-89v39h59l17 49l-97 262h50z" />
    <glyph glyph-name="z.sup" horiz-adv-x="290" 
d="M101 456h142v-40h-199v40l137 185h-127v39h185v-39z" />
    <glyph glyph-name="comma.sup" horiz-adv-x="175" 
d="M116 472v-56l-32 -56h-25l31 56h-31v56h57z" />
    <glyph glyph-name="period.sup" horiz-adv-x="175" 
d="M116 472v-56h-57v56h57z" />
    <glyph glyph-name="o.sup" horiz-adv-x="328" 
d="M233 507v82q0 26 -20.5 42.5t-48.5 16.5t-48.5 -16.5t-20.5 -42.5v-82q0 -26 20.5 -42.5t48.5 -16.5t48.5 16.5t20.5 42.5zM282 548q0 -63 -30 -100.5t-88 -37.5t-88 37.5t-30 100.5t30 100.5t88 37.5t88 -37.5t30 -100.5z" />
    <glyph glyph-name="i.sup" horiz-adv-x="177" 
d="M112 416h-47v264h47v-264zM113 766v-48h-49v48h49z" />
    <glyph glyph-name="j.sup" horiz-adv-x="177" 
d="M65 369v311h47v-350h-108v39h61zM113 766v-48h-49v48h49z" />
    <glyph glyph-name="l.sup" horiz-adv-x="177" 
d="M112 416h-47v350h47v-350z" />
    <glyph glyph-name="h.sup" horiz-adv-x="337" 
d="M112 766v-130q22 50 78 50q85 0 85 -94v-176h-47v171q0 61 -51 61q-29 0 -47 -21.5t-18 -56.5v-154h-47v350h47z" />
    <glyph glyph-name="u.sup" horiz-adv-x="337" 
d="M225 417v43q-23 -50 -77 -50q-39 0 -62.5 23t-23.5 72v175h47v-170q0 -62 52 -62q29 0 46.5 22t17.5 57v153h47v-263h-47z" />
    <glyph glyph-name="q.sup" horiz-adv-x="347" 
d="M235 526v43q0 35 -19 56.5t-53 21.5q-29 0 -47.5 -16t-18.5 -43v-81q0 -27 18.5 -43.5t47.5 -16.5q34 0 53 21.5t19 57.5zM282 330h-47v128q-27 -48 -83 -48q-50 0 -77.5 38.5t-27.5 98.5q0 61 27 100t77 39q57 0 84 -50v44h47v-350z" />
    <glyph glyph-name="p.sup" horiz-adv-x="347" 
d="M112 570v-44q0 -36 19 -57.5t53 -21.5q29 0 47.5 16.5t18.5 43.5v82q0 27 -18.5 43t-47.5 16q-34 0 -53 -21.5t-19 -56.5zM112 330h-47v350h47v-43q27 49 84 49q50 0 77 -38.5t27 -99.5q0 -60 -27 -99t-77 -39q-57 0 -84 48v-128z" />
    <glyph glyph-name="zero.numslash" horiz-adv-x="390" 
d="M323 505q0 -183 -128 -183t-128 183t128 183t128 -183zM131 393l107 243q-19 11 -43 11q-35 0 -55 -20t-20 -54v-136q0 -27 11 -44zM257 619l-107 -244q18 -12 45 -12q35 0 55 19.5t20 54.5v136q0 27 -13 46z" />
    <glyph glyph-name="plus.sup" horiz-adv-x="354" 
d="M158 530h-113v36h113v114h39v-114h112v-36h-112v-114h-39v114z" />
    <glyph glyph-name="minus.sup" horiz-adv-x="382" 
d="M323 565v-36h-264v36h264z" />
    <glyph glyph-name="equal.sup" horiz-adv-x="382" 
d="M323 576h-264v38h264v-38zM323 480h-264v38h264v-38z" />
    <glyph glyph-name="eacute.sup" horiz-adv-x="320" 
d="M133 713l44 62h55l-59 -62h-40zM96 587v-15h130v15q0 29 -19 46t-46 17t-46 -17t-19 -46zM47 549q0 62 30 99.5t84 37.5q53 0 83 -35.5t30 -89.5v-25h-178v-28q0 -28 19 -44.5t46 -16.5q26 0 44.5 13.5t20.5 39.5h46q-4 -41 -35.5 -65.5t-75.5 -24.5q-56 0 -85 37.5
t-29 101.5z" />
    <glyph glyph-name="egrave.sup" horiz-adv-x="320" 
d="M141 775l44 -62h-40l-59 62h55zM96 587v-15h130v15q0 29 -19 46t-46 17t-46 -17t-19 -46zM47 549q0 62 30 99.5t84 37.5q53 0 83 -35.5t30 -89.5v-25h-178v-28q0 -28 19 -44.5t46 -16.5q26 0 44.5 13.5t20.5 39.5h46q-4 -41 -35.5 -65.5t-75.5 -24.5q-56 0 -85 37.5
t-29 101.5z" />
    <glyph glyph-name="bar.case" horiz-adv-x="268" 
d="M104 -170v1020h60v-1020h-60z" />
    <glyph glyph-name="minus.case" 
d="M555 353v-52h-510v52h510z" />
    <glyph glyph-name="multiply.case" 
d="M339 327l215 -215l-40 -40l-214 214l-215 -215l-40 41l215 215l-215 215l40 40l215 -215l215 215l39 -40z" />
    <glyph glyph-name="plus.case" 
d="M272 300h-227v52h227v229h56v-229h227v-52h-227v-229h-56v229z" />
    <glyph glyph-name="divide.case" 
d="M555 353v-52h-510v52h510zM341 155v-83h-82v83h82zM341 582v-83h-82v83h82z" />
    <glyph glyph-name="infinity.case" horiz-adv-x="737" 
d="M616 330q0 41 -23.5 65.5t-64.5 24.5q-57 0 -127 -90q23 -28 39.5 -44t41 -29.5t48.5 -13.5q40 0 63 23.5t23 63.5zM369 290q-29 -32 -47.5 -49t-50 -31.5t-66.5 -14.5q-60 0 -97.5 39t-37.5 98t38.5 98t97.5 39q37 0 68.5 -16.5t48.5 -33.5t46 -52q29 35 46 52
t48.5 33.5t68.5 16.5q59 0 97.5 -39t38.5 -98t-37.5 -98t-98.5 -39q-50 0 -84.5 23.5t-78.5 71.5zM122 330q0 -40 23 -63.5t63 -23.5q35 0 64 22.5t65 64.5q-70 90 -127 90q-41 0 -64.5 -24.5t-23.5 -65.5z" />
    <glyph glyph-name="equal.case" 
d="M555 404h-510v52h510v-52zM555 198h-510v52h510v-52z" />
    <glyph glyph-name="less.case" 
d="M540 582v-60l-456 -195l456 -195v-60l-510 219v72z" />
    <glyph glyph-name="greater.case" 
d="M60 522v60l510 -219v-72l-510 -219v60l456 195z" />
    <glyph glyph-name="at.case" horiz-adv-x="794" 
d="M354 466v-253h120v253h-120zM719 155h-430v369h250v-311h115v409h-480v-565h375v-57h-440v680h610v-525z" />
    <glyph glyph-name="notequal.case" 
d="M255 198l-72 -126l-44 25l58 101h-152v52h182l88 154h-270v52h300l73 126l44 -25l-58 -101h151v-52h-181l-89 -154h270v-52h-300z" />
    <glyph glyph-name="plusminus.case" 
d="M272 353h-227v52h227v177h56v-177h227v-52h-227v-177h-56v177zM555 124v-52h-510v52h510z" />
    <glyph glyph-name="greaterequal.case" 
d="M49 72v52h510v-52h-510zM49 523v59l510 -167v-72l-510 -167v59l451 144z" />
    <glyph glyph-name="lessequal.case" 
d="M551 124v-52h-510v52h510zM551 582v-59l-451 -144l451 -144v-59l-510 167v72z" />
    <glyph glyph-name="approxequal.case" 
d="M490 465h55q0 -48 -34.5 -77t-87.5 -29q-32 0 -59.5 10t-84.5 40q-7 3 -20.5 10.5t-17.5 9.5t-14 6.5t-13.5 6t-10.5 4t-11.5 3.5t-10 1.5t-11.5 0.5q-26 0 -43.5 -15.5t-17.5 -41.5h-55q0 48 34.5 77t87.5 29q32 0 59.5 -10t84.5 -40q7 -3 20.5 -10.5t17.5 -9.5t14 -6.5
t13.5 -6t10.5 -4t11.5 -3.5t10 -1.5t11.5 -0.5q26 0 43.5 15.5t17.5 41.5zM490 259h55q0 -48 -34.5 -77t-87.5 -29q-32 0 -59.5 10t-84.5 40q-7 3 -20.5 10.5t-17.5 9.5t-14 6.5t-13.5 6t-10.5 4t-11.5 3.5t-10 1.5t-11.5 0.5q-26 0 -43.5 -15.5t-17.5 -41.5h-55
q0 48 34.5 77t87.5 29q32 0 59.5 -10t84.5 -40q7 -3 20.5 -10.5t17.5 -9.5t14 -6.5t13.5 -6t10.5 -4t11.5 -3.5t10 -1.5t11.5 -0.5q26 0 43.5 15.5t17.5 41.5z" />
    <glyph glyph-name="logicalnot.case" 
d="M493 192v212h-454v52h510v-264h-56z" />
    <glyph glyph-name="guillemotright.case" horiz-adv-x="452" 
d="M127 144h-55l97 186l-97 186h55l107 -186zM279 144h-55l97 186l-97 186h55l107 -186z" />
    <glyph glyph-name="guilsinglright.case" horiz-adv-x="300" 
d="M127 144h-55l97 186l-97 186h55l107 -186z" />
    <glyph glyph-name="guillemotleft.case" horiz-adv-x="452" 
d="M380 144h-55l-107 186l107 186h55l-97 -186zM228 144h-55l-107 186l107 186h55l-97 -186z" />
    <glyph glyph-name="guilsinglleft.case" horiz-adv-x="300" 
d="M228 144h-55l-107 186l107 186h55l-97 -186z" />
    <glyph glyph-name="bracketleft.case" horiz-adv-x="342" 
d="M106 783h185v-54h-125v-778h125v-54h-185v886z" />
    <glyph glyph-name="braceleft.case" horiz-adv-x="371" 
d="M135 -103v415h-95v56h95v-56h60v-361h125v-54h-185zM135 368v415h185v-54h-125v-361h-60z" />
    <glyph glyph-name="parenleft.case" horiz-adv-x="303" 
d="M128 445v-210q0 -153 139 -338h-55q-73 95 -111 199t-38 244t38 244t111 199h55q-139 -188 -139 -338z" />
    <glyph glyph-name="bracketright.case" horiz-adv-x="342" 
d="M51 783h185v-886h-185v54h125v778h-125v54z" />
    <glyph glyph-name="braceright.case" horiz-adv-x="371" 
d="M236 783v-415h95v-56h-95v56h-60v361h-125v54h185zM236 312v-415h-185v54h125v361h60z" />
    <glyph glyph-name="parenright.case" horiz-adv-x="303" 
d="M175 235v210q0 150 -139 338h55q73 -95 111 -199t38 -244t-38 -244t-111 -199h-55q139 185 139 338z" />
    <glyph glyph-name="endash.case" horiz-adv-x="636" 
d="M83 303v62h470v-62h-470z" />
    <glyph glyph-name="emdash.case" horiz-adv-x="1106" 
d="M83 303v62h940v-62h-940z" />
    <glyph glyph-name="hyphen.case" horiz-adv-x="446" 
d="M83 303v62h280v-62h-280z" />
    <glyph glyph-name="uni00AD.case" horiz-adv-x="446" 
d="M83 303v62h280v-62h-280z" />
    <glyph glyph-name="parenleft.sup" horiz-adv-x="203" 
d="M97 593v-109q0 -76 73 -173h-43q-79 101 -79 228q0 124 79 227h43q-73 -98 -73 -173z" />
    <glyph glyph-name="parenright.sup" horiz-adv-x="203" 
d="M107 484v109q0 73 -74 173h43q79 -101 79 -227q0 -129 -79 -228h-43q74 96 74 173z" />
    <glyph glyph-name="zero.sup" horiz-adv-x="358" 
d="M307 591q0 -183 -128 -183t-128 183t128 183t128 -183zM179 449q35 0 55 19.5t20 54.5v136q0 34 -20 54t-55 20t-55 -20t-20 -54v-136q0 -34 20 -54t55 -20z" />
    <glyph glyph-name="one.sup" horiz-adv-x="274" 
d="M199 766v-350h-50v258h-111v42h111v50h50z" />
    <glyph glyph-name="two.sup" horiz-adv-x="342" 
d="M119 459v-1h174v-42h-243v40l145 139q42 41 42 77q0 28 -16.5 44.5t-47.5 16.5t-50.5 -19t-19.5 -51h-50q0 52 34 81.5t87 29.5q52 0 82.5 -28t30.5 -75q0 -54 -55 -107z" />
    <glyph glyph-name="four.sup" horiz-adv-x="341" 
d="M245 416h-50v84h-157v42l159 224h48v-224h56v-42h-56v-84zM195 696h-2l-108 -154h110v154z" />
    <glyph glyph-name="five.sup" horiz-adv-x="337" 
d="M102 569h-49l14 197h203v-42h-161l-7 -110q26 36 76 36q52 0 82.5 -32.5t30.5 -85.5q0 -57 -33 -90.5t-89 -33.5q-55 0 -86 27t-36 77h49q7 -63 72 -63q33 0 53 16.5t20 43.5v45q0 27 -19.5 41.5t-52.5 14.5q-46 0 -67 -41z" />
    <glyph glyph-name="six.sup" horiz-adv-x="350" 
d="M176 402q-125 0 -125 175q0 87 31.5 139t98.5 52q103 0 113 -95h-49q-6 55 -67 55q-34 0 -54.5 -24.5t-20.5 -60.5v-44q26 41 82 41q53 0 84.5 -31.5t31.5 -82.5q0 -47 -33 -85.5t-92 -38.5zM177 442q32 0 52.5 19.5t20.5 47.5v29q0 28 -20 45t-53 17t-53.5 -17
t-20.5 -45v-29q0 -28 20.5 -47.5t53.5 -19.5z" />
    <glyph glyph-name="seven.sup" horiz-adv-x="300" 
d="M269 724l-146 -308h-55l148 308h-177v42h230v-42z" />
    <glyph glyph-name="eight.sup" horiz-adv-x="354" 
d="M177 408q-56 0 -91.5 26t-35.5 76q0 66 64 88q-54 24 -54 81q0 44 33.5 69.5t83.5 25.5t83.5 -25.5t33.5 -69.5q0 -57 -54 -81q64 -22 64 -88q0 -50 -35.5 -76t-91.5 -26zM242 663v23q0 22 -18.5 34.5t-46.5 12.5t-46.5 -12.5t-18.5 -34.5v-23q0 -22 18.5 -34t46.5 -12
t46.5 12t18.5 34zM103 526v-27q0 -23 20 -36.5t54 -13.5t54 13.5t20 36.5v27q0 23 -20 36.5t-54 13.5t-54 -13.5t-20 -36.5z" />
    <glyph glyph-name="nine.sup" horiz-adv-x="351" 
d="M174 774q68 0 97 -43t29 -131q0 -192 -128 -192q-106 0 -115 95h50q6 -54 66 -54q35 0 54.5 24.5t19.5 64.5v34q-28 -37 -81 -37q-54 0 -85.5 31.5t-31.5 83.5q0 49 33 86.5t92 37.5zM174 733q-32 0 -52 -19.5t-20 -47.5v-28q0 -28 19.5 -45t52.5 -17q32 0 52.5 17
t20.5 45v28q0 28 -20.5 47.5t-52.5 19.5z" />
    <glyph glyph-name="zero.den" horiz-adv-x="358" 
d="M307 175q0 -183 -128 -183t-128 183t128 183t128 -183zM179 33q35 0 55 19.5t20 54.5v136q0 34 -20 54t-55 20t-55 -20t-20 -54v-136q0 -34 20 -54t55 -20z" />
    <glyph glyph-name="one.den" horiz-adv-x="306" 
d="M199 350v-350h-50v258h-111v42h111v50h50z" />
    <glyph glyph-name="two.den" horiz-adv-x="342" 
d="M119 43v-1h174v-42h-243v40l145 139q42 41 42 77q0 28 -16.5 44.5t-47.5 16.5t-50.5 -19t-19.5 -51h-50q0 52 34 81.5t87 29.5q52 0 82.5 -28t30.5 -75q0 -54 -55 -107z" />
    <glyph glyph-name="four.den" horiz-adv-x="341" 
d="M245 0h-50v84h-157v42l159 224h48v-224h56v-42h-56v-84zM195 280h-2l-108 -154h110v154z" />
    <glyph glyph-name="five.den" horiz-adv-x="337" 
d="M102 153h-49l14 197h203v-42h-161l-7 -110q26 36 76 36q52 0 82.5 -32.5t30.5 -85.5q0 -57 -33 -90.5t-89 -33.5q-55 0 -86 27t-36 77h49q7 -63 72 -63q33 0 53 16.5t20 43.5v45q0 27 -19.5 41.5t-52.5 14.5q-46 0 -67 -41z" />
    <glyph glyph-name="six.den" horiz-adv-x="350" 
d="M176 -14q-125 0 -125 175q0 87 31.5 139t98.5 52q103 0 113 -95h-49q-6 55 -67 55q-34 0 -54.5 -24.5t-20.5 -60.5v-44q26 41 82 41q53 0 84.5 -31.5t31.5 -82.5q0 -47 -33 -85.5t-92 -38.5zM177 26q32 0 52.5 19.5t20.5 47.5v29q0 28 -20 45t-53 17t-53.5 -17t-20.5 -45
v-29q0 -28 20.5 -47.5t53.5 -19.5z" />
    <glyph glyph-name="seven.den" horiz-adv-x="300" 
d="M269 308l-146 -308h-55l148 308h-177v42h230v-42z" />
    <glyph glyph-name="eight.den" horiz-adv-x="354" 
d="M177 -8q-56 0 -91.5 26t-35.5 76q0 66 64 88q-54 24 -54 81q0 44 33.5 69.5t83.5 25.5t83.5 -25.5t33.5 -69.5q0 -57 -54 -81q64 -22 64 -88q0 -50 -35.5 -76t-91.5 -26zM242 247v23q0 22 -18.5 34.5t-46.5 12.5t-46.5 -12.5t-18.5 -34.5v-23q0 -22 18.5 -34t46.5 -12
t46.5 12t18.5 34zM103 110v-27q0 -23 20 -36.5t54 -13.5t54 13.5t20 36.5v27q0 23 -20 36.5t-54 13.5t-54 -13.5t-20 -36.5z" />
    <glyph glyph-name="nine.den" horiz-adv-x="351" 
d="M174 358q68 0 97 -43t29 -131q0 -192 -128 -192q-106 0 -115 95h50q6 -54 66 -54q35 0 54.5 24.5t19.5 64.5v34q-28 -37 -81 -37q-54 0 -85.5 31.5t-31.5 83.5q0 49 33 86.5t92 37.5zM174 317q-32 0 -52 -19.5t-20 -47.5v-28q0 -28 19.5 -45t52.5 -17q32 0 52.5 17
t20.5 45v28q0 28 -20.5 47.5t-52.5 19.5z" />
    <glyph glyph-name="zero.sub" horiz-adv-x="358" 
d="M307 69q0 -183 -128 -183t-128 183t128 183t128 -183zM179 -73q35 0 55 19.5t20 54.5v136q0 34 -20 54t-55 20t-55 -20t-20 -54v-136q0 -34 20 -54t55 -20z" />
    <glyph glyph-name="one.sub" horiz-adv-x="275" 
d="M200 244v-350h-50v258h-111v42h111v50h50z" />
    <glyph glyph-name="two.sub" horiz-adv-x="341" 
d="M118 -63v-1h174v-42h-243v40l145 139q42 41 42 77q0 28 -16.5 44.5t-47.5 16.5t-50.5 -19t-19.5 -51h-50q0 52 34 81.5t87 29.5q52 0 82.5 -28t30.5 -75q0 -54 -55 -107z" />
    <glyph glyph-name="four.sub" horiz-adv-x="341" 
d="M245 -106h-50v84h-157v42l159 224h48v-224h56v-42h-56v-84zM195 174h-2l-108 -154h110v154z" />
    <glyph glyph-name="five.sub" horiz-adv-x="337" 
d="M102 47h-49l14 197h203v-42h-161l-7 -110q26 36 76 36q52 0 82.5 -32.5t30.5 -85.5q0 -57 -33 -90.5t-89 -33.5q-55 0 -86 27t-36 77h49q7 -63 72 -63q33 0 53 16.5t20 43.5v45q0 27 -19.5 41.5t-52.5 14.5q-46 0 -67 -41z" />
    <glyph glyph-name="six.sub" horiz-adv-x="350" 
d="M176 -120q-125 0 -125 175q0 87 31.5 139t98.5 52q103 0 113 -95h-49q-6 55 -67 55q-34 0 -54.5 -24.5t-20.5 -60.5v-44q26 41 82 41q53 0 84.5 -31.5t31.5 -82.5q0 -47 -33 -85.5t-92 -38.5zM177 -80q32 0 52.5 19.5t20.5 47.5v29q0 28 -20 45t-53 17t-53.5 -17
t-20.5 -45v-29q0 -28 20.5 -47.5t53.5 -19.5z" />
    <glyph glyph-name="seven.sub" horiz-adv-x="300" 
d="M269 202l-146 -308h-55l148 308h-177v42h230v-42z" />
    <glyph glyph-name="eight.sub" horiz-adv-x="354" 
d="M177 -114q-56 0 -91.5 26t-35.5 76q0 66 64 88q-54 24 -54 81q0 44 33.5 69.5t83.5 25.5t83.5 -25.5t33.5 -69.5q0 -57 -54 -81q64 -22 64 -88q0 -50 -35.5 -76t-91.5 -26zM242 141v23q0 22 -18.5 34.5t-46.5 12.5t-46.5 -12.5t-18.5 -34.5v-23q0 -22 18.5 -34t46.5 -12
t46.5 12t18.5 34zM103 4v-27q0 -23 20 -36.5t54 -13.5t54 13.5t20 36.5v27q0 23 -20 36.5t-54 13.5t-54 -13.5t-20 -36.5z" />
    <glyph glyph-name="nine.sub" horiz-adv-x="351" 
d="M174 252q68 0 97 -43t29 -131q0 -192 -128 -192q-106 0 -115 95h50q6 -54 66 -54q35 0 54.5 24.5t19.5 64.5v34q-28 -37 -81 -37q-54 0 -85.5 31.5t-31.5 83.5q0 49 33 86.5t92 37.5zM174 211q-32 0 -52 -19.5t-20 -47.5v-28q0 -28 19.5 -45t52.5 -17q32 0 52.5 17
t20.5 45v28q0 28 -20.5 47.5t-52.5 19.5z" />
    <glyph glyph-name="plus.sub" horiz-adv-x="356" 
d="M159 8h-113v36h113v114h39v-114h112v-36h-112v-114h-39v114z" />
    <glyph glyph-name="minus.sub" horiz-adv-x="382" 
d="M323 43v-36h-264v36h264z" />
    <glyph glyph-name="equal.sub" horiz-adv-x="382" 
d="M323 54h-264v38h264v-38zM323 -42h-264v38h264v-38z" />
    <glyph glyph-name="parenleft.sub" horiz-adv-x="203" 
d="M97 71v-109q0 -76 73 -173h-43q-79 101 -79 228q0 124 79 227h43q-73 -98 -73 -173z" />
    <glyph glyph-name="parenright.sub" horiz-adv-x="203" 
d="M107 -38v109q0 73 -74 173h43q79 -101 79 -227q0 -129 -79 -228h-43q74 96 74 173z" />
    <glyph glyph-name="three.sup" horiz-adv-x="344" 
d="M205 574h-81v42h74q18 0 28 10.5t10 26.5v32q0 23 -18 35.5t-45 12.5q-62 0 -67 -59h-50q0 41 33 70.5t85 29.5t82 -26t30 -69q0 -59 -50 -82q57 -19 57 -83q0 -49 -34.5 -77.5t-89.5 -28.5q-53 0 -86.5 27.5t-35.5 82.5h49q6 -69 73 -69q32 0 53 15.5t21 38.5v33
q0 16 -10.5 27t-27.5 11z" />
    <glyph glyph-name="three.den" horiz-adv-x="344" 
d="M205 158h-81v42h74q18 0 28 10.5t10 26.5v32q0 23 -18 35.5t-45 12.5q-62 0 -67 -59h-50q0 41 33 70.5t85 29.5t82 -26t30 -69q0 -59 -50 -82q57 -19 57 -83q0 -49 -34.5 -77.5t-89.5 -28.5q-53 0 -86.5 27.5t-35.5 82.5h49q6 -69 73 -69q32 0 53 15.5t21 38.5v33
q0 16 -10.5 27t-27.5 11z" />
    <glyph glyph-name="three.sub" horiz-adv-x="344" 
d="M205 52h-81v42h74q18 0 28 10.5t10 26.5v32q0 23 -18 35.5t-45 12.5q-62 0 -67 -59h-50q0 41 33 70.5t85 29.5t82 -26t30 -69q0 -59 -50 -82q57 -19 57 -83q0 -49 -34.5 -77.5t-89.5 -28.5q-53 0 -86.5 27.5t-35.5 82.5h49q6 -69 73 -69q32 0 53 15.5t21 38.5v33
q0 16 -10.5 27t-27.5 11z" />
    <glyph glyph-name="three.num" horiz-adv-x="344" 
d="M205 488h-81v42h74q18 0 28 10.5t10 26.5v32q0 23 -18 35.5t-45 12.5q-62 0 -67 -59h-50q0 41 33 70.5t85 29.5t82 -26t30 -69q0 -59 -50 -82q57 -19 57 -83q0 -49 -34.5 -77.5t-89.5 -28.5q-53 0 -86.5 27.5t-35.5 82.5h49q6 -69 73 -69q32 0 53 15.5t21 38.5v33
q0 16 -10.5 27t-27.5 11z" />
    <glyph glyph-name="orn.01" horiz-adv-x="640" 
d="M128 448v64h-64v64h-64v64h64v-64h64v-64h64v-64h64v-64h64v-64h64v-64h64v-64h64v-64h64v-64h64v-64h-64v64h-64v64h-64v64h-64v64h-64v64h-64v64h-64v64h-64zM128 576v64h-64v64h64v-64h64v-64h64v-64h64v-64h64v-64h64v-64h64v-64h64v-64h64v-64h64v-64h-64v64h-64v64
h-64v64h-64v64h-64v64h-64v64h-64v64h-64v64h-64zM128 320v64h-64v64h-64v64h64v-64h64v-64h64v-64h64v-64h64v-64h64v-64h64v-64h64v-64h-64v64h-64v64h-64v64h-64v64h-64v64h-64zM256 576v64h-64v64h64v-64h64v-64h64v-64h64v-64h64v-64h64v-64h64v-64h64v-64h-64v64h-64
v64h-64v64h-64v64h-64v64h-64v64h-64zM384 576v64h-64v64h64v-64h64v-64h64v-64h64v-64h64v-64h64v-64h-64v64h-64v64h-64v64h-64v64h-64zM128 192v64h-64v64h-64v64h64v-64h64v-64h64v-64h64v-64h64v-64h64v-64h-64v64h-64v64h-64v64h-64zM512 576v64h-64v64h64v-64h64v-64
h64v-64h64v-64h-64v64h-64v64h-64zM128 64v64h-64v64h-64v64h64v-64h64v-64h64v-64h64v-64h-64v64h-64zM0 64v64h64v-64h64v-64h-64v64h-64zM640 576v64h-64v64h64v-64h64v-64h-64z" />
    <glyph glyph-name="orn.02" horiz-adv-x="640" 
d="M0 0v64h704v-64h-704zM0 128v64h704v-64h-704zM0 256v64h704v-64h-704zM0 384v64h704v-64h-704zM0 512v64h704v-64h-704zM0 640v64h704v-64h-704z" />
    <glyph glyph-name="orn.03" horiz-adv-x="768" 
d="M704 0h-64v704h64v-704zM576 0h-64v704h64v-704zM448 0h-64v704h64v-704zM320 0h-64v704h64v-704zM192 0h-64v704h64v-704zM64 0h-64v704h64v-704z" />
    <glyph glyph-name="orn.04" horiz-adv-x="576" 
d="M0 192v64h64v-64h-64zM64 256v64h64v-64h-64zM0 384v64h64v-64h-64zM64 448v64h64v-64h-64zM0 576v64h64v-64h-64zM64 640v64h64v-64h-64zM64 64v64h64v-64h-64zM128 320v64h64v-64h-64zM192 384v64h64v-64h-64zM128 512v64h64v-64h-64zM192 576v64h64v-64h-64zM128 128
v64h64v-64h-64zM192 192v64h64v-64h-64zM256 448v64h64v-64h-64zM320 512v64h64v-64h-64zM256 640v64h64v-64h-64zM192 0v64h64v-64h-64zM256 256v64h64v-64h-64zM320 320v64h64v-64h-64zM384 576v64h64v-64h-64zM448 640v64h64v-64h-64zM256 64v64h64v-64h-64zM320 128v64
h64v-64h-64zM384 384v64h64v-64h-64zM448 448v64h64v-64h-64zM384 192v64h64v-64h-64zM512 512v64h64v-64h-64zM0 0v64h64v-64h-64zM576 576v64h64v-64h-64zM448 256v64h64v-64h-64zM512 320v64h64v-64h-64zM576 384v64h64v-64h-64zM640 448v64h64v-64h-64zM448 64v64h64
v-64h-64zM512 128v64h64v-64h-64zM576 192v64h64v-64h-64zM640 256v64h64v-64h-64zM384 0v64h64v-64h-64zM576 0v64h64v-64h-64zM640 64v64h64v-64h-64zM640 640v64h64v-64h-64z" />
    <glyph glyph-name="orn.05" horiz-adv-x="576" 
d="M576 192v-64h64v-64h64v-64h-64v64h-64v64h-64v64h-64v64h-64v64h-64v64h-64v64h-64v64h-64v64h-64v64h-64v64h64v-64h64v-64h64v-64h64v-64h64v-64h64v-64h64v-64h64v-64h64zM640 320v-64h64v-64h-64v64h-64v64h-64v64h-64v64h-64v64h-64v64h-64v64h-64v64h64v-64h64
v-64h64v-64h64v-64h64v-64h64v-64h64zM448 128v-64h64v-64h-64v64h-64v64h-64v64h-64v64h-64v64h-64v64h-64v64h-64v64h64v-64h64v-64h64v-64h64v-64h64v-64h64v-64h64zM640 512v-64h64v-64h-64v64h-64v64h-64v64h-64v64h-64v64h64v-64h64v-64h64v-64h64zM192 192v-64h64
v-64h64v-64h-64v64h-64v64h-64v64h-64v64h-64v64h64v-64h64v-64h64zM640 704v-64h64v-64h-64v64h-64v64h64zM64 128v-64h64v-64h-64v64h-64v64h64z" />
    <glyph glyph-name="orn.06" horiz-adv-x="832" 
d="M192 128v64h-64v64h-64v64h64v64h64v-64h576v-64h-576v-64h64v-64h64v-64h64v-64h-64v64h-64v64h-64zM320 512v64h64v-64h-64zM256 448v64h64v-64h-64zM192 384v64h64v-64h-64z" />
    <glyph glyph-name="orn.07" horiz-adv-x="832" 
d="M640 448v-64h64v-64h64v-64h-64v-64h-64v64h-576v64h576v64h-64v64h-64v64h-64v64h64v-64h64v-64h64zM448 64h64v-64h-64v64zM512 128h64v-64h-64v64zM640 192v-64h-64v64h64z" />
    <glyph glyph-name="orn.08" horiz-adv-x="640" 
d="M448 192v-64h64v320h64v-448h-448v64h320v64h-64v64h-64v64h-64v64h-64v64h-64v64h-64v64h64v-64h64v-64h64v-64h64v-64h64v-64h64z" />
    <glyph glyph-name="orn.09" horiz-adv-x="640" 
d="M512 0h-448v448h64v-320h64v-64h320v-64zM512 448v64h64v-64h-64zM448 384v64h64v-64h-64zM384 320v64h64v-64h-64zM320 256v64h64v-64h-64zM256 192v64h64v-64h-64zM192 128v64h64v-64h-64z" />
    <glyph glyph-name="orn.10" horiz-adv-x="704" 
d="M256 128h64v576h64v-576h64v-64h-64v-64h-64v64h-64v64zM256 128h-64v64h-64v64h-64v64h64v-64h64v-64h64v-64zM640 256h-64v64h64v-64zM576 192h-64v64h64v-64zM512 128h-64v64h64v-64z" />
    <glyph glyph-name="orn.11" horiz-adv-x="704" 
d="M448 576h-64v-576h-64v576h-64v64h64v64h64v-64h64v-64zM448 576h64v-64h64v-64h64v-64h-64v64h-64v64h-64v64zM128 512h64v-64h-64v64zM64 448h64v-64h-64v64zM192 576h64v-64h-64v64z" />
    <glyph glyph-name="orn.12" horiz-adv-x="704" 
d="M512 192v-64h64v-64h64v-64h-64v64h-64v64h-64v64h-64v64h-64v64h-64v64h-64v64h-64v64h-64v64h64v-64h64v-64h64v-64h64v-64h64v-64h64v-64h64zM256 192v64h64v-64h-64zM448 384v-64h-64v64h64zM64 0v64h64v-64h-64zM640 576v-64h-64v64h64zM128 64v64h64v-64h-64z
M512 448v-64h-64v64h64zM192 128v64h64v-64h-64zM576 512v-64h-64v64h64z" />
    <glyph glyph-name="orn.13" horiz-adv-x="960" 
d="M64 -128v832h832v-832h-832zM128 640v-704h704v704h-704zM640 192v-64h64v-64h64v-64h-64v64h-64v64h-64v64h-64v64h-64v64h-64v64h-64v64h-64v64h-64v64h64v-64h64v-64h64v-64h64v-64h64v-64h64v-64h64zM384 192v64h64v-64h-64zM576 384v-64h-64v64h64zM192 0v64h64v-64
h-64zM768 576v-64h-64v64h64zM256 64v64h64v-64h-64zM640 448v-64h-64v64h64zM320 128v64h64v-64h-64zM704 512v-64h-64v64h64z" />
    <glyph glyph-name="orn.14" horiz-adv-x="960" 
d="M64 -128v832h832v-832h-832zM128 640v-704h704v704h-704zM256 448v64h-64v64h64v-64h64v-64h64v-64h64v-64h64v-64h64v-64h64v-64h64v-64h64v-64h-64v64h-64v64h-64v64h-64v64h-64v64h-64v64h-64v64h-64zM384 448v64h-64v64h64v-64h64v-64h64v-64h64v-64h64v-64h64v-64
h64v-64h-64v64h-64v64h-64v64h-64v64h-64v64h-64zM256 320v64h-64v64h64v-64h64v-64h64v-64h64v-64h64v-64h64v-64h64v-64h-64v64h-64v64h-64v64h-64v64h-64v64h-64zM512 448v64h-64v64h64v-64h64v-64h64v-64h64v-64h64v-64h-64v64h-64v64h-64v64h-64zM256 192v64h-64v64h64
v-64h64v-64h64v-64h64v-64h64v-64h-64v64h-64v64h-64v64h-64zM256 64v64h-64v64h64v-64h64v-64h64v-64h-64v64h-64zM640 448v64h-64v64h64v-64h64v-64h64v-64h-64v64h-64zM192 0v64h64v-64h-64zM704 512v64h64v-64h-64z" />
    <glyph glyph-name="orn.15" horiz-adv-x="960" 
d="M64 -128v832h832v-832h-832zM128 640v-704h704v704h-704zM192 0v576h576v-576h-576zM256 512v-448h448v448h-448z" />
    <glyph glyph-name="orn.16" horiz-adv-x="960" 
d="M192 640v64h576v-64h64v-64h64v-576h-64v576h-64v64h-576zM640 192v-64h64v-64h64v-64h64v-64h64v-64h-64v64h-64v64h-64v64h-64v64h-64v64h-64v64h-64v64h-64v64h-64v64h-64v64h-64v64h-64v64h-64v64h64v-64h64v-64h64v-64h64v-64h64v-64h64v-64h64v-64h64v-64h64z
M128 0h64v-64h576v-64h-576v64h-64v64zM128 0h-64v576h64v-576zM256 64v64h64v-64h-64zM320 128v64h64v-64h-64zM640 448v-64h-64v64h64zM576 384v-64h-64v64h64zM768 576v-64h-64v64h64zM192 0v64h64v-64h-64zM896 704v-64h-64v64h64zM128 -64v-64h-64v64h64zM704 512v-64
h-64v64h64zM384 192v64h64v-64h-64z" />
    <glyph glyph-name="orn.17" horiz-adv-x="320" 
d="M64 512v192h192v-64h-128v-128h-64zM64 -128v192h64v-128h128v-64h-192z" />
    <glyph glyph-name="orn.18" horiz-adv-x="320" 
d="M256 704v-192h-64v128h-128v64h192zM256 64v-192h-192v64h128v128h64z" />
    <glyph glyph-name="orn.19" horiz-adv-x="320" 
d="M256 64v-192h-64v128h-128v64h192zM256 704v-192h-192v64h128v128h64z" />
    <glyph glyph-name="orn.20" horiz-adv-x="320" 
d="M64 -128v192h192v-64h-128v-128h-64zM64 512v192h64v-128h128v-64h-192z" />
    <glyph glyph-name="orn.21" horiz-adv-x="832" 
d="M64 -64v704h704v-704h-704zM576 128v64h-64v64h-64v64h-64v64h-64v64h-64v64h-64v64h-64v-64h64v-64h64v-64h64v-64h64v-64h64v-64h64v-64h64zM576 128v-64h64v-64h64v64h-64v64h-64zM576 384v64h-64v-64h64zM192 128v-64h64v64h-64zM704 512v64h-64v-64h64zM128 64v-64
h64v64h-64zM512 320v64h-64v-64h64zM320 256v-64h64v64h-64zM640 448v64h-64v-64h64zM256 192v-64h64v64h-64z" />
    <glyph glyph-name="orn.22" horiz-adv-x="832" 
d="M64 -64v704h704v-704h-704zM256 192v64h448v64h-448v64h-64v-64h-64v-64h64v-64h64zM256 192v-64h64v-64h64v64h-64v64h-64zM320 384v64h-64v-64h64zM384 448v64h-64v-64h64z" />
    <glyph glyph-name="orn.23" horiz-adv-x="832" 
d="M768 640v-704h-704v704h704zM448 512v-64h64v-64h64v-64h-448v-64h448v-64h64v64h64v64h-64v64h-64v64h-64v64h-64zM512 64v64h-64v-64h64zM576 128v64h-64v-64h64z" />
    <glyph glyph-name="orn.24" horiz-adv-x="832" 
d="M768 -64h-704v704h704v-704zM256 256h-64v-64h64v-64h64v-64h64v-64h64v64h64v64h-64v448h-64v-448h-64v64h-64v64zM512 128h64v64h-64v-64zM576 256v-64h64v64h-64z" />
    <glyph glyph-name="orn.25" horiz-adv-x="832" 
d="M64 640h704v-704h-704v704zM576 448h-64v64h-64v64h-64v-64h-64v-64h64v-448h64v448h64v-64h64v-64h64v64h-64v64zM256 384h64v64h-64v-64zM192 320h64v64h-64v-64z" />
    <glyph glyph-name="orn.26" horiz-adv-x="704" 
d="M64 0v128h64v-64h448v64h-64v128h-64v128h-64v128h-64v128h64v-128h64v-128h64v-128h64v-128h64v-128h-576zM192 256v128h64v-128h-64zM256 384v128h64v-128h-64zM128 128v128h64v-128h-64z" />
    <glyph glyph-name="orn.27" horiz-adv-x="704" 
d="M192 256v128h-64v128h-64v128h576v-128h-64v64h-448v-64h64v-128h64v-128h64v-128h64v-128h-64v128h-64v128h-64zM448 256v-128h-64v128h64zM512 384v-128h-64v128h64zM576 512v-128h-64v128h64z" />
    <glyph glyph-name="orn.28" horiz-adv-x="768" 
d="M448 128h128v-64h64v448h-64v64h128v-576h-128v64h-128v64h-128v64h-128v64h-128v64h128v-64h128v-64h128v-64zM192 384h128v-64h-128v64zM448 512h128v-64h-128v64zM320 448h128v-64h-128v64z" />
    <glyph glyph-name="orn.29" horiz-adv-x="768" 
d="M192 0h-128v576h128v-64h128v-64h128v-64h128v-64h128v-64h-128v64h-128v64h-128v64h-128v64h-64v-448h64v-64zM448 128h-128v64h128v-64zM576 192h-128v64h128v-64zM320 64h-128v64h128v-64z" />
    <glyph glyph-name="orn.30" horiz-adv-x="768" 
d="M64 0v640h640v-640h-640zM128 576v-512h512v512h-512z" />
    <glyph glyph-name="orn.31" horiz-adv-x="768" 
d="M576 576v-64h64v-64h64v-256h-64v256h-64v64h-64v64h-256v64h256v-64h64zM192 64v64h-64v64h-64v256h64v-256h64v-64h64v-64h256v-64h-256v64h-64zM576 128v-64h-64v64h64zM640 192v-64h-64v64h64zM192 512v64h64v-64h-64zM128 448v64h64v-64h-64z" />
    <glyph glyph-name="orn.32" horiz-adv-x="576" 
d="M384 640v-128h128v-512h-448v640h320zM448 448h-128v128h-192v-512h320v384z" />
    <glyph glyph-name="diametersign" horiz-adv-x="674" 
d="M70 255q0 110 78.5 188.5t188.5 78.5q94 0 169 -62l62 62l36 -36l-62 -62q62 -75 62 -169q0 -110 -78.5 -188.5t-188.5 -78.5q-96 0 -170 61l-61 -61l-36 36l61 61q-61 74 -61 170zM554 255q0 74 -47 134l-305 -305q59 -46 135 -46q90 0 153.5 63.5t63.5 153.5zM120 255
q0 -76 46 -135l305 305q-60 47 -134 47q-90 0 -153.5 -63.5t-63.5 -153.5z" />
    <glyph glyph-name="zero.denslash" horiz-adv-x="408" 
d="M332 175q0 -183 -128 -183t-128 183t128 183t128 -183zM140 63l107 243q-19 11 -43 11q-35 0 -55 -20t-20 -54v-136q0 -27 11 -44zM266 289l-107 -244q18 -12 45 -12q35 0 55 19.5t20 54.5v136q0 27 -13 46z" />
    <glyph glyph-name="zero.subslash" horiz-adv-x="358" 
d="M307 69q0 -183 -128 -183t-128 183t128 183t128 -183zM115 -43l107 243q-19 11 -43 11q-35 0 -55 -20t-20 -54v-136q0 -27 11 -44zM241 183l-107 -244q18 -12 45 -12q35 0 55 19.5t20 54.5v136q0 27 -13 46z" />
    <glyph glyph-name="zero.supslash" horiz-adv-x="358" 
d="M307 591q0 -183 -128 -183t-128 183t128 183t128 -183zM115 479l107 243q-19 11 -43 11q-35 0 -55 -20t-20 -54v-136q0 -27 11 -44zM241 705l-107 -244q18 -12 45 -12q35 0 55 19.5t20 54.5v136q0 27 -13 46z" />
    <glyph glyph-name="idotaccent" horiz-adv-x="243" 
d="M154 0h-65v510h65v-510zM156 670v-69h-69v69h69z" />
    <glyph glyph-name="comma.sub" horiz-adv-x="175" 
d="M116 -50v-56l-32 -56h-25l31 56h-31v56h57z" />
    <glyph glyph-name="period.sub" horiz-adv-x="175" 
d="M116 -50v-56h-57v56h57z" />
    <glyph glyph-name="a.sub" horiz-adv-x="326" 
d="M257 -66h39v-40h-79l-1 49h-2q-22 -55 -83 -55q-43 0 -65 24q-21 23 -21 54q0 32 20.5 53.5t59.5 25.5l85 8v21q0 30 -14 42t-40 12q-55 0 -55 -48h-47q0 38 29.5 61t73.5 23q45 0 72.5 -22.5t27.5 -67.5v-140zM143 -75q31 0 49 22t18 59v12l-94 -9q-22 -2 -22 -25v-24
q0 -35 49 -35z" />
    <glyph glyph-name="b.sub" horiz-adv-x="345" 
d="M111 48v-44q0 -36 19 -57.5t53 -21.5q29 0 47.5 16.5t18.5 43.5v82q0 27 -18.5 43t-47.5 16q-34 0 -53 -21.5t-19 -56.5zM111 -106h-47v350h47v-129q27 49 84 49q50 0 77 -38.5t27 -99.5q0 -60 -27 -99t-77 -39q-57 0 -84 48v-42z" />
    <glyph glyph-name="c.sub" horiz-adv-x="312" 
d="M46 25q0 65 30 102t85 37q44 0 72.5 -23t31.5 -70h-47q-4 57 -60 57q-25 0 -44 -16.5t-19 -46.5v-77q0 -28 18.5 -45.5t45.5 -17.5q55 0 61 58h47q-4 -47 -34 -71t-73 -24q-57 0 -85.5 37t-28.5 100z" />
    <glyph glyph-name="d.sub" horiz-adv-x="345" 
d="M234 4v43q0 35 -19 56.5t-53 21.5q-29 0 -47.5 -16t-18.5 -43v-81q0 -27 18.5 -43.5t47.5 -16.5q34 0 53 21.5t19 57.5zM281 -106h-47v42q-27 -48 -83 -48q-50 0 -77.5 38.5t-27.5 98.5q0 61 27 100t77 39q57 0 84 -50v130h47v-350z" />
    <glyph glyph-name="e.sub" horiz-adv-x="319" 
d="M95 65v-15h130v15q0 29 -19 46t-46 17t-46 -17t-19 -46zM46 27q0 62 30 99.5t84 37.5q53 0 83 -35.5t30 -89.5v-25h-178v-28q0 -28 19 -44.5t46 -16.5q26 0 44.5 13.5t20.5 39.5h46q-4 -41 -35.5 -65.5t-75.5 -24.5q-56 0 -85 37.5t-29 101.5z" />
    <glyph glyph-name="f.sub" horiz-adv-x="215" 
d="M129 205v-47h54v-39h-54v-225h-47v225h-43v39h43v86h107v-39h-60z" />
    <glyph glyph-name="g.sub" horiz-adv-x="345" 
d="M234 4v43q0 35 -19 56.5t-53 21.5q-29 0 -47.5 -16t-18.5 -43v-81q0 -27 18.5 -43.5t47.5 -16.5q34 0 53 21.5t19 57.5zM281 158v-260q0 -52 -33.5 -79.5t-80.5 -27.5q-103 0 -112 83h47q6 -45 63 -45q30 0 49.5 17.5t19.5 53.5v36q-27 -48 -83 -48q-50 0 -77.5 38.5
t-27.5 98.5q0 61 27 100t77 39q57 0 84 -50v44h47z" />
    <glyph glyph-name="h.sub" horiz-adv-x="335" 
d="M111 244v-130q22 50 78 50q85 0 85 -94v-176h-47v171q0 61 -51 61q-29 0 -47 -21.5t-18 -56.5v-154h-47v350h47z" />
    <glyph glyph-name="i.sub" horiz-adv-x="175" 
d="M111 -106h-47v264h47v-264zM112 244v-48h-49v48h49z" />
    <glyph glyph-name="j.sub" horiz-adv-x="175" 
d="M64 -153v311h47v-350h-108v39h61zM112 244v-48h-49v48h49z" />
    <glyph glyph-name="k.sub" horiz-adv-x="309" 
d="M224 -106l-112 147l101 117h57l-105 -117l113 -147h-54zM111 244v-350h-47v350h47z" />
    <glyph glyph-name="l.sub" horiz-adv-x="175" 
d="M111 -106h-47v350h47v-350z" />
    <glyph glyph-name="m.sub" horiz-adv-x="480" 
d="M259 111q8 24 28 38.5t49 14.5q82 0 82 -93v-177h-47v172q0 62 -48 62q-24 0 -41 -22.5t-17 -56.5v-155h-47v172q0 62 -49 62q-24 0 -41 -22.5t-17 -56.5v-155h-47v264h47v-42q21 48 72 48q60 0 76 -53z" />
    <glyph glyph-name="n.sub" horiz-adv-x="335" 
d="M111 158v-44q22 50 78 50q85 0 85 -94v-176h-47v171q0 61 -51 61q-29 0 -47 -21.5t-18 -56.5v-154h-47v264h47z" />
    <glyph glyph-name="o.sub" horiz-adv-x="328" 
d="M233 -15v82q0 26 -20.5 42.5t-48.5 16.5t-48.5 -16.5t-20.5 -42.5v-82q0 -26 20.5 -42.5t48.5 -16.5t48.5 16.5t20.5 42.5zM282 26q0 -63 -30 -100.5t-88 -37.5t-88 37.5t-30 100.5t30 100.5t88 37.5t88 -37.5t30 -100.5z" />
    <glyph glyph-name="p.sub" horiz-adv-x="345" 
d="M111 48v-44q0 -36 19 -57.5t53 -21.5q29 0 47.5 16.5t18.5 43.5v82q0 27 -18.5 43t-47.5 16q-34 0 -53 -21.5t-19 -56.5zM111 -192h-47v350h47v-43q27 49 84 49q50 0 77 -38.5t27 -99.5q0 -60 -27 -99t-77 -39q-57 0 -84 48v-128z" />
    <glyph glyph-name="q.sub" horiz-adv-x="345" 
d="M234 4v43q0 35 -19 56.5t-53 21.5q-29 0 -47.5 -16t-18.5 -43v-81q0 -27 18.5 -43.5t47.5 -16.5q34 0 53 21.5t19 57.5zM281 -192h-47v128q-27 -48 -83 -48q-50 0 -77.5 38.5t-27.5 98.5q0 61 27 100t77 39q57 0 84 -50v44h47v-350z" />
    <glyph glyph-name="r.sub" horiz-adv-x="221" 
d="M64 -106v264h127v-39h-80v-225h-47z" />
    <glyph glyph-name="s.sub" horiz-adv-x="301" 
d="M134 53l45 -9q77 -17 77 -77q0 -33 -29.5 -56t-74.5 -23q-46 0 -76 23.5t-31 65.5h47q1 -25 18 -38.5t42 -13.5t41 11t16 29q0 32 -46 41l-44 9q-67 13 -67 73q0 33 27 54.5t69 21.5q41 0 70 -21.5t30 -62.5h-47q-1 48 -52 48q-22 0 -36.5 -10.5t-14.5 -26.5
q0 -31 36 -38z" />
    <glyph glyph-name="t.sub" horiz-adv-x="237" 
d="M129 119v-186h60v-39h-107v225h-43v39h43v86h47v-86h60v-39h-60z" />
    <glyph glyph-name="u.sub" horiz-adv-x="335" 
d="M224 -105v43q-23 -50 -77 -50q-39 0 -62.5 23t-23.5 72v175h47v-170q0 -62 52 -62q29 0 46.5 22t17.5 57v153h47v-263h-47z" />
    <glyph glyph-name="v.sub" horiz-adv-x="293" 
d="M145 -48h4l68 206h47l-95 -264h-44l-96 264h50z" />
    <glyph glyph-name="w.sub" horiz-adv-x="429" 
d="M241 158l48 -203h4l53 203h48l-81 -264h-47l-51 210h-4l-48 -210h-47l-81 264h51l51 -203h4l44 203h56z" />
    <glyph glyph-name="x.sub" horiz-adv-x="302" 
d="M33 -106l91 137l-84 127h51l60 -92l59 92h51l-85 -123l93 -141h-52l-66 105l-67 -105h-51z" />
    <glyph glyph-name="y.sub" horiz-adv-x="295" 
d="M146 -45h4l69 203h47l-128 -350h-89v39h59l17 49l-97 262h50z" />
    <glyph glyph-name="z.sub" horiz-adv-x="289" 
d="M101 -66h142v-40h-199v40l137 185h-127v39h185v-39z" />
    <glyph glyph-name="eacute.sub" horiz-adv-x="319" 
d="M132 191l44 62h55l-59 -62h-40zM95 65v-15h130v15q0 29 -19 46t-46 17t-46 -17t-19 -46zM46 27q0 62 30 99.5t84 37.5q53 0 83 -35.5t30 -89.5v-25h-178v-28q0 -28 19 -44.5t46 -16.5q26 0 44.5 13.5t20.5 39.5h46q-4 -41 -35.5 -65.5t-75.5 -24.5q-56 0 -85 37.5
t-29 101.5z" />
    <glyph glyph-name="egrave.sub" horiz-adv-x="319" 
d="M140 253l44 -62h-40l-59 62h55zM95 65v-15h130v15q0 29 -19 46t-46 17t-46 -17t-19 -46zM46 27q0 62 30 99.5t84 37.5q53 0 83 -35.5t30 -89.5v-25h-178v-28q0 -28 19 -44.5t46 -16.5q26 0 44.5 13.5t20.5 39.5h46q-4 -41 -35.5 -65.5t-75.5 -24.5q-56 0 -85 37.5
t-29 101.5z" />
    <glyph glyph-name="plus.ordn" horiz-adv-x="368" 
d="M165 531h-113v36h113v114h39v-114h112v-36h-112v-114h-39v114z" />
    <glyph glyph-name="minus.ordn" horiz-adv-x="382" 
d="M323 566v-36h-264v36h264z" />
    <glyph glyph-name="equal.ordn" horiz-adv-x="382" 
d="M323 577h-264v38h264v-38zM323 481h-264v38h264v-38z" />
    <glyph glyph-name="parenleft.ordn" horiz-adv-x="197" 
d="M93 594v-109q0 -76 73 -173h-43q-79 101 -79 228q0 124 79 227h43q-73 -98 -73 -173z" />
    <glyph glyph-name="parenright.ordn" horiz-adv-x="197" 
d="M105 485v109q0 73 -74 173h43q79 -101 79 -227q0 -129 -79 -228h-43q74 96 74 173z" />
    <glyph glyph-name="comma.ordn" horiz-adv-x="175" 
d="M116 387v-56l-32 -56h-25l31 56h-31v56h57z" />
    <glyph glyph-name="period.ordn" horiz-adv-x="175" 
d="M116 387v-56h-57v56h57z" />
    <glyph glyph-name="a.ordn" horiz-adv-x="327" 
d="M257 371h39v-40h-79l-1 49h-2q-22 -55 -83 -55q-43 0 -65 24q-21 23 -21 54q0 32 20.5 53.5t59.5 25.5l85 8v21q0 30 -14 42t-40 12q-55 0 -55 -48h-47q0 38 29.5 61t73.5 23q45 0 72.5 -22.5t27.5 -67.5v-140zM143 362q31 0 49 22t18 59v12l-94 -9q-22 -2 -22 -25v-24
q0 -35 49 -35z" />
    <glyph glyph-name="b.ordn" horiz-adv-x="346" 
d="M111 485v-44q0 -36 19 -57.5t53 -21.5q29 0 47.5 16.5t18.5 43.5v82q0 27 -18.5 43t-47.5 16q-34 0 -53 -21.5t-19 -56.5zM111 331h-47v350h47v-129q27 49 84 49q50 0 77 -38.5t27 -99.5q0 -60 -27 -99t-77 -39q-57 0 -84 48v-42z" />
    <glyph glyph-name="c.ordn" horiz-adv-x="313" 
d="M47 462q0 65 30 102t85 37q44 0 72.5 -23t31.5 -70h-47q-4 57 -60 57q-25 0 -44 -16.5t-19 -46.5v-77q0 -28 18.5 -45.5t45.5 -17.5q55 0 61 58h47q-4 -47 -34 -71t-73 -24q-57 0 -85.5 37t-28.5 100z" />
    <glyph glyph-name="d.ordn" horiz-adv-x="345" 
d="M234 441v43q0 35 -19 56.5t-53 21.5q-29 0 -47.5 -16t-18.5 -43v-81q0 -27 18.5 -43.5t47.5 -16.5q34 0 53 21.5t19 57.5zM281 331h-47v42q-27 -48 -83 -48q-50 0 -77.5 38.5t-27.5 98.5q0 61 27 100t77 39q57 0 84 -50v130h47v-350z" />
    <glyph glyph-name="e.ordn" horiz-adv-x="319" 
d="M95 502v-15h130v15q0 29 -19 46t-46 17t-46 -17t-19 -46zM46 464q0 62 30 99.5t84 37.5q53 0 83 -35.5t30 -89.5v-25h-178v-28q0 -28 19 -44.5t46 -16.5q26 0 44.5 13.5t20.5 39.5h46q-4 -41 -35.5 -65.5t-75.5 -24.5q-56 0 -85 37.5t-29 101.5z" />
    <glyph glyph-name="f.ordn" horiz-adv-x="215" 
d="M129 642v-47h54v-39h-54v-225h-47v225h-43v39h43v86h107v-39h-60z" />
    <glyph glyph-name="g.ordn" horiz-adv-x="345" 
d="M234 441v43q0 35 -19 56.5t-53 21.5q-29 0 -47.5 -16t-18.5 -43v-81q0 -27 18.5 -43.5t47.5 -16.5q34 0 53 21.5t19 57.5zM281 595v-260q0 -52 -33.5 -79.5t-80.5 -27.5q-103 0 -112 83h47q6 -45 63 -45q30 0 49.5 17.5t19.5 53.5v36q-27 -48 -83 -48q-50 0 -77.5 38.5
t-27.5 98.5q0 61 27 100t77 39q57 0 84 -50v44h47z" />
    <glyph glyph-name="h.ordn" horiz-adv-x="335" 
d="M111 681v-130q22 50 78 50q85 0 85 -94v-176h-47v171q0 61 -51 61q-29 0 -47 -21.5t-18 -56.5v-154h-47v350h47z" />
    <glyph glyph-name="i.ordn" horiz-adv-x="175" 
d="M111 331h-47v264h47v-264zM112 681v-48h-49v48h49z" />
    <glyph glyph-name="j.ordn" horiz-adv-x="175" 
d="M64 284v311h47v-350h-108v39h61zM112 681v-48h-49v48h49z" />
    <glyph glyph-name="k.ordn" horiz-adv-x="310" 
d="M224 331l-112 147l101 117h57l-105 -117l113 -147h-54zM111 681v-350h-47v350h47z" />
    <glyph glyph-name="l.ordn" horiz-adv-x="175" 
d="M111 331h-47v350h47v-350z" />
    <glyph glyph-name="m.ordn" horiz-adv-x="479" 
d="M259 548q8 24 28 38.5t49 14.5q82 0 82 -93v-177h-47v172q0 62 -48 62q-24 0 -41 -22.5t-17 -56.5v-155h-47v172q0 62 -49 62q-24 0 -41 -22.5t-17 -56.5v-155h-47v264h47v-42q21 48 72 48q60 0 76 -53z" />
    <glyph glyph-name="n.ordn" horiz-adv-x="335" 
d="M111 595v-44q22 50 78 50q85 0 85 -94v-176h-47v171q0 61 -51 61q-29 0 -47 -21.5t-18 -56.5v-154h-47v264h47z" />
    <glyph glyph-name="o.ordn" horiz-adv-x="328" 
d="M233 422v82q0 26 -20.5 42.5t-48.5 16.5t-48.5 -16.5t-20.5 -42.5v-82q0 -26 20.5 -42.5t48.5 -16.5t48.5 16.5t20.5 42.5zM282 463q0 -63 -30 -100.5t-88 -37.5t-88 37.5t-30 100.5t30 100.5t88 37.5t88 -37.5t30 -100.5z" />
    <glyph glyph-name="p.ordn" horiz-adv-x="346" 
d="M111 485v-44q0 -36 19 -57.5t53 -21.5q29 0 47.5 16.5t18.5 43.5v82q0 27 -18.5 43t-47.5 16q-34 0 -53 -21.5t-19 -56.5zM111 245h-47v350h47v-43q27 49 84 49q50 0 77 -38.5t27 -99.5q0 -60 -27 -99t-77 -39q-57 0 -84 48v-128z" />
    <glyph glyph-name="q.ordn" horiz-adv-x="345" 
d="M234 441v43q0 35 -19 56.5t-53 21.5q-29 0 -47.5 -16t-18.5 -43v-81q0 -27 18.5 -43.5t47.5 -16.5q34 0 53 21.5t19 57.5zM281 245h-47v128q-27 -48 -83 -48q-50 0 -77.5 38.5t-27.5 98.5q0 61 27 100t77 39q57 0 84 -50v44h47v-350z" />
    <glyph glyph-name="r.ordn" horiz-adv-x="221" 
d="M64 331v264h127v-39h-80v-225h-47z" />
    <glyph glyph-name="s.ordn" horiz-adv-x="301" 
d="M134 490l45 -9q77 -17 77 -77q0 -33 -29.5 -56t-74.5 -23q-46 0 -76 23.5t-31 65.5h47q1 -25 18 -38.5t42 -13.5t41 11t16 29q0 32 -46 41l-44 9q-67 13 -67 73q0 33 27 54.5t69 21.5q41 0 70 -21.5t30 -62.5h-47q-1 48 -52 48q-22 0 -36.5 -10.5t-14.5 -26.5
q0 -31 36 -38z" />
    <glyph glyph-name="t.ordn" horiz-adv-x="237" 
d="M129 556v-186h60v-39h-107v225h-43v39h43v86h47v-86h60v-39h-60z" />
    <glyph glyph-name="u.ordn" horiz-adv-x="335" 
d="M224 332v43q-23 -50 -77 -50q-39 0 -62.5 23t-23.5 72v175h47v-170q0 -62 52 -62q29 0 46.5 22t17.5 57v153h47v-263h-47z" />
    <glyph glyph-name="v.ordn" horiz-adv-x="292" 
d="M144 389h4l68 206h47l-95 -264h-44l-96 264h50z" />
    <glyph glyph-name="w.ordn" horiz-adv-x="427" 
d="M240 595l48 -203h4l53 203h48l-81 -264h-47l-51 210h-4l-48 -210h-47l-81 264h51l51 -203h4l44 203h56z" />
    <glyph glyph-name="x.ordn" horiz-adv-x="303" 
d="M34 331l91 137l-84 127h51l60 -92l59 92h51l-85 -123l93 -141h-52l-66 105l-67 -105h-51z" />
    <glyph glyph-name="y.ordn" horiz-adv-x="294" 
d="M146 392h4l69 203h47l-128 -350h-89v39h59l17 49l-97 262h50z" />
    <glyph glyph-name="z.ordn" horiz-adv-x="289" 
d="M101 371h142v-40h-199v40l137 185h-127v39h185v-39z" />
    <glyph glyph-name="eacute.ordn" horiz-adv-x="319" 
d="M132 628l44 62h55l-59 -62h-40zM95 502v-15h130v15q0 29 -19 46t-46 17t-46 -17t-19 -46zM46 464q0 62 30 99.5t84 37.5q53 0 83 -35.5t30 -89.5v-25h-178v-28q0 -28 19 -44.5t46 -16.5q26 0 44.5 13.5t20.5 39.5h46q-4 -41 -35.5 -65.5t-75.5 -24.5q-56 0 -85 37.5
t-29 101.5z" />
    <glyph glyph-name="egrave.ordn" horiz-adv-x="319" 
d="M140 690l44 -62h-40l-59 62h55zM95 502v-15h130v15q0 29 -19 46t-46 17t-46 -17t-19 -46zM46 464q0 62 30 99.5t84 37.5q53 0 83 -35.5t30 -89.5v-25h-178v-28q0 -28 19 -44.5t46 -16.5q26 0 44.5 13.5t20.5 39.5h46q-4 -41 -35.5 -65.5t-75.5 -24.5q-56 0 -85 37.5
t-29 101.5z" />
    <glyph glyph-name="orn.33" horiz-adv-x="640" 
d="M192 320v64h-64v-320h-64v448h448v-64h-320v-64h64v-64h64v-64h64v-64h64v-64h64v-64h64v-64h-64v64h-64v64h-64v64h-64v64h-64v64h-64z" />
    <glyph glyph-name="orn.34" horiz-adv-x="640" 
d="M128 512h448v-448h-64v320h-64v64h-320v64zM128 64v-64h-64v64h64zM192 128v-64h-64v64h64zM256 192v-64h-64v64h64zM320 256v-64h-64v64h64zM384 320v-64h-64v64h64zM448 384v-64h-64v64h64z" />
    <glyph glyph-name="percent.slash" horiz-adv-x="780" 
d="M150 0l426 680h54l-426 -680h-54zM307 505q0 -183 -128 -183t-128 183t128 183t128 -183zM115 393l107 243q-19 11 -43 11q-35 0 -55 -20t-20 -54v-136q0 -27 11 -44zM241 619l-107 -244q18 -12 45 -12q35 0 55 19.5t20 54.5v136q0 27 -13 46zM729 175q0 -183 -128 -183
t-128 183t128 183t128 -183zM537 63l107 243q-19 11 -43 11q-35 0 -55 -20t-20 -54v-136q0 -27 11 -44zM663 289l-107 -244q18 -12 45 -12q35 0 55 19.5t20 54.5v136q0 27 -13 46z" />
    <glyph glyph-name="perthousand.slash" horiz-adv-x="1108" 
d="M150 0l426 680h54l-426 -680h-54zM307 505q0 -183 -128 -183t-128 183t128 183t128 -183zM115 393l107 243q-19 11 -43 11q-35 0 -55 -20t-20 -54v-136q0 -27 11 -44zM241 619l-107 -244q18 -12 45 -12q35 0 55 19.5t20 54.5v136q0 27 -13 46zM729 175q0 -183 -128 -183
t-128 183t128 183t128 -183zM537 63l107 243q-19 11 -43 11q-35 0 -55 -20t-20 -54v-136q0 -27 11 -44zM663 289l-107 -244q18 -12 45 -12q35 0 55 19.5t20 54.5v136q0 27 -13 46zM1058 175q0 -183 -128 -183t-128 183t128 183t128 -183zM866 63l107 243q-19 11 -43 11
q-35 0 -55 -20t-20 -54v-136q0 -27 11 -44zM992 289l-107 -244q18 -12 45 -12q35 0 55 19.5t20 54.5v136q0 27 -13 46z" />
    </font>
</defs>
</svg>
